<?xml version="1.0" encoding="utf-8"?>
<!-- Generator: Adobe Illustrator 26.0.1, SVG Export Plug-In . SVG Version: 6.00 Build 0)  -->
<svg version="1.1" id="Layer_1" xmlns="http://www.w3.org/2000/svg" xmlns:xlink="http://www.w3.org/1999/xlink" x="0px" y="0px"
	 viewBox="0 0 1440 900" style="enable-background:new 0 0 1440 900;" xml:space="preserve">
<style type="text/css">
	.st0{fill:url(#SVGID_1_);}
	.st1{clip-path:url(#SVGID_00000049182588417824272150000012593337836533948859_);}
	.st2{fill:url(#SVGID_00000105421975882272552500000002764172006991480761_);}
	.st3{fill:url(#SVGID_00000003822901304344996390000015161089710819425184_);}
	.st4{fill:none;stroke:#1A5284;stroke-width:2;stroke-miterlimit:10;}
	.st5{fill:url(#SVGID_00000044147593369033761390000008624755355279749032_);}
	.st6{fill:url(#SVGID_00000169534515881858892820000015074417872728157090_);}
	.st7{fill:url(#SVGID_00000010308204900394422070000013350898927624026815_);}
	.st8{fill:url(#SVGID_00000121995360259844164770000007272785544345422515_);}
	.st9{fill:url(#SVGID_00000182494451741877424230000000480191654825275525_);}
	.st10{fill:url(#SVGID_00000071535646278584935070000012347785472780709529_);}
	.st11{fill:url(#SVGID_00000163033581472066019170000011814039046229846206_);}
	.st12{fill:url(#SVGID_00000167382184878843374400000004318279256798918037_);}
	.st13{fill:url(#SVGID_00000073722407262098460060000001071201027520725183_);}
	.st14{fill:url(#SVGID_00000133521465347082208440000000168495505176756138_);}
	.st15{fill:url(#SVGID_00000050633529837097396300000002188155560802896803_);}
	.st16{fill:url(#SVGID_00000048491543450612428940000010117114796190170033_);}
	.st17{fill:url(#SVGID_00000129920486056362463320000013705812139544765601_);}
	.st18{opacity:0.18;}
	.st19{fill:none;stroke:#49939B;stroke-width:1.5;stroke-linecap:round;stroke-linejoin:round;}
	.st20{fill:none;stroke:#49939B;stroke-width:1.5;stroke-linecap:round;stroke-linejoin:round;stroke-dasharray:1.0263,4.1053;}
	.st21{fill:none;stroke:#49939B;stroke-width:1.5;stroke-linecap:round;stroke-linejoin:round;stroke-dasharray:0.9891,3.9562;}
	.st22{fill:none;stroke:#49939B;stroke-width:1.5;stroke-linecap:round;stroke-linejoin:round;stroke-dasharray:0.9872,3.9487;}
	.st23{fill:url(#SVGID_00000143598101185638412110000015254414980398119334_);}
	.st24{fill:url(#SVGID_00000163765574287564762540000016960702248469395845_);}
	.st25{fill:url(#SVGID_00000094619022840779658710000009887441636945248701_);}
	.st26{fill:url(#SVGID_00000104681294435866585560000015611594757687582858_);}
	.st27{fill:url(#SVGID_00000075858334163453655580000014499586489253027218_);}
	.st28{fill:url(#SVGID_00000124122045172379803730000008396905618503903384_);}
	.st29{fill:url(#SVGID_00000118358968100055299950000010351146499311313296_);}
	.st30{fill:url(#SVGID_00000121969405520162248270000011802767342994880426_);}
	.st31{fill:url(#SVGID_00000161610729299428191520000016233138845289324167_);}
	.st32{fill:url(#SVGID_00000170260408908863037000000011189082438034074249_);}
	.st33{fill:url(#SVGID_00000099625849976361257550000013565882352383299755_);}
	.st34{fill:url(#SVGID_00000052810599659477150840000002218362666641408432_);}
	.st35{fill:url(#SVGID_00000118391752251561554690000015802346774880864179_);}
	.st36{fill:url(#SVGID_00000102518782087505477150000008093651266296236440_);}
	.st37{fill:url(#SVGID_00000027566617231335879460000016210519319126521252_);}
	.st38{fill:url(#SVGID_00000055667107799560764630000013550315397652973710_);}
	.st39{fill:url(#SVGID_00000013189960048978303750000005493483268787476903_);}
	.st40{fill:url(#SVGID_00000144307626684525387960000005215056194576047751_);}
	.st41{fill:url(#SVGID_00000156560631873370867040000010984713214110403735_);}
</style>
<g>
	<g>
		
			<linearGradient id="SVGID_1_" gradientUnits="userSpaceOnUse" x1="478.4756" y1="1423.5559" x2="2278.2329" y2="632.3419" gradientTransform="matrix(-1 0 0 1 1953.6238 -664.3937)">
			<stop  offset="0" style="stop-color:#3478C5"/>
			<stop  offset="1" style="stop-color:#032F61"/>
		</linearGradient>
		<path class="st0" d="M59.8,731.8c-138-67.1-124.4-259.3-126.2-396C-67.2,198.4-65.4,85.6,73.5,30.9c138-53.8,595.3-13.7,689.5,2.9
			s308.4-45.5,434.2,8.2c125,54.7,218.5,202.9,236,368.5c18.4,165.6-40.2,347.7-165.1,414.8c-125.8,67.1-318.1,19-485.8-4.2
			C614.6,797.9,198.8,798.8,59.8,731.8z"/>
	</g>
</g>
<g>
	<defs>
		<path id="SVGID_00000121972323360569341590000014919935995861008539_" d="M59.8,731.8c-138-67.1-124.4-259.3-126.2-396
			C-67.2,198.4-65.4,85.6,73.5,30.9c138-53.8,595.3-13.7,689.5,2.9s308.4-45.5,434.2,8.2c125,54.7,218.5,202.9,236,368.5
			c18.4,165.6-40.2,347.7-165.1,414.8c-125.8,67.1-318.1,19-485.8-4.2C614.6,797.9,198.8,798.8,59.8,731.8z"/>
	</defs>
	<clipPath id="SVGID_00000091012952657428200190000017062864210138932115_">
		<use xlink:href="#SVGID_00000121972323360569341590000014919935995861008539_"  style="overflow:visible;"/>
	</clipPath>
	<g style="clip-path:url(#SVGID_00000091012952657428200190000017062864210138932115_);">
		
			<linearGradient id="SVGID_00000057849017922021100300000003669906194246686380_" gradientUnits="userSpaceOnUse" x1="172.5959" y1="441.2235" x2="171.3967" y2="448.2471">
			<stop  offset="0" style="stop-color:#D87873"/>
			<stop  offset="1" style="stop-color:#F9988F"/>
		</linearGradient>
		<polygon style="fill:url(#SVGID_00000057849017922021100300000003669906194246686380_);" points="166,444.6 177.8,438.5 
			177.8,446.3 		"/>
		
			<linearGradient id="SVGID_00000069395002707827113570000003307940312084256957_" gradientUnits="userSpaceOnUse" x1="228.6993" y1="787.3926" x2="227.8208" y2="868.2084">
			<stop  offset="0" style="stop-color:#1870B2;stop-opacity:0.3"/>
			<stop  offset="1" style="stop-color:#18689E"/>
		</linearGradient>
		
			<ellipse style="fill:url(#SVGID_00000069395002707827113570000003307940312084256957_);" cx="228.3" cy="828.3" rx="292.5" ry="37.8"/>
		<path class="st4" d="M172.9,486.1c-9.1,15.6-19.9,38.7-24.4,68.1c-2.4,15.7-2.9,28.2-2.1,37.8c2.6,31.7,15.7,48.4,10.1,73.6
			C142,729.9-36.1,746.9-44.7,815.4c-1.4,11.1,1.2,29.4,27.8,55.1"/>
		<g>
			
				<linearGradient id="SVGID_00000120546863141477596400000011294571542559208330_" gradientUnits="userSpaceOnUse" x1="180.5833" y1="597.3687" x2="175.2851" y2="831.8129">
				<stop  offset="0" style="stop-color:#052A4C"/>
				<stop  offset="1" style="stop-color:#061C2D"/>
			</linearGradient>
			
				<rect x="171.6" y="561.9" style="fill:url(#SVGID_00000120546863141477596400000011294571542559208330_);" width="13.5" height="272.3"/>
			
				<linearGradient id="SVGID_00000003809744236999296670000000593359587040839604_" gradientUnits="userSpaceOnUse" x1="483.7657" y1="607.146" x2="478.4675" y2="841.5902">
				<stop  offset="0" style="stop-color:#052A4C"/>
				<stop  offset="1" style="stop-color:#061C2D"/>
			</linearGradient>
			
				<rect x="475" y="561.9" style="fill:url(#SVGID_00000003809744236999296670000000593359587040839604_);" width="13.5" height="272.3"/>
			
				<linearGradient id="SVGID_00000140733444693664481170000014300676260423145367_" gradientUnits="userSpaceOnUse" x1="333.2208" y1="535.4717" x2="333.2208" y2="569.8223">
				<stop  offset="0" style="stop-color:#E5B313"/>
				<stop  offset="1" style="stop-color:#AF8612"/>
			</linearGradient>
			<path style="fill:url(#SVGID_00000140733444693664481170000014300676260423145367_);" d="M490.5,569.3H175.9
				c-5.1,0-9.2-4.1-9.2-9.2v-14.7c0-5.1,4.1-9.2,9.2-9.2h314.6c5.1,0,9.2,4.1,9.2,9.2v14.7C499.7,565.2,495.6,569.3,490.5,569.3z"/>
		</g>
		
			<linearGradient id="SVGID_00000177452345026394173010000004873772812147427000_" gradientUnits="userSpaceOnUse" x1="149.9364" y1="417.0324" x2="222.4597" y2="417.0324">
			<stop  offset="0" style="stop-color:#052A4C"/>
			<stop  offset="1" style="stop-color:#061C2D"/>
		</linearGradient>
		<path style="fill:url(#SVGID_00000177452345026394173010000004873772812147427000_);" d="M222.5,413.5V425
			c-13.1,0-27.1,5.3-44.2,5.3c-26.3,0.3-28.4-8.1-28.4-8.1v-8.6v7v-8.6c0,0,2-8.4,28.4-8.1c17.1,0,31.1,5.3,44.2,5.3v11.4"/>
		
			<linearGradient id="SVGID_00000038394777442675963890000014770155314024834196_" gradientUnits="userSpaceOnUse" x1="163.9905" y1="457.717" x2="185.3868" y2="457.717">
			<stop  offset="0" style="stop-color:#052A4C"/>
			<stop  offset="1" style="stop-color:#061C2D"/>
		</linearGradient>
		<path style="fill:url(#SVGID_00000038394777442675963890000014770155314024834196_);" d="M180.8,467.1c2.3-11.3,4.2-37.1,4.2-37.1
			c4.1-7.4-20.9-4.2-20.9-4.2v3.5c0,0,9.9,1.3,9.7,10.7l0.1,1c1.1,4.2-3.3,30.3-3.3,30.3s0.7,9.9-0.6,17.6c-0.2,1.4,1.6,2.1,2.3,0.9
			C176.1,484.1,181,475.2,180.8,467.1z"/>
		
			<linearGradient id="SVGID_00000065766519767902109310000012276027737588032698_" gradientUnits="userSpaceOnUse" x1="97.6131" y1="316.3996" x2="72.8208" y2="387.8016">
			<stop  offset="0" style="stop-color:#E5B313"/>
			<stop  offset="1" style="stop-color:#AF8612"/>
		</linearGradient>
		<path style="fill:url(#SVGID_00000065766519767902109310000012276027737588032698_);" d="M110.4,320.9
			c0.8,14.9-10.3,17.4-10.1,33.4c0.2,11.8,6.3,14.3,4.1,24.1c-1.5,6.7-6.7,15.7-16,18.1c-8.4,2.2-17.5-2.4-22.7-9.4
			c-5.2-7-6.9-16-7.2-24.6c-0.4-15.4,3.7-30.9,11.8-44c1.9-3.2,5.9-5.7,7.8-11.3c2.3-6.9,0.1-11.3,3-13.7c3.4-2.8,10.6,0.1,14.3,2.2
			C103.3,300.3,109.8,310,110.4,320.9z"/>
		
			<linearGradient id="SVGID_00000035515200668958139720000013740341301319367313_" gradientUnits="userSpaceOnUse" x1="125.17" y1="502.4235" x2="95.8651" y2="506.3836">
			<stop  offset="0" style="stop-color:#F9988F"/>
			<stop  offset="1" style="stop-color:#D87873"/>
		</linearGradient>
		<path style="fill:url(#SVGID_00000035515200668958139720000013740341301319367313_);" d="M119.4,625.7c-1.3,3.2-4.1,1.1-6,0.9
			c-1.9-0.2-1.5-2.6,1.1-8.4c2.6-5.8,0.2-24.6-2.8-24.6c-3,0-2.6,16.4-6.9,12.7c-4.3-3.7,4.6-28.5,4.6-28.5s-4.2-31.1-7.6-55.5
			c-2.1-15-3.9-27.4-4.2-28.5c-0.2-0.7-0.9-4.9-1.9-11.2c-0.9-5.6-2.1-12.9-3.3-20.7c-3.6-22.4-8-49.8-9.9-59
			c-3.4-16.1,21.7-21.6,21.7-21.6c8.7,3.8,12.4,3.9,14.6,11.9c3.9,14.5,3,64.5,3,68c0.1,2.3,0.1,9,0.1,18.1
			c0,32.9-0.5,96.9-0.5,96.9s2.4,24,2.6,31.9C124,616.2,120.7,622.5,119.4,625.7z"/>
		
			<linearGradient id="SVGID_00000038405700210661164740000015579055670987412365_" gradientUnits="userSpaceOnUse" x1="4.8199" y1="676.8275" x2="133.8965" y2="676.8275">
			<stop  offset="0" style="stop-color:#052A4C"/>
			<stop  offset="1" style="stop-color:#061C2D"/>
		</linearGradient>
		<path style="fill:url(#SVGID_00000038405700210661164740000015579055670987412365_);" d="M124.9,830
			c-11.6-3.1-33.8-15.7-33.8-15.7s40.1-127,39.4-134c-0.7-7-15.2-134.2-28.4-155.4c-9-14.4-86.5-14-86.5-14s-12.1,7.8-10.8,32.9
			c1.3,25.1,5.9,130.4,5.9,134.6c0,4.2,1.2,132.1,0,136.3c0,0,1.1,4.4,16.7-1.2c0,0,22.7-126.7,23.3-134.5
			c0.6-7.8,6.6-86.7,6.6-86.7L91.5,682L73.6,811.7c0,0-2,4.8-4,10.4c-1.1,3-2.1,6.3-2.9,9.2c0.1,0,0.3,0.1,0.4,0.1
			c4.8,1.2,4.8,9,4.8,9.6c0,0-0.3,0.1-0.9,0.1c2.4,0.3,5.7,0.5,9.4,0.7c19,1,50.7,1.2,52.1,0.4C134.3,841.1,136.5,833.1,124.9,830z"
			/>
		
			<linearGradient id="SVGID_00000078727607031605480320000016757418113197018038_" gradientUnits="userSpaceOnUse" x1="56.6968" y1="811.978" x2="22.1088" y2="847.6818">
			<stop  offset="0" style="stop-color:#7F1712"/>
			<stop  offset="1" style="stop-color:#5B0909"/>
		</linearGradient>
		<path style="fill:url(#SVGID_00000078727607031605480320000016757418113197018038_);" d="M71.8,841c0,0-0.3,0.1-0.9,0.1
			c-3.8,0.3-18.5,0.9-33.2,1h0C23,842.3,8.4,842.1,4.8,841c-7.8-2.4,4.8-22.1,6-26.3c0,0,1.1,4.4,16.7-1.2c0,0,16.5,8,28.3,13.3
			c4.9,2.2,9,4,10.8,4.5c0.1,0,0.3,0.1,0.4,0.1C71.8,832.6,71.8,840.4,71.8,841z"/>
		
			<linearGradient id="SVGID_00000112604861667061487400000000359482136697396874_" gradientUnits="userSpaceOnUse" x1="114.4235" y1="810.3552" x2="83.1827" y2="856.1006">
			<stop  offset="0" style="stop-color:#7F1712"/>
			<stop  offset="1" style="stop-color:#5B0909"/>
		</linearGradient>
		<path style="fill:url(#SVGID_00000112604861667061487400000000359482136697396874_);" d="M132.4,842.2c-1.4,0.8-33,0.6-52.1-0.4
			c-3.7-0.2-7-0.4-9.4-0.7c0.6-0.1,0.9-0.1,0.9-0.1c0-0.6,0-8.4-4.8-9.6c-0.1,0-0.2-0.1-0.4-0.1c0.8-2.9,1.8-6.2,2.9-9.2
			c2-5.7,4-10.4,4-10.4s3.4,6.6,17.5,2.6c0,0,22.2,12.5,33.8,15.7C136.5,833.1,134.3,841.1,132.4,842.2z"/>
		
			<linearGradient id="SVGID_00000175285089542383648800000009077057845690518688_" gradientUnits="userSpaceOnUse" x1="99.6992" y1="395.9091" x2="29.7256" y2="482.3933">
			<stop  offset="0" style="stop-color:#26DBB8"/>
			<stop  offset="1" style="stop-color:#4FB2A1"/>
		</linearGradient>
		<path style="fill:url(#SVGID_00000175285089542383648800000009077057845690518688_);" d="M104.1,381.3
			C104.1,381.3,104.1,377.3,104.1,381.3c-0.1,3.1-7.8,13.1-7.5,25.2c0.4,16.2,7,18.9,6.9,23.8c-0.6,35.9-1.1,77.1-1.3,94.6
			c0,0-13.9,1.7-43.6,0c-29.7-1.7-42.8-14-42.8-14c4.1-11.2-1.4-78.3-1.4-79c-8.3-24.2-15.7-34.3-13.4-44c1.1-4.8,5.4-8.6,11.1-11.4
			c0,0,0,0,0,0c18.2-9,51.6-9.3,51.6-9.3s0.5,0.1,1.3,0.3c0.1,0,0.2,0.1,0.3,0.1c0.3,0.1,0.7,0.2,1.1,0.3c0.1,0,0.2,0.1,0.4,0.1
			c0.2,0,0.3,0.1,0.5,0.1c0.1,0,0.3,0.1,0.5,0.1c0.3,0.1,0.6,0.2,0.9,0.2c0.1,0,0.2,0.1,0.4,0.1c0.1,0,0.3,0.1,0.4,0.1
			c0.3,0.1,0.5,0.2,0.8,0.2c0.1,0,0.1,0,0.2,0.1c0.8,0.2,1.6,0.5,2.5,0.7c0.2,0.1,0.4,0.1,0.7,0.2c0.4,0.1,0.9,0.3,1.4,0.4
			c0,0,0,0,0.1,0c1,0.3,2.1,0.7,3.3,1c0.2,0.1,0.4,0.1,0.6,0.2c0.6,0.2,1.2,0.4,1.7,0.6c0.6,0.2,1.2,0.4,1.8,0.6
			c0.2,0.1,0.4,0.1,0.6,0.2c0.8,0.3,1.6,0.5,2.4,0.8c0.8,0.3,1.7,0.6,2.5,0.9c0.8,0.3,1.7,0.6,2.5,0.9c3.4,1.3,6.8,2.6,10,4
			c0.4,0.2,0.7,0.3,1,0.5c0.2,0.1,0.4,0.2,0.6,0.3c0.2,0.1,0.4,0.2,0.6,0.3C103.1,380.8,103.6,381,104.1,381.3z"/>
		
			<linearGradient id="SVGID_00000147178285053734003000000001360193223486871686_" gradientUnits="userSpaceOnUse" x1="62.8261" y1="351.0111" x2="52.1191" y2="397.6181">
			<stop  offset="0" style="stop-color:#D87873"/>
			<stop  offset="1" style="stop-color:#F9988F"/>
		</linearGradient>
		<path style="fill:url(#SVGID_00000147178285053734003000000001360193223486871686_);" d="M76.7,357.4c-0.3,2.6-0.7,5.2-1,7.7
			c0,0.3-0.1,0.6-0.1,0.9c-0.6,4-1.2,8.1-1.9,12.1c-0.6,4-1.3,8.2-3.1,11.8c-1.9,3.6-5.2,6.8-9.3,7.3c-5.6,0.8-10.9-3.7-13-8.9
			c-2.1-5.3-1.8-11.1-1.4-16.8c0.3-3.9-0.1-10.2-0.1-16.6c0-4.9,0.2-9.8,1.1-14.1c0.7-3.5,1.9-6.5,3.8-8.5
			c10.4-10.5,23.4,4.2,24.9,14.4C77.1,350.3,77,353.9,76.7,357.4z"/>
		
			<linearGradient id="SVGID_00000170261729428343769680000012363922748354030253_" gradientUnits="userSpaceOnUse" x1="82.4624" y1="451.6682" x2="69.0967" y2="484.6894">
			<stop  offset="0" style="stop-color:#F9988F"/>
			<stop  offset="1" style="stop-color:#D87873"/>
		</linearGradient>
		<path style="fill:url(#SVGID_00000170261729428343769680000012363922748354030253_);" d="M185.4,458c0,2.1-1.7,4.4-7.1,4.8
			c1.1-0.1,6.2-0.3,6.2,1.6c0.1,1.7-0.8,1.9-2.3,2.2c-2.2,0.5-4.4,1.1-6.6,2c-6.6,2.7-22.2,6.8-22.2,6.8s-27.4,3.4-54,6.7
			c-23.3,2.9-45.9,5.8-48.9,6.3c-3.4,0.6-17.8-20.9-30.3-44.6v0c-1.4-2.7-2.8-5.4-4.2-8.1C6.4,416-1.1,396.4,0.9,387.9
			c1.1-4.8,5.4-8.6,11.1-11.4c0,0,0,0,0,0c0.7-0.2,13.7-4,20.4,8.6c3.8,7.1,31.3,77.1,31.3,77.1s50.2-0.4,57.8-0.9l20.2-1.4l9.4-2.2
			c3.3-0.8,6-3,7.5-6l0,0c1.8-3.6,4.9-6.4,8.8-7.6c5.2-1.7,12-1.2,13.9-0.9c3.2,0.4,4.4,1.5,4,3.3c-0.4,1.8-6.8,1.7-9.6,2.7
			c0,0,9.6-1.3,10,2.1c0.4,3.1-2.9,4.2-6.4,4.4c-0.5,0-0.9,0-0.9,0c0.3,0,0.6,0,0.9,0C181.6,455.6,185.4,456.8,185.4,458z"/>
		<path class="st18" d="M76.7,357.4c-0.3,2.6-0.7,5.2-1,7.7c0,0.3-0.1,0.6-0.1,0.9c-1.2,0-2.4-0.2-3.5-0.4c-9-1.8-18.1-5-25.2-10.7
			c0-4.9,0.2-9.8,1.1-14.1c3.8,2.9,7.7,6.1,11.8,8.4c5.1,2.9,10.9,4.6,16,7.6C76,357,76.3,357.2,76.7,357.4z"/>
		<g>
			<g>
				<line class="st19" x1="228.3" y1="409.1" x2="228.8" y2="409.1"/>
				<line class="st20" x1="232.9" y1="408.8" x2="266.7" y2="406.8"/>
				<line class="st19" x1="268.7" y1="406.6" x2="269.2" y2="406.6"/>
			</g>
		</g>
		<g>
			<g>
				<line class="st19" x1="228.3" y1="423.9" x2="228.8" y2="423.9"/>
				<line class="st21" x1="232.7" y1="424.1" x2="285" y2="427.3"/>
				<line class="st19" x1="287" y1="427.5" x2="287.5" y2="427.5"/>
			</g>
		</g>
		<g>
			<g>
				<line class="st19" x1="228.3" y1="416.5" x2="228.8" y2="416.5"/>
				<line class="st22" x1="232.7" y1="416.5" x2="285" y2="416.5"/>
				<line class="st19" x1="287" y1="416.5" x2="287.5" y2="416.5"/>
			</g>
		</g>
		
			<linearGradient id="SVGID_00000150813912334558451020000002969621074060863378_" gradientUnits="userSpaceOnUse" x1="90.3057" y1="309.505" x2="44.8971" y2="332.2094">
			<stop  offset="0" style="stop-color:#F9A19D"/>
			<stop  offset="1" style="stop-color:#D87873"/>
		</linearGradient>
		<path style="fill:url(#SVGID_00000150813912334558451020000002969621074060863378_);" d="M60.1,355.3c8.6,6.5,22.1,7.8,29.5,0
			c4.9-5.2,5.9-12.9,6.7-20.1c1.1-10.2,2.2-20.6,0.2-30.7c-2-10.1-7.6-20-16.8-24.6c-12.1-6.1-28.1-0.9-35.9,10.2
			C30.3,309.6,42.5,342.1,60.1,355.3z"/>
		
			<linearGradient id="SVGID_00000003820922610807055630000016274840352347726764_" gradientUnits="userSpaceOnUse" x1="70.4802" y1="284.6148" x2="3.045" y2="390.065">
			<stop  offset="0" style="stop-color:#E5B313"/>
			<stop  offset="1" style="stop-color:#AF8612"/>
		</linearGradient>
		<path style="fill:url(#SVGID_00000003820922610807055630000016274840352347726764_);" d="M42.1,323.6c0.2-0.4,1.4-2.3,3.4-2.7
			c2.3-0.5,5.1,1.3,6.9,4.5c0.4-5.5,2.7-10.8,6.2-15.1c3.2-3.9,6.9-4.2,13.6-9.1c4.1-3,7.1-5.9,8.9-7.8c4.7,2.1,9.4,4.2,14.2,6.3
			c0.2-2.7,0.9-12.9-6-19.8c-4.3-4.4-9.5-5.2-19-6.8c-9.6-1.6-15.9-1.7-24.2,0.3c-7.9,1.9-15.5,7-18.1,14.7
			c-3.3,9.5,1.5,21.3-4.4,29.5c-3.9,5.5-11.2,7.1-17.5,9.3c-6.4,2.2-13.3,6.5-13.7,13.2c-0.5,8.3,9.4,14.6,8.8,22.9
			c-0.5,7.1-8,11.2-12.6,16.6c-5.7,6.6-7.1,16.6-3.5,24.6c3.8,8.3,13.4,12.7,20.8,13.5c20.1,2.2,41.7-19.6,46.2-41.3
			c1.1-5.3,3.6-19.7-3.2-33.2C45.5,336.6,39.3,328.7,42.1,323.6z"/>
		<path class="st18" d="M99.5,482.1c-23.3,2.9-45.9,5.8-48.9,6.3c-3.4,0.6-17.8-20.9-30.3-44.6v0c-1.4-2.7-2.8-5.4-4.2-8.1
			c3.9,3.7,7.7,9.4,9.2,11.7c5.2,7.9,9.7,16.7,17.5,22.1c12.8,8.9,30,5.9,45.5,8.2C92.2,478.3,96.5,479.7,99.5,482.1z"/>
		<g>
			
				<linearGradient id="SVGID_00000173137626086167597670000013041741549200068009_" gradientUnits="userSpaceOnUse" x1="450.8393" y1="542.9124" x2="450.8393" y2="554.8497">
				<stop  offset="0" style="stop-color:#1A5284"/>
				<stop  offset="1" style="stop-color:#1C74B5"/>
			</linearGradient>
			<path style="fill:url(#SVGID_00000173137626086167597670000013041741549200068009_);" d="M461.5,559.8c-2.6,0.5-6.5,0.8-11.1,0.2
				c-4.4-0.6-7.9-1.9-10.2-3.1c1.1-6.4,7.3-10.5,13.1-9.2C458.4,548.9,462.1,554.1,461.5,559.8z"/>
			
				<linearGradient id="SVGID_00000065769826083682890140000008971850607884878247_" gradientUnits="userSpaceOnUse" x1="424.8375" y1="542.9124" x2="424.8375" y2="554.8497">
				<stop  offset="0" style="stop-color:#1A5284"/>
				<stop  offset="1" style="stop-color:#1C74B5"/>
			</linearGradient>
			<path style="fill:url(#SVGID_00000065769826083682890140000008971850607884878247_);" d="M434.7,553.4c-2.5,0.4-6.1,0.8-10.3,0.2
				c-4.1-0.6-7.3-1.8-9.5-2.8c1-6,6.8-9.7,12.2-8.5C431.8,543.4,435.3,548.1,434.7,553.4z"/>
			
				<linearGradient id="SVGID_00000047032153295313976220000006964184416118822528_" gradientUnits="userSpaceOnUse" x1="326.0629" y1="542.9124" x2="326.0629" y2="554.8497">
				<stop  offset="0" style="stop-color:#1A5284"/>
				<stop  offset="1" style="stop-color:#1C74B5"/>
			</linearGradient>
			<path style="fill:url(#SVGID_00000047032153295313976220000006964184416118822528_);" d="M336.7,553.9c-2.6,0.5-6.5,0.8-11.1,0.2
				c-4.4-0.6-7.9-1.9-10.2-3.1c1.1-6.4,7.3-10.5,13.1-9.2C333.6,543,337.3,548.2,336.7,553.9z"/>
			
				<linearGradient id="SVGID_00000161601126708164545810000014473593238009406096_" gradientUnits="userSpaceOnUse" x1="309.4717" y1="542.9124" x2="309.4717" y2="554.8497">
				<stop  offset="0" style="stop-color:#1A5284"/>
				<stop  offset="1" style="stop-color:#1C74B5"/>
			</linearGradient>
			<path style="fill:url(#SVGID_00000161601126708164545810000014473593238009406096_);" d="M319.5,547.5c-2.5,0.4-6.1,0.8-10.4,0.2
				c-4.1-0.6-7.4-1.8-9.6-2.9c1-6,6.9-9.8,12.3-8.6C316.5,537.3,320,542.1,319.5,547.5z"/>
			
				<linearGradient id="SVGID_00000057826653492556663350000000737778221844797089_" gradientUnits="userSpaceOnUse" x1="423.3775" y1="503.6677" x2="411.0786" y2="476.1758">
				<stop  offset="0" style="stop-color:#1C74B5"/>
				<stop  offset="1" style="stop-color:#1A5284"/>
			</linearGradient>
			<path style="fill:url(#SVGID_00000057826653492556663350000000737778221844797089_);" d="M396.8,466.8c0,4.7,8.6,19.7,15.7,24.1
				c5.7,7,6.6,9.7,6.9,23.5l10.7-2.7c0,0-2.9-3.5-3.8-8.6s-0.1-11.1,0.4-15c0.5-4-11.8-21.8-11.8-21.8l-18.1-4.1V466.8z"/>
			
				<linearGradient id="SVGID_00000075164150198582221290000012009545528223161478_" gradientUnits="userSpaceOnUse" x1="328.8935" y1="478.4991" x2="327.4466" y2="502.0118">
				<stop  offset="0" style="stop-color:#1A5284"/>
				<stop  offset="1" style="stop-color:#1C74B5"/>
			</linearGradient>
			<path style="fill:url(#SVGID_00000075164150198582221290000012009545528223161478_);" d="M337.8,473.5c-0.6,0.1-3.3,0.7-6-1
				c-2.1-1.3-3-3.2-3.3-3.9c-0.1,0.3-0.9,2.9-3.5,3.9c-2,0.8-3.8,0.2-4.3,0c1.5,4.6,2.9,10,3.9,16.1c1.7,10.7,1.4,20,0.6,27.2
				c3.1-0.1,6.2-0.3,9.3-0.4c-1-5.1-1.8-11.9-1.4-19.8C333.7,486.4,335.8,478.8,337.8,473.5z"/>
			
				<linearGradient id="SVGID_00000021834952291196251550000000673027611327348609_" gradientUnits="userSpaceOnUse" x1="315.7211" y1="477.6884" x2="314.2742" y2="501.2012">
				<stop  offset="0" style="stop-color:#1A5284"/>
				<stop  offset="1" style="stop-color:#1C74B5"/>
			</linearGradient>
			<path style="fill:url(#SVGID_00000021834952291196251550000000673027611327348609_);" d="M323.8,475.9c-0.6,0-3.2,0.2-5.5-1.6
				c-1.8-1.5-2.4-3.3-2.6-4c-0.1,0.3-1.2,2.5-3.7,3.2c-2,0.5-3.6-0.3-4-0.5c0.8,4.5,1.5,9.6,1.6,15.4c0.2,10.1-1.2,18.7-2.8,25.3
				c2.9,0.3,5.8,0.5,8.7,0.8c-0.3-4.8-0.3-11.2,1.2-18.5C318.4,487.3,321.3,480.6,323.8,475.9z"/>
			
				<linearGradient id="SVGID_00000023979880101310286700000000609530261494477708_" gradientUnits="userSpaceOnUse" x1="253.6864" y1="388.3766" x2="316.7703" y2="388.3766">
				<stop  offset="0" style="stop-color:#1C74B5"/>
				<stop  offset="1" style="stop-color:#1A5284"/>
			</linearGradient>
			<path style="fill:url(#SVGID_00000023979880101310286700000000609530261494477708_);" d="M315,392.9c0,0-9.5,13.6-22.7,12.5
				c-13.2-1.1-25-9.8-32.5-10.6c-2.7-0.3-4.9-1.6-6.3-3.1c-2.4-2.8-2.2-6.3,2.1-6.3c1.1,0,2.2,0,3.3,0c30-0.6,29.7-10.2,29.7-10.2
				l16.7-3.8L315,392.9z"/>
			
				<linearGradient id="SVGID_00000179607264414882525990000013653446981050089389_" gradientUnits="userSpaceOnUse" x1="432.601" y1="530.6346" x2="469.3488" y2="530.6346">
				<stop  offset="0" style="stop-color:#B0D4EA"/>
				<stop  offset="1" style="stop-color:#70B5E8"/>
			</linearGradient>
			<path style="fill:url(#SVGID_00000179607264414882525990000013653446981050089389_);" d="M455.9,552.5c3.9,0.8,9.6-0.5,12.2-5.2
				c2.4-4.4,1.2-10.4-3.1-14c0.1-2.8-0.2-8.3-3.5-14c-1.8-3.1-6.4-10.9-14.4-10.9c-6.5,0-13.2,5.3-14.4,12.6
				c-0.9,5.8,1.8,11.9,7,15.3c1.5,2.2,3.8,5.3,7,8.7C450.9,549.6,453,551.9,455.9,552.5z"/>
			
				<linearGradient id="SVGID_00000088850994217010085750000002874615272641390992_" gradientUnits="userSpaceOnUse" x1="315.3443" y1="527.315" x2="344.3693" y2="527.315">
				<stop  offset="0" style="stop-color:#B0D4EA"/>
				<stop  offset="1" style="stop-color:#70B5E8"/>
			</linearGradient>
			<path style="fill:url(#SVGID_00000088850994217010085750000002874615272641390992_);" d="M330.7,506.7c-0.4-0.5-3.9-4.2-7.4-3.5
				c-3.9,0.8-7.3,7-5.2,14.8c-0.6,1-4.5,7.9-1.7,16.1c2.5,7.6,8.9,10.8,10,11.3c4.5,5.1,10.5,7.1,14,5.2c4.2-2.3,6.3-11.3,0.4-19.6
				c4.4-5.9,4.7-13.6,0.9-18.8C337.9,507.4,331.8,506.8,330.7,506.7z"/>
			
				<linearGradient id="SVGID_00000084529440396618211990000005864409875957688705_" gradientUnits="userSpaceOnUse" x1="298.0916" y1="526.2736" x2="329.5973" y2="526.2736">
				<stop  offset="0" style="stop-color:#B0D4EA"/>
				<stop  offset="1" style="stop-color:#70B5E8"/>
			</linearGradient>
			<path style="fill:url(#SVGID_00000084529440396618211990000005864409875957688705_);" d="M326.8,528.6c3.8-6.9,3-15.1-1.7-20.1
				c-4.6-4.8-11-4.8-12.2-4.8c-4.2-3.7-6.6-3.3-7.4-3.1c-4.4,1.2-6.9,10-5.2,22.2c-0.6,1.2-3.4,6.8-1.3,13.1
				c2.2,6.5,8.8,11.1,16.6,11.3c1.8,1.6,7.4,6,10.9,4.4C330.2,549.8,330.9,540.5,326.8,528.6z"/>
			
				<linearGradient id="SVGID_00000044876402649002535070000008350214067283820432_" gradientUnits="userSpaceOnUse" x1="412.5243" y1="527.1982" x2="444.9968" y2="527.1982">
				<stop  offset="0" style="stop-color:#B0D4EA"/>
				<stop  offset="1" style="stop-color:#70B5E8"/>
			</linearGradient>
			<path style="fill:url(#SVGID_00000044876402649002535070000008350214067283820432_);" d="M433.7,510.2c-3.6-4.8-5.9-6.6-8.7-7
				c-4.2-0.6-9.9,1.7-11.8,7c-1.6,4.3-0.2,9.2,3.5,12.2c-0.3,0.4-5.1,5.5-3.5,12.2c1.3,5.3,6,9.4,11.8,10c0.5,1,3.8,6.4,8.3,6.5
				c5.3,0.2,11.7-6.9,11.8-17.9C441.7,522.3,437,514.8,433.7,510.2z"/>
			
				<linearGradient id="SVGID_00000030459849297130361030000000202648826691346837_" gradientUnits="userSpaceOnUse" x1="412.7852" y1="440.9977" x2="442.0858" y2="514.4299">
				<stop  offset="0" style="stop-color:#1C74B5"/>
				<stop  offset="1" style="stop-color:#1A5284"/>
			</linearGradient>
			<path style="fill:url(#SVGID_00000030459849297130361030000000202648826691346837_);" d="M451.2,436.4l5.3-12.5l-9.3,1.2
				l-2.2,4.2c0,0-0.4,6.9-14,10.9c0,0-3.8-6.1-16.1-3.8c-12.3,2.3-36.4,3.5-40.1,2.5c-3.8-1,0,33.4,0,33.4s21.7-9.5,31.6-3.6
				c3.5,3.6,18.3,21,26.3,22.2c4.7,6.1,10.3,15.2,10.5,26.4s10.4,7,10.4,7l-2.7-15.1c0,0-3.1-22.9-5.8-24.6c-2.7-1.7-6.5-2.7-6.2-10
				s0.1-26.5-4-28.2C434.8,446.2,447.1,436.4,451.2,436.4z"/>
			
				<linearGradient id="SVGID_00000150806056770760013470000015473492512976165777_" gradientUnits="userSpaceOnUse" x1="344.2018" y1="399.6051" x2="294.2326" y2="435.5204">
				<stop  offset="0" style="stop-color:#B0D4EA"/>
				<stop  offset="1" style="stop-color:#70B5E8"/>
			</linearGradient>
			<path style="fill:url(#SVGID_00000150806056770760013470000015473492512976165777_);" d="M378.5,471.2c0.5-0.2,7-3.2,6.4-7.2
				c-0.3-2.4-3-3.8-3.8-4.2c3.2-1.7,5-5,4.5-8.3c-0.5-3.9-3.8-5.8-4.2-6.1c3-4.6,2.2-10.2-1.1-12.9c-3.4-2.7-7.9-1.3-8.3-1.1
				c0-0.9-0.4-9.8-7.9-14.8c-5.2-3.4-10.6-2.9-12.1-2.6c2.6-5.3,1.9-11.2-1.5-14.8c-2.7-2.8-6.3-3.3-7.6-3.4c0-0.7-0.4-6-4.9-9.1
				c-2.6-1.8-5.3-1.9-6.4-1.9c1-5.6-0.7-10.9-4.5-13.6c-1.9-1.3-3.8-1.8-5.3-1.9c3.3-4,3.9-9.5,1.5-13.6c-2.9-5-9.6-7.2-15.5-4.5
				c-0.4-1.4-2-6.8-6.8-9.1c-6.1-2.9-15.3,0.2-20.4,8.7c-2.4,1.1-7,3.8-7.9,8.3c-1,4.9,3.6,9.4,11.7,17.4
				c5.7,5.6,10.9,9.7,14.6,12.4c-2,2.9-4,5.8-5.9,8.8c0,3.5-0.1,9.1-1.1,15.9c-1.9,12.2-4.9,16.2-4.5,23.5c0.2,4.8,2,11.9,9.8,20.4
				c-0.5,8.8,4.1,17.1,11.7,21.2c7.1,3.8,15.9,3.3,22.7-1.1c0.9,1.1,5.7,6.6,13.2,6.8c8,0.2,15.8-5.7,18.5-14.8
				C364.9,470.5,371.9,474.2,378.5,471.2z"/>
			
				<linearGradient id="SVGID_00000163777797055655439570000013655212607871503772_" gradientUnits="userSpaceOnUse" x1="296.5326" y1="425.7811" x2="332.448" y2="401.317">
				<stop  offset="0" style="stop-color:#B0D4EA"/>
				<stop  offset="1" style="stop-color:#C5DFEF"/>
			</linearGradient>
			<path style="fill:url(#SVGID_00000163777797055655439570000013655212607871503772_);" d="M327.5,390.1c1.7-2.5,1.8-5.6,0.3-7.9
				c-1.8-2.8-5.7-4-9.1-2.4c-0.1-0.2-1.2-4.6-5.4-5.9c-3.1-1-6.7,0.1-8.8,2.8c-3.3-0.9-6.9,0-9.2,2.4c-2.7,2.9-3.2,7.3-1.2,11
				c-1.4,4.4-2.6,9.7-3.3,15.6c-1.5,13.6,0.6,25,2.7,32.6c-2.7,5.5-1,12.1,3.7,15.5c4.1,3,9.8,3,14.1,0c1.9,2.6,4.8,4,7.7,3.7
				c4-0.5,7.4-4.5,7.3-9.5c3.8-1.8,6.1-5.6,5.9-9.6c-0.2-4.6-3.8-7.2-4.3-7.6c1.9-3.3,6.2-12,5.2-23.4
				C332.4,399.4,329.4,393.3,327.5,390.1z"/>
			
				<linearGradient id="SVGID_00000080180452223619112270000011403715275619507357_" gradientUnits="userSpaceOnUse" x1="467.2691" y1="394.4601" x2="466.2281" y2="438.1832">
				<stop  offset="0" style="stop-color:#B0D4EA"/>
				<stop  offset="1" style="stop-color:#70B5E8"/>
			</linearGradient>
			<path style="fill:url(#SVGID_00000080180452223619112270000011403715275619507357_);" d="M451.2,436.4c4,2.8,9.2,3.1,13.2,0.8
				c4.7-2.8,5.6-8,5.7-8.7c6.7,1.3,12.6-2.1,14-6.8c1.2-4.2-1.4-8.1-1.9-8.7c0.8-0.3,3.8-1.4,5.7-4.5c2.4-4,1-8.1,0.8-8.7
				c0.2-0.5,3.9-7.6,1.1-11.4c-2.8-3.7-11.7-4.1-20.1,2.6c-4.9-0.7-9.7,1.2-12.5,4.9c-3.3,4.4-2.4,9.4-2.3,10.2
				c-1,0.3-8.4,2.9-11,10.2C441.5,423.3,444.4,431.6,451.2,436.4z"/>
			
				<linearGradient id="SVGID_00000013188510879821259940000010998014075409600658_" gradientUnits="userSpaceOnUse" x1="251.8777" y1="388.4588" x2="258.8132" y2="388.4588">
				<stop  offset="0" style="stop-color:#052A4C"/>
				<stop  offset="1" style="stop-color:#061C2D"/>
			</linearGradient>
			<path style="fill:url(#SVGID_00000013188510879821259940000010998014075409600658_);" d="M258.8,385.3c-0.5,1.5-1.5,2.9-2.6,4.1
				c-0.8,0.9-1.8,1.6-2.8,2.3c-2.4-2.8-2.2-6.3,2.1-6.3C256.7,385.3,257.8,385.3,258.8,385.3z"/>
		</g>
	</g>
</g>
<g>
</g>
</svg>
