<?xml version="1.0" encoding="utf-8"?>
<!-- Generator: Adobe Illustrator 26.0.1, SVG Export Plug-In . SVG Version: 6.00 Build 0)  -->
<svg version="1.1" id="Layer_1" xmlns="http://www.w3.org/2000/svg" xmlns:xlink="http://www.w3.org/1999/xlink" x="0px" y="0px"
	 viewBox="0 0 828.2 1511.7" style="enable-background:new 0 0 828.2 1511.7;" xml:space="preserve">
<style type="text/css">
	.st0{fill:url(#SVGID_1_);}
	.st1{clip-path:url(#SVGID_00000053539924058035462390000010651770395583784840_);}
	.st2{clip-path:url(#SVGID_00000027594596536852304560000004487421408063240118_);}
	.st3{fill:url(#SVGID_00000088813002455737487780000003712424810851552147_);}
	.st4{fill:url(#SVGID_00000129190026313489603770000015031964679038280612_);}
	.st5{fill:url(#SVGID_00000006705978106300935800000007242042500743574918_);}
	.st6{fill:url(#SVGID_00000016059801630510111150000005043080400086352514_);}
	.st7{fill:url(#SVGID_00000129924930183356589890000006220972114625249702_);}
	.st8{fill:url(#SVGID_00000170249457119867175560000002306049718273992348_);}
	.st9{opacity:0.43;fill:url(#SVGID_00000067210708502973829680000001238216393167115438_);enable-background:new    ;}
	.st10{fill:url(#SVGID_00000087386616164404253920000013201338948663594170_);}
	.st11{fill:url(#SVGID_00000003084161163787438610000001898527860397669790_);}
	.st12{fill:url(#SVGID_00000155848880227201222440000012053905016739887785_);}
	
		.st13{opacity:0.56;fill:none;stroke:#7F1712;stroke-width:4;stroke-linecap:round;stroke-miterlimit:10;enable-background:new    ;}
	.st14{fill:none;stroke:#7F1712;stroke-width:4;stroke-linecap:round;stroke-miterlimit:10;}
	.st15{opacity:0.2;enable-background:new    ;}
	.st16{opacity:0.47;fill:url(#SVGID_00000029756286389122321020000012683694087760624059_);enable-background:new    ;}
	.st17{fill:url(#SVGID_00000182493114265558677590000011474481144641170609_);}
	.st18{opacity:0.71;fill:url(#SVGID_00000134233572276556192100000002578738524022637958_);enable-background:new    ;}
	.st19{opacity:0.71;fill:url(#SVGID_00000080186818974511430670000014466165012541446307_);enable-background:new    ;}
	.st20{fill:none;stroke:#000000;stroke-width:4;stroke-miterlimit:10;}
	.st21{fill:url(#SVGID_00000067222267063946120270000001821821299807548801_);}
	.st22{fill:url(#SVGID_00000078729511013411280130000007325667646619575975_);}
	.st23{fill:url(#SVGID_00000167387144356317535500000007352664701926786192_);}
	.st24{fill:url(#SVGID_00000029742669931642213870000011825572438220734621_);}
	.st25{fill:url(#SVGID_00000080206848848459541230000008343863858263041666_);}
	.st26{fill:url(#SVGID_00000121254116264946311920000015088043230755013302_);}
	.st27{fill:url(#SVGID_00000068647319251656615160000003016804359256139184_);}
	.st28{fill:url(#SVGID_00000144317546731215427880000010606484038262362538_);}
	.st29{fill:url(#SVGID_00000109748456602904915710000007641898364232987777_);}
	.st30{fill:url(#SVGID_00000100362895462397341860000006880552128684381585_);}
	.st31{fill:url(#SVGID_00000072247525201191239160000009081606775849798303_);}
	.st32{opacity:0.18;enable-background:new    ;}
	.st33{fill:url(#SVGID_00000091697894245407355000000012110010159335740816_);}
	.st34{fill:url(#SVGID_00000020366821068080655220000017316916910606226833_);}
	.st35{fill:#3478C5;}
	.st36{fill:#032F61;}
</style>
<linearGradient id="SVGID_1_" gradientUnits="userSpaceOnUse" x1="-451.738" y1="32.2878" x2="1205.5212" y2="1016.4086">
	<stop  offset="0" style="stop-color:#3478C5"/>
	<stop  offset="1" style="stop-color:#032F61"/>
</linearGradient>
<path class="st0" d="M838.9-158.7c118.5,42.4,229.9-57.4,311.7,55.2c83.5,112.7-80.9,748.8-56.7,913.8
	c24.2,163.5-6.7,366.6-141.9,421.2c-134.4,53.8-371.5-40.2-619.5-45.2c-246.3-4.3-503.4,81.8-654.5,21.5
	c-152.8-59.6-198.7-264-197.1-454.9c0-191.6-78.2-546.7,50.4-645.7C-341.9,8.1-6.5-145.9,173-164.5S720.3-200.4,838.9-158.7z"/>
<g>
	<defs>
		<path id="SVGID_00000088821759284091267720000001866896562917950884_" d="M838.9-158.7c118.5,42.4,229.9-57.4,311.7,55.2
			c83.5,112.7-80.9,748.8-56.7,913.8c24.2,163.5-6.7,366.6-141.9,421.2c-134.4,53.8-371.5-40.2-619.5-45.2
			c-246.3-4.3-503.4,81.8-654.5,21.5c-152.8-59.6-198.7-264-197.1-454.9c0-191.6-78.2-546.7,50.4-645.7
			C-341.9,8.1-6.5-145.9,173-164.5S720.3-200.4,838.9-158.7z"/>
	</defs>
	<clipPath id="SVGID_00000012436115247091058920000009225532850152029322_">
		<use xlink:href="#SVGID_00000088821759284091267720000001866896562917950884_"  style="overflow:visible;"/>
	</clipPath>
	<g style="clip-path:url(#SVGID_00000012436115247091058920000009225532850152029322_);">
		<g>
			<defs>
				<path id="SVGID_00000057865280543463843560000001135060410038303651_" d="M406.2,115.1c118.5,49.3,206.2,167,288,298
					c83.5,131.1,162,274.7,186.2,466.7c24.2,190.3-6.7,426.6-141.9,490.1c-134.4,62.6-371.5-46.8-619.5-52.6
					c-246.3-5-503.4,95.2-654.5,25C-688.3,1273-734.2,1035.1-732.6,813c0-222.9,50.1-428.3,178.7-543.5
					C-427,154.3-220,130.1-40.5,108.4C139,86.7,287.6,66.6,406.2,115.1z"/>
			</defs>
			<clipPath id="SVGID_00000078765164011430496740000012330360915102632872_">
				<use xlink:href="#SVGID_00000057865280543463843560000001135060410038303651_"  style="overflow:visible;"/>
			</clipPath>
			<g style="clip-path:url(#SVGID_00000078765164011430496740000012330360915102632872_);">
				
					<linearGradient id="SVGID_00000143614563551298683980000001007907386480277137_" gradientUnits="userSpaceOnUse" x1="-166.9492" y1="737.5977" x2="-168.3064" y2="612.735" gradientTransform="matrix(-1 0 0 -1 211.4119 2121.3245)">
					<stop  offset="0" style="stop-color:#1870B2;stop-opacity:0.3"/>
					<stop  offset="1" style="stop-color:#18689E"/>
				</linearGradient>
				
					<ellipse style="fill:url(#SVGID_00000143614563551298683980000001007907386480277137_);" cx="379" cy="1447" rx="451.9" ry="58.4"/>
				<g>
					
						<linearGradient id="SVGID_00000103261978227323377110000013576963173854533252_" gradientUnits="userSpaceOnUse" x1="-370.8738" y1="928.1801" x2="-376.6115" y2="674.2927" gradientTransform="matrix(-1 0 0 -1 211.4119 2121.3245)">
						<stop  offset="0" style="stop-color:#052A4C"/>
						<stop  offset="1" style="stop-color:#061C2D"/>
					</linearGradient>
					<polygon style="fill:url(#SVGID_00000103261978227323377110000013576963173854533252_);" points="574.3,1449.5 595.1,1449.5 
						595.1,1154.8 574.3,1154.8 					"/>
					
						<linearGradient id="SVGID_00000111904939494010178510000006715943492825819044_" gradientUnits="userSpaceOnUse" x1="97.6868" y1="917.5911" x2="91.9493" y2="663.7037" gradientTransform="matrix(-1 0 0 -1 211.4119 2121.3245)">
						<stop  offset="0" style="stop-color:#052A4C"/>
						<stop  offset="1" style="stop-color:#061C2D"/>
					</linearGradient>
					<polygon style="fill:url(#SVGID_00000111904939494010178510000006715943492825819044_);" points="105.5,1449.5 126.3,1449.5 
						126.3,1154.8 105.5,1154.8 					"/>
					
						<linearGradient id="SVGID_00000016055162279469401010000002869091061890018745_" gradientUnits="userSpaceOnUse" x1="-133.9868" y1="1065.3856" x2="-133.9868" y2="953.4287" gradientTransform="matrix(-1 0 0 -1 211.4119 2121.3245)">
						<stop  offset="0" style="stop-color:#E5B313"/>
						<stop  offset="1" style="stop-color:#AF8612"/>
					</linearGradient>
					<path style="fill:url(#SVGID_00000016055162279469401010000002869091061890018745_);" d="M101.5,1166.3h487.7
						c7.3,0,13.3-6,13.3-13.3v-81.1c0-7.3-6-13.3-13.3-13.3H101.5c-7.3,0-13.3,6-13.3,13.3v81.1
						C88.2,1160.4,94.2,1166.3,101.5,1166.3z"/>
				</g>
				
					<linearGradient id="SVGID_00000068661257653613063430000007590040027355958940_" gradientUnits="userSpaceOnUse" x1="-127.0368" y1="1095.2474" x2="-127.0368" y2="1000.9976" gradientTransform="matrix(-1 0 0 -1 211.4119 2121.3245)">
					<stop  offset="0" style="stop-color:#215E87"/>
					<stop  offset="1" style="stop-color:#0D4168"/>
				</linearGradient>
				<path style="fill:url(#SVGID_00000068661257653613063430000007590040027355958940_);" d="M123.9,1066.5
					c11.3,7.3,28.8,13.9,51,19.4c41.5,10.3,99.4,16.7,163.5,16.7s121.9-6.4,163.5-16.7c22.2-5.5,39.7-12.1,51-19.4
					c-11.3-7.3-28.8-13.9-51-19.4c-41.5-10.3-99.4-16.7-163.5-16.7s-121.9,6.4-163.5,16.7C152.7,1052.6,135.2,1059.2,123.9,1066.5z"
					/>
				
					<linearGradient id="SVGID_00000013163623406237580430000011043723631895367846_" gradientUnits="userSpaceOnUse" x1="-128.9701" y1="1126.4473" x2="-127.2716" y2="1080.5886" gradientTransform="matrix(-1 0 0 -1 211.4119 2121.3245)">
					<stop  offset="0" style="stop-color:#052A4C"/>
					<stop  offset="1" style="stop-color:#061C2D"/>
				</linearGradient>
				<path style="fill:url(#SVGID_00000013163623406237580430000011043723631895367846_);" d="M109.5,1047.1
					c0,6.8,5.1,13.4,14.4,19.4c11.3-7.3,28.8-13.9,51-19.4c41.5-10.3,99.4-16.7,163.5-16.7s121.9,6.4,163.5,16.7
					c22.2,5.5,39.7,12.1,51,19.4c9.3-6.1,14.4-12.6,14.4-19.4c0-30.7-102.5-55.5-228.9-55.5S109.5,1016.5,109.5,1047.1z"/>
				
					<linearGradient id="SVGID_00000092449727494157855450000005559539433008412829_" gradientUnits="userSpaceOnUse" x1="-596.8657" y1="831.1052" x2="-663.9216" y2="729.7762" gradientTransform="matrix(0.7429 -0.6694 0.6694 0.7429 152.5361 67.8903)">
					<stop  offset="0" style="stop-color:#B0D4EA"/>
					<stop  offset="1" style="stop-color:#70B5E8"/>
				</linearGradient>
				
					<path style="opacity:0.43;fill:url(#SVGID_00000092449727494157855450000005559539433008412829_);enable-background:new    ;" d="
					M151.8,1062.9c-7.3,10.3-4,24.2,5.3,29.8c9.7,5.8,24.1,1.5,29.3-10.6c-5.4,13.3,2,26.9,12.1,29.4c7.6,1.9,16.8-2.4,21.8-11
					c-1.9,12.2,7.2,23.1,18.4,23.7c10.6,0.5,20.5-8.4,20.7-20.1c2.4,0.3,12.3,1.5,19.9-5c8.9-7.6,7.8-19.9,7.4-25.3
					c-1.1-13.6-9.7-34.3-27.6-37c-12.4-1.8-22.6,6.1-25.4,8.5c-2-7.7-8.3-13.4-15.9-14.4c-9.9-1.3-16.5,6.1-17,6.7
					c0.8-9.3-6.7-17.4-15.7-17.5c-9.1-0.1-16.7,7.9-16,17.3c-8.1-6.2-17.9-6.8-22.6-2.7C140.8,1039.6,140.7,1053.6,151.8,1062.9z"/>
				<g>
					
						<linearGradient id="SVGID_00000124852614456593996480000009602702874360015494_" gradientUnits="userSpaceOnUse" x1="50.6589" y1="1323.2317" x2="-151.323" y2="1056.2047" gradientTransform="matrix(-1 0 0 -1 211.4119 2121.3245)">
						<stop  offset="0" style="stop-color:#AD4D1E"/>
						<stop  offset="1" style="stop-color:#A03227"/>
					</linearGradient>
					<path style="fill:url(#SVGID_00000124852614456593996480000009602702874360015494_);" d="M126.7,752.4
						c0.4,18.2,5.4,43.2,16.4,44.4c34.1,13.4,33.3,42.4,33.3,42.4c-1.6,7.2-2.5,14.1-2.9,20.8c-3.8,63.7,41.3,102.4,41.3,102.4
						c12.5,29,15.2,55.6,14.4,76.5c-1.1,26.9-8.2,44.1-8.2,44.1c-23.6-0.9-26.2,25.3,0,25.2c71.8,0.8,54.6-82.9,54.2-84.6l12.4,15.6
						c-9.4,23.5,18.5,43.8,18.5,43.8c-22.4-0.9-30.9,15.7-18.5,23c12.4,7.3,140.5-5.5,140.5-5.5c142.4,26.6,108.4-51.6,108.4-51.6
						c-26.2,38.5-90,25.4-90,25.4s18.4-95.3-66.4-163s-82.5-101.8-82.5-101.8l-28.3-62.6c-60.2-46-78.8-6.5-97.1-7.3
						c-6.8-0.3-14.4-2.6-21.3-4.5c-11.7-3.2-21.6-5.4-23.2,4.5C126.9,742.9,126.6,747.4,126.7,752.4z"/>
					
						<linearGradient id="SVGID_00000086662984492335794280000010203147036820244401_" gradientUnits="userSpaceOnUse" x1="-29.6902" y1="1337.1084" x2="-68.089" y2="1302.4557" gradientTransform="matrix(-1 0 0 -1 211.4119 2121.3245)">
						<stop  offset="0" style="stop-color:#7F1712"/>
						<stop  offset="1" style="stop-color:#5B0909"/>
					</linearGradient>
					<path style="fill:url(#SVGID_00000086662984492335794280000010203147036820244401_);" d="M302,787.6c2.1,3.1,4.3,6.6,4,10.4
						c-0.3,4.9-4.6,8.5-8.6,11.5c-12.4,9.4-24.8,18.9-37.2,28.3c-3.6,2.7-7.3,5.6-11.7,6.9c-4.3,1.3-9.5,0.9-12.8-2.2
						c-5.1-4.8-3.6-13-1.8-19.8c3.7-13.5,7.3-26.9,11-40.4c2.6-9.5,3.8-27.9,11.8-34.6c9.3-7.7,16.3,2.1,22,9
						C283.5,762.6,302,780,302,787.6z"/>
					
						<linearGradient id="SVGID_00000090996101999286457080000011073839431961925800_" gradientUnits="userSpaceOnUse" x1="60.7185" y1="1378.8484" x2="84.6624" y2="1378.8484" gradientTransform="matrix(-1 0 0 -1 211.4119 2121.3245)">
						<stop  offset="0" style="stop-color:#7F1712"/>
						<stop  offset="1" style="stop-color:#5B0909"/>
					</linearGradient>
					<path style="fill:url(#SVGID_00000090996101999286457080000011073839431961925800_);" d="M126.7,752.4l0.6,0.3
						c8.9-3,16.8-9,22.2-16.7l1.1-1c-11.7-3.2-21.6-5.4-23.2,4.5C126.9,742.9,126.6,747.4,126.7,752.4z"/>
					<path class="st13" d="M293,1026.2c3.1-15.8,13.5-51.1,44.6-51.6"/>
					<path class="st14" d="M165.8,781.2c0,0-16.8,1.4-32.7-4.6"/>
					<path class="st15" d="M214.8,962.4c12.5,29,15.2,55.6,14.4,76.5c8.3-10.5,11.1-30.3,9-39.8c-3.4-15.2-12.3-28.4-20.1-41.8
						c-14.6-25.2-25.6-52.5-32.8-80.7c-1.1-4.2-2.1-8.5-4.7-11.9c-1.7-2.3-4.4-4.1-7.2-4.6C169.7,923.7,214.8,962.4,214.8,962.4z"/>
				</g>
				
					<linearGradient id="SVGID_00000062180481758277181460000003764591975805235847_" gradientUnits="userSpaceOnUse" x1="-386.2832" y1="952.1921" x2="-452.0453" y2="852.8183" gradientTransform="matrix(0.5915 -0.8063 0.8063 0.5915 -43.6736 206.8533)">
					<stop  offset="0" style="stop-color:#B0D4EA"/>
					<stop  offset="1" style="stop-color:#70B5E8"/>
				</linearGradient>
				
					<path style="opacity:0.47;fill:url(#SVGID_00000062180481758277181460000003764591975805235847_);enable-background:new    ;" d="
					M389.3,1110.2c11.9,4,24-3.5,27-5.5c1.5,8.6,8.8,15.1,17.3,15.5c9,0.4,17.3-6,19.1-15.2c0.6,12.3,11.8,21.2,22.9,19.4
					c10.5-1.7,18.3-12.4,16.2-23.9c1.9-0.1,11.9-0.8,18.5-9c5.3-6.5,9.1-18.8,2.1-26.3c-5-5.4-14.1-6.7-22.3-3
					c0.9-8.3-3.1-16.2-10-19.9c-8.2-4.5-19.1-2.2-25.4,5.8c-3.5-7.1-10.9-11.5-18.5-10.9c-10,0.7-14.9,9.4-15.3,10
					c-1.2-9.3-10.1-15.7-19-13.9c-8.9,1.8-14.8,11.1-12.2,20.2c-8.8-0.3-13.1,2.5-15.1,4.4C362.8,1069.2,369.5,1103.5,389.3,1110.2z
					"/>
				
					<linearGradient id="SVGID_00000098211621511295098300000015477930291235654816_" gradientUnits="userSpaceOnUse" x1="-127.0368" y1="1022.1225" x2="-127.0368" y2="968.4976" gradientTransform="matrix(-1 0 0 -1 211.4119 2121.3245)">
					<stop  offset="0" style="stop-color:#052A4C"/>
					<stop  offset="1" style="stop-color:#061C2D"/>
				</linearGradient>
				<path style="fill:url(#SVGID_00000098211621511295098300000015477930291235654816_);" d="M109.5,1047.1v38.8
					c0,30.7,102.5,55.5,228.9,55.5s228.9-24.9,228.9-55.5v-38.8c0,6.8-5.1,13.4-14.4,19.4c-11.3,7.3-28.8,13.9-51,19.4
					c-41.5,10.3-99.4,16.7-163.5,16.7s-121.9-6.4-163.5-16.7c-22.2-5.5-39.7-12.1-51-19.4C114.6,1060.5,109.5,1054,109.5,1047.1z"/>
				
					<linearGradient id="SVGID_00000084514473059437366750000016966273347697695635_" gradientUnits="userSpaceOnUse" x1="-72.4946" y1="1272.012" x2="-139.5506" y2="1170.6831" gradientTransform="matrix(-1 0 0 -1 211.4119 2121.3245)">
					<stop  offset="0" style="stop-color:#B0D4EA"/>
					<stop  offset="1" style="stop-color:#70B5E8"/>
				</linearGradient>
				
					<path style="opacity:0.71;fill:url(#SVGID_00000084514473059437366750000016966273347697695635_);enable-background:new    ;" d="
					M353.6,941.7c12.3-2.8,19.2-15.3,16-25.6c-3.3-10.8-16.9-17.3-28.8-11.8c12.9-6.3,16.5-21.3,10.7-29.9
					c-4.4-6.5-14.1-9.4-23.5-6.4c9.6-7.7,10.1-22,2.1-29.9c-7.6-7.5-20.9-7.4-28.8,1.1c-1.5-1.8-8.2-9.4-18.2-9.6
					c-11.7-0.3-19.2,9.6-22.4,13.9c-8.2,10.8-15.8,32-4.3,45.9c8,9.7,20.9,10.6,24.6,10.7c-3.7,7.1-2.8,15.6,2.1,21.4
					c6.5,7.6,16.4,6.5,17.1,6.4c-6.8,6.4-6.7,17.4,0,23.5c6.7,6.2,17.7,5.3,23.5-2.1c1.8,10.1,8.8,17,15,17.1
					C346.2,966.3,355.6,956,353.6,941.7z"/>
				
					<linearGradient id="SVGID_00000036967077145252170260000017693609367696537530_" gradientUnits="userSpaceOnUse" x1="-241.684" y1="1150.2977" x2="-166.4545" y2="1150.2977" gradientTransform="matrix(-1 0 0 -1 211.4119 2121.3245)">
					<stop  offset="0" style="stop-color:#B0D4EA"/>
					<stop  offset="1" style="stop-color:#70B5E8"/>
				</linearGradient>
				
					<path style="opacity:0.71;fill:url(#SVGID_00000036967077145252170260000017693609367696537530_);enable-background:new    ;" d="
					M442.5,998.6c7.7-1.7,12-9.6,10.1-16.1c-2.1-6.8-10.6-10.9-18.1-7.4c8.1-3.9,10.3-13.4,6.7-18.8c-2.7-4.1-8.8-5.9-14.7-4
					c6-4.9,6.3-13.8,1.3-18.8c-4.7-4.7-13.1-4.7-18.1,0.7c-1-1.2-5.1-5.9-11.4-6c-7.3-0.2-12,6-14.1,8.7c-5.2,6.8-9.9,20.1-2.7,28.8
					c5,6.1,13.1,6.6,15.4,6.7c-2.3,4.4-1.8,9.8,1.3,13.4c4,4.8,10.3,4.1,10.7,4c-4.3,4-4.2,10.9,0,14.7c4.2,3.9,11.1,3.3,14.7-1.3
					c1.1,6.3,5.5,10.7,9.4,10.7C437.9,1014.1,443.8,1007.6,442.5,998.6z"/>
				<g>
					<path class="st20" d="M397.7,963.8c2-0.1,3-0.2,2.2-0.2C399.4,963.6,398.6,963.6,397.7,963.8z"/>
					
						<linearGradient id="SVGID_00000116913620105896537690000015556374270307623851_" gradientUnits="userSpaceOnUse" x1="-349.8767" y1="1091.7538" x2="-392.9843" y2="760.6089" gradientTransform="matrix(-1 0 0 -1 211.4119 2121.3245)">
						<stop  offset="0" style="stop-color:#052A4C"/>
						<stop  offset="1" style="stop-color:#061C2D"/>
					</linearGradient>
					<path style="fill:url(#SVGID_00000116913620105896537690000015556374270307623851_);" d="M483.9,1470.9
						c0,4.9,81.6,7.9,98.3,8.4c16.7,0.5-5.9-37.9-5.9-43.8c0-1.3-0.7-11.3-1.7-26.3c-3.9-54.7-13-175.2-13-175.2l49.4-170.1
						c-0.7,15.7,22.7,181.1,22.7,181.1c-0.5,3.2,44.7,109.7,66.6,161.2c7,16.4,11.7,27.3,11.7,27.3s-45.1,25.3-53.9,30.2
						c-8.9,4.9-5.6,9.6-6.5,14.2c-0.9,4.6,98.2-3.1,100.5-11.5s-9.2-31.4-10.7-33.7c-0.4-0.6-3.7-13.6-8.5-32.8
						c-14.2-57.3-41.3-169.5-41.3-169.5s-7.8-140.2-7.1-177.8c0.8-37.5-4.2-57.1-16-69.4c-8-8.4-117.8-8.7-117.8-8.7
						c-35.5,11.9-42.1,232.9-48,252.3c-4.7,15.4,26.4,137,39.5,187.1c3.5,13.2,5.7,21.5,5.7,21.5
						C498.6,1451.3,483.9,1466,483.9,1470.9z"/>
					<path class="st20" d="M399.9,963.6c-0.5,0-1.2,0.1-2.2,0.2C399.8,963.7,400.7,963.6,399.9,963.6z"/>
					
						<linearGradient id="SVGID_00000053532962755067881640000006725113848964091786_" gradientUnits="userSpaceOnUse" x1="-459.7694" y1="678.5996" x2="-530.2254" y2="643.0228" gradientTransform="matrix(-1 0 0 -1 211.4119 2121.3245)">
						<stop  offset="0" style="stop-color:#052A4C"/>
						<stop  offset="1" style="stop-color:#061C2D"/>
					</linearGradient>
					<path style="fill:url(#SVGID_00000053532962755067881640000006725113848964091786_);" d="M651.4,1477.9
						c-0.9,4.6,98.2-3.1,100.5-11.5s-9.2-31.4-10.7-33.7c0,0-5.7,4.9-29.3,0.7c0,0-45.1,25.3-53.9,30.2
						C649,1468.6,652.3,1473.3,651.4,1477.9z"/>
					
						<linearGradient id="SVGID_00000049185896873104840740000011578859178389381010_" gradientUnits="userSpaceOnUse" x1="-529.8368" y1="703.7472" x2="-488.8368" y2="703.7472" gradientTransform="matrix(-1 0 0 -1 211.4119 2121.3245)">
						<stop  offset="0" style="stop-color:#F9988F"/>
						<stop  offset="1" style="stop-color:#D87873"/>
					</linearGradient>
					<path style="fill:url(#SVGID_00000049185896873104840740000011578859178389381010_);" d="M700.2,1406.2
						c7,16.4,11.7,27.3,11.7,27.3c23.6,4.2,29.3-0.7,29.3-0.7c-0.4-0.6-3.7-13.6-8.5-32.8L700.2,1406.2z"/>
					
						<linearGradient id="SVGID_00000072974329180990001040000009150137771945918871_" gradientUnits="userSpaceOnUse" x1="-312.4958" y1="674.1653" x2="-351.5607" y2="635.7983" gradientTransform="matrix(-1 0 0 -1 211.4119 2121.3245)">
						<stop  offset="0" style="stop-color:#052A4C"/>
						<stop  offset="1" style="stop-color:#061C2D"/>
					</linearGradient>
					<path style="fill:url(#SVGID_00000072974329180990001040000009150137771945918871_);" d="M483.9,1470.9
						c0,4.9,81.6,7.9,98.3,8.4c16.7,0.5-5.9-37.9-5.9-43.8c0,0-4.2,5.5-28.5,0C498.6,1451.3,483.9,1466,483.9,1470.9z"/>
					
						<linearGradient id="SVGID_00000128467699627753810240000010424057422512537223_" gradientUnits="userSpaceOnUse" x1="-364.9366" y1="697.7755" x2="-330.7367" y2="697.7755" gradientTransform="matrix(-1 0 0 -1 211.4119 2121.3245)">
						<stop  offset="0" style="stop-color:#F9988F"/>
						<stop  offset="1" style="stop-color:#D87873"/>
					</linearGradient>
					<path style="fill:url(#SVGID_00000128467699627753810240000010424057422512537223_);" d="M542.1,1414
						c3.5,13.2,5.7,21.5,5.7,21.5c24.3,5.5,28.5,0,28.5,0c0-1.3-0.7-11.3-1.7-26.3L542.1,1414z"/>
					
						<linearGradient id="SVGID_00000027580791765514447010000016973961695606616254_" gradientUnits="userSpaceOnUse" x1="-295.9095" y1="1286.1411" x2="-351.4643" y2="1128.0234" gradientTransform="matrix(-1 0 0 -1 211.4119 2121.3245)">
						<stop  offset="0" style="stop-color:#BF1A00"/>
						<stop  offset="1" style="stop-color:#99180B"/>
					</linearGradient>
					<path style="fill:url(#SVGID_00000027580791765514447010000016973961695606616254_);" d="M369.9,962.8
						c0.2,1.3,8.5,1.5,16.3,1.4c0.5,0,1,0,1.4,0c1.2,0,2.3-0.1,3.4-0.1c0.4,0,0.8,0,1.2,0c0.2,0,0.5,0,0.7,0c0.5,0,0.9,0,1.3-0.1
						c0.4,0,0.9,0,1.3-0.1c0.4,0,0.8,0,1.1-0.1c0.3,0,0.6,0,0.9,0c-1.4,0.2-3.1,0.6-5,1c-0.2,0-0.3,0.1-0.4,0.1
						c-0.6,0.1-1.2,0.3-1.7,0.4c-0.4,0.1-0.8,0.2-1.1,0.3c-0.1,0-0.1,0-0.2,0c-0.4,0.1-0.9,0.2-1.3,0.4c-0.2,0-0.3,0.1-0.4,0.1
						c-0.3,0.1-0.6,0.2-0.8,0.3c-0.3,0.1-0.6,0.2-0.9,0.3c-0.2,0.1-0.4,0.1-0.6,0.2c-0.6,0.2-1.1,0.4-1.6,0.6
						c-0.2,0.1-0.5,0.2-0.7,0.3c-0.2,0.1-0.4,0.2-0.6,0.3c-0.6,0.3-1.1,0.5-1.5,0.8c-0.1,0.1-0.2,0.1-0.3,0.2
						c-0.2,0.2-0.4,0.3-0.5,0.4c-0.1,0.1-0.1,0.1-0.1,0.2c-0.1,0.1-0.1,0.2-0.1,0.2c0,0.1,0,0.1,0,0.2c0,0,0,0.1,0,0.2
						c0.8,2.3,9.6,0,13.1,0s55-15.5,55-15.5s0.2,0,0.5-0.1c0.1,0,0.2,0,0.4-0.1h0.1c0,0,0,0,0.1,0s0.1,0,0.2,0s0.2,0,0.3,0h0.1
						c0.1,0,0.1,0,0.2,0l0,0c0.1,0,0.1,0,0.2,0h0.1l0,0c0.1,0,0.2,0,0.3-0.1c0.1,0,0.3,0,0.4-0.1c0.1,0,0.2,0,0.3-0.1
						c0.1,0,0.3,0,0.4-0.1c0.1,0,0.2,0,0.3,0c0.1,0,0.2,0,0.3-0.1c0.5-0.1,1-0.2,1.6-0.3c0.4-0.1,0.9-0.2,1.4-0.2
						c0.2,0,0.4-0.1,0.5-0.1s0.3,0,0.4-0.1c0.7-0.1,1.4-0.2,2.2-0.4c0.1,0,0.2,0,0.3-0.1c0.2,0,0.5-0.1,0.7-0.1h0.2
						c1.2-0.2,2.4-0.4,3.7-0.6c0.1,0,0.2,0,0.4-0.1c0.8-0.2,1.7-0.3,2.5-0.4c0.3,0,0.6-0.1,0.8-0.1c0.5-0.1,1-0.2,1.5-0.3
						c0.1,0,0.1,0,0.2,0c0.3,0,0.6-0.1,0.9-0.2c0.1,0,0.2,0,0.3,0c0.4-0.1,0.8-0.1,1.1-0.2c0.7-0.1,1.4-0.2,2.2-0.4l0,0
						c0.3-0.1,0.6-0.1,0.9-0.2c0.6-0.1,1.3-0.2,1.9-0.3c0.3,0,0.6-0.1,0.9-0.2c0.2,0,0.5-0.1,0.7-0.1c0.6-0.1,1.2-0.2,1.8-0.3
						c0.4-0.1,0.9-0.2,1.3-0.2c0.4-0.1,0.7-0.1,1.1-0.2c0.1,0,0.3-0.1,0.4-0.1c1.2-0.2,2.5-0.4,3.8-0.6c0.4-0.1,0.9-0.2,1.3-0.2
						c0.2,0,0.4-0.1,0.6-0.1c0.5-0.1,1-0.2,1.5-0.3c0.7-0.1,1.4-0.2,2.2-0.4c0.4-0.1,0.8-0.1,1.2-0.2c0.9-0.2,1.8-0.3,2.7-0.5
						c0.5-0.1,1-0.2,1.5-0.3c1.1-0.2,2.3-0.4,3.5-0.6c0.7-0.1,1.5-0.3,2.2-0.4c1.4-0.2,2.8-0.5,4.2-0.7c1.6-0.3,3.3-0.6,4.9-0.9
						c0.3,0,0.6-0.1,0.9-0.2c0,0,0,0,0.1,0c0.2,0,0.4-0.1,0.6-0.1s0.4-0.1,0.7-0.1h0.1c0.5-0.1,1-0.2,1.6-0.3c1-0.2,1.9-0.3,2.9-0.5
						l2.4-0.4c0.8-0.1,1.5-0.3,2.3-0.4c0.2,0,0.3,0,0.5-0.1c0.2,0,0.4-0.1,0.6-0.1c0.5-0.1,0.9-0.2,1.4-0.3s1.1-0.2,1.6-0.3
						c2.8-0.5,5.5-1,8.2-1.4c0.3-0.1,0.6-0.1,1-0.2c0.1,0,0.3,0,0.4-0.1c0.3-0.1,0.7-0.1,1-0.2c1.2-0.2,2.3-0.4,3.4-0.6
						c0.3,0,0.6-0.1,0.9-0.2c0.2,0,0.5-0.1,0.7-0.1s0.4-0.1,0.6-0.1c1.3-0.2,2.5-0.5,3.8-0.7c0.2,0,0.5-0.1,0.7-0.1
						c0.3,0,0.5-0.1,0.8-0.1c0.7-0.1,1.4-0.3,2.1-0.4c0.4-0.1,0.8-0.2,1.2-0.2h0.2c0.1,0,0.1,0,0.2,0c0.4-0.1,0.9-0.2,1.3-0.2
						c0.2,0,0.3-0.1,0.5-0.1c1-0.2,1.9-0.3,2.8-0.5c0.2,0,0.4-0.1,0.6-0.1l-14,44.7c0,0,128.8,19.2,124.9,3.2
						c-0.3-1.1-0.5-2.5-0.6-4.2c-0.1-0.7-0.1-1.5-0.2-2.3c0-0.4,0-0.8-0.1-1.2c0-0.8-0.1-1.7-0.1-2.7c0-0.5,0-1,0-1.5
						c-0.2-8.5,0-20.2,0.4-32.8c0-0.1,0-0.2,0-0.2c0-1.3,0.1-2.6,0.1-3.9c0-0.1,0-0.2,0-0.3c0.2-5.6,0.4-11.4,0.7-17.1
						c0.3-6.4,0.6-12.7,0.9-18.7c0-0.2,0-0.3,0-0.5c0-0.1,0-0.2,0-0.3c0-0.4,0-0.8,0.1-1.2c0-0.5,0.1-1,0.1-1.4c0-0.5,0-1,0.1-1.5
						c0-0.1,0-0.3,0-0.4c0-0.8,0.1-1.6,0.1-2.4c0-0.1,0-0.3,0-0.4c0-0.5,0-1,0.1-1.5c0-0.2,0-0.4,0-0.5c0-0.4,0-0.8,0.1-1.2
						c0-0.2,0-0.3,0-0.4c0-0.4,0-0.9,0.1-1.3c0-0.6,0.1-1.2,0.1-1.8c0-0.4,0-0.8,0.1-1.1c0-0.8,0.1-1.5,0.1-2.2
						c0-0.6,0.1-1.2,0.1-1.8c0-0.8,0.1-1.5,0.1-2.3c0-0.7,0.1-1.3,0.1-1.9c0-0.3,0-0.6,0.1-0.9c0-0.4,0-0.8,0.1-1.1
						c0-0.5,0.1-1,0.1-1.5c0-0.3,0-0.6,0.1-1c0-0.5,0.1-1,0.1-1.5c0-0.3,0-0.6,0.1-0.9c0-0.6,0.1-1.1,0.1-1.6c0-0.1,0-0.2,0-0.3
						c0-0.2,0-0.4,0-0.5c0-0.2,0-0.4,0-0.6c0.1-1.1,0.1-2,0.2-2.6c0-0.1,0-0.3,0-0.4c0-0.1,0-0.3,0-0.3c0-0.1,0-0.2,0-0.2
						c0-0.1,0-0.2,0-0.2l0.1-0.1c0.1-0.1,0.3-0.2,0.4-0.3c0.7-0.6,1.4-1.2,2-1.7c0.1-0.1,0.1-0.1,0.2-0.2c0.4-0.4,0.8-0.7,1.1-1
						c0.1-0.1,0.2-0.2,0.2-0.2l0.1-0.1c0.2-0.2,0.3-0.3,0.5-0.5c0.1-0.1,0.2-0.2,0.3-0.3c0.1-0.1,0.2-0.2,0.3-0.3
						c2.6-2,4.4-5.3,5.6-9.2c0.2-0.7,0.4-1.5,0.6-2.3c0.1-0.3,0.1-0.5,0.2-0.8c0.1-0.5,0.2-1.1,0.3-1.6c0.1-0.5,0.2-1.1,0.2-1.7
						c0.5-3.9,0.5-8.2,0.2-12.4c0-0.1,0-0.2,0-0.3c-0.1-0.8-0.1-1.5-0.2-2.3c0-0.4-0.1-0.8-0.1-1.1c-0.1-1-0.3-2-0.4-3
						c0-0.1,0-0.2-0.1-0.4c-0.2-1.1-0.4-2.2-0.6-3.2c-0.1-0.3-0.2-0.7-0.2-1c-0.1-0.3-0.2-0.7-0.2-1c-0.1-0.3-0.2-0.7-0.2-1
						c-0.2-0.6-0.3-1.3-0.5-1.9c-0.1-0.3-0.2-0.6-0.3-1c-0.1-0.3-0.2-0.6-0.3-0.9c-0.2-0.6-0.4-1.2-0.6-1.7
						c-0.1-0.3-0.2-0.6-0.3-0.8c-0.2-0.6-0.5-1.2-0.8-1.8c-0.2-0.4-0.4-0.8-0.6-1.2c-0.5-0.9-1-1.7-1.5-2.4
						c-9.5-15.8-29.8-23.4-45.4-27c-11.5-2.7-20.5-3.2-20.5-3.2c-2-0.4-4.2-0.6-6.7-0.5h-0.3c-0.3,0-0.6,0-0.9,0c-0.2,0-0.4,0-0.6,0
						c-0.4,0-0.8,0-1.3,0.1c-2,0.1-4.1,0.4-6.3,0.8c-0.3,0-0.5,0.1-0.8,0.1c-1.5,0.3-3.2,0.6-4.8,0.9c-0.1,0-0.2,0-0.3,0.1
						c-0.3,0.1-0.7,0.2-1,0.2c-0.4,0.1-0.8,0.2-1.2,0.3c-0.3,0.1-0.6,0.2-0.9,0.2c-0.3,0.1-0.7,0.2-1.1,0.3s-0.8,0.2-1.2,0.3
						c-2.7,0.7-5.5,1.5-8.4,2.4c-0.6,0.2-1.2,0.4-1.7,0.5c-4.4,1.4-9,3-13.7,4.7c-0.5,0.2-1,0.4-1.5,0.6c-0.6,0.2-1.2,0.4-1.8,0.7
						c-0.9,0.4-1.9,0.7-2.8,1.1c-1,0.4-1.9,0.7-2.9,1.1c-1.3,0.5-2.7,1-4,1.6c-0.8,0.3-1.7,0.7-2.5,1c-1.1,0.4-2.1,0.9-3.2,1.3
						c-1.1,0.4-2.1,0.9-3.2,1.3l0,0c-1,0.4-2.1,0.9-3.1,1.3c-1.1,0.5-2.2,0.9-3.3,1.4c-1,0.4-2,0.9-3,1.3c-1.1,0.5-2.1,0.9-3.2,1.4
						c-0.5,0.2-1.1,0.5-1.6,0.7c-1.1,0.5-2.1,0.9-3.1,1.4c-2.6,1.2-5.2,2.3-7.8,3.5c-1,0.5-2.1,0.9-3.1,1.4
						c-0.2,0.1-0.4,0.2-0.6,0.3c-0.6,0.3-1.2,0.6-1.9,0.9c-1.4,0.6-2.7,1.3-4,1.9c-0.8,0.4-1.7,0.8-2.5,1.2
						c-1.5,0.7-2.9,1.4-4.4,2.1c-1,0.5-1.9,0.9-2.9,1.4c-0.2,0.1-0.4,0.2-0.6,0.3c0,0,4.6,33.2,3,47.4c0.6-0.2,1.3-0.5,1.9-0.7
						c1-0.4,1.9-0.7,2.9-1.1c15.6-5.8,28.9-11.1,38.6-14.9c0.4-0.2,0.8-0.3,1.2-0.5c2.5-1,4.5-1.8,5.8-2.3c0.2-0.1,0.4-0.2,0.6-0.2
						c0.5-0.2,0.8-0.3,1-0.4c0.1,0,0.1,0,0.2-0.1c0.2-0.1,0.2-0.1,0.3-0.1c0.2,0-3.5,3.5-0.1,15.8c6.4,23.3,4.8,42.8,4.8,42.8
						c-1.6,0.7-5.5,2.1-11,4c-0.5,0.2-1.1,0.4-1.7,0.6s-1.3,0.5-2,0.7c-0.5,0.2-1.1,0.4-1.7,0.6c-2.9,1-6.1,2.1-9.5,3.3
						c-1.6,0.6-3.3,1.1-5,1.7c-1.3,0.5-2.6,0.9-4,1.4c-1.6,0.5-3.2,1.1-4.9,1.7c-2.9,1-5.8,2-8.8,3c-0.9,0.3-1.7,0.6-2.6,0.9
						c-1.3,0.4-2.6,0.9-3.8,1.3c-3.4,1.2-6.9,2.3-10.3,3.5c-0.8,0.3-1.7,0.6-2.5,0.9c-0.6,0.2-1.2,0.4-1.8,0.6
						c-10.6,3.6-20.5,6.9-28.4,9.6c-0.4,0.1-0.8,0.3-1.2,0.4c-3.4,1.1-6.4,2.1-8.8,3c-0.6,0.2-1.1,0.4-1.6,0.6c-1.7,0.6-3,1-3.9,1.3
						c-0.1,0-0.2,0.1-0.3,0.1c-0.6,0.2-0.9,0.3-0.9,0.3s-14.6-3.8-27.7-7.3s-15.4,3.1-10.4,4.6s18.1,4.2,15.4,11.9
						c-2.7,7.7-21.5,3.5-26.1,1.5c-4.6-1.9-14.6-8.1-17.3-5.8c-2.7,2.3,8.5,8.8,9.6,9.6c1.2,0.8-1.2,2.7,21.5,6.9
						C364.5,953.2,369.5,960.1,369.9,962.8z M397.7,963.8c0.3,0,0.6-0.1,0.8-0.1c0.1,0,0.3,0,0.4,0c0.4,0,0.7-0.1,0.9-0.1
						c0.4,0,0.4,0,0.1,0c-0.1,0-0.1,0-0.2,0c-0.2,0-0.4,0-0.6,0c-0.3,0-0.6,0-0.9,0.1C398.1,963.7,397.9,963.8,397.7,963.8z"/>
					<path class="st20" d="M671.8,860.5L671.8,860.5"/>
					
						<linearGradient id="SVGID_00000062897366618071786690000010887728792680136599_" gradientUnits="userSpaceOnUse" x1="-159.7702" y1="1277.9523" x2="-163.3887" y2="1245.3857" gradientTransform="matrix(-1 0 0 -1 211.4119 2121.3245)">
						<stop  offset="0" style="stop-color:#F9988F"/>
						<stop  offset="1" style="stop-color:#D87873"/>
					</linearGradient>
					<path style="fill:url(#SVGID_00000062897366618071786690000010887728792680136599_);" d="M249.6,875.6
						c38.4-23.4,48-10.8,48-7.3c0,3.4-15.8,8.1-13.4,13.8c2.3,5.8,33.8-15.8,35-16.1c0.4-0.1,15.2,0.7,35.1,1.8
						c7.4,0.4,15.6,0.8,23.9,1.3c34.6,1.8,73.2,3.3,82,1.9c2.9-0.5,7.5-1.8,13.2-3.6c2.6-0.8,5.3-1.8,8.3-2.8
						c4.6-1.6,9.5-3.3,14.5-5.2c1.5-14.2-3-47.4-3-47.4c-23.4,11.1-41.6,20.2-45.2,20.5c-9.6,0.8-84.2,13.1-129.5,12.3
						C273,844,244.2,873.2,249.6,875.6z"/>
					
						<linearGradient id="SVGID_00000086674005628009947660000006708617514232163995_" gradientUnits="userSpaceOnUse" x1="-287.5129" y1="1192.3597" x2="-299.5746" y2="1165.8242" gradientTransform="matrix(-1 0 0 -1 211.4119 2121.3245)">
						<stop  offset="0" style="stop-color:#F9988F"/>
						<stop  offset="1" style="stop-color:#D87873"/>
					</linearGradient>
					<path style="fill:url(#SVGID_00000086674005628009947660000006708617514232163995_);" d="M369.9,962.8c0.3,2.1,20.4,1.4,27.7,1
						c-6,0.9-18.8,4.3-18.1,6.3c0.8,2.3,9.6,0,13.1,0s55-15.5,55-15.5s11.4-1.9,27.4-4.7c2.8-0.5,5.8-1,8.9-1.5
						c2.6-0.5,5.2-0.9,7.9-1.4c2.5-0.4,5.1-0.9,7.8-1.3c33.2-5.8,71.1-12.5,76.1-14c3.1-0.9,15-9.1,29.5-19.7c0.9-0.6,1.8-1.3,2.7-2
						c5.3-3.9,10.8-8,16.4-12.2c0,0-1.3-5.5-3.4-12.9c-4-13.8-11-34-18-35.6c-21.6,23-43.2,46.2-49.6,48.5c-5.7,2.3-39.8,14-69.4,24
						c-24.1,8.2-45.2,15.2-45.2,15.2s-14.6-3.8-27.7-7.3s-15.4,3.1-10.4,4.6s18.1,4.2,15.4,11.9s-21.5,3.5-26.1,1.5
						c-4.6-1.9-14.6-8.1-17.3-5.8c-2.7,2.3,8.5,8.8,9.6,9.6c1.2,0.8-1.2,2.7,21.5,6.9C364.5,953.2,369.5,960.1,369.9,962.8z
						 M397.7,963.8c0.9-0.1,1.7-0.2,2.2-0.2C400.7,963.6,399.8,963.7,397.7,963.8z"/>
					
						<linearGradient id="SVGID_00000045613857181023633780000018336224226856137645_" gradientUnits="userSpaceOnUse" x1="-472.9918" y1="1272.9856" x2="-391.4368" y2="1272.9856" gradientTransform="matrix(-1 0 0 -1 211.4119 2121.3245)">
						<stop  offset="0" style="stop-color:#BF1A00"/>
						<stop  offset="1" style="stop-color:#99180B"/>
					</linearGradient>
					<path style="fill:url(#SVGID_00000045613857181023633780000018336224226856137645_);" d="M602.8,849.3c7,1.6,14,21.8,18,35.6
						c2.1,7.3,3.4,12.9,3.4,12.9c5.3-4,10.7-8.1,15.9-12.1c17.6-13.6,33-25.9,37-29.9c9.1-7.1,8.5-29.1,4.4-43.2l0,0
						c-4.4-9.8-14.2-19.5-31.5-9.4C641.7,808,622.3,828.6,602.8,849.3z"/>
					
						<linearGradient id="SVGID_00000151523784533170577950000004440724422823033988_" gradientUnits="userSpaceOnUse" x1="-398.3815" y1="1372.3068" x2="-405.6186" y2="1309.5857" gradientTransform="matrix(-1 0 0 -1 211.4119 2121.3245)">
						<stop  offset="0" style="stop-color:#D87873"/>
						<stop  offset="1" style="stop-color:#F9988F"/>
					</linearGradient>
					<path style="fill:url(#SVGID_00000151523784533170577950000004440724422823033988_);" d="M589.6,756.3v0.6
						c0,5,0.1,10.1,0.1,15.2c0,0.6,0,1.3,0,2c0,0.9,0,1.7,0,2.6c0.1,5.6,0.5,11.2,2,16.7c0.2,0.8,0.4,1.5,0.7,2.2
						c2.1,6,5.8,11.6,11.3,14.7c2.3,1.3,4.9,2.1,7.6,2.3c7.8,0.7,16.1-3,19.9-9.8c3.2-5.7,1.6-9.7,1.7-16.3c0-2.2-1.4-7.6-1.2-10.7
						c0.3-5.2,0.8-11.4,1.1-17.5c0.2-4.7,0.2-9.3,0-13.6c0-0.5-0.1-1-0.1-1.5s-0.1-1-0.1-1.5s-0.1-1-0.2-1.4c0-0.3-0.1-0.7-0.1-1
						c0-0.1,0-0.2,0-0.3l0,0c0-0.2,0-0.3-0.1-0.5c-0.4-2.2-0.9-4.2-1.5-5.9c-0.8-2-1.9-3.6-3.3-4.5c-4.1-2.6-9.4-2.4-14.2-1.7
						c-1.8,0.3-3.5,0.6-5.3,1.2c-6.8,2.1-12.9,6.3-15.9,12.6c-1.7,3.7-2.2,7.8-2.3,12C589.5,753.5,589.5,754.9,589.6,756.3z"/>
					
						<linearGradient id="SVGID_00000013876556599569784160000014863840867754847128_" gradientUnits="userSpaceOnUse" x1="-354.6276" y1="1440.6068" x2="-357.0992" y2="1346.6864" gradientTransform="matrix(-1 0 0 -1 211.4119 2121.3245)">
						<stop  offset="0" style="stop-color:#E5B313"/>
						<stop  offset="1" style="stop-color:#AF8612"/>
					</linearGradient>
					<path style="fill:url(#SVGID_00000013876556599569784160000014863840867754847128_);" d="M550.2,717.5
						c4.2,22.7,4.5,46.1,0.8,68.9c1-0.4,2-0.8,2.9-1.1c0.9-0.4,1.9-0.7,2.8-1.1c0.6-0.2,1.2-0.5,1.8-0.7c0.5-0.2,1-0.4,1.5-0.6
						c4.7-1.7,9.3-3.3,13.7-4.7c0.6-0.2,1.2-0.4,1.7-0.5c2.9-0.9,5.7-1.7,8.4-2.4c0.4-0.1,0.8-0.2,1.2-0.3c0.4-0.1,0.7-0.2,1.1-0.3
						c0.3-0.1,0.6-0.2,0.9-0.2c0.4-0.1,0.8-0.2,1.2-0.3c0.3-0.1,0.7-0.2,1-0.2c0.1,0,0.2,0,0.3-0.1c0-0.6,0-1.3,0-2
						c0-5.1-0.1-10.1-0.1-15.2v-0.6c-1.9-0.5-3.7-1.3-5.5-2.3c-12.3-6.9-16.5-22.3-18.9-36.2c-3-17.3-4.8-35.6,1.4-52
						c1.2-3.2,2.8-6.4,4.8-9.3c-1.1-4.2-1.2-8.7-0.3-12.9l-0.1-0.1c-14.4,1.7-24.2,16.5-25.9,30.9
						C543.4,688.9,547.6,703.3,550.2,717.5z"/>
					<path class="st32" d="M589.6,749.7v0.6c0,5,0.1,10.1,0.1,15.2c0,0.6,0,1.3,0,2c0,0.9,0,1.7,0,2.6c14.7,1.1,29.5-5.7,40.4-15.8
						c0.8-0.8,1.8-1.7,2.7-2.6c0.2-4.7,0.2-9.3,0-13.6c0-0.5-0.1-1-0.1-1.5s-0.1-1-0.1-1.5s-0.1-1-0.2-1.4c0-0.3-0.1-0.7-0.1-1
						c0-0.1,0-0.2,0-0.3l0,0c0-0.2,0-0.3-0.1-0.5c-0.4-2.2-0.9-4.2-1.5-5.9c-5.9-0.4-12.5,2.7-17.3,5.6c-7.9,4.7-15.8,9.3-23.7,14
						C589.5,746.9,589.5,748.3,589.6,749.7z"/>
					
						<linearGradient id="SVGID_00000021839599705809491000000015189318452149545116_" gradientUnits="userSpaceOnUse" x1="-363.0396" y1="1450.0031" x2="-422.0677" y2="1390.975" gradientTransform="matrix(-1 0 0 -1 211.4119 2121.3245)">
						<stop  offset="0" style="stop-color:#F9988F"/>
						<stop  offset="1" style="stop-color:#D87873"/>
					</linearGradient>
					<path style="fill:url(#SVGID_00000021839599705809491000000015189318452149545116_);" d="M565.2,717.9
						c2.4,13.9,6.6,29.3,18.9,36.2c1.8,1,3.6,1.7,5.5,2.3c5.2,1.5,10.7,1.3,16.1,0c4.6-1.1,9.1-3.1,13-5.7
						c4.2-2.8,9.2-6.8,13.5-11.4l0,0c4.4-4.8,8.1-10.2,9.3-15.4c2.7-11.9,1.8-28.5,0.2-40.6c-1.7-13-6.5-26-16-35.1
						c-5.2-5-11.9-8.8-19.1-9.8c-10.6-1.6-21,3-28.8,10.5c-2.4,2.3-4.6,5-6.5,7.8c-2,2.9-3.6,6-4.8,9.3
						C560.4,682.3,562.2,700.5,565.2,717.9z"/>
					
						<linearGradient id="SVGID_00000009584034988559682030000011775320410880481969_" gradientUnits="userSpaceOnUse" x1="-416.6885" y1="1474.8837" x2="-522.9128" y2="1245.7976" gradientTransform="matrix(-1 0 0 -1 211.4119 2121.3245)">
						<stop  offset="0" style="stop-color:#E5B313"/>
						<stop  offset="1" style="stop-color:#AF8612"/>
					</linearGradient>
					<path style="fill:url(#SVGID_00000009584034988559682030000011775320410880481969_);" d="M571.3,656.6
						c1.8,7,6.4,13.1,13.2,15.6c8.5,3.2,18.2,0.5,27.1,2.3c12.3,2.5,21.9,14.5,21.9,27c0,0.4,0.6,0.6,0.8,0.1c0.7-2,3.1-3.4,5.4-4.4
						c0,0,0,0,0.1,0c1.8-0.7,3.6,0.9,3.1,2.7l-10.6,37.9c-0.1,0.3-0.1,0.6-0.1,0.9l0,0c0,0.1,0,0.2,0,0.3c0.1,0.3,0.1,0.7,0.1,1
						c0.1,0.5,0.1,0.9,0.2,1.4s0.1,1,0.1,1.5s0.1,1,0.1,1.5c0.6,9.9-0.4,22-1,31.1c15.6,3.6,35.9,11.3,45.4,27
						c0.5,0.7,1,1.5,1.5,2.4c0.2,0.4,0.4,0.8,0.6,1.2c0.3,0.6,0.5,1.2,0.8,1.8c0.1,0.3,0.2,0.5,0.3,0.8c0.2,0.6,0.4,1.1,0.6,1.7
						c0.1,0.3,0.2,0.6,0.3,0.9c0.1,0.3,0.2,0.6,0.3,1c0.2,0.6,0.3,1.3,0.5,1.9c0.1,0.3,0.2,0.7,0.2,1c0.1,0.3,0.2,0.7,0.2,1
						c0.1,0.3,0.2,0.7,0.2,1c0.2,1.1,0.4,2.1,0.6,3.2c0,0.1,0,0.2,0.1,0.4c0.2,1,0.3,2,0.4,3c0,0.4,0.1,0.8,0.1,1.1
						c0.1,0.8,0.2,1.5,0.2,2.3c0,0.1,0,0.2,0,0.3c0.3,4.2,0.3,8.5-0.2,12.4c-0.1,0.6-0.2,1.1-0.2,1.7c-0.1,0.6-0.2,1.1-0.3,1.6
						c0,0.3-0.1,0.5-0.2,0.8c-0.2,0.8-0.4,1.6-0.6,2.3c-1.2,4-3,7.2-5.6,9.2c-0.1,0.1-0.2,0.2-0.3,0.3c-0.1,0.1-0.2,0.2-0.3,0.3
						c-0.2,0.2-0.3,0.3-0.5,0.5l-0.1,0.1c-0.1,0.1-0.2,0.2-0.2,0.2c-0.3,0.3-0.7,0.6-1.1,1c-0.1,0.1-0.1,0.1-0.2,0.2
						c-0.6,0.5-1.3,1.1-2,1.7c-0.1,0.1-0.2,0.2-0.4,0.3l-0.1,0.1c0,0,0,0.1,0,0.2c0,0.1,0,0.1,0,0.2c0,0.1,0,0.2,0,0.3
						c0,0.1,0,0.2,0,0.4c0,0.6-0.1,1.5-0.2,2.6c0,0.2,0,0.4,0,0.6s0,0.4,0,0.5c0,0.1,0,0.2,0,0.3c0,0.5-0.1,1-0.1,1.6
						c0,0.3,0,0.6-0.1,0.9c0,0.5-0.1,1-0.1,1.5c0,0.3,0,0.6-0.1,1c0,0.5-0.1,1-0.1,1.5c0,0.4,0,0.7-0.1,1.1c0,0.3,0,0.6-0.1,0.9
						c0,0.6-0.1,1.3-0.1,1.9c0,0.7-0.1,1.5-0.1,2.3c0,0.6-0.1,1.2-0.1,1.8c0,0.7-0.1,1.4-0.1,2.2c0,0.4,0,0.8-0.1,1.1
						c0,0.6-0.1,1.2-0.1,1.8c0,0.4-0.1,0.8-0.1,1.3c0,0.1,0,0.3,0,0.4c0,0.4,0,0.8-0.1,1.2c0,0.2,0,0.3,0,0.5c0,0.5-0.1,1-0.1,1.5
						c0,0.1,0,0.3,0,0.4c0,0.8-0.1,1.6-0.1,2.4c0,0.1,0,0.3,0,0.4c0,0.5-0.1,1-0.1,1.5s-0.1,0.9-0.1,1.4c0,0.4,0,0.8-0.1,1.2
						c25.7,8.7,50.8-2.8,55.1-4.8c4.5-2.1,23.4-11.2,34.5-31.5c3.9-7.2,6.3-11.5,5.8-17.4c-1.6-17.8-23.6-23.2-31.1-38.2
						c-6.4-12.8-0.5-27.9,4.5-41.3c5-13.4,8.6-30-0.9-40.6c-11-12.3-32.5-8.5-44.6-19.6c-9-8.2-10-21.6-10.8-33.7
						c-0.7-12.1-2.5-25.7-12.1-33.1c-4.3-3.3-9.6-4.8-14.8-6.3c-7.4-2.1-14.8-4.3-22.3-6.5c-8.5-2.5-17.1-4.9-25.9-5
						c-13.6-0.2-27.8,6.3-33.9,18.5c-0.9,1.8-1.5,3.6-2,5.6C570.1,647.9,570.2,652.4,571.3,656.6z"/>
					<path class="st15" d="M491.8,947c2.5-0.4,5.1-0.9,7.8-1.3c33.2-5.8,71.1-12.5,76.1-14c3.1-0.9,15-9.1,29.5-19.7
						c-1.2-1.5-2.6-2.7-4.4-3.4c-8.7-3.3-25.8,6.7-34.3,9.5c-13.1,4.5-26.3,9-39.4,13.5C515,935.8,502.5,940.2,491.8,947z"/>
					<path class="st15" d="M354.3,867.8c7.4,0.4,15.6,0.8,23.9,1.3c34.6,1.8,73.2,3.3,82,1.9c2.9-0.5,7.5-1.8,13.2-3.6
						c-1-1.2-3-2-6.3-2c-33-0.6-66.1-1.2-99.1-1.7c-3.9-0.1-8-0.1-11.3,1.9C355.8,866.1,354.9,866.9,354.3,867.8z"/>
				</g>
			</g>
		</g>
	</g>
</g>
<rect x="-1290.3" y="283.4" class="st35" width="368.3" height="272.4"/>
<rect x="-1290.3" y="749.8" class="st36" width="368.3" height="272.4"/>
</svg>
