<?xml version="1.0" encoding="utf-8"?>
<!-- Generator: Adobe Illustrator 25.4.1, SVG Export Plug-In . SVG Version: 6.00 Build 0)  -->
<svg version="1.1" id="Layer_1" xmlns="http://www.w3.org/2000/svg" xmlns:xlink="http://www.w3.org/1999/xlink" x="0px" y="0px"
	 viewBox="0 0 1440 900" style="enable-background:new 0 0 1440 900;" xml:space="preserve">
<style type="text/css">
	.st0{fill:url(#SVGID_1_);}
	.st1{fill:#3478C5;}
	.st2{fill:#032F61;}
	.st3{clip-path:url(#SVGID_00000035507516380049809560000011787144197762989185_);}
	.st4{fill:url(#SVGID_00000101065394925558073080000016813594021433041295_);}
	.st5{fill:url(#SVGID_00000159451513290628203610000010009716739566224006_);}
	.st6{fill:url(#SVGID_00000182505634252249658800000006312876512751621280_);}
	.st7{fill:url(#SVGID_00000110449402002081089300000008359865267489199014_);}
	.st8{fill:url(#SVGID_00000071550647884670798440000013112205887277280699_);}
	.st9{fill:url(#SVGID_00000112615949889820598290000003528242846799821194_);}
	.st10{opacity:0.43;fill:url(#SVGID_00000122000795785697883260000013646466486177411772_);}
	.st11{fill:url(#SVGID_00000027572650418253179430000016167580562474606999_);}
	.st12{fill:url(#SVGID_00000132070884683863685980000000268150532461456048_);}
	.st13{fill:url(#SVGID_00000109000504939680049290000008260216123810222496_);}
	.st14{opacity:0.56;fill:none;stroke:#7F1712;stroke-width:4;stroke-linecap:round;stroke-miterlimit:10;}
	.st15{fill:none;stroke:#7F1712;stroke-width:4;stroke-linecap:round;stroke-miterlimit:10;}
	.st16{opacity:0.2;}
	.st17{opacity:0.47;fill:url(#SVGID_00000156566876582895481010000017480749789374743741_);}
	.st18{fill:url(#SVGID_00000158006919162526345320000008108796304492387734_);}
	.st19{opacity:0.71;fill:url(#SVGID_00000062902023620837489130000008456413072004596395_);}
	.st20{opacity:0.71;fill:url(#SVGID_00000120553560159458430580000017096140467734338494_);}
	.st21{fill:none;stroke:#000000;stroke-width:4;stroke-miterlimit:10;}
	.st22{fill:url(#SVGID_00000137113554335091066800000010969432086707049879_);}
	.st23{fill:url(#SVGID_00000047758682340564746180000004798866220305686709_);}
	.st24{fill:url(#SVGID_00000034091704121343940480000005582242727962491297_);}
	.st25{fill:url(#SVGID_00000036246660769088973510000009113773611705165985_);}
	.st26{fill:url(#SVGID_00000027563463443398451600000005190504098029259392_);}
	.st27{fill:url(#SVGID_00000032613043867862444840000000427211209750712494_);}
	.st28{fill:url(#SVGID_00000107562187753925919290000006175095620195904942_);}
	.st29{fill:url(#SVGID_00000043458735684793293230000005582459158829357697_);}
	.st30{fill:url(#SVGID_00000155864314256975691760000008740413979476136611_);}
	.st31{fill:url(#SVGID_00000077291830717752423620000000882898955274936216_);}
	.st32{fill:url(#SVGID_00000124162544070475831050000008612057709251173258_);}
	.st33{opacity:0.18;}
	.st34{fill:url(#SVGID_00000005241504500523743230000009467150762958594699_);}
	.st35{fill:url(#SVGID_00000028317730480387509120000016075764502506424747_);}
</style>
<linearGradient id="SVGID_1_" gradientUnits="userSpaceOnUse" x1="87.7806" y1="1012.1911" x2="1637.2759" y2="92.0632" gradientTransform="matrix(1 0 0 -1 0 900)">
	<stop  offset="0" style="stop-color:#3478C5"/>
	<stop  offset="1" style="stop-color:#032F61"/>
</linearGradient>
<path class="st0" d="M1148.8-374.1c118.5,49.3,206.2,167,288,298c83.5,131.1,162,274.7,186.2,466.7
	c24.2,190.3-6.7,426.6-141.9,490.1c-134.4,62.6-371.5-46.8-619.5-52.6c-246.3-5-503.4,95.2-654.5,25C54.3,783.8,8.4,545.9,10,323.8
	c0-222.9,50.1-428.3,178.7-543.5c126.9-115.2,333.9-139.4,513.4-161.1C881.6-402.5,1030.2-422.6,1148.8-374.1z"/>
<rect x="-678.5" y="-327.3" class="st1" width="368.3" height="272.4"/>
<rect x="-678.5" y="139.1" class="st2" width="368.3" height="272.4"/>
<g>
	<defs>
		<path id="SVGID_00000152246928423571337920000001673170809344466363_" d="M1148.8-374.1c118.5,49.3,206.2,167,288,298
			c83.5,131.1,162,274.7,186.2,466.7c24.2,190.3-6.7,426.6-141.9,490.1c-134.4,62.6-371.5-46.8-619.5-52.6
			c-246.3-5-503.4,95.2-654.5,25C54.3,783.8,8.4,545.9,10,323.8c0-222.9,50.1-428.3,178.7-543.5
			c126.9-115.2,333.9-139.4,513.4-161.1C881.6-402.5,1030.2-422.6,1148.8-374.1z"/>
	</defs>
	<clipPath id="SVGID_00000093168948176313474020000007412831581464235152_">
		<use xlink:href="#SVGID_00000152246928423571337920000001673170809344466363_"  style="overflow:visible;"/>
	</clipPath>
	<g style="clip-path:url(#SVGID_00000093168948176313474020000007412831581464235152_);">
		
			<linearGradient id="SVGID_00000047745658796460126120000001644874560043968399_" gradientUnits="userSpaceOnUse" x1="314.0349" y1="894.5497" x2="312.6777" y2="1019.4124" gradientTransform="matrix(-1 0 0 1 1434.9741 0)">
			<stop  offset="0" style="stop-color:#1870B2;stop-opacity:0.3"/>
			<stop  offset="1" style="stop-color:#18689E"/>
		</linearGradient>
		
			<ellipse style="fill:url(#SVGID_00000047745658796460126120000001644874560043968399_);" cx="1121.6" cy="957.8" rx="451.9" ry="58.4"/>
		<g>
			
				<linearGradient id="SVGID_00000110452397581051269330000009395251503890873998_" gradientUnits="userSpaceOnUse" x1="110.1465" y1="703.9678" x2="104.4089" y2="957.8552" gradientTransform="matrix(-1 0 0 1 1434.9741 0)">
				<stop  offset="0" style="stop-color:#052A4C"/>
				<stop  offset="1" style="stop-color:#061C2D"/>
			</linearGradient>
			<polygon style="fill:url(#SVGID_00000110452397581051269330000009395251503890873998_);" points="1316.9,960.3 1337.7,960.3 
				1337.7,665.6 1316.9,665.6 			"/>
			
				<linearGradient id="SVGID_00000010291113295854392000000015505959935635262141_" gradientUnits="userSpaceOnUse" x1="578.6734" y1="714.556" x2="572.9359" y2="968.4434" gradientTransform="matrix(-1 0 0 1 1434.9741 0)">
				<stop  offset="0" style="stop-color:#052A4C"/>
				<stop  offset="1" style="stop-color:#061C2D"/>
			</linearGradient>
			<polygon style="fill:url(#SVGID_00000010291113295854392000000015505959935635262141_);" points="848.1,960.3 868.9,960.3 
				868.9,665.6 848.1,665.6 			"/>
			
				<linearGradient id="SVGID_00000041988023977637162960000010585730710922677655_" gradientUnits="userSpaceOnUse" x1="347.0265" y1="566.762" x2="347.0265" y2="678.719" gradientTransform="matrix(-1 0 0 1 1434.9741 0)">
				<stop  offset="0" style="stop-color:#E5B313"/>
				<stop  offset="1" style="stop-color:#AF8612"/>
			</linearGradient>
			<path style="fill:url(#SVGID_00000041988023977637162960000010585730710922677655_);" d="M844.1,677.1h487.7
				c7.3,0,13.3-6,13.3-13.3v-81.1c0-7.3-6-13.3-13.3-13.3H844.1c-7.3,0-13.3,6-13.3,13.3v81.1C830.8,671.2,836.8,677.1,844.1,677.1z
				"/>
		</g>
		
			<linearGradient id="SVGID_00000039109479795657004850000002415510381220633267_" gradientUnits="userSpaceOnUse" x1="354.0339" y1="536.9002" x2="354.0339" y2="631.1501" gradientTransform="matrix(-1 0 0 1 1434.9741 0)">
			<stop  offset="0" style="stop-color:#215E87"/>
			<stop  offset="1" style="stop-color:#0D4168"/>
		</linearGradient>
		<path style="fill:url(#SVGID_00000039109479795657004850000002415510381220633267_);" d="M866.5,577.3c11.3,7.3,28.8,13.9,51,19.4
			c41.5,10.3,99.4,16.7,163.5,16.7s121.9-6.4,163.5-16.7c22.2-5.5,39.7-12.1,51-19.4c-11.3-7.3-28.8-13.9-51-19.4
			c-41.5-10.3-99.4-16.7-163.5-16.7s-121.9,6.4-163.5,16.7C895.3,563.4,877.8,570,866.5,577.3z"/>
		
			<linearGradient id="SVGID_00000093158138423399352770000017517856860646848929_" gradientUnits="userSpaceOnUse" x1="352.0997" y1="505.6982" x2="353.7982" y2="551.5569" gradientTransform="matrix(-1 0 0 1 1434.9741 0)">
			<stop  offset="0" style="stop-color:#052A4C"/>
			<stop  offset="1" style="stop-color:#061C2D"/>
		</linearGradient>
		<path style="fill:url(#SVGID_00000093158138423399352770000017517856860646848929_);" d="M852.1,557.9c0,6.8,5.1,13.4,14.4,19.4
			c11.3-7.3,28.8-13.9,51-19.4c41.5-10.3,99.4-16.7,163.5-16.7s121.9,6.4,163.5,16.7c22.2,5.5,39.7,12.1,51,19.4
			c9.3-6.1,14.4-12.6,14.4-19.4c0-30.7-102.5-55.5-228.9-55.5S852.1,527.3,852.1,557.9z"/>
		
			<linearGradient id="SVGID_00000088847999002478267270000010003644038861288581_" gradientUnits="userSpaceOnUse" x1="30.8184" y1="501.8177" x2="-36.2375" y2="603.1466" gradientTransform="matrix(0.7429 -0.6694 -0.6694 -0.7429 1321.0623 989.0253)">
			<stop  offset="0" style="stop-color:#B0D4EA"/>
			<stop  offset="1" style="stop-color:#70B5E8"/>
		</linearGradient>
		<path style="opacity:0.43;fill:url(#SVGID_00000088847999002478267270000010003644038861288581_);" d="M894.4,573.7
			c-7.3,10.3-4,24.2,5.3,29.8c9.7,5.8,24.1,1.5,29.3-10.6c-5.4,13.3,2,26.9,12.1,29.4c7.6,1.9,16.8-2.4,21.8-11
			c-1.9,12.2,7.2,23.1,18.4,23.7c10.6,0.5,20.5-8.4,20.7-20.1c2.4,0.3,12.3,1.5,19.9-5c8.9-7.6,7.8-19.9,7.4-25.3
			c-1.1-13.6-9.7-34.3-27.6-37c-12.4-1.8-22.6,6.1-25.4,8.5c-2-7.7-8.3-13.4-15.9-14.4c-9.9-1.3-16.5,6.1-17,6.7
			c0.8-9.3-6.7-17.4-15.7-17.5c-9.1-0.1-16.7,7.9-16,17.3c-8.1-6.2-17.9-6.8-22.6-2.7C883.4,550.4,883.3,564.4,894.4,573.7z"/>
		<g>
			
				<linearGradient id="SVGID_00000178202212980030503430000007885443509696018081_" gradientUnits="userSpaceOnUse" x1="531.7239" y1="308.957" x2="329.7421" y2="575.9839" gradientTransform="matrix(-1 0 0 1 1434.9741 0)">
				<stop  offset="0" style="stop-color:#AD4D1E"/>
				<stop  offset="1" style="stop-color:#A03227"/>
			</linearGradient>
			<path style="fill:url(#SVGID_00000178202212980030503430000007885443509696018081_);" d="M869.3,263.2
				c0.4,18.2,5.4,43.2,16.4,44.4C919.8,321,919,350,919,350c-1.6,7.2-2.5,14.1-2.9,20.8c-3.8,63.7,41.3,102.4,41.3,102.4
				c12.5,29,15.2,55.6,14.4,76.5c-1.1,26.9-8.2,44.1-8.2,44.1c-23.6-0.9-26.2,25.3,0,25.2c71.8,0.8,54.6-82.9,54.2-84.6l12.4,15.6
				c-9.4,23.5,18.5,43.8,18.5,43.8c-22.4-0.9-30.9,15.7-18.5,23c12.4,7.3,140.5-5.5,140.5-5.5c142.4,26.6,108.4-51.6,108.4-51.6
				c-26.2,38.5-90,25.4-90,25.4s18.4-95.3-66.4-163c-84.8-67.7-82.5-101.8-82.5-101.8l-28.3-62.6c-60.2-46-78.8-6.5-97.1-7.3
				c-6.8-0.3-14.4-2.6-21.3-4.5c-11.7-3.2-21.6-5.4-23.2,4.5C869.5,253.7,869.2,258.2,869.3,263.2z"/>
			
				<linearGradient id="SVGID_00000146460191745343898250000003035156243225629631_" gradientUnits="userSpaceOnUse" x1="451.3465" y1="295.0679" x2="412.9477" y2="329.7206" gradientTransform="matrix(-1 0 0 1 1434.9741 0)">
				<stop  offset="0" style="stop-color:#7F1712"/>
				<stop  offset="1" style="stop-color:#5B0909"/>
			</linearGradient>
			<path style="fill:url(#SVGID_00000146460191745343898250000003035156243225629631_);" d="M1044.6,298.4c2.1,3.1,4.3,6.6,4,10.4
				c-0.3,4.9-4.6,8.5-8.6,11.5c-12.4,9.4-24.8,18.9-37.2,28.3c-3.6,2.7-7.3,5.6-11.7,6.9c-4.3,1.3-9.5,0.9-12.8-2.2
				c-5.1-4.8-3.6-13-1.8-19.8c3.7-13.5,7.3-26.9,11-40.4c2.6-9.5,3.8-27.9,11.8-34.6c9.3-7.7,16.3,2.1,22,9
				C1026.1,273.4,1044.6,290.8,1044.6,298.4z"/>
			
				<linearGradient id="SVGID_00000034072142048180522020000004259525720422031785_" gradientUnits="userSpaceOnUse" x1="541.7294" y1="253.3279" x2="565.6733" y2="253.3279" gradientTransform="matrix(-1 0 0 1 1434.9741 0)">
				<stop  offset="0" style="stop-color:#7F1712"/>
				<stop  offset="1" style="stop-color:#5B0909"/>
			</linearGradient>
			<path style="fill:url(#SVGID_00000034072142048180522020000004259525720422031785_);" d="M869.3,263.2l0.6,0.3
				c8.9-3,16.8-9,22.2-16.7l1.1-1c-11.7-3.2-21.6-5.4-23.2,4.5C869.5,253.7,869.2,258.2,869.3,263.2z"/>
			<path class="st14" d="M1035.6,537c3.1-15.8,13.5-51.1,44.6-51.6"/>
			<path class="st15" d="M908.4,292c0,0-16.8,1.4-32.7-4.6"/>
			<path class="st16" d="M957.4,473.2c12.5,29,15.2,55.6,14.4,76.5c8.3-10.5,11.1-30.3,9-39.8c-3.4-15.2-12.3-28.4-20.1-41.8
				c-14.6-25.2-25.6-52.5-32.8-80.7c-1.1-4.2-2.1-8.5-4.7-11.9c-1.7-2.3-4.4-4.1-7.2-4.6C912.3,434.5,957.4,473.2,957.4,473.2z"/>
		</g>
		
			<linearGradient id="SVGID_00000037659519341849564550000007925701989122707606_" gradientUnits="userSpaceOnUse" x1="204.8562" y1="381.1445" x2="139.0941" y2="480.5183" gradientTransform="matrix(0.5915 -0.8063 -0.8063 -0.5915 1424.2859 983.0269)">
			<stop  offset="0" style="stop-color:#B0D4EA"/>
			<stop  offset="1" style="stop-color:#70B5E8"/>
		</linearGradient>
		<path style="opacity:0.47;fill:url(#SVGID_00000037659519341849564550000007925701989122707606_);" d="M1131.9,621
			c11.9,4,24-3.5,27-5.5c1.5,8.6,8.8,15.1,17.3,15.5c9,0.4,17.3-6,19.1-15.2c0.6,12.3,11.8,21.2,22.9,19.4
			c10.5-1.7,18.3-12.4,16.2-23.9c1.9-0.1,11.9-0.8,18.5-9c5.3-6.5,9.1-18.8,2.1-26.3c-5-5.4-14.1-6.7-22.3-3
			c0.9-8.3-3.1-16.2-10-19.9c-8.2-4.5-19.1-2.2-25.4,5.8c-3.5-7.1-10.9-11.5-18.5-10.9c-10,0.7-14.9,9.4-15.3,10
			c-1.2-9.3-10.1-15.7-19-13.9c-8.9,1.8-14.8,11.1-12.2,20.2c-8.8-0.3-13.1,2.5-15.1,4.4C1105.4,580,1112.1,614.3,1131.9,621z"/>
		
			<linearGradient id="SVGID_00000101808848445691598630000004809758813226215344_" gradientUnits="userSpaceOnUse" x1="354.0338" y1="610.0252" x2="354.0338" y2="663.6501" gradientTransform="matrix(-1 0 0 1 1434.9741 0)">
			<stop  offset="0" style="stop-color:#052A4C"/>
			<stop  offset="1" style="stop-color:#061C2D"/>
		</linearGradient>
		<path style="fill:url(#SVGID_00000101808848445691598630000004809758813226215344_);" d="M852.1,557.9v38.8
			c0,30.7,102.5,55.5,228.9,55.5s228.9-24.9,228.9-55.5v-38.8c0,6.8-5.1,13.4-14.4,19.4c-11.3,7.3-28.8,13.9-51,19.4
			c-41.5,10.3-99.4,16.7-163.5,16.7s-121.9-6.4-163.5-16.7c-22.2-5.5-39.7-12.1-51-19.4C857.2,571.3,852.1,564.8,852.1,557.9z"/>
		
			<linearGradient id="SVGID_00000117674422593555000590000007614493207484149643_" gradientUnits="userSpaceOnUse" x1="408.4928" y1="360.1202" x2="341.4369" y2="461.4491" gradientTransform="matrix(-1 0 0 1 1434.9741 0)">
			<stop  offset="0" style="stop-color:#B0D4EA"/>
			<stop  offset="1" style="stop-color:#70B5E8"/>
		</linearGradient>
		<path style="opacity:0.71;fill:url(#SVGID_00000117674422593555000590000007614493207484149643_);" d="M1096.2,452.5
			c12.3-2.8,19.2-15.3,16-25.6c-3.3-10.8-16.9-17.3-28.8-11.8c12.9-6.3,16.5-21.3,10.7-29.9c-4.4-6.5-14.1-9.4-23.5-6.4
			c9.6-7.7,10.1-22,2.1-29.9c-7.6-7.5-20.9-7.4-28.8,1.1c-1.5-1.8-8.2-9.4-18.2-9.6c-11.7-0.3-19.2,9.6-22.4,13.9
			c-8.2,10.8-15.8,32-4.3,45.9c8,9.7,20.9,10.6,24.6,10.7c-3.7,7.1-2.8,15.6,2.1,21.4c6.5,7.6,16.4,6.5,17.1,6.4
			c-6.8,6.4-6.7,17.4,0,23.5c6.7,6.2,17.7,5.3,23.5-2.1c1.8,10.1,8.8,17,15,17.1C1088.8,477.1,1098.2,466.8,1096.2,452.5z"/>
		
			<linearGradient id="SVGID_00000150805510554126808100000015899913708291383467_" gradientUnits="userSpaceOnUse" x1="239.3345" y1="481.9261" x2="314.5316" y2="481.9261" gradientTransform="matrix(-1 0 0 1 1434.9741 0)">
			<stop  offset="0" style="stop-color:#B0D4EA"/>
			<stop  offset="1" style="stop-color:#70B5E8"/>
		</linearGradient>
		<path style="opacity:0.71;fill:url(#SVGID_00000150805510554126808100000015899913708291383467_);" d="M1185.1,509.4
			c7.7-1.7,12-9.6,10.1-16.1c-2.1-6.8-10.6-10.9-18.1-7.4c8.1-3.9,10.3-13.4,6.7-18.8c-2.7-4.1-8.8-5.9-14.7-4
			c6-4.9,6.3-13.8,1.3-18.8c-4.7-4.7-13.1-4.7-18.1,0.7c-1-1.2-5.1-5.9-11.4-6c-7.3-0.2-12,6-14.1,8.7c-5.2,6.8-9.9,20.1-2.7,28.8
			c5,6.1,13.1,6.6,15.4,6.7c-2.3,4.4-1.8,9.8,1.3,13.4c4,4.8,10.3,4.1,10.7,4c-4.3,4-4.2,10.9,0,14.7c4.2,3.9,11.1,3.3,14.7-1.3
			c1.1,6.3,5.5,10.7,9.4,10.7C1180.5,524.9,1186.4,518.4,1185.1,509.4z"/>
		<g>
			<path class="st21" d="M1140.3,474.6c2-0.1,3-0.2,2.2-0.2C1142,474.4,1141.2,474.4,1140.3,474.6z"/>
			
				<linearGradient id="SVGID_00000103232647532576542880000017950372461493131652_" gradientUnits="userSpaceOnUse" x1="131.2529" y1="540.4094" x2="88.1453" y2="871.5542" gradientTransform="matrix(-1 0 0 1 1434.9741 0)">
				<stop  offset="0" style="stop-color:#052A4C"/>
				<stop  offset="1" style="stop-color:#061C2D"/>
			</linearGradient>
			<path style="fill:url(#SVGID_00000103232647532576542880000017950372461493131652_);" d="M1226.5,981.7c0,4.9,81.6,7.9,98.3,8.4
				c16.7,0.5-5.9-37.9-5.9-43.8c0-1.3-0.7-11.3-1.7-26.3c-3.9-54.7-13-175.2-13-175.2l49.4-170.1c-0.7,15.7,22.7,181.1,22.7,181.1
				c-0.5,3.2,44.7,109.7,66.6,161.2c7,16.4,11.7,27.3,11.7,27.3s-45.1,25.3-53.9,30.2c-8.9,4.9-5.6,9.6-6.5,14.2
				c-0.9,4.6,98.2-3.1,100.5-11.5c2.3-8.4-9.2-31.4-10.7-33.7c-0.4-0.6-3.7-13.6-8.5-32.8c-14.2-57.3-41.3-169.5-41.3-169.5
				s-7.8-140.2-7.1-177.8c0.8-37.5-4.2-57.1-16-69.4c-8-8.4-117.8-8.7-117.8-8.7c-35.5,11.9-42.1,232.9-48,252.3
				c-4.7,15.4,26.4,137,39.5,187.1c3.5,13.2,5.7,21.5,5.7,21.5C1241.2,962.1,1226.5,976.8,1226.5,981.7z"/>
			<path class="st21" d="M1142.5,474.4c-0.5,0-1.2,0.1-2.2,0.2C1142.4,474.5,1143.3,474.4,1142.5,474.4z"/>
			
				<linearGradient id="SVGID_00000057868703980914631170000005623739448155635627_" gradientUnits="userSpaceOnUse" x1="21.2449" y1="953.5549" x2="-49.2111" y2="989.1317" gradientTransform="matrix(-1 0 0 1 1434.9741 0)">
				<stop  offset="0" style="stop-color:#052A4C"/>
				<stop  offset="1" style="stop-color:#061C2D"/>
			</linearGradient>
			<path style="fill:url(#SVGID_00000057868703980914631170000005623739448155635627_);" d="M1394,988.7
				c-0.9,4.6,98.2-3.1,100.5-11.5c2.3-8.4-9.2-31.4-10.7-33.7c0,0-5.7,4.9-29.3,0.7c0,0-45.1,25.3-53.9,30.2
				C1391.6,979.4,1394.9,984.1,1394,988.7z"/>
			
				<linearGradient id="SVGID_00000095335524450495060980000005368164923997587635_" gradientUnits="userSpaceOnUse" x1="-48.8124" y1="928.3257" x2="-7.8221" y2="928.3257" gradientTransform="matrix(-1 0 0 1 1434.9741 0)">
				<stop  offset="0" style="stop-color:#F9988F"/>
				<stop  offset="1" style="stop-color:#D87873"/>
			</linearGradient>
			<path style="fill:url(#SVGID_00000095335524450495060980000005368164923997587635_);" d="M1442.8,917c7,16.4,11.7,27.3,11.7,27.3
				c23.6,4.2,29.3-0.7,29.3-0.7c-0.4-0.6-3.7-13.6-8.5-32.8L1442.8,917z"/>
			
				<linearGradient id="SVGID_00000057857232540256521010000004663200896826010010_" gradientUnits="userSpaceOnUse" x1="168.5482" y1="958.0161" x2="129.4834" y2="996.3832" gradientTransform="matrix(-1 0 0 1 1434.9741 0)">
				<stop  offset="0" style="stop-color:#052A4C"/>
				<stop  offset="1" style="stop-color:#061C2D"/>
			</linearGradient>
			<path style="fill:url(#SVGID_00000057857232540256521010000004663200896826010010_);" d="M1226.5,981.7c0,4.9,81.6,7.9,98.3,8.4
				c16.7,0.5-5.9-37.9-5.9-43.8c0,0-4.2,5.5-28.5,0C1241.2,962.1,1226.5,976.8,1226.5,981.7z"/>
			
				<linearGradient id="SVGID_00000003103143349027012210000002048878320440532144_" gradientUnits="userSpaceOnUse" x1="116.1073" y1="934.4008" x2="150.3179" y2="934.4008" gradientTransform="matrix(-1 0 0 1 1434.9741 0)">
				<stop  offset="0" style="stop-color:#F9988F"/>
				<stop  offset="1" style="stop-color:#D87873"/>
			</linearGradient>
			<path style="fill:url(#SVGID_00000003103143349027012210000002048878320440532144_);" d="M1284.7,924.8
				c3.5,13.2,5.7,21.5,5.7,21.5c24.3,5.5,28.5,0,28.5,0c0-1.3-0.7-11.3-1.7-26.3L1284.7,924.8z"/>
			
				<linearGradient id="SVGID_00000141431256768310912590000000215658540321974447_" gradientUnits="userSpaceOnUse" x1="185.1168" y1="346.012" x2="129.562" y2="504.1297" gradientTransform="matrix(-1 0 0 1 1434.9741 0)">
				<stop  offset="0" style="stop-color:#BF1A00"/>
				<stop  offset="1" style="stop-color:#99180B"/>
			</linearGradient>
			<path style="fill:url(#SVGID_00000141431256768310912590000000215658540321974447_);" d="M1112.5,473.6c0.2,1.3,8.5,1.5,16.3,1.4
				c0.5,0,1,0,1.4,0c1.2,0,2.3-0.1,3.4-0.1c0.4,0,0.8,0,1.2,0c0.2,0,0.5,0,0.7,0c0.5,0,0.9,0,1.3-0.1c0.4,0,0.9,0,1.3-0.1
				c0.4,0,0.8,0,1.1-0.1c0.3,0,0.6,0,0.9,0c-1.4,0.2-3.1,0.6-5,1c-0.2,0-0.3,0.1-0.4,0.1c-0.6,0.1-1.2,0.3-1.7,0.4
				c-0.4,0.1-0.8,0.2-1.1,0.3c-0.1,0-0.1,0-0.2,0c-0.4,0.1-0.9,0.2-1.3,0.4c-0.2,0-0.3,0.1-0.4,0.1c-0.3,0.1-0.6,0.2-0.8,0.3
				c-0.3,0.1-0.6,0.2-0.9,0.3c-0.2,0.1-0.4,0.1-0.6,0.2c-0.6,0.2-1.1,0.4-1.6,0.6c-0.2,0.1-0.5,0.2-0.7,0.3
				c-0.2,0.1-0.4,0.2-0.6,0.3c-0.6,0.3-1.1,0.5-1.5,0.8c-0.1,0.1-0.2,0.1-0.3,0.2c-0.2,0.2-0.4,0.3-0.5,0.4
				c-0.1,0.1-0.1,0.1-0.1,0.2c-0.1,0.1-0.1,0.2-0.1,0.2c0,0.1,0,0.1,0,0.2c0,0,0,0.1,0,0.2c0.8,2.3,9.6,0,13.1,0
				c3.5,0,55-15.5,55-15.5s0.2,0,0.5-0.1c0.1,0,0.2,0,0.4-0.1c0,0,0.1,0,0.1,0c0,0,0,0,0.1,0c0.1,0,0.1,0,0.2,0c0.1,0,0.2,0,0.3,0
				c0,0,0.1,0,0.1,0c0.1,0,0.1,0,0.2,0h0c0.1,0,0.1,0,0.2,0c0,0,0.1,0,0.1,0c0,0,0,0,0,0c0.1,0,0.2,0,0.3-0.1c0.1,0,0.3,0,0.4-0.1
				c0.1,0,0.2,0,0.3-0.1c0.1,0,0.3,0,0.4-0.1c0.1,0,0.2,0,0.3,0c0.1,0,0.2,0,0.3-0.1c0.5-0.1,1-0.2,1.6-0.3c0.4-0.1,0.9-0.2,1.4-0.2
				c0.2,0,0.4-0.1,0.5-0.1c0.1,0,0.3,0,0.4-0.1c0.7-0.1,1.4-0.2,2.2-0.4c0.1,0,0.2,0,0.3-0.1c0.2,0,0.5-0.1,0.7-0.1l0.2,0
				c1.2-0.2,2.4-0.4,3.7-0.6c0.1,0,0.2,0,0.4-0.1c0.8-0.2,1.7-0.3,2.5-0.4c0.3,0,0.6-0.1,0.8-0.1c0.5-0.1,1-0.2,1.5-0.3
				c0.1,0,0.1,0,0.2,0c0.3,0,0.6-0.1,0.9-0.2c0.1,0,0.2,0,0.3,0c0.4-0.1,0.8-0.1,1.1-0.2c0.7-0.1,1.4-0.2,2.2-0.4c0,0,0,0,0,0
				c0.3-0.1,0.6-0.1,0.9-0.2c0.6-0.1,1.3-0.2,1.9-0.3c0.3,0,0.6-0.1,0.9-0.2c0.2,0,0.5-0.1,0.7-0.1c0.6-0.1,1.2-0.2,1.8-0.3
				c0.4-0.1,0.9-0.2,1.3-0.2c0.4-0.1,0.7-0.1,1.1-0.2c0.1,0,0.3-0.1,0.4-0.1c1.2-0.2,2.5-0.4,3.8-0.6c0.4-0.1,0.9-0.2,1.3-0.2
				c0.2,0,0.4-0.1,0.6-0.1c0.5-0.1,1-0.2,1.5-0.3c0.7-0.1,1.4-0.2,2.2-0.4c0.4-0.1,0.8-0.1,1.2-0.2c0.9-0.2,1.8-0.3,2.7-0.5
				c0.5-0.1,1-0.2,1.5-0.3c1.1-0.2,2.3-0.4,3.5-0.6c0.7-0.1,1.5-0.3,2.2-0.4c1.4-0.2,2.8-0.5,4.2-0.7c1.6-0.3,3.3-0.6,4.9-0.9
				c0.3,0,0.6-0.1,0.9-0.2c0,0,0,0,0.1,0c0.2,0,0.4-0.1,0.6-0.1c0.2,0,0.4-0.1,0.7-0.1c0,0,0.1,0,0.1,0c0.5-0.1,1-0.2,1.6-0.3
				c1-0.2,1.9-0.3,2.9-0.5l2.4-0.4c0.8-0.1,1.5-0.3,2.3-0.4c0.2,0,0.3,0,0.5-0.1c0.2,0,0.4-0.1,0.6-0.1c0.5-0.1,0.9-0.2,1.4-0.3
				c0.5-0.1,1.1-0.2,1.6-0.3c2.8-0.5,5.5-1,8.2-1.4c0.3-0.1,0.6-0.1,1-0.2c0.1,0,0.3,0,0.4-0.1c0.3-0.1,0.7-0.1,1-0.2
				c1.2-0.2,2.3-0.4,3.4-0.6c0.3,0,0.6-0.1,0.9-0.2c0.2,0,0.5-0.1,0.7-0.1c0.2,0,0.4-0.1,0.6-0.1c1.3-0.2,2.5-0.5,3.8-0.7
				c0.2,0,0.5-0.1,0.7-0.1c0.3,0,0.5-0.1,0.8-0.1c0.7-0.1,1.4-0.3,2.1-0.4c0.4-0.1,0.8-0.2,1.2-0.2l0.2,0c0.1,0,0.1,0,0.2,0
				c0.4-0.1,0.9-0.2,1.3-0.2c0.2,0,0.3-0.1,0.5-0.1c1-0.2,1.9-0.3,2.8-0.5c0.2,0,0.4-0.1,0.6-0.1l-14,44.7c0,0,128.8,19.2,124.9,3.2
				c-0.3-1.1-0.5-2.5-0.6-4.2c-0.1-0.7-0.1-1.5-0.2-2.3c0-0.4,0-0.8-0.1-1.2c0-0.8-0.1-1.7-0.1-2.7c0-0.5,0-1,0-1.5
				c-0.2-8.5,0-20.2,0.4-32.8c0-0.1,0-0.2,0-0.2c0-1.3,0.1-2.6,0.1-3.9c0-0.1,0-0.2,0-0.3c0.2-5.6,0.4-11.4,0.7-17.1
				c0.3-6.4,0.6-12.7,0.9-18.7c0-0.2,0-0.3,0-0.5c0-0.1,0-0.2,0-0.3c0-0.4,0-0.8,0.1-1.2c0-0.5,0.1-1,0.1-1.4c0-0.5,0-1,0.1-1.5
				c0-0.1,0-0.3,0-0.4c0-0.8,0.1-1.6,0.1-2.4c0-0.1,0-0.3,0-0.4c0-0.5,0-1,0.1-1.5c0-0.2,0-0.4,0-0.5c0-0.4,0-0.8,0.1-1.2
				c0-0.2,0-0.3,0-0.4c0-0.4,0-0.9,0.1-1.3c0-0.6,0.1-1.2,0.1-1.8c0-0.4,0-0.8,0.1-1.1c0-0.8,0.1-1.5,0.1-2.2c0-0.6,0.1-1.2,0.1-1.8
				c0-0.8,0.1-1.5,0.1-2.3c0-0.7,0.1-1.3,0.1-1.9c0-0.3,0-0.6,0.1-0.9c0-0.4,0-0.8,0.1-1.1c0-0.5,0.1-1,0.1-1.5c0-0.3,0-0.6,0.1-1
				c0-0.5,0.1-1,0.1-1.5c0-0.3,0-0.6,0.1-0.9c0-0.6,0.1-1.1,0.1-1.6c0-0.1,0-0.2,0-0.3c0-0.2,0-0.4,0-0.5c0-0.2,0-0.4,0-0.6
				c0.1-1.1,0.1-2,0.2-2.6c0-0.1,0-0.3,0-0.4c0-0.1,0-0.3,0-0.3c0-0.1,0-0.2,0-0.2c0-0.1,0-0.2,0-0.2c0,0,0.1-0.1,0.1-0.1
				c0.1-0.1,0.3-0.2,0.4-0.3c0.7-0.6,1.4-1.2,2-1.7c0.1-0.1,0.1-0.1,0.2-0.2c0.4-0.4,0.8-0.7,1.1-1c0.1-0.1,0.2-0.2,0.2-0.2
				c0,0,0.1-0.1,0.1-0.1c0.2-0.2,0.3-0.3,0.5-0.5c0.1-0.1,0.2-0.2,0.3-0.3c0.1-0.1,0.2-0.2,0.3-0.3c2.6-2,4.4-5.3,5.6-9.2
				c0.2-0.7,0.4-1.5,0.6-2.3c0.1-0.3,0.1-0.5,0.2-0.8c0.1-0.5,0.2-1.1,0.3-1.6c0.1-0.5,0.2-1.1,0.2-1.7c0.5-3.9,0.5-8.2,0.2-12.4
				c0-0.1,0-0.2,0-0.3c-0.1-0.8-0.1-1.5-0.2-2.3c0-0.4-0.1-0.8-0.1-1.1c-0.1-1-0.3-2-0.4-3c0-0.1,0-0.2-0.1-0.4
				c-0.2-1.1-0.4-2.2-0.6-3.2c-0.1-0.3-0.2-0.7-0.2-1c-0.1-0.3-0.2-0.7-0.2-1c-0.1-0.3-0.2-0.7-0.2-1c-0.2-0.6-0.3-1.3-0.5-1.9
				c-0.1-0.3-0.2-0.6-0.3-1c-0.1-0.3-0.2-0.6-0.3-0.9c-0.2-0.6-0.4-1.2-0.6-1.7c-0.1-0.3-0.2-0.6-0.3-0.8c-0.2-0.6-0.5-1.2-0.8-1.8
				c-0.2-0.4-0.4-0.8-0.6-1.2c-0.5-0.9-1-1.7-1.5-2.4c-9.5-15.8-29.8-23.4-45.4-27c-11.5-2.7-20.5-3.2-20.5-3.2
				c-2-0.4-4.2-0.6-6.7-0.5h-0.3c-0.3,0-0.6,0-0.9,0c-0.2,0-0.4,0-0.6,0c-0.4,0-0.8,0-1.3,0.1c-2,0.1-4.1,0.4-6.3,0.8
				c-0.3,0-0.5,0.1-0.8,0.1c-1.5,0.3-3.2,0.6-4.8,0.9c-0.1,0-0.2,0-0.3,0.1c-0.3,0.1-0.7,0.2-1,0.2c-0.4,0.1-0.8,0.2-1.2,0.3
				c-0.3,0.1-0.6,0.2-0.9,0.2c-0.3,0.1-0.7,0.2-1.1,0.3c-0.4,0.1-0.8,0.2-1.2,0.3c-2.7,0.7-5.5,1.5-8.4,2.4
				c-0.6,0.2-1.2,0.4-1.7,0.5c-4.4,1.4-9,3-13.7,4.7c-0.5,0.2-1,0.4-1.5,0.6c-0.6,0.2-1.2,0.4-1.8,0.7c-0.9,0.4-1.9,0.7-2.8,1.1
				c-1,0.4-1.9,0.7-2.9,1.1c-1.3,0.5-2.7,1-4,1.6c-0.8,0.3-1.7,0.7-2.5,1c-1.1,0.4-2.1,0.9-3.2,1.3c-1.1,0.4-2.1,0.9-3.2,1.3
				c0,0,0,0,0,0c-1,0.4-2.1,0.9-3.1,1.3c-1.1,0.5-2.2,0.9-3.3,1.4c-1,0.4-2,0.9-3,1.3c-1.1,0.5-2.1,0.9-3.2,1.4
				c-0.5,0.2-1.1,0.5-1.6,0.7c-1.1,0.5-2.1,0.9-3.1,1.4c-2.6,1.2-5.2,2.3-7.8,3.5c-1,0.5-2.1,0.9-3.1,1.4c-0.2,0.1-0.4,0.2-0.6,0.3
				c-0.6,0.3-1.2,0.6-1.9,0.9c-1.4,0.6-2.7,1.3-4,1.9c-0.8,0.4-1.7,0.8-2.5,1.2c-1.5,0.7-2.9,1.4-4.4,2.1c-1,0.5-1.9,0.9-2.9,1.4
				c-0.2,0.1-0.4,0.2-0.6,0.3c0,0,4.6,33.2,3,47.4c0.6-0.2,1.3-0.5,1.9-0.7c1-0.4,1.9-0.7,2.9-1.1c15.6-5.8,28.9-11.1,38.6-14.9
				c0.4-0.2,0.8-0.3,1.2-0.5c2.5-1,4.5-1.8,5.8-2.3c0.2-0.1,0.4-0.2,0.6-0.2c0.5-0.2,0.8-0.3,1-0.4c0.1,0,0.1,0,0.2-0.1
				c0.2-0.1,0.2-0.1,0.3-0.1c0.2,0-3.5,3.5-0.1,15.8c6.4,23.3,4.8,42.8,4.8,42.8c-1.6,0.7-5.5,2.1-11,4c-0.5,0.2-1.1,0.4-1.7,0.6
				c-0.6,0.2-1.3,0.5-2,0.7c-0.5,0.2-1.1,0.4-1.7,0.6c-2.9,1-6.1,2.1-9.5,3.3c-1.6,0.6-3.3,1.1-5,1.7c-1.3,0.5-2.6,0.9-4,1.4
				c-1.6,0.5-3.2,1.1-4.9,1.7c-2.9,1-5.8,2-8.8,3c-0.9,0.3-1.7,0.6-2.6,0.9c-1.3,0.4-2.6,0.9-3.8,1.3c-3.4,1.2-6.9,2.3-10.3,3.5
				c-0.8,0.3-1.7,0.6-2.5,0.9c-0.6,0.2-1.2,0.4-1.8,0.6c-10.6,3.6-20.5,6.9-28.4,9.6c-0.4,0.1-0.8,0.3-1.2,0.4
				c-3.4,1.1-6.4,2.1-8.8,3c-0.6,0.2-1.1,0.4-1.6,0.6c-1.7,0.6-3,1-3.9,1.3c-0.1,0-0.2,0.1-0.3,0.1c-0.6,0.2-0.9,0.3-0.9,0.3
				s-14.6-3.8-27.7-7.3c-13.1-3.5-15.4,3.1-10.4,4.6c5,1.5,18.1,4.2,15.4,11.9c-2.7,7.7-21.5,3.5-26.1,1.5
				c-4.6-1.9-14.6-8.1-17.3-5.8s8.5,8.8,9.6,9.6c1.2,0.8-1.2,2.7,21.5,6.9C1107.1,464,1112.1,470.9,1112.5,473.6z M1140.3,474.6
				c0.3,0,0.6-0.1,0.8-0.1c0.1,0,0.3,0,0.4,0c0.4,0,0.7-0.1,0.9-0.1c0.4,0,0.4,0,0.1,0c-0.1,0-0.1,0-0.2,0c-0.2,0-0.4,0-0.6,0
				c-0.3,0-0.6,0-0.9,0.1C1140.7,474.5,1140.5,474.6,1140.3,474.6z"/>
			<path class="st21" d="M1414.4,371.3C1414.4,371.3,1414.4,371.3,1414.4,371.3"/>
			
				<linearGradient id="SVGID_00000129918287677615975130000013894766156376148629_" gradientUnits="userSpaceOnUse" x1="321.2814" y1="354.2" x2="317.6629" y2="386.7665" gradientTransform="matrix(-1 0 0 1 1434.9741 0)">
				<stop  offset="0" style="stop-color:#F9988F"/>
				<stop  offset="1" style="stop-color:#D87873"/>
			</linearGradient>
			<path style="fill:url(#SVGID_00000129918287677615975130000013894766156376148629_);" d="M992.2,386.4c38.4-23.4,48-10.8,48-7.3
				c0,3.4-15.8,8.1-13.4,13.8c2.3,5.8,33.8-15.8,35-16.1c0.4-0.1,15.2,0.7,35.1,1.8c7.4,0.4,15.6,0.8,23.9,1.3
				c34.6,1.8,73.2,3.3,82,1.9c2.9-0.5,7.5-1.8,13.2-3.6c2.6-0.8,5.3-1.8,8.3-2.8c4.6-1.6,9.5-3.3,14.5-5.2c1.5-14.2-3-47.4-3-47.4
				c-23.4,11.1-41.6,20.2-45.2,20.5c-9.6,0.8-84.2,13.1-129.5,12.3C1015.6,354.8,986.8,384,992.2,386.4z"/>
			
				<linearGradient id="SVGID_00000036960408117331394190000010428212822657409964_" gradientUnits="userSpaceOnUse" x1="193.5311" y1="439.803" x2="181.4695" y2="466.3385" gradientTransform="matrix(-1 0 0 1 1434.9741 0)">
				<stop  offset="0" style="stop-color:#F9988F"/>
				<stop  offset="1" style="stop-color:#D87873"/>
			</linearGradient>
			<path style="fill:url(#SVGID_00000036960408117331394190000010428212822657409964_);" d="M1112.5,473.6c0.3,2.1,20.4,1.4,27.7,1
				c-6,0.9-18.8,4.3-18.1,6.3c0.8,2.3,9.6,0,13.1,0c3.5,0,55-15.5,55-15.5s11.4-1.9,27.4-4.7c2.8-0.5,5.8-1,8.9-1.5
				c2.6-0.5,5.2-0.9,7.9-1.4c2.5-0.4,5.1-0.9,7.8-1.3c33.2-5.8,71.1-12.5,76.1-14c3.1-0.9,15-9.1,29.5-19.7c0.9-0.6,1.8-1.3,2.7-2
				c5.3-3.9,10.8-8,16.4-12.2c0,0-1.3-5.5-3.4-12.9c-4-13.8-11-34-18-35.6c-21.6,23-43.2,46.2-49.6,48.5c-5.7,2.3-39.8,14-69.4,24
				c-24.1,8.2-45.2,15.2-45.2,15.2s-14.6-3.8-27.7-7.3c-13.1-3.5-15.4,3.1-10.4,4.6c5,1.5,18.1,4.2,15.4,11.9
				c-2.7,7.7-21.5,3.5-26.1,1.5c-4.6-1.9-14.6-8.1-17.3-5.8s8.5,8.8,9.6,9.6c1.2,0.8-1.2,2.7,21.5,6.9
				C1107.1,464,1112.1,470.9,1112.5,473.6z M1140.3,474.6c0.9-0.1,1.7-0.2,2.2-0.2C1143.3,474.4,1142.4,474.5,1140.3,474.6z"/>
			
				<linearGradient id="SVGID_00000091700223306047284190000000641108757331500931_" gradientUnits="userSpaceOnUse" x1="8.0529" y1="359.2098" x2="89.5313" y2="359.2098" gradientTransform="matrix(-1 0 0 1 1434.9741 0)">
				<stop  offset="0" style="stop-color:#BF1A00"/>
				<stop  offset="1" style="stop-color:#99180B"/>
			</linearGradient>
			<path style="fill:url(#SVGID_00000091700223306047284190000000641108757331500931_);" d="M1345.4,360.1c7,1.6,14,21.8,18,35.6
				c2.1,7.3,3.4,12.9,3.4,12.9c5.3-4,10.7-8.1,15.9-12.1c17.6-13.6,33-25.9,37-29.9c9.1-7.1,8.5-29.1,4.4-43.2h0
				c-4.4-9.8-14.2-19.5-31.5-9.4C1384.3,318.8,1364.9,339.4,1345.4,360.1z"/>
			
				<linearGradient id="SVGID_00000009589943594626863810000017618738818774654354_" gradientUnits="userSpaceOnUse" x1="82.676" y1="259.8463" x2="75.4389" y2="322.5674" gradientTransform="matrix(-1 0 0 1 1434.9741 0)">
				<stop  offset="0" style="stop-color:#D87873"/>
				<stop  offset="1" style="stop-color:#F9988F"/>
			</linearGradient>
			<path style="fill:url(#SVGID_00000009589943594626863810000017618738818774654354_);" d="M1332.2,267.1v0.6
				c0,5,0.1,10.1,0.1,15.2c0,0.6,0,1.3,0,2c0,0.9,0,1.7,0,2.6c0.1,5.6,0.5,11.2,2,16.7c0.2,0.8,0.4,1.5,0.7,2.2
				c2.1,6,5.8,11.6,11.3,14.7c2.3,1.3,4.9,2.1,7.6,2.3c7.8,0.7,16.1-3,19.9-9.8c3.2-5.7,1.6-9.7,1.7-16.3c0-2.2-1.4-7.6-1.2-10.7
				c0.3-5.2,0.8-11.4,1.1-17.5c0.2-4.7,0.2-9.3,0-13.6c0-0.5-0.1-1-0.1-1.5c0-0.5-0.1-1-0.1-1.5c0-0.5-0.1-1-0.2-1.4
				c0-0.3-0.1-0.7-0.1-1c0-0.1,0-0.2,0-0.3c0,0,0,0,0,0c0-0.2,0-0.3-0.1-0.5c-0.4-2.2-0.9-4.2-1.5-5.9c-0.8-2-1.9-3.6-3.3-4.5
				c-4.1-2.6-9.4-2.4-14.2-1.7c-1.8,0.3-3.5,0.6-5.3,1.2c-6.8,2.1-12.9,6.3-15.9,12.6c-1.7,3.7-2.2,7.8-2.3,12
				C1332.1,264.3,1332.1,265.7,1332.2,267.1z"/>
			
				<linearGradient id="SVGID_00000008115797638548706990000008627470156258201241_" gradientUnits="userSpaceOnUse" x1="126.256" y1="191.5375" x2="123.7844" y2="285.4579" gradientTransform="matrix(-1 0 0 1 1434.9741 0)">
				<stop  offset="0" style="stop-color:#E5B313"/>
				<stop  offset="1" style="stop-color:#AF8612"/>
			</linearGradient>
			<path style="fill:url(#SVGID_00000008115797638548706990000008627470156258201241_);" d="M1292.8,228.3
				c4.2,22.7,4.5,46.1,0.8,68.9c1-0.4,2-0.8,2.9-1.1c0.9-0.4,1.9-0.7,2.8-1.1c0.6-0.2,1.2-0.5,1.8-0.7c0.5-0.2,1-0.4,1.5-0.6
				c4.7-1.7,9.3-3.3,13.7-4.7c0.6-0.2,1.2-0.4,1.7-0.5c2.9-0.9,5.7-1.7,8.4-2.4c0.4-0.1,0.8-0.2,1.2-0.3c0.4-0.1,0.7-0.2,1.1-0.3
				c0.3-0.1,0.6-0.2,0.9-0.2c0.4-0.1,0.8-0.2,1.2-0.3c0.3-0.1,0.7-0.2,1-0.2c0.1,0,0.2,0,0.3-0.1c0-0.6,0-1.3,0-2
				c0-5.1-0.1-10.1-0.1-15.2v-0.6c-1.9-0.5-3.7-1.3-5.5-2.3c-12.3-6.9-16.5-22.3-18.9-36.2c-3-17.3-4.8-35.6,1.4-52
				c1.2-3.2,2.8-6.4,4.8-9.3c-1.1-4.2-1.2-8.7-0.3-12.9l-0.1-0.1c-14.4,1.7-24.2,16.5-25.9,30.9
				C1286,199.7,1290.2,214.1,1292.8,228.3z"/>
			<path class="st33" d="M1332.2,260.5v0.6c0,5,0.1,10.1,0.1,15.2c0,0.6,0,1.3,0,2c0,0.9,0,1.7,0,2.6c14.7,1.1,29.5-5.7,40.4-15.8
				c0.8-0.8,1.8-1.7,2.7-2.6c0.2-4.7,0.2-9.3,0-13.6c0-0.5-0.1-1-0.1-1.5c0-0.5-0.1-1-0.1-1.5c0-0.5-0.1-1-0.2-1.4
				c0-0.3-0.1-0.7-0.1-1c0-0.1,0-0.2,0-0.3c0,0,0,0,0,0c0-0.2,0-0.3-0.1-0.5c-0.4-2.2-0.9-4.2-1.5-5.9c-5.9-0.4-12.5,2.7-17.3,5.6
				c-7.9,4.7-15.8,9.3-23.7,14C1332.1,257.7,1332.1,259.1,1332.2,260.5z"/>
			
				<linearGradient id="SVGID_00000072992981075467289070000017456480674434083213_" gradientUnits="userSpaceOnUse" x1="117.941" y1="182.1143" x2="58.9129" y2="241.1424" gradientTransform="matrix(-1 0 0 1 1434.9741 0)">
				<stop  offset="0" style="stop-color:#F9988F"/>
				<stop  offset="1" style="stop-color:#D87873"/>
			</linearGradient>
			<path style="fill:url(#SVGID_00000072992981075467289070000017456480674434083213_);" d="M1307.8,228.7
				c2.4,13.9,6.6,29.3,18.9,36.2c1.8,1,3.6,1.7,5.5,2.3c5.2,1.5,10.7,1.3,16.1,0c4.6-1.1,9.1-3.1,13-5.7c4.2-2.8,9.2-6.8,13.5-11.4
				h0c4.4-4.8,8.1-10.2,9.3-15.4c2.7-11.9,1.8-28.5,0.2-40.6c-1.7-13-6.5-26-16-35.1c-5.2-5-11.9-8.8-19.1-9.8
				c-10.6-1.6-21,3-28.8,10.5c-2.4,2.3-4.6,5-6.5,7.8c-2,2.9-3.6,6-4.8,9.3C1303,193.1,1304.8,211.3,1307.8,228.7z"/>
			
				<linearGradient id="SVGID_00000076591536049761673260000010108566374065426866_" gradientUnits="userSpaceOnUse" x1="64.5219" y1="157.3565" x2="-41.7024" y2="386.4426" gradientTransform="matrix(-1 0 0 1 1434.9741 0)">
				<stop  offset="0" style="stop-color:#E5B313"/>
				<stop  offset="1" style="stop-color:#AF8612"/>
			</linearGradient>
			<path style="fill:url(#SVGID_00000076591536049761673260000010108566374065426866_);" d="M1313.9,167.4c1.8,7,6.4,13.1,13.2,15.6
				c8.5,3.2,18.2,0.5,27.1,2.3c12.3,2.5,21.9,14.5,21.9,27c0,0.4,0.6,0.6,0.8,0.1c0.7-2,3.1-3.4,5.4-4.4c0,0,0,0,0.1,0
				c1.8-0.7,3.6,0.9,3.1,2.7l-10.6,37.9c-0.1,0.3-0.1,0.6-0.1,0.9c0,0,0,0,0,0c0,0.1,0,0.2,0,0.3c0.1,0.3,0.1,0.7,0.1,1
				c0.1,0.5,0.1,0.9,0.2,1.4c0.1,0.5,0.1,1,0.1,1.5c0,0.5,0.1,1,0.1,1.5c0.6,9.9-0.4,22-1,31.1c15.6,3.6,35.9,11.3,45.4,27
				c0.5,0.7,1,1.5,1.5,2.4c0.2,0.4,0.4,0.8,0.6,1.2c0.3,0.6,0.5,1.2,0.8,1.8c0.1,0.3,0.2,0.5,0.3,0.8c0.2,0.6,0.4,1.1,0.6,1.7
				c0.1,0.3,0.2,0.6,0.3,0.9c0.1,0.3,0.2,0.6,0.3,1c0.2,0.6,0.3,1.3,0.5,1.9c0.1,0.3,0.2,0.7,0.2,1c0.1,0.3,0.2,0.7,0.2,1
				c0.1,0.3,0.2,0.7,0.2,1c0.2,1.1,0.4,2.1,0.6,3.2c0,0.1,0,0.2,0.1,0.4c0.2,1,0.3,2,0.4,3c0,0.4,0.1,0.8,0.1,1.1
				c0.1,0.8,0.2,1.5,0.2,2.3c0,0.1,0,0.2,0,0.3c0.3,4.2,0.3,8.5-0.2,12.4c-0.1,0.6-0.2,1.1-0.2,1.7c-0.1,0.6-0.2,1.1-0.3,1.6
				c0,0.3-0.1,0.5-0.2,0.8c-0.2,0.8-0.4,1.6-0.6,2.3c-1.2,4-3,7.2-5.6,9.2c-0.1,0.1-0.2,0.2-0.3,0.3c-0.1,0.1-0.2,0.2-0.3,0.3
				c-0.2,0.2-0.3,0.3-0.5,0.5c0,0-0.1,0.1-0.1,0.1c-0.1,0.1-0.2,0.2-0.2,0.2c-0.3,0.3-0.7,0.6-1.1,1c-0.1,0.1-0.1,0.1-0.2,0.2
				c-0.6,0.5-1.3,1.1-2,1.7c-0.1,0.1-0.2,0.2-0.4,0.3c0,0-0.1,0.1-0.1,0.1c0,0,0,0.1,0,0.2c0,0.1,0,0.1,0,0.2c0,0.1,0,0.2,0,0.3
				c0,0.1,0,0.2,0,0.4c0,0.6-0.1,1.5-0.2,2.6c0,0.2,0,0.4,0,0.6c0,0.2,0,0.4,0,0.5c0,0.1,0,0.2,0,0.3c0,0.5-0.1,1-0.1,1.6
				c0,0.3,0,0.6-0.1,0.9c0,0.5-0.1,1-0.1,1.5c0,0.3,0,0.6-0.1,1c0,0.5-0.1,1-0.1,1.5c0,0.4,0,0.7-0.1,1.1c0,0.3,0,0.6-0.1,0.9
				c0,0.6-0.1,1.3-0.1,1.9c0,0.7-0.1,1.5-0.1,2.3c0,0.6-0.1,1.2-0.1,1.8c0,0.7-0.1,1.4-0.1,2.2c0,0.4,0,0.8-0.1,1.1
				c0,0.6-0.1,1.2-0.1,1.8c0,0.4-0.1,0.8-0.1,1.3c0,0.1,0,0.3,0,0.4c0,0.4,0,0.8-0.1,1.2c0,0.2,0,0.3,0,0.5c0,0.5-0.1,1-0.1,1.5
				c0,0.1,0,0.3,0,0.4c0,0.8-0.1,1.6-0.1,2.4c0,0.1,0,0.3,0,0.4c0,0.5-0.1,1-0.1,1.5c0,0.5-0.1,0.9-0.1,1.4c0,0.4,0,0.8-0.1,1.2
				c25.7,8.7,50.8-2.8,55.1-4.8c4.5-2.1,23.4-11.2,34.5-31.5c3.9-7.2,6.3-11.5,5.8-17.4c-1.6-17.8-23.6-23.2-31.1-38.2
				c-6.4-12.8-0.5-27.9,4.5-41.3c5-13.4,8.6-30-0.9-40.6c-11-12.3-32.5-8.5-44.6-19.6c-9-8.2-10-21.6-10.8-33.7
				c-0.7-12.1-2.5-25.7-12.1-33.1c-4.3-3.3-9.6-4.8-14.8-6.3c-7.4-2.1-14.8-4.3-22.3-6.5c-8.5-2.5-17.1-4.9-25.9-5
				c-13.6-0.2-27.8,6.3-33.9,18.5c-0.9,1.8-1.5,3.6-2,5.6C1312.7,158.7,1312.8,163.2,1313.9,167.4z"/>
			<path class="st16" d="M1234.4,457.8c2.5-0.4,5.1-0.9,7.8-1.3c33.2-5.8,71.1-12.5,76.1-14c3.1-0.9,15-9.1,29.5-19.7
				c-1.2-1.5-2.6-2.7-4.4-3.4c-8.7-3.3-25.8,6.7-34.3,9.5c-13.1,4.5-26.3,9-39.4,13.5C1257.6,446.6,1245.1,451,1234.4,457.8z"/>
			<path class="st16" d="M1096.9,378.6c7.4,0.4,15.6,0.8,23.9,1.3c34.6,1.8,73.2,3.3,82,1.9c2.9-0.5,7.5-1.8,13.2-3.6
				c-1-1.2-3-2-6.3-2c-33-0.6-66.1-1.2-99.1-1.7c-3.9-0.1-8-0.1-11.3,1.9C1098.4,376.9,1097.5,377.7,1096.9,378.6z"/>
		</g>
	</g>
</g>
</svg>
