<?xml version="1.0" encoding="utf-8"?>
<!-- Generator: Adobe Illustrator 26.0.2, SVG Export Plug-In . SVG Version: 6.00 Build 0)  -->
<svg version="1.1" id="Layer_1" xmlns="http://www.w3.org/2000/svg" xmlns:xlink="http://www.w3.org/1999/xlink" x="0px" y="0px"
	 viewBox="0 0 828.2 1867.1" style="enable-background:new 0 0 828.2 1867.1;" xml:space="preserve">
<style type="text/css">
	.st0{clip-path:url(#SVGID_00000000915194197191746120000016391216046565105307_);}
	.st1{clip-path:url(#SVGID_00000073723499571350819890000006393828273254452097_);}
	.st2{fill:url(#SVGID_00000117666586655534592230000003241623669605389461_);}
	.st3{fill:url(#SVGID_00000016758577781888911580000015986617159411012504_);}
	.st4{fill:url(#SVGID_00000042736123733259175180000011843314327407608965_);}
	.st5{fill:url(#SVGID_00000070806894248602045430000011605570676028684945_);}
	.st6{fill:url(#SVGID_00000012449925537138095840000012020936515755113659_);}
	.st7{fill:url(#SVGID_00000090279634776960458480000016598994095330767005_);}
	.st8{opacity:0.43;fill:url(#SVGID_00000061465935868872840170000002357604116134203011_);enable-background:new    ;}
	.st9{fill:url(#SVGID_00000075162402199143580910000017494025888986408635_);}
	.st10{fill:url(#SVGID_00000006680183000020797170000003046564817433761429_);}
	.st11{fill:url(#SVGID_00000034091492900966579670000013705136882624187523_);}
	
		.st12{opacity:0.56;fill:none;stroke:#7F1712;stroke-width:4;stroke-linecap:round;stroke-miterlimit:10;enable-background:new    ;}
	.st13{fill:none;stroke:#7F1712;stroke-width:4;stroke-linecap:round;stroke-miterlimit:10;}
	.st14{opacity:0.2;enable-background:new    ;}
	.st15{opacity:0.47;fill:url(#SVGID_00000150783687608224535240000014864000208483399062_);enable-background:new    ;}
	.st16{fill:url(#SVGID_00000127746404297242263450000004302150165995551892_);}
	.st17{opacity:0.71;fill:url(#SVGID_00000147925730232707061370000009690955071585532332_);enable-background:new    ;}
	.st18{opacity:0.71;fill:url(#SVGID_00000124846158901588313380000018103350013215970953_);enable-background:new    ;}
	.st19{fill:none;stroke:#000000;stroke-width:4;stroke-miterlimit:10;}
	.st20{fill:url(#SVGID_00000024680436853465164890000012238228331571698322_);}
	.st21{fill:url(#SVGID_00000129887966562384249720000006955043964466877063_);}
	.st22{fill:url(#SVGID_00000137090463933866362590000013478886912600791948_);}
	.st23{fill:url(#SVGID_00000111871541667620426100000012833218985677816765_);}
	.st24{fill:url(#SVGID_00000004542964783229562990000017127100810242036650_);}
	.st25{fill:url(#SVGID_00000057834640793673116650000013151889732137300156_);}
	.st26{fill:url(#SVGID_00000067211340960462259840000006923853566428605867_);}
	.st27{fill:url(#SVGID_00000150104794627217421180000001453030518838892943_);}
	.st28{fill:url(#SVGID_00000021800933360583797080000014392233616118759325_);}
	.st29{fill:url(#SVGID_00000150068538770195594790000010165808375412358294_);}
	.st30{fill:url(#SVGID_00000113337394576864572300000000492428194090301325_);}
	.st31{opacity:0.18;enable-background:new    ;}
	.st32{fill:url(#SVGID_00000096769927897200903720000002127168389446554755_);}
	.st33{fill:url(#SVGID_00000110443333334647497230000006465031176027004855_);}
	.st34{fill:#3478C5;}
	.st35{fill:#032F61;}
	.st36{fill:url(#SVGID_00000061448512744305676530000009383631759970189501_);}
	.st37{clip-path:url(#SVGID_00000042706684590491698210000006632804037164507833_);}
	.st38{clip-path:url(#SVGID_00000174583468163151554480000003702174450854961577_);}
	.st39{fill:url(#SVGID_00000148622409423681248160000010768689694901343888_);}
	.st40{fill:url(#SVGID_00000155130436042998577180000016259776074763334077_);}
	.st41{fill:none;stroke:#1A5284;stroke-width:2;stroke-miterlimit:10;}
	.st42{fill:url(#SVGID_00000170254998748987094370000007949214818141961121_);}
	.st43{fill:url(#SVGID_00000156570659069789735200000005858495242361735076_);}
	.st44{fill:url(#SVGID_00000102520601567032834940000016864560928852328362_);}
	.st45{fill:url(#SVGID_00000011713131019662319110000001584359609862716593_);}
	.st46{fill:url(#SVGID_00000173151159385080933580000003517355001397083525_);}
	.st47{fill:url(#SVGID_00000052071213736304636990000017818427793638870959_);}
	.st48{fill:url(#SVGID_00000126315852456358222880000015785305214858616731_);}
	.st49{fill:url(#SVGID_00000005235033024840698550000009014157707358038702_);}
	.st50{fill:url(#SVGID_00000174587972412986209820000004532029703758376123_);}
	.st51{fill:url(#SVGID_00000144306078203574179410000011302182020711966088_);}
	.st52{fill:url(#SVGID_00000176008948022133586790000011436182484278372261_);}
	.st53{fill:url(#SVGID_00000057105736909418480260000016423953969048779444_);}
	.st54{fill:url(#SVGID_00000168080251199054046850000018037966349455849106_);}
	.st55{fill:none;stroke:#49939B;stroke-width:1.5;stroke-linecap:round;stroke-linejoin:round;}
	.st56{fill:none;stroke:#49939B;stroke-width:1.5;stroke-linecap:round;stroke-linejoin:round;stroke-dasharray:1.0286,4.1145;}
	.st57{fill:none;stroke:#49939B;stroke-width:1.5;stroke-linecap:round;stroke-linejoin:round;stroke-dasharray:1.018,4.0718;}
	.st58{fill:none;stroke:#49939B;stroke-width:1.5;stroke-linecap:round;stroke-linejoin:round;stroke-dasharray:1.016,4.0641;}
	.st59{fill:url(#SVGID_00000119830786959499575010000001083196392818984847_);}
	.st60{fill:url(#SVGID_00000146473582513452162550000004316981419805818029_);}
	.st61{fill:url(#SVGID_00000111901731275017630220000001449945993876342702_);}
	.st62{fill:url(#SVGID_00000101088612667027386960000015481122191544322483_);}
	.st63{fill:url(#SVGID_00000181797466444521814140000014008321509882628525_);}
	.st64{fill:url(#SVGID_00000129914815483104082060000014955536475639095996_);}
	.st65{fill:url(#SVGID_00000145741650251261148950000006111487417655185297_);}
	.st66{fill:url(#SVGID_00000018202040787290463210000011507469791929671559_);}
	.st67{fill:url(#SVGID_00000169525668699063257080000011263373705022443664_);}
	.st68{fill:url(#SVGID_00000108296940389591768500000006712696881329948084_);}
	.st69{fill:url(#SVGID_00000074441237802179404250000015126255320107660201_);}
	.st70{fill:url(#SVGID_00000117649709832621555030000005614455582575886513_);}
	.st71{fill:url(#SVGID_00000013175190591534954860000000413994591957507760_);}
	.st72{fill:url(#SVGID_00000166667415784699207780000011344285342357759671_);}
	.st73{fill:url(#SVGID_00000022558797336357524740000010791472260342909858_);}
	.st74{fill:url(#SVGID_00000181770450099349615780000012658362410291973311_);}
	.st75{fill:url(#SVGID_00000139288366736544351650000001847388873274611893_);}
	.st76{fill:url(#SVGID_00000005989779008488561280000015944190678695301774_);}
	.st77{fill:url(#SVGID_00000183243126336686675090000008654497049886459275_);}
</style>
<g>
	<g>
		<g>
			<defs>
				<path id="SVGID_1_" d="M875.2,463c111.5,39.9,216.3-54,293.3,51.9c78.6,106-76.2,704.6-53.4,859.9
					c22.8,153.9-6.3,345-133.5,396.3c-126.5,50.6-349.6-37.8-583-42.5c-231.8-4-473.7,77-615.9,20.2
					c-143.8-56-187-248.4-185.5-428.1c0-180.3-73.6-514.5,47.4-607.7c119.4-93.2,435-238,603.9-255.6
					C417.4,440,763.6,423.7,875.2,463z"/>
			</defs>
			<clipPath id="SVGID_00000146470268633101625150000007738540201455398038_">
				<use xlink:href="#SVGID_1_"  style="overflow:visible;"/>
			</clipPath>
			<g style="clip-path:url(#SVGID_00000146470268633101625150000007738540201455398038_);">
				<g>
					<g>
						<g>
							<defs>
								<path id="SVGID_00000019663588095293804370000009492349629152205751_" d="M468,720.6c111.5,46.4,194,157.2,271,280.5
									c78.6,123.4,152.4,258.5,175.2,439.2c22.8,179.1-6.3,401.4-133.5,461.2c-126.5,58.9-349.6-44-583-49.5
									c-231.8-4.7-473.7,89.6-615.9,23.5c-143.8-65.2-187-289.1-185.5-498.1c0-209.8,47.1-403,168.2-511.5
									c119.4-108.4,314.2-131.2,483.1-151.6C216.5,693.9,356.4,675,468,720.6z"/>
							</defs>
							<clipPath id="SVGID_00000149350694518506170570000005530988029094664866_">
								<use xlink:href="#SVGID_00000019663588095293804370000009492349629152205751_"  style="overflow:visible;"/>
							</clipPath>
							<g style="clip-path:url(#SVGID_00000149350694518506170570000005530988029094664866_);">
								
									<linearGradient id="SVGID_00000135675430333239083590000002630092505679998106_" gradientUnits="userSpaceOnUse" x1="-1450.3411" y1="1643.7111" x2="-1451.6183" y2="1526.2108" gradientTransform="matrix(-1 0 0 -1 -1008.5881 3558.1799)">
									<stop  offset="0" style="stop-color:#1870B2;stop-opacity:0.3"/>
									<stop  offset="1" style="stop-color:#18689E"/>
								</linearGradient>
								
									<ellipse style="fill:url(#SVGID_00000135675430333239083590000002630092505679998106_);" cx="442.4" cy="1974" rx="425.3" ry="55"/>
								<g>
									
										<linearGradient id="SVGID_00000099623765264541570470000010554275283414384827_" gradientUnits="userSpaceOnUse" x1="-1642.2213" y1="1823.0555" x2="-1647.6206" y2="1584.1385" gradientTransform="matrix(-1 0 0 -1 -1008.5881 3558.1799)">
										<stop  offset="0" style="stop-color:#052A4C"/>
										<stop  offset="1" style="stop-color:#061C2D"/>
									</linearGradient>
									<polygon style="fill:url(#SVGID_00000099623765264541570470000010554275283414384827_);" points="626.2,1976.3 
										645.7,1976.3 645.7,1699 626.2,1699 									"/>
									
										<linearGradient id="SVGID_00000026149455591293134130000005887565101588411275_" gradientUnits="userSpaceOnUse" x1="-1201.2965" y1="1813.0909" x2="-1206.6957" y2="1574.174" gradientTransform="matrix(-1 0 0 -1 -1008.5881 3558.1799)">
										<stop  offset="0" style="stop-color:#052A4C"/>
										<stop  offset="1" style="stop-color:#061C2D"/>
									</linearGradient>
									<polygon style="fill:url(#SVGID_00000026149455591293134130000005887565101588411275_);" points="185,1976.3 204.6,1976.3 
										204.6,1699 185,1699 									"/>
									
										<linearGradient id="SVGID_00000029749156107415480750000012554804351661005201_" gradientUnits="userSpaceOnUse" x1="-1419.3375" y1="1952.1709" x2="-1419.3375" y2="1846.8154" gradientTransform="matrix(-1 0 0 -1 -1008.5881 3558.1799)">
										<stop  offset="0" style="stop-color:#E5B313"/>
										<stop  offset="1" style="stop-color:#AF8612"/>
									</linearGradient>
									<path style="fill:url(#SVGID_00000029749156107415480750000012554804351661005201_);" d="M181.3,1709.8h458.9
										c6.9,0,12.5-5.6,12.5-12.5V1621c0-6.9-5.6-12.5-12.5-12.5H181.3c-6.9,0-12.5,5.6-12.5,12.5v76.3
										C168.7,1704.3,174.4,1709.8,181.3,1709.8z"/>
								</g>
								
									<linearGradient id="SVGID_00000049200683738031595850000008692144003916334746_" gradientUnits="userSpaceOnUse" x1="-1412.7881" y1="1980.2719" x2="-1412.7881" y2="1891.5795" gradientTransform="matrix(-1 0 0 -1 -1008.5881 3558.1799)">
									<stop  offset="0" style="stop-color:#215E87"/>
									<stop  offset="1" style="stop-color:#0D4168"/>
								</linearGradient>
								<path style="fill:url(#SVGID_00000049200683738031595850000008692144003916334746_);" d="M202.3,1615.9
									c10.6,6.9,27.1,13.1,48,18.3c39.1,9.7,93.5,15.7,153.9,15.7s114.7-6,153.9-15.7c20.9-5.2,37.4-11.4,48-18.3
									c-10.6-6.9-27.1-13.1-48-18.3c-39.1-9.7-93.5-15.7-153.9-15.7s-114.7,6-153.9,15.7C229.4,1602.9,213,1609.1,202.3,1615.9z"
									/>
								
									<linearGradient id="SVGID_00000180346155624256811660000012141739120570305162_" gradientUnits="userSpaceOnUse" x1="-1414.7081" y1="2009.6278" x2="-1413.1097" y2="1966.4731" gradientTransform="matrix(-1 0 0 -1 -1008.5881 3558.1799)">
									<stop  offset="0" style="stop-color:#052A4C"/>
									<stop  offset="1" style="stop-color:#061C2D"/>
								</linearGradient>
								<path style="fill:url(#SVGID_00000180346155624256811660000012141739120570305162_);" d="M188.8,1597.7
									c0,6.4,4.8,12.6,13.6,18.3c10.6-6.9,27.1-13.1,48-18.3c39.1-9.7,93.5-15.7,153.9-15.7s114.7,6,153.9,15.7
									c20.9,5.2,37.4,11.4,48,18.3c8.8-5.7,13.6-11.9,13.6-18.3c0-28.9-96.5-52.2-215.4-52.2S188.8,1568.9,188.8,1597.7z"/>
								
									<linearGradient id="SVGID_00000082328813235239427870000008237690610386678460_" gradientUnits="userSpaceOnUse" x1="-344.7274" y1="1245.6721" x2="-407.8294" y2="1150.318" gradientTransform="matrix(0.7429 -0.6694 0.6694 0.7429 -242.2183 476.9368)">
									<stop  offset="0" style="stop-color:#B0D4EA"/>
									<stop  offset="1" style="stop-color:#70B5E8"/>
								</linearGradient>
								
									<path style="opacity:0.43;fill:url(#SVGID_00000082328813235239427870000008237690610386678460_);enable-background:new    ;" d="
									M228.6,1612.5c-6.9,9.7-3.8,22.8,5,28c9.1,5.5,22.7,1.4,27.6-10c-5.1,12.5,1.9,25.3,11.4,27.7c7.2,1.8,15.8-2.3,20.5-10.4
									c-1.8,11.5,6.8,21.7,17.3,22.3c10,0.5,19.3-7.9,19.5-18.9c2.3,0.3,11.6,1.4,18.7-4.7c8.4-7.2,7.3-18.7,7-23.8
									c-1-12.8-9.1-32.3-26-34.8c-11.7-1.7-21.3,5.7-23.9,8c-1.9-7.2-7.8-12.6-15-13.6c-9.3-1.2-15.5,5.7-16,6.3
									c0.8-8.8-6.3-16.4-14.8-16.5c-8.6-0.1-15.7,7.4-15.1,16.3c-7.6-5.8-16.8-6.4-21.3-2.5
									C218.2,1590.6,218.1,1603.8,228.6,1612.5z"/>
								<g>
									
										<linearGradient id="SVGID_00000028286105724971739480000015551521969029755575_" gradientUnits="userSpaceOnUse" x1="-1245.5679" y1="2194.8225" x2="-1435.6399" y2="1943.5408" gradientTransform="matrix(-1 0 0 -1 -1008.5881 3558.1799)">
										<stop  offset="0" style="stop-color:#AD4D1E"/>
										<stop  offset="1" style="stop-color:#A03227"/>
									</linearGradient>
									<path style="fill:url(#SVGID_00000028286105724971739480000015551521969029755575_);" d="M205,1320.4
										c0.4,17.1,5.1,40.7,15.4,41.8c32.1,12.6,31.3,39.9,31.3,39.9c-1.5,6.8-2.4,13.3-2.7,19.6c-3.6,59.9,38.9,96.4,38.9,96.4
										c11.8,27.3,14.3,52.3,13.6,72c-1,25.3-7.7,41.5-7.7,41.5c-22.2-0.8-24.7,23.8,0,23.7c67.6,0.8,51.4-78,51-79.6l11.7,14.7
										c-8.8,22.1,17.4,41.2,17.4,41.2c-21.1-0.8-29.1,14.8-17.4,21.6c11.7,6.9,132.2-5.2,132.2-5.2c134,25,102-48.6,102-48.6
										c-24.7,36.2-84.7,23.9-84.7,23.9s17.3-89.7-62.5-153.4c-79.8-63.7-77.6-95.8-77.6-95.8l-26.6-58.9
										c-56.7-43.3-74.2-6.1-91.4-6.9c-6.4-0.3-13.6-2.4-20-4.2c-11-3-20.3-5.1-21.8,4.2C205.2,1311.4,204.9,1315.6,205,1320.4z"
										/>
									
										<linearGradient id="SVGID_00000052804558082574902570000009934453681059582863_" gradientUnits="userSpaceOnUse" x1="-1321.2108" y1="2207.9204" x2="-1357.3455" y2="2175.311" gradientTransform="matrix(-1 0 0 -1 -1008.5881 3558.1799)">
										<stop  offset="0" style="stop-color:#7F1712"/>
										<stop  offset="1" style="stop-color:#5B0909"/>
									</linearGradient>
									<path style="fill:url(#SVGID_00000052804558082574902570000009934453681059582863_);" d="M369.9,1353.5
										c2,2.9,4,6.2,3.8,9.8c-0.3,4.6-4.3,8-8.1,10.8c-11.7,8.8-23.3,17.8-35,26.6c-3.4,2.5-6.9,5.3-11,6.5c-4,1.2-8.9,0.8-12-2.1
										c-4.8-4.5-3.4-12.2-1.7-18.6c3.5-12.7,6.9-25.3,10.4-38c2.4-8.9,3.6-26.3,11.1-32.6c8.8-7.2,15.3,2,20.7,8.5
										C352.5,1330,369.9,1346.3,369.9,1353.5z"/>
									
										<linearGradient id="SVGID_00000157998230397284950490000006445891440440502974_" gradientUnits="userSpaceOnUse" x1="-1236.0881" y1="2247.0598" x2="-1213.569" y2="2247.0598" gradientTransform="matrix(-1 0 0 -1 -1008.5881 3558.1799)">
										<stop  offset="0" style="stop-color:#7F1712"/>
										<stop  offset="1" style="stop-color:#5B0909"/>
									</linearGradient>
									<path style="fill:url(#SVGID_00000157998230397284950490000006445891440440502974_);" d="M205,1320.4l0.6,0.3
										c8.4-2.8,15.8-8.5,20.9-15.7l1-0.9c-11-3-20.3-5.1-21.8,4.2C205.2,1311.4,204.9,1315.6,205,1320.4z"/>
									<path class="st12" d="M361.5,1578c2.9-14.9,12.7-48.1,42-48.6"/>
									<path class="st13" d="M241.8,1347.5c0,0-15.8,1.3-30.8-4.3"/>
									<path class="st14" d="M287.9,1518c11.8,27.3,14.3,52.3,13.6,72c7.8-9.9,10.4-28.5,8.5-37.5c-3.2-14.3-11.6-26.7-18.9-39.3
										c-13.7-23.7-24.1-49.4-30.9-75.9c-1-4-2-8-4.4-11.2c-1.6-2.2-4.1-3.9-6.8-4.3C245.4,1481.6,287.9,1518,287.9,1518z"/>
								</g>
								
									<linearGradient id="SVGID_00000005950470839958794080000016598869697342095242_" gradientUnits="userSpaceOnUse" x1="-172.477" y1="1529.8514" x2="-234.3615" y2="1436.337" gradientTransform="matrix(0.5915 -0.8063 0.8063 0.5915 -579.4399 586.2026)">
									<stop  offset="0" style="stop-color:#B0D4EA"/>
									<stop  offset="1" style="stop-color:#70B5E8"/>
								</linearGradient>
								
									<path style="opacity:0.47;fill:url(#SVGID_00000005950470839958794080000016598869697342095242_);enable-background:new    ;" d="
									M452.1,1657.1c11.2,3.8,22.6-3.3,25.4-5.2c1.4,8.1,8.3,14.2,16.3,14.6c8.5,0.4,16.3-5.6,18-14.3
									c0.6,11.6,11.1,19.9,21.5,18.3c9.9-1.6,17.2-11.7,15.2-22.5c1.8-0.1,11.2-0.8,17.4-8.5c5-6.1,8.6-17.7,2-24.7
									c-4.7-5.1-13.3-6.3-21-2.8c0.8-7.8-2.9-15.2-9.4-18.7c-7.7-4.2-18-2.1-23.9,5.5c-3.3-6.7-10.3-10.8-17.4-10.3
									c-9.4,0.7-14,8.8-14.4,9.4c-1.1-8.8-9.5-14.8-17.9-13.1s-13.9,10.4-11.5,19c-8.3-0.3-12.3,2.4-14.2,4.1
									C427.1,1618.5,433.5,1650.8,452.1,1657.1z"/>
								
									<linearGradient id="SVGID_00000086669436129155090240000015950891615454053535_" gradientUnits="userSpaceOnUse" x1="-1412.7881" y1="1911.4587" x2="-1412.7881" y2="1860.9958" gradientTransform="matrix(-1 0 0 -1 -1008.5881 3558.1799)">
									<stop  offset="0" style="stop-color:#052A4C"/>
									<stop  offset="1" style="stop-color:#061C2D"/>
								</linearGradient>
								<path style="fill:url(#SVGID_00000086669436129155090240000015950891615454053535_);" d="M188.8,1597.7v36.5
									c0,28.9,96.5,52.2,215.4,52.2s215.4-23.4,215.4-52.2v-36.5c0,6.4-4.8,12.6-13.6,18.3c-10.6,6.9-27.1,13.1-48,18.3
									c-39.1,9.7-93.5,15.7-153.9,15.7s-114.7-6-153.9-15.7c-20.9-5.2-37.4-11.4-48-18.3C193.6,1610.3,188.8,1604.2,188.8,1597.7z
									"/>
								
									<linearGradient id="SVGID_00000120537484195092526180000016908496176270477697_" gradientUnits="userSpaceOnUse" x1="-1361.4971" y1="2146.6465" x2="-1424.599" y2="2051.2925" gradientTransform="matrix(-1 0 0 -1 -1008.5881 3558.1799)">
									<stop  offset="0" style="stop-color:#B0D4EA"/>
									<stop  offset="1" style="stop-color:#70B5E8"/>
								</linearGradient>
								
									<path style="opacity:0.71;fill:url(#SVGID_00000120537484195092526180000016908496176270477697_);enable-background:new    ;" d="
									M418.5,1498.5c11.6-2.6,18.1-14.4,15.1-24.1c-3.1-10.2-15.9-16.3-27.1-11.1c12.1-5.9,15.5-20,10.1-28.1
									c-4.1-6.1-13.3-8.8-22.1-6c9-7.2,9.5-20.7,2-28.1c-7.2-7.1-19.7-7-27.1,1c-1.4-1.7-7.7-8.8-17.1-9c-11-0.3-18.1,9-21.1,13.1
									c-7.7,10.2-14.9,30.1-4,43.2c7.5,9.1,19.7,10,23.1,10.1c-3.5,6.7-2.6,14.7,2,20.1c6.1,7.2,15.4,6.1,16.1,6
									c-6.4,6-6.3,16.4,0,22.1c6.3,5.8,16.7,5,22.1-2c1.7,9.5,8.3,16,14.1,16.1C411.5,1521.6,420.4,1511.9,418.5,1498.5z"/>
								
									<linearGradient id="SVGID_00000174599623914429958040000016043582696798247047_" gradientUnits="userSpaceOnUse" x1="-1520.6105" y1="2032.1364" x2="-1449.8168" y2="2032.1364" gradientTransform="matrix(-1 0 0 -1 -1008.5881 3558.1799)">
									<stop  offset="0" style="stop-color:#B0D4EA"/>
									<stop  offset="1" style="stop-color:#70B5E8"/>
								</linearGradient>
								
									<path style="opacity:0.71;fill:url(#SVGID_00000174599623914429958040000016043582696798247047_);enable-background:new    ;" d="
									M502.1,1552c7.2-1.6,11.3-9,9.5-15.2c-2-6.4-10-10.3-17-7c7.6-3.7,9.7-12.6,6.3-17.7c-2.5-3.9-8.3-5.6-13.8-3.8
									c5.6-4.6,5.9-13,1.2-17.7c-4.4-4.4-12.3-4.4-17,0.7c-0.9-1.1-4.8-5.6-10.7-5.6c-6.9-0.2-11.3,5.6-13.3,8.2
									c-4.9,6.4-9.3,18.9-2.5,27.1c4.7,5.7,12.3,6.2,14.5,6.3c-2.2,4.1-1.7,9.2,1.2,12.6c3.8,4.5,9.7,3.9,10.1,3.8
									c-4,3.8-4,10.3,0,13.8c4,3.7,10.4,3.1,13.8-1.2c1,5.9,5.2,10.1,8.8,10.1C497.8,1566.6,503.4,1560.5,502.1,1552z"/>
								<g>
									<path class="st19" d="M460,1519.3c1.9-0.1,2.8-0.2,2.1-0.2C461.6,1519.1,460.8,1519.1,460,1519.3z"/>
									
										<linearGradient id="SVGID_00000037665648371403968430000003054583385199443075_" gradientUnits="userSpaceOnUse" x1="-1622.5244" y1="1976.9908" x2="-1663.0902" y2="1665.3719" gradientTransform="matrix(-1 0 0 -1 -1008.5881 3558.1799)">
										<stop  offset="0" style="stop-color:#052A4C"/>
										<stop  offset="1" style="stop-color:#061C2D"/>
									</linearGradient>
									<path style="fill:url(#SVGID_00000037665648371403968430000003054583385199443075_);" d="M541.1,1996.5
										c0,4.6,76.8,7.4,92.5,7.9s-5.6-35.7-5.6-41.2c0-1.2-0.7-10.6-1.6-24.7c-3.7-51.5-12.2-164.9-12.2-164.9l46.5-160.1
										c-0.7,14.8,21.4,170.4,21.4,170.4c-0.5,3,42.1,103.2,62.7,151.7c6.6,15.4,11,25.7,11,25.7s-42.4,23.8-50.7,28.4
										c-8.4,4.6-5.3,9-6.1,13.4c-0.8,4.3,92.4-2.9,94.6-10.8c2.2-7.9-8.7-29.5-10.1-31.7c-0.4-0.6-3.5-12.8-8-30.9
										c-13.4-53.9-38.9-159.5-38.9-159.5s-7.3-131.9-6.7-167.3c0.8-35.3-4-53.7-15.1-65.3c-7.5-7.9-110.9-8.2-110.9-8.2
										c-33.4,11.2-39.6,219.2-45.2,237.4c-4.4,14.5,24.8,128.9,37.2,176.1c3.3,12.4,5.4,20.2,5.4,20.2
										C554.9,1978,541.1,1991.9,541.1,1996.5z"/>
									<path class="st19" d="M462.1,1519.1c-0.5,0-1.1,0.1-2.1,0.2C462,1519.2,462.8,1519.1,462.1,1519.1z"/>
									
										<linearGradient id="SVGID_00000062166019073042747400000012149575330431075217_" gradientUnits="userSpaceOnUse" x1="-1725.8635" y1="1588.1467" x2="-1792.1652" y2="1554.6676" gradientTransform="matrix(-1 0 0 -1 -1008.5881 3558.1799)">
										<stop  offset="0" style="stop-color:#052A4C"/>
										<stop  offset="1" style="stop-color:#061C2D"/>
									</linearGradient>
									<path style="fill:url(#SVGID_00000062166019073042747400000012149575330431075217_);" d="M698.7,2003.1
										c-0.8,4.3,92.4-2.9,94.6-10.8c2.2-7.9-8.7-29.5-10.1-31.7c0,0-5.4,4.6-27.6,0.7c0,0-42.4,23.8-50.7,28.4
										C696.5,1994.3,699.6,1998.7,698.7,2003.1z"/>
									
										<linearGradient id="SVGID_00000010288665059201142080000000948145875506863506_" gradientUnits="userSpaceOnUse" x1="-1791.8223" y1="1611.88" x2="-1753.2223" y2="1611.88" gradientTransform="matrix(-1 0 0 -1 -1008.5881 3558.1799)">
										<stop  offset="0" style="stop-color:#F9988F"/>
										<stop  offset="1" style="stop-color:#D87873"/>
									</linearGradient>
									<path style="fill:url(#SVGID_00000010288665059201142080000000948145875506863506_);" d="M744.7,1935.6
										c6.6,15.4,11,25.7,11,25.7c22.2,4,27.6-0.7,27.6-0.7c-0.4-0.6-3.5-12.8-8-30.9L744.7,1935.6z"/>
									
										<linearGradient id="SVGID_00000126320273031674789980000009163168978219417241_" gradientUnits="userSpaceOnUse" x1="-1587.2717" y1="1583.9934" x2="-1624.033" y2="1547.8885" gradientTransform="matrix(-1 0 0 -1 -1008.5881 3558.1799)">
										<stop  offset="0" style="stop-color:#052A4C"/>
										<stop  offset="1" style="stop-color:#061C2D"/>
									</linearGradient>
									<path style="fill:url(#SVGID_00000126320273031674789980000009163168978219417241_);" d="M541.1,1996.5
										c0,4.6,76.8,7.4,92.5,7.9s-5.6-35.7-5.6-41.2c0,0-4,5.2-26.8,0C554.9,1978,541.1,1991.9,541.1,1996.5z"/>
									
										<linearGradient id="SVGID_00000070808600234077338500000004097284149243238333_" gradientUnits="userSpaceOnUse" x1="-1636.6454" y1="1606.2809" x2="-1604.4453" y2="1606.2809" gradientTransform="matrix(-1 0 0 -1 -1008.5881 3558.1799)">
										<stop  offset="0" style="stop-color:#F9988F"/>
										<stop  offset="1" style="stop-color:#D87873"/>
									</linearGradient>
									<path style="fill:url(#SVGID_00000070808600234077338500000004097284149243238333_);" d="M595.9,1942.9
										c3.3,12.4,5.4,20.2,5.4,20.2c22.9,5.2,26.8,0,26.8,0c0-1.2-0.7-10.6-1.6-24.7L595.9,1942.9z"/>
									
										<linearGradient id="SVGID_00000050639973796262812140000018141803048619306633_" gradientUnits="userSpaceOnUse" x1="-1572.0135" y1="2160.0237" x2="-1624.2926" y2="2011.2295" gradientTransform="matrix(-1 0 0 -1 -1008.5881 3558.1799)">
										<stop  offset="0" style="stop-color:#BF1A00"/>
										<stop  offset="1" style="stop-color:#99180B"/>
									</linearGradient>
									<path style="fill:url(#SVGID_00000050639973796262812140000018141803048619306633_);" d="M433.8,1518.3
										c0.2,1.2,8,1.4,15.3,1.3c0.5,0,0.9,0,1.3,0c1.1,0,2.2-0.1,3.2-0.1c0.4,0,0.8,0,1.1,0c0.2,0,0.5,0,0.7,0
										c0.5,0,0.8,0,1.2-0.1c0.4,0,0.8,0,1.2-0.1c0.4,0,0.8,0,1-0.1c0.3,0,0.6,0,0.8,0c-1.3,0.2-2.9,0.6-4.7,0.9
										c-0.2,0-0.3,0.1-0.4,0.1c-0.6,0.1-1.1,0.3-1.6,0.4c-0.4,0.1-0.8,0.2-1,0.3c-0.1,0-0.1,0-0.2,0c-0.4,0.1-0.8,0.2-1.2,0.4
										c-0.2,0-0.3,0.1-0.4,0.1c-0.3,0.1-0.6,0.2-0.8,0.3c-0.3,0.1-0.6,0.2-0.8,0.3c-0.2,0.1-0.4,0.1-0.6,0.2
										c-0.6,0.2-1,0.4-1.5,0.6c-0.2,0.1-0.5,0.2-0.7,0.3c-0.2,0.1-0.4,0.2-0.6,0.3c-0.6,0.3-1,0.5-1.4,0.8
										c-0.1,0.1-0.2,0.1-0.3,0.2c-0.2,0.2-0.4,0.3-0.5,0.4s-0.1,0.1-0.1,0.2c-0.1,0.1-0.1,0.2-0.1,0.2c0,0.1,0,0.1,0,0.2
										c0,0,0,0.1,0,0.2c0.8,2.2,9,0,12.3,0s51.8-14.6,51.8-14.6s0.2,0,0.5-0.1c0.1,0,0.2,0,0.4-0.1h0.1c0,0,0,0,0.1,0
										s0.1,0,0.2,0s0.2,0,0.3,0h0.1c0.1,0,0.1,0,0.2,0l0,0c0.1,0,0.1,0,0.2,0h0.1l0,0c0.1,0,0.2,0,0.3-0.1c0.1,0,0.3,0,0.4-0.1
										c0.1,0,0.2,0,0.3-0.1c0.1,0,0.3,0,0.4-0.1c0.1,0,0.2,0,0.3,0c0.1,0,0.2,0,0.3-0.1c0.5-0.1,0.9-0.2,1.5-0.3
										c0.4-0.1,0.8-0.2,1.3-0.2c0.2,0,0.4-0.1,0.5-0.1s0.3,0,0.4-0.1c0.7-0.1,1.3-0.2,2.1-0.4c0.1,0,0.2,0,0.3-0.1
										c0.2,0,0.5-0.1,0.7-0.1h0.2c1.1-0.2,2.3-0.4,3.5-0.6c0.1,0,0.2,0,0.4-0.1c0.8-0.2,1.6-0.3,2.4-0.4c0.3,0,0.6-0.1,0.8-0.1
										c0.5-0.1,0.9-0.2,1.4-0.3c0.1,0,0.1,0,0.2,0c0.3,0,0.6-0.1,0.8-0.2c0.1,0,0.2,0,0.3,0c0.4-0.1,0.8-0.1,1-0.2
										c0.7-0.1,1.3-0.2,2.1-0.4l0,0c0.3-0.1,0.6-0.1,0.8-0.2c0.6-0.1,1.2-0.2,1.8-0.3c0.3,0,0.6-0.1,0.8-0.2
										c0.2,0,0.5-0.1,0.7-0.1c0.6-0.1,1.1-0.2,1.7-0.3c0.4-0.1,0.8-0.2,1.2-0.2c0.4-0.1,0.7-0.1,1-0.2c0.1,0,0.3-0.1,0.4-0.1
										c1.1-0.2,2.4-0.4,3.6-0.6c0.4-0.1,0.8-0.2,1.2-0.2c0.2,0,0.4-0.1,0.6-0.1c0.5-0.1,0.9-0.2,1.4-0.3c0.7-0.1,1.3-0.2,2.1-0.4
										c0.4-0.1,0.8-0.1,1.1-0.2c0.8-0.2,1.7-0.3,2.5-0.5c0.5-0.1,0.9-0.2,1.4-0.3c1-0.2,2.2-0.4,3.3-0.6c0.7-0.1,1.4-0.3,2.1-0.4
										c1.3-0.2,2.6-0.5,4-0.7c1.5-0.3,3.1-0.6,4.6-0.8c0.3,0,0.6-0.1,0.8-0.2c0,0,0,0,0.1,0c0.2,0,0.4-0.1,0.6-0.1
										c0.2,0,0.4-0.1,0.7-0.1h0.1c0.5-0.1,0.9-0.2,1.5-0.3c0.9-0.2,1.8-0.3,2.7-0.5l2.3-0.4c0.8-0.1,1.4-0.3,2.2-0.4
										c0.2,0,0.3,0,0.5-0.1c0.2,0,0.4-0.1,0.6-0.1c0.5-0.1,0.8-0.2,1.3-0.3c0.5-0.1,1-0.2,1.5-0.3c2.6-0.5,5.2-0.9,7.7-1.3
										c0.3-0.1,0.6-0.1,0.9-0.2c0.1,0,0.3,0,0.4-0.1c0.3-0.1,0.7-0.1,0.9-0.2c1.1-0.2,2.2-0.4,3.2-0.6c0.3,0,0.6-0.1,0.8-0.2
										c0.2,0,0.5-0.1,0.7-0.1s0.4-0.1,0.6-0.1c1.2-0.2,2.4-0.5,3.6-0.7c0.2,0,0.5-0.1,0.7-0.1c0.3,0,0.5-0.1,0.8-0.1
										c0.7-0.1,1.3-0.3,2-0.4c0.4-0.1,0.8-0.2,1.1-0.2h0.2c0.1,0,0.1,0,0.2,0c0.4-0.1,0.8-0.2,1.2-0.2c0.2,0,0.3-0.1,0.5-0.1
										c0.9-0.2,1.8-0.3,2.6-0.5c0.2,0,0.4-0.1,0.6-0.1l-13.2,42.1c0,0,121.2,18.1,117.5,3c-0.3-1-0.5-2.4-0.6-4
										c-0.1-0.7-0.1-1.4-0.2-2.2c0-0.4,0-0.8-0.1-1.1c0-0.8-0.1-1.6-0.1-2.5c0-0.5,0-0.9,0-1.4c-0.2-8,0-19,0.4-30.9
										c0-0.1,0-0.2,0-0.2c0-1.2,0.1-2.4,0.1-3.7c0-0.1,0-0.2,0-0.3c0.2-5.3,0.4-10.7,0.7-16.1c0.3-6,0.6-12,0.8-17.6
										c0-0.2,0-0.3,0-0.5c0-0.1,0-0.2,0-0.3c0-0.4,0-0.8,0.1-1.1c0-0.5,0.1-0.9,0.1-1.3c0-0.5,0-0.9,0.1-1.4c0-0.1,0-0.3,0-0.4
										c0-0.8,0.1-1.5,0.1-2.3c0-0.1,0-0.3,0-0.4c0-0.5,0-0.9,0.1-1.4c0-0.2,0-0.4,0-0.5c0-0.4,0-0.8,0.1-1.1c0-0.2,0-0.3,0-0.4
										c0-0.4,0-0.8,0.1-1.2c0-0.6,0.1-1.1,0.1-1.7c0-0.4,0-0.8,0.1-1c0-0.8,0.1-1.4,0.1-2.1c0-0.6,0.1-1.1,0.1-1.7
										c0-0.8,0.1-1.4,0.1-2.2c0-0.7,0.1-1.2,0.1-1.8c0-0.3,0-0.6,0.1-0.8c0-0.4,0-0.8,0.1-1c0-0.5,0.1-0.9,0.1-1.4
										c0-0.3,0-0.6,0.1-0.9c0-0.5,0.1-0.9,0.1-1.4c0-0.3,0-0.6,0.1-0.8c0-0.6,0.1-1,0.1-1.5c0-0.1,0-0.2,0-0.3c0-0.2,0-0.4,0-0.5
										c0-0.2,0-0.4,0-0.6c0.1-1,0.1-1.9,0.2-2.4c0-0.1,0-0.3,0-0.4s0-0.3,0-0.3c0-0.1,0-0.2,0-0.2c0-0.1,0-0.2,0-0.2l0.1-0.1
										c0.1-0.1,0.3-0.2,0.4-0.3c0.7-0.6,1.3-1.1,1.9-1.6c0.1-0.1,0.1-0.1,0.2-0.2c0.4-0.4,0.8-0.7,1-0.9c0.1-0.1,0.2-0.2,0.2-0.2
										l0.1-0.1c0.2-0.2,0.3-0.3,0.5-0.5c0.1-0.1,0.2-0.2,0.3-0.3c0.1-0.1,0.2-0.2,0.3-0.3c2.4-1.9,4.1-5,5.3-8.7
										c0.2-0.7,0.4-1.4,0.6-2.2c0.1-0.3,0.1-0.5,0.2-0.8c0.1-0.5,0.2-1,0.3-1.5s0.2-1,0.2-1.6c0.5-3.7,0.5-7.7,0.2-11.7
										c0-0.1,0-0.2,0-0.3c-0.1-0.8-0.1-1.4-0.2-2.2c0-0.4-0.1-0.8-0.1-1c-0.1-0.9-0.3-1.9-0.4-2.8c0-0.1,0-0.2-0.1-0.4
										c-0.2-1-0.4-2.1-0.6-3c-0.1-0.3-0.2-0.7-0.2-0.9c-0.1-0.3-0.2-0.7-0.2-0.9c-0.1-0.3-0.2-0.7-0.2-0.9
										c-0.2-0.6-0.3-1.2-0.5-1.8c-0.1-0.3-0.2-0.6-0.3-0.9s-0.2-0.6-0.3-0.8c-0.2-0.6-0.4-1.1-0.6-1.6c-0.1-0.3-0.2-0.6-0.3-0.8
										c-0.2-0.6-0.5-1.1-0.8-1.7c-0.2-0.4-0.4-0.8-0.6-1.1c-0.5-0.8-0.9-1.6-1.4-2.3c-8.9-14.9-28-22-42.7-25.4
										c-10.8-2.5-19.3-3-19.3-3c-1.9-0.4-4-0.6-6.3-0.5h-0.3c-0.3,0-0.6,0-0.8,0s-0.4,0-0.6,0c-0.4,0-0.8,0-1.2,0.1
										c-1.9,0.1-3.9,0.4-5.9,0.8c-0.3,0-0.5,0.1-0.8,0.1c-1.4,0.3-3,0.6-4.5,0.8c-0.1,0-0.2,0-0.3,0.1c-0.3,0.1-0.7,0.2-0.9,0.2
										c-0.4,0.1-0.8,0.2-1.1,0.3c-0.3,0.1-0.6,0.2-0.8,0.2c-0.3,0.1-0.7,0.2-1,0.3c-0.4,0.1-0.8,0.2-1.1,0.3
										c-2.5,0.7-5.2,1.4-7.9,2.3c-0.6,0.2-1.1,0.4-1.6,0.5c-4.1,1.3-8.5,2.8-12.9,4.4c-0.5,0.2-0.9,0.4-1.4,0.6
										c-0.6,0.2-1.1,0.4-1.7,0.7c-0.8,0.4-1.8,0.7-2.6,1c-0.9,0.4-1.8,0.7-2.7,1c-1.2,0.5-2.5,0.9-3.8,1.5
										c-0.8,0.3-1.6,0.7-2.4,0.9c-1,0.4-2,0.8-3,1.2c-1,0.4-2,0.8-3,1.2l0,0c-0.9,0.4-2,0.8-2.9,1.2c-1,0.5-2.1,0.8-3.1,1.3
										c-0.9,0.4-1.9,0.8-2.8,1.2c-1,0.5-2,0.8-3,1.3c-0.5,0.2-1,0.5-1.5,0.7c-1,0.5-2,0.8-2.9,1.3c-2.4,1.1-4.9,2.2-7.3,3.3
										c-0.9,0.5-2,0.8-2.9,1.3c-0.2,0.1-0.4,0.2-0.6,0.3c-0.6,0.3-1.1,0.6-1.8,0.8c-1.3,0.6-2.5,1.2-3.8,1.8
										c-0.8,0.4-1.6,0.8-2.4,1.1c-1.4,0.7-2.7,1.3-4.1,2c-0.9,0.5-1.8,0.8-2.7,1.3c-0.2,0.1-0.4,0.2-0.6,0.3
										c0,0,4.3,31.2,2.8,44.6c0.6-0.2,1.2-0.5,1.8-0.7c0.9-0.4,1.8-0.7,2.7-1c14.7-5.5,27.2-10.4,36.3-14
										c0.4-0.2,0.8-0.3,1.1-0.5c2.4-0.9,4.2-1.7,5.5-2.2c0.2-0.1,0.4-0.2,0.6-0.2c0.5-0.2,0.8-0.3,0.9-0.4c0.1,0,0.1,0,0.2-0.1
										c0.2-0.1,0.2-0.1,0.3-0.1c0.2,0-3.3,3.3-0.1,14.9c6,21.9,4.5,40.3,4.5,40.3c-1.5,0.7-5.2,2-10.4,3.8
										c-0.5,0.2-1,0.4-1.6,0.6s-1.2,0.5-1.9,0.7c-0.5,0.2-1,0.4-1.6,0.6c-2.7,0.9-5.7,2-8.9,3.1c-1.5,0.6-3.1,1-4.7,1.6
										c-1.2,0.5-2.4,0.8-3.8,1.3c-1.5,0.5-3,1-4.6,1.6c-2.7,0.9-5.5,1.9-8.3,2.8c-0.8,0.3-1.6,0.6-2.4,0.8
										c-1.2,0.4-2.4,0.8-3.6,1.2c-3.2,1.1-6.5,2.2-9.7,3.3c-0.8,0.3-1.6,0.6-2.4,0.8c-0.6,0.2-1.1,0.4-1.7,0.6
										c-10,3.4-19.3,6.5-26.7,9c-0.4,0.1-0.8,0.3-1.1,0.4c-3.2,1-6,2-8.3,2.8c-0.6,0.2-1,0.4-1.5,0.6c-1.6,0.6-2.8,0.9-3.7,1.2
										c-0.1,0-0.2,0.1-0.3,0.1c-0.6,0.2-0.8,0.3-0.8,0.3s-13.7-3.6-26.1-6.9c-12.3-3.3-14.5,2.9-9.8,4.3s17,4,14.5,11.2
										s-20.2,3.3-24.6,1.4c-4.3-1.8-13.7-7.6-16.3-5.5s8,8.3,9,9c1.1,0.8-1.1,2.5,20.2,6.5
										C428.7,1509.3,433.5,1515.8,433.8,1518.3z M460,1519.3c0.3,0,0.6-0.1,0.8-0.1c0.1,0,0.3,0,0.4,0c0.4,0,0.7-0.1,0.8-0.1
										c0.4,0,0.4,0,0.1,0c-0.1,0-0.1,0-0.2,0c-0.2,0-0.4,0-0.6,0c-0.3,0-0.6,0-0.8,0.1C460.4,1519.2,460.2,1519.3,460,1519.3z"/>
									<path class="st19" d="M717.9,1422.1L717.9,1422.1"/>
									
										<linearGradient id="SVGID_00000035529821431796769670000015256744497222900669_" gradientUnits="userSpaceOnUse" x1="-1443.5341" y1="2152.1987" x2="-1446.9391" y2="2121.5525" gradientTransform="matrix(-1 0 0 -1 -1008.5881 3558.1799)">
										<stop  offset="0" style="stop-color:#F9988F"/>
										<stop  offset="1" style="stop-color:#D87873"/>
									</linearGradient>
									<path style="fill:url(#SVGID_00000035529821431796769670000015256744497222900669_);" d="M320.6,1436.3
										c36.1-22,45.2-10.2,45.2-6.9c0,3.2-14.9,7.6-12.6,13c2.2,5.5,31.8-14.9,32.9-15.2c0.4-0.1,14.3,0.7,33,1.7
										c7,0.4,14.7,0.8,22.5,1.2c32.6,1.7,68.9,3.1,77.2,1.8c2.7-0.5,7.1-1.7,12.4-3.4c2.4-0.8,5-1.7,7.8-2.6
										c4.3-1.5,8.9-3.1,13.6-4.9c1.4-13.4-2.8-44.6-2.8-44.6c-22,10.4-39.1,19-42.5,19.3c-9,0.8-79.2,12.3-121.9,11.6
										C342.6,1406.6,315.5,1434,320.6,1436.3z"/>
									
										<linearGradient id="SVGID_00000016061183851998745520000001555404734975636136_" gradientUnits="userSpaceOnUse" x1="-1563.7709" y1="2071.6506" x2="-1575.1212" y2="2046.6798" gradientTransform="matrix(-1 0 0 -1 -1008.5881 3558.1799)">
										<stop  offset="0" style="stop-color:#F9988F"/>
										<stop  offset="1" style="stop-color:#D87873"/>
									</linearGradient>
									<path style="fill:url(#SVGID_00000016061183851998745520000001555404734975636136_);" d="M433.8,1518.3
										c0.3,2,19.2,1.3,26.1,0.9c-5.6,0.8-17.7,4-17,5.9c0.8,2.2,9,0,12.3,0s51.8-14.6,51.8-14.6s10.7-1.8,25.8-4.4
										c2.6-0.5,5.5-0.9,8.4-1.4c2.4-0.5,4.9-0.8,7.4-1.3c2.4-0.4,4.8-0.8,7.3-1.2c31.2-5.5,66.9-11.8,71.6-13.2
										c2.9-0.8,14.1-8.6,27.8-18.5c0.8-0.6,1.7-1.2,2.5-1.9c5-3.7,10.2-7.5,15.4-11.5c0,0-1.2-5.2-3.2-12.1
										c-3.8-13-10.4-32-16.9-33.5c-20.3,21.6-40.7,43.5-46.7,45.6c-5.4,2.2-37.5,13.2-65.3,22.6c-22.7,7.7-42.5,14.3-42.5,14.3
										s-13.7-3.6-26.1-6.9c-12.3-3.3-14.5,2.9-9.8,4.3s17,4,14.5,11.2s-20.2,3.3-24.6,1.4c-4.3-1.8-13.7-7.6-16.3-5.5s8,8.3,9,9
										c1.1,0.8-1.1,2.5,20.2,6.5C428.7,1509.3,433.5,1515.8,433.8,1518.3z M460,1519.3c0.8-0.1,1.6-0.2,2.1-0.2
										C462.8,1519.1,462,1519.2,460,1519.3z"/>
									
										<linearGradient id="SVGID_00000010275756729644250620000000100979709368293814_" gradientUnits="userSpaceOnUse" x1="-1738.3196" y1="2147.6223" x2="-1661.5881" y2="2147.6223" gradientTransform="matrix(-1 0 0 -1 -1008.5881 3558.1799)">
										<stop  offset="0" style="stop-color:#BF1A00"/>
										<stop  offset="1" style="stop-color:#99180B"/>
									</linearGradient>
									<path style="fill:url(#SVGID_00000010275756729644250620000000100979709368293814_);" d="M653,1411.5
										c6.6,1.5,13.2,20.5,16.9,33.5c2,6.9,3.2,12.1,3.2,12.1c5-3.8,10.1-7.6,15-11.4c16.6-12.8,31.1-24.4,34.8-28.1
										c8.6-6.7,8-27.4,4.1-40.7l0,0c-4.1-9.2-13.4-18.4-29.6-8.8C689.6,1372.7,671.3,1392.1,653,1411.5z"/>
									
										<linearGradient id="SVGID_00000088119108414549944950000012566654038573749894_" gradientUnits="userSpaceOnUse" x1="-1668.1727" y1="2241.0007" x2="-1674.983" y2="2181.978" gradientTransform="matrix(-1 0 0 -1 -1008.5881 3558.1799)">
										<stop  offset="0" style="stop-color:#D87873"/>
										<stop  offset="1" style="stop-color:#F9988F"/>
									</linearGradient>
									<path style="fill:url(#SVGID_00000088119108414549944950000012566654038573749894_);" d="M640.6,1324v0.6
										c0,4.7,0.1,9.5,0.1,14.3c0,0.6,0,1.2,0,1.9c0,0.8,0,1.6,0,2.4c0.1,5.3,0.5,10.5,1.9,15.7c0.2,0.8,0.4,1.4,0.7,2.1
										c2,5.6,5.5,10.9,10.6,13.8c2.2,1.2,4.6,2,7.2,2.2c7.3,0.7,15.2-2.8,18.7-9.2c3-5.4,1.5-9.1,1.6-15.3
										c0-2.1-1.3-7.2-1.1-10.1c0.3-4.9,0.8-10.7,1-16.5c0.2-4.4,0.2-8.8,0-12.8c0-0.5-0.1-0.9-0.1-1.4s-0.1-0.9-0.1-1.4
										s-0.1-0.9-0.2-1.3c0-0.3-0.1-0.7-0.1-0.9c0-0.1,0-0.2,0-0.3l0,0c0-0.2,0-0.3-0.1-0.5c-0.4-2.1-0.8-4-1.4-5.6
										c-0.8-1.9-1.8-3.4-3.1-4.2c-3.9-2.4-8.8-2.3-13.4-1.6c-1.7,0.3-3.3,0.6-5,1.1c-6.4,2-12.1,5.9-15,11.9
										c-1.6,3.5-2.1,7.3-2.2,11.3C640.5,1321.4,640.5,1322.7,640.6,1324z"/>
									
										<linearGradient id="SVGID_00000121240533933691643110000009058368732132156598_" gradientUnits="userSpaceOnUse" x1="-1626.769" y1="2305.2627" x2="-1629.095" y2="2216.8801" gradientTransform="matrix(-1 0 0 -1 -1008.5881 3558.1799)">
										<stop  offset="0" style="stop-color:#E5B313"/>
										<stop  offset="1" style="stop-color:#AF8612"/>
									</linearGradient>
									<path style="fill:url(#SVGID_00000121240533933691643110000009058368732132156598_);" d="M603.5,1287.5
										c4,21.4,4.2,43.4,0.8,64.8c0.9-0.4,1.9-0.8,2.7-1c0.8-0.4,1.8-0.7,2.6-1c0.6-0.2,1.1-0.5,1.7-0.7c0.5-0.2,0.9-0.4,1.4-0.6
										c4.4-1.6,8.8-3.1,12.9-4.4c0.6-0.2,1.1-0.4,1.6-0.5c2.7-0.8,5.4-1.6,7.9-2.3c0.4-0.1,0.8-0.2,1.1-0.3
										c0.4-0.1,0.7-0.2,1-0.3c0.3-0.1,0.6-0.2,0.8-0.2c0.4-0.1,0.8-0.2,1.1-0.3c0.3-0.1,0.7-0.2,0.9-0.2c0.1,0,0.2,0,0.3-0.1
										c0-0.6,0-1.2,0-1.9c0-4.8-0.1-9.5-0.1-14.3v-0.6c-1.8-0.5-3.5-1.2-5.2-2.2c-11.6-6.5-15.5-21-17.8-34.1
										c-2.8-16.3-4.5-33.5,1.3-48.9c1.1-3,2.6-6,4.5-8.8c-1-4-1.1-8.2-0.3-12.1l-0.1-0.1c-13.6,1.6-22.8,15.5-24.4,29.1
										C597.1,1260.6,601,1274.1,603.5,1287.5z"/>
									<path class="st31" d="M640.6,1317.8v0.6c0,4.7,0.1,9.5,0.1,14.3c0,0.6,0,1.2,0,1.9c0,0.8,0,1.6,0,2.4
										c13.8,1,27.8-5.4,38-14.9c0.8-0.8,1.7-1.6,2.5-2.4c0.2-4.4,0.2-8.8,0-12.8c0-0.5-0.1-0.9-0.1-1.4s-0.1-0.9-0.1-1.4
										s-0.1-0.9-0.2-1.3c0-0.3-0.1-0.7-0.1-0.9c0-0.1,0-0.2,0-0.3l0,0c0-0.2,0-0.3-0.1-0.5c-0.4-2.1-0.8-4-1.4-5.6
										c-5.6-0.4-11.8,2.5-16.3,5.3c-7.4,4.4-14.9,8.8-22.3,13.2C640.5,1315.2,640.5,1316.5,640.6,1317.8z"/>
									
										<linearGradient id="SVGID_00000060735627741644023690000000692779828477943689_" gradientUnits="userSpaceOnUse" x1="-1634.8387" y1="2314.0879" x2="-1690.3862" y2="2258.5403" gradientTransform="matrix(-1 0 0 -1 -1008.5881 3558.1799)">
										<stop  offset="0" style="stop-color:#F9988F"/>
										<stop  offset="1" style="stop-color:#D87873"/>
									</linearGradient>
									<path style="fill:url(#SVGID_00000060735627741644023690000000692779828477943689_);" d="M617.6,1287.9
										c2.3,13.1,6.2,27.6,17.8,34.1c1.7,0.9,3.4,1.6,5.2,2.2c4.9,1.4,10.1,1.2,15.2,0c4.3-1,8.6-2.9,12.2-5.4
										c4-2.6,8.7-6.4,12.7-10.7l0,0c4.1-4.5,7.6-9.6,8.8-14.5c2.5-11.2,1.7-26.8,0.2-38.2c-1.6-12.2-6.1-24.5-15.1-33
										c-4.9-4.7-11.2-8.3-18-9.2c-10-1.5-19.8,2.8-27.1,9.9c-2.3,2.2-4.3,4.7-6.1,7.3c-1.9,2.7-3.4,5.6-4.5,8.8
										C613.1,1254.4,614.8,1271.5,617.6,1287.9z"/>
									
										<linearGradient id="SVGID_00000100374061270342107990000000735031798764507826_" gradientUnits="userSpaceOnUse" x1="-1685.3707" y1="2337.5347" x2="-1785.3315" y2="2121.9563" gradientTransform="matrix(-1 0 0 -1 -1008.5881 3558.1799)">
										<stop  offset="0" style="stop-color:#E5B313"/>
										<stop  offset="1" style="stop-color:#AF8612"/>
									</linearGradient>
									<path style="fill:url(#SVGID_00000100374061270342107990000000735031798764507826_);" d="M623.4,1230.2
										c1.7,6.6,6,12.3,12.4,14.7c8,3,17.1,0.5,25.5,2.2c11.6,2.4,20.6,13.6,20.6,25.4c0,0.4,0.6,0.6,0.8,0.1
										c0.7-1.9,2.9-3.2,5.1-4.1c0,0,0,0,0.1,0c1.7-0.7,3.4,0.8,2.9,2.5l-10,35.7c-0.1,0.3-0.1,0.6-0.1,0.8l0,0c0,0.1,0,0.2,0,0.3
										c0.1,0.3,0.1,0.7,0.1,0.9c0.1,0.5,0.1,0.8,0.2,1.3c0.1,0.5,0.1,0.9,0.1,1.4s0.1,0.9,0.1,1.4c0.6,9.3-0.4,20.7-0.9,29.3
										c14.7,3.4,33.8,10.6,42.7,25.4c0.5,0.7,0.9,1.4,1.4,2.3c0.2,0.4,0.4,0.8,0.6,1.1c0.3,0.6,0.5,1.1,0.8,1.7
										c0.1,0.3,0.2,0.5,0.3,0.8c0.2,0.6,0.4,1,0.6,1.6c0.1,0.3,0.2,0.6,0.3,0.8c0.1,0.3,0.2,0.6,0.3,0.9c0.2,0.6,0.3,1.2,0.5,1.8
										c0.1,0.3,0.2,0.7,0.2,0.9c0.1,0.3,0.2,0.7,0.2,0.9c0.1,0.3,0.2,0.7,0.2,0.9c0.2,1,0.4,2,0.6,3c0,0.1,0,0.2,0.1,0.4
										c0.2,0.9,0.3,1.9,0.4,2.8c0,0.4,0.1,0.8,0.1,1c0.1,0.8,0.2,1.4,0.2,2.2c0,0.1,0,0.2,0,0.3c0.3,4,0.3,8-0.2,11.7
										c-0.1,0.6-0.2,1-0.2,1.6c-0.1,0.6-0.2,1-0.3,1.5c0,0.3-0.1,0.5-0.2,0.8c-0.2,0.8-0.4,1.5-0.6,2.2c-1.1,3.8-2.8,6.8-5.3,8.7
										c-0.1,0.1-0.2,0.2-0.3,0.3c-0.1,0.1-0.2,0.2-0.3,0.3c-0.2,0.2-0.3,0.3-0.5,0.5l-0.1,0.1c-0.1,0.1-0.2,0.2-0.2,0.2
										c-0.3,0.3-0.7,0.6-1,0.9c-0.1,0.1-0.1,0.1-0.2,0.2c-0.6,0.5-1.2,1-1.9,1.6c-0.1,0.1-0.2,0.2-0.4,0.3l-0.1,0.1
										c0,0,0,0.1,0,0.2s0,0.1,0,0.2s0,0.2,0,0.3s0,0.2,0,0.4c0,0.6-0.1,1.4-0.2,2.4c0,0.2,0,0.4,0,0.6s0,0.4,0,0.5s0,0.2,0,0.3
										c0,0.5-0.1,0.9-0.1,1.5c0,0.3,0,0.6-0.1,0.8c0,0.5-0.1,0.9-0.1,1.4c0,0.3,0,0.6-0.1,0.9c0,0.5-0.1,0.9-0.1,1.4
										c0,0.4,0,0.7-0.1,1c0,0.3,0,0.6-0.1,0.8c0,0.6-0.1,1.2-0.1,1.8c0,0.7-0.1,1.4-0.1,2.2c0,0.6-0.1,1.1-0.1,1.7
										c0,0.7-0.1,1.3-0.1,2.1c0,0.4,0,0.8-0.1,1c0,0.6-0.1,1.1-0.1,1.7c0,0.4-0.1,0.8-0.1,1.2c0,0.1,0,0.3,0,0.4
										c0,0.4,0,0.8-0.1,1.1c0,0.2,0,0.3,0,0.5c0,0.5-0.1,0.9-0.1,1.4c0,0.1,0,0.3,0,0.4c0,0.8-0.1,1.5-0.1,2.3c0,0.1,0,0.3,0,0.4
										c0,0.5-0.1,0.9-0.1,1.4s-0.1,0.8-0.1,1.3c0,0.4,0,0.8-0.1,1.1c24.2,8.2,47.8-2.6,51.9-4.5c4.2-2,22-10.5,32.5-29.6
										c3.7-6.8,5.9-10.8,5.5-16.4c-1.5-16.8-22.2-21.8-29.3-35.9c-6-12-0.5-26.3,4.2-38.9s8.1-28.2-0.8-38.2
										c-10.4-11.6-30.6-8-42-18.4c-8.5-7.7-9.4-20.3-10.2-31.7c-0.7-11.4-2.4-24.2-11.4-31.1c-4-3.1-9-4.5-13.9-5.9
										c-7-2-13.9-4-21-6.1c-8-2.4-16.1-4.6-24.4-4.7c-12.8-0.2-26.2,5.9-31.9,17.4c-0.8,1.7-1.4,3.4-1.9,5.3
										C622.2,1222,622.3,1226.2,623.4,1230.2z"/>
									<path class="st14" d="M548.5,1503.5c2.4-0.4,4.8-0.8,7.3-1.2c31.2-5.5,66.9-11.8,71.6-13.2c2.9-0.8,14.1-8.6,27.8-18.5
										c-1.1-1.4-2.4-2.5-4.1-3.2c-8.2-3.1-24.3,6.3-32.3,8.9c-12.3,4.2-24.7,8.5-37.1,12.7
										C570.4,1492.9,558.6,1497.1,548.5,1503.5z"/>
									<path class="st14" d="M419.1,1428.9c7,0.4,14.7,0.8,22.5,1.2c32.6,1.7,68.9,3.1,77.2,1.8c2.7-0.5,7.1-1.7,12.4-3.4
										c-0.9-1.1-2.8-1.9-5.9-1.9c-31.1-0.6-62.2-1.1-93.3-1.6c-3.7-0.1-7.5-0.1-10.6,1.8C420.6,1427.3,419.7,1428.1,419.1,1428.9
										z"/>
								</g>
							</g>
						</g>
					</g>
				</g>
			</g>
		</g>
	</g>
</g>
<rect x="-1290.3" y="638.8" class="st34" width="368.3" height="272.4"/>
<rect x="-1290.3" y="1105.2" class="st35" width="368.3" height="272.4"/>
<g>
	<g>
		
			<linearGradient id="SVGID_00000115509517518109163070000011248949772617654939_" gradientUnits="userSpaceOnUse" x1="-3004.6953" y1="1591.496" x2="346.433" y2="118.2642" gradientTransform="matrix(-1 0 0 1 -489.9385 61.6063)">
			<stop  offset="0" style="stop-color:#3478C5"/>
			<stop  offset="1" style="stop-color:#032F61"/>
		</linearGradient>
		<path style="fill:url(#SVGID_00000115509517518109163070000011248949772617654939_);" d="M82.9,1751.5
			c-224.8-109.3-202.6-259.9-205.5-482.5C-124,1045.2-313.3,156-87,66.9c224.8-87.6,969.7-22.3,1123.2,4.7s629.5,42.9,834.3,130.5
			c203.6,89.1,421.1,918.9,449.6,1188.6c30,269.7-65.5,404-269,513.2c-205,109.3-518.1,31-791.3-6.8S309.2,1860.8,82.9,1751.5z"/>
	</g>
</g>
<g>
	<g>
		<g>
			<defs>
				<path id="SVGID_00000098915179343052775930000018029510609282304408_" d="M82.9,1751.5c-224.8-109.3-202.6-422.5-205.5-645
					c-1.4-223.8,1.5-407.6,227.9-496.7c224.8-87.6,969.7-22.3,1123.2,4.7s502.4-74.2,707.3,13.4c203.6,89.1,355.9,330.5,384.4,600.3
					c30,269.7-65.5,566.5-269,675.7c-205,109.3-518.1,31-791.3-6.8S309.2,1860.8,82.9,1751.5z"/>
			</defs>
			<clipPath id="SVGID_00000002371927045325189080000007725508329225042108_">
				<use xlink:href="#SVGID_00000098915179343052775930000018029510609282304408_"  style="overflow:visible;"/>
			</clipPath>
			<g style="clip-path:url(#SVGID_00000002371927045325189080000007725508329225042108_);">
				<g>
					<g>
						<defs>
							<path id="SVGID_00000059296479567632381780000005671337215096119997_" d="M113.5,1997.9c-224.8-109.3-202.6-422.5-205.5-645
								c-1.4-223.8,1.5-407.6,227.9-496.7c224.8-87.6,969.7-22.3,1123.2,4.7s502.4-74.2,707.3,13.4
								c203.6,89.1,355.9,330.5,384.4,600.3c30,269.7-65.5,566.5-269,675.7c-205,109.3-518.1,31-791.3-6.8
								S339.8,2107.2,113.5,1997.9z"/>
						</defs>
						<clipPath id="SVGID_00000127045257999693151390000012055673257919802806_">
							<use xlink:href="#SVGID_00000059296479567632381780000005671337215096119997_"  style="overflow:visible;"/>
						</clipPath>
						<g style="clip-path:url(#SVGID_00000127045257999693151390000012055673257919802806_);">
							
								<linearGradient id="SVGID_00000147914187259636087130000010890799203484323730_" gradientUnits="userSpaceOnUse" x1="297.2264" y1="798.6029" x2="295.273" y2="810.0443" gradientTransform="matrix(1 0 0 1 0 726)">
								<stop  offset="0" style="stop-color:#D87873"/>
								<stop  offset="1" style="stop-color:#F9988F"/>
							</linearGradient>
							<polygon style="fill:url(#SVGID_00000147914187259636087130000010890799203484323730_);" points="286.5,1530.1 305.6,1520.1 
								305.6,1532.9 							"/>
							
								<linearGradient id="SVGID_00000170963989181749028830000008744867015763784638_" gradientUnits="userSpaceOnUse" x1="388.6248" y1="1362.5094" x2="387.1938" y2="1494.1578" gradientTransform="matrix(1 0 0 1 0 726)">
								<stop  offset="0" style="stop-color:#1870B2;stop-opacity:0.3"/>
								<stop  offset="1" style="stop-color:#18689E"/>
							</linearGradient>
							
								<ellipse style="fill:url(#SVGID_00000170963989181749028830000008744867015763784638_);" cx="387.9" cy="2155.2" rx="476.5" ry="61.5"/>
							<path class="st41" d="M297.7,1597.7c-14.9,25.4-32.4,63-39.7,111c-3.9,25.6-4.7,46-3.4,61.5c4.2,51.6,25.6,78.8,16.4,119.9
								c-23.5,104.7-313.7,132.4-327.6,244c-2.2,18,2,47.9,45.3,89.8"/>
							<g>
								
									<linearGradient id="SVGID_00000085220829104815589830000006103346972047159462_" gradientUnits="userSpaceOnUse" x1="310.2547" y1="1052.9626" x2="301.624" y2="1434.8701" gradientTransform="matrix(1 0 0 1 0 726)">
									<stop  offset="0" style="stop-color:#052A4C"/>
									<stop  offset="1" style="stop-color:#061C2D"/>
								</linearGradient>
								
									<rect x="295.6" y="1721.1" style="fill:url(#SVGID_00000085220829104815589830000006103346972047159462_);" width="21.9" height="443.6"/>
								
									<linearGradient id="SVGID_00000151525421936676523820000003396153770396537274_" gradientUnits="userSpaceOnUse" x1="804.0947" y1="1068.8888" x2="795.4641" y2="1450.7963" gradientTransform="matrix(1 0 0 1 0 726)">
									<stop  offset="0" style="stop-color:#052A4C"/>
									<stop  offset="1" style="stop-color:#061C2D"/>
								</linearGradient>
								
									<rect x="789.8" y="1721.1" style="fill:url(#SVGID_00000151525421936676523820000003396153770396537274_);" width="21.9" height="443.6"/>
								
									<linearGradient id="SVGID_00000057147887084791878180000006263727153173904787_" gradientUnits="userSpaceOnUse" x1="558.85" y1="952.1328" x2="558.85" y2="1008.0895" gradientTransform="matrix(1 0 0 1 0 726)">
									<stop  offset="0" style="stop-color:#E5B313"/>
									<stop  offset="1" style="stop-color:#AF8612"/>
								</linearGradient>
								<path style="fill:url(#SVGID_00000057147887084791878180000006263727153173904787_);" d="M820.8,1733.3H296.9
									c-5.1,0-9.2-4.1-9.2-9.2v-35.5c0-5.1,4.1-9.2,9.2-9.2h523.9c5.1,0,9.2,4.1,9.2,9.2v35.5
									C830,1729.2,825.9,1733.3,820.8,1733.3z"/>
							</g>
							
								<linearGradient id="SVGID_00000152244774532692376750000002566818111928683162_" gradientUnits="userSpaceOnUse" x1="260.4" y1="759.0959" x2="378.5" y2="759.0959" gradientTransform="matrix(1 0 0 1 0 726)">
								<stop  offset="0" style="stop-color:#052A4C"/>
								<stop  offset="1" style="stop-color:#061C2D"/>
							</linearGradient>
							<path style="fill:url(#SVGID_00000152244774532692376750000002566818111928683162_);" d="M378.5,1479.5v18.6
								c-21.4,0-44.1,8.6-71.9,8.6c-42.9,0.5-46.2-13.2-46.2-13.2v-14.1v11.4v-14.1c0,0,3.3-13.6,46.2-13.2
								c27.9,0,50.6,8.6,71.9,8.6v18.6"/>
							
								<linearGradient id="SVGID_00000147206380124120174600000001434342160622042289_" gradientUnits="userSpaceOnUse" x1="283.2" y1="825.478" x2="318.0433" y2="825.478" gradientTransform="matrix(1 0 0 1 0 726)">
								<stop  offset="0" style="stop-color:#052A4C"/>
								<stop  offset="1" style="stop-color:#061C2D"/>
							</linearGradient>
							<path style="fill:url(#SVGID_00000147206380124120174600000001434342160622042289_);" d="M310.5,1566.8
								c3.8-18.4,6.8-60.5,6.8-60.5c6.7-12-34.1-6.9-34.1-6.9v5.8c0,0,16.2,2.2,15.8,17.4l0.2,1.6c1.8,6.9-5.4,49.3-5.4,49.3
								s1.1,16.2-0.9,28.7c-0.4,2.2,2.5,3.4,3.8,1.5C303,1594.4,310.9,1580,310.5,1566.8z"/>
							
								<linearGradient id="SVGID_00000181045193918273742870000005360836265896888709_" gradientUnits="userSpaceOnUse" x1="175.0574" y1="595.2577" x2="134.6709" y2="711.5709" gradientTransform="matrix(1 0 0 1 0 726)">
								<stop  offset="0" style="stop-color:#E5B313"/>
								<stop  offset="1" style="stop-color:#AF8612"/>
							</linearGradient>
							<path style="fill:url(#SVGID_00000181045193918273742870000005360836265896888709_);" d="M195.9,1328.6
								c1.3,24.3-16.8,28.3-16.4,54.4c0.3,19.3,10.2,23.3,6.6,39.3c-2.4,10.9-10.9,25.6-26,29.5c-13.7,3.5-28.6-3.9-37-15.3
								s-11.3-26-11.7-40.1c-0.6-25.1,6.1-50.3,19.2-71.7c3.2-5.2,9.6-9.2,12.7-18.4c3.8-11.3,0.2-18.5,4.8-22.3
								c5.6-4.6,17.3,0.2,23.3,3.7C184.3,1295.1,195,1310.9,195.9,1328.6z"/>
							
								<linearGradient id="SVGID_00000074399652963541302080000016334915059737538180_" gradientUnits="userSpaceOnUse" x1="219.9757" y1="898.3233" x2="172.2383" y2="904.7743" gradientTransform="matrix(1 0 0 1 0 726)">
								<stop  offset="0" style="stop-color:#F9988F"/>
								<stop  offset="1" style="stop-color:#D87873"/>
							</linearGradient>
							<path style="fill:url(#SVGID_00000074399652963541302080000016334915059737538180_);" d="M210.7,1825.2
								c-2.1,5.3-6.7,1.8-9.9,1.4c-3.2-0.3-2.5-4.2,1.8-13.7c4.2-9.5,0.3-40.1-4.6-40.1c-4.9,0-4.2,26.7-11.2,20.7
								s7.5-46.4,7.5-46.4s-6.8-50.7-12.3-90.4c-3.4-24.4-6.3-44.7-6.8-46.5c-0.3-1.1-1.5-7.9-3.1-18.2c-1.5-9.1-3.4-20.9-5.5-33.8
								c-5.8-36.4-13.1-81.1-16.2-96.1c-5.5-26.3,35.3-35.2,35.3-35.2c14.2,6.2,20.2,6.3,23.8,19.4c6.4,23.6,4.8,105,4.8,110.8
								c0.1,3.8,0.2,14.7,0.2,29.5c0,53.6-0.9,157.9-0.9,157.9s3.9,39,4.2,52C218,1809.7,212.8,1819.9,210.7,1825.2z"/>
							
								<linearGradient id="SVGID_00000132792561870802650380000004377246371323137706_" gradientUnits="userSpaceOnUse" x1="23.8567" y1="1182.3203" x2="234.1908" y2="1182.3203" gradientTransform="matrix(1 0 0 1 0 726)">
								<stop  offset="0" style="stop-color:#052A4C"/>
								<stop  offset="1" style="stop-color:#061C2D"/>
							</linearGradient>
							<path style="fill:url(#SVGID_00000132792561870802650380000004377246371323137706_);" d="M219.5,2157.9
								c-18.9-5.1-55-25.5-55-25.5s65.4-206.9,64.2-218.3c-1.1-11.3-24.7-218.7-46.3-253.2c-14.7-23.5-140.8-22.8-140.8-22.8
								S22,1650.7,24,1691.6c2.1,40.9,9.6,212.5,9.6,219.3s1.9,215.2,0,222c0,0,1.8,7.1,27.3-1.9c0,0,37-206.5,38-219.1
								c1-12.7,10.7-141.2,10.7-141.2l55.5,146.1L136,2128.1c0,0-3.3,7.8-6.6,17c-1.8,4.9-3.5,10.2-4.8,14.9
								c0.2,0.1,0.4,0.1,0.6,0.2c7.8,1.9,7.8,14.6,7.8,15.6c0,0.1-0.5,0.2-1.5,0.2c4,0.4,9.3,0.8,15.3,1.1c31,1.6,82.6,2,84.9,0.6
								C234.8,2175.9,238.4,2163,219.5,2157.9z"/>
							
								<linearGradient id="SVGID_00000105395079971889886050000015139160229006511770_" gradientUnits="userSpaceOnUse" x1="108.4065" y1="1402.5359" x2="52.0629" y2="1460.6971" gradientTransform="matrix(1 0 0 1 0 726)">
								<stop  offset="0" style="stop-color:#7F1712"/>
								<stop  offset="1" style="stop-color:#5B0909"/>
							</linearGradient>
							<path style="fill:url(#SVGID_00000105395079971889886050000015139160229006511770_);" d="M133,2175.9c0,0.1-0.5,0.2-1.5,0.2
								c-6.2,0.6-30.1,1.4-54,1.6l0,0c-23.9,0.2-47.7-0.1-53.5-1.9c-12.7-3.9,7.8-36,9.7-42.9c0,0,1.8,7.1,27.3-1.9
								c0,0,26.8,13,46.1,21.6c8,3.6,14.7,6.5,17.6,7.4c0.2,0.1,0.4,0.1,0.6,0.2C133,2162.2,133,2174.9,133,2175.9z"/>
							
								<linearGradient id="SVGID_00000173843495615672940670000010329277433497770922_" gradientUnits="userSpaceOnUse" x1="202.4939" y1="1399.9342" x2="151.6029" y2="1474.4531" gradientTransform="matrix(1 0 0 1 0 726)">
								<stop  offset="0" style="stop-color:#7F1712"/>
								<stop  offset="1" style="stop-color:#5B0909"/>
							</linearGradient>
							<path style="fill:url(#SVGID_00000173843495615672940670000010329277433497770922_);" d="M231.7,2177.8
								c-2.3,1.4-53.8,1-84.9-0.6c-6.1-0.3-11.3-0.7-15.3-1.1c1-0.1,1.5-0.2,1.5-0.2c0-1,0-13.6-7.8-15.6c-0.2,0-0.4-0.1-0.6-0.2
								c1.3-4.7,3-10,4.8-14.9c3.3-9.2,6.6-17,6.6-17s5.6,10.7,28.6,4.2c0,0,36.1,20.4,55,25.5
								C238.4,2163,234.8,2175.9,231.7,2177.8z"/>
							
								<linearGradient id="SVGID_00000016794210550165991250000010525593161814689458_" gradientUnits="userSpaceOnUse" x1="178.4427" y1="724.7561" x2="64.4565" y2="865.638" gradientTransform="matrix(1 0 0 1 0 726)">
								<stop  offset="0" style="stop-color:#26DBB8"/>
								<stop  offset="1" style="stop-color:#4FB2A1"/>
							</linearGradient>
							<path style="fill:url(#SVGID_00000016794210550165991250000010525593161814689458_);" d="M185.6,1426.9
								C185.6,1426.9,185.7,1420.6,185.6,1426.9c-0.1,5-12.8,21.3-12.2,41.1c0.7,26.4,11.4,30.8,11.2,38.7
								c-1,58.5-1.8,125.5-2.1,154.2c0,0-22.7,2.8-71.1,0s-69.8-22.8-69.8-22.8c6.7-18.2-2.3-127.5-2.3-128.8
								c-13.6-39.4-25.5-55.9-21.8-71.7c1.9-7.9,8.7-13.9,18.1-18.6l0,0c29.6-14.6,84-15.1,84-15.1s0.8,0.2,2.1,0.6
								c0.2,0,0.4,0.1,0.6,0.2c0.5,0.1,1.1,0.3,1.7,0.5c0.2,0.1,0.4,0.1,0.6,0.2c0.3,0.1,0.5,0.1,0.8,0.2c0.2,0.1,0.5,0.1,0.8,0.2
								c0.4,0.1,0.9,0.3,1.4,0.4c0.2,0.1,0.4,0.1,0.6,0.2s0.4,0.1,0.6,0.2c0.4,0.1,0.9,0.3,1.4,0.4c0.1,0,0.2,0,0.3,0.1
								c1.3,0.4,2.6,0.8,4,1.2c0.4,0.1,0.7,0.2,1.1,0.3c0.7,0.2,1.5,0.5,2.2,0.7h0.1c1.7,0.5,3.5,1.1,5.3,1.6
								c0.3,0.1,0.6,0.2,0.9,0.3c0.9,0.3,1.9,0.6,2.8,0.9c0.9,0.3,1.9,0.6,2.9,0.9c0.3,0.1,0.7,0.2,1,0.3c1.3,0.4,2.6,0.9,4,1.4
								s2.7,0.9,4.1,1.4c1.4,0.5,2.7,1,4.1,1.5c5.5,2,11.1,4.2,16.4,6.5c0.6,0.3,1.1,0.5,1.7,0.8c0.4,0.2,0.7,0.3,1,0.5
								c0.3,0.1,0.6,0.3,0.9,0.4C184,1426.2,184.8,1426.6,185.6,1426.9z"/>
							
								<linearGradient id="SVGID_00000038381102127939290780000000204487324432533409_" gradientUnits="userSpaceOnUse" x1="118.4683" y1="651.6605" x2="101.0267" y2="727.5828" gradientTransform="matrix(1 0 0 1 0 726)">
								<stop  offset="0" style="stop-color:#D87873"/>
								<stop  offset="1" style="stop-color:#F9988F"/>
							</linearGradient>
							<path style="fill:url(#SVGID_00000038381102127939290780000000204487324432533409_);" d="M140.9,1388.1
								c-0.4,4.2-1.1,8.4-1.7,12.6c-0.1,0.5-0.1,1-0.2,1.4c-1,6.6-2,13.1-3,19.7s-2.1,13.3-5.1,19.3c-3,5.9-8.5,11.1-15.1,12
								c-9.1,1.3-17.7-6-21.1-14.6c-3.4-8.6-2.9-18.1-2.3-27.3c0.4-6.4-0.2-16.5-0.1-27c0-7.9,0.4-16,1.8-22.9
								c1.2-5.8,3.2-10.7,6.3-13.8c16.9-17.1,38.2,6.9,40.5,23.5C141.7,1376.5,141.5,1382.3,140.9,1388.1z"/>
							
								<linearGradient id="SVGID_00000159460914962815522170000001242661838118224570_" gradientUnits="userSpaceOnUse" x1="150.3825" y1="815.6097" x2="128.6098" y2="869.401" gradientTransform="matrix(1 0 0 1 0 726)">
								<stop  offset="0" style="stop-color:#F9988F"/>
								<stop  offset="1" style="stop-color:#D87873"/>
							</linearGradient>
							<path style="fill:url(#SVGID_00000159460914962815522170000001242661838118224570_);" d="M318.1,1551.9
								c0,3.5-2.8,7.2-11.6,7.8c1.8-0.1,10.1-0.5,10.2,2.6c0.1,2.8-1.3,3.1-3.7,3.6c-3.6,0.8-7.2,1.9-10.7,3.3
								c-10.8,4.4-36.1,11.1-36.1,11.1s-44.7,5.5-88,10.9c-37.9,4.7-74.8,9.4-79.7,10.3c-5.5,1-29-34-49.4-72.7l0,0
								c-2.3-4.4-4.6-8.8-6.8-13.2c-15.9-32.1-28.1-64-24.8-77.9c1.9-7.9,8.7-13.9,18.1-18.6l0,0c1.1-0.3,22.3-6.5,33.2,14.1
								c6.2,11.6,51,125.6,51,125.6s81.8-0.7,94.2-1.5l32.9-2.2l15.3-3.6c5.3-1.3,9.8-4.8,12.2-9.7v-0.1c2.9-5.9,8.1-10.4,14.3-12.3
								c8.5-2.7,19.6-2,22.7-1.5c5.1,0.7,7.2,2.5,6.5,5.4s-11,2.7-15.7,4.5c0,0,15.6-2.1,16.3,3.4c0.6,5-4.6,6.8-10.4,7.2
								c-0.9,0-1.4,0-1.4,0c0.5,0,0.9,0,1.4,0C311.8,1548,318.1,1550.1,318.1,1551.9z"/>
							<path class="st31" d="M140.9,1388.1c-0.4,4.2-1.1,8.4-1.7,12.6c-0.1,0.5-0.1,1-0.2,1.4c-1.9,0.1-3.8-0.3-5.7-0.6
								c-14.7-2.9-29.5-8.1-41.1-17.4c0-7.9,0.4-16,1.8-22.9c6.2,4.7,12.5,9.9,19.2,13.7c8.3,4.7,17.7,7.6,26.1,12.3
								C139.9,1387.4,140.4,1387.7,140.9,1388.1z"/>
							<g>
								<g>
									<line class="st55" x1="387.9" y1="1472.3" x2="388.4" y2="1472.3"/>
									<line class="st56" x1="392.5" y1="1472" x2="452" y2="1468.4"/>
									<line class="st55" x1="454.1" y1="1468.2" x2="454.6" y2="1468.2"/>
								</g>
							</g>
							<g>
								<g>
									<line class="st55" x1="387.9" y1="1496.3" x2="388.4" y2="1496.4"/>
									<line class="st57" x1="392.5" y1="1496.6" x2="481.9" y2="1502.1"/>
									<line class="st55" x1="483.9" y1="1502.2" x2="484.4" y2="1502.2"/>
								</g>
							</g>
							<g>
								<g>
									<line class="st55" x1="387.9" y1="1484.4" x2="388.4" y2="1484.4"/>
									<line class="st58" x1="392.5" y1="1484.4" x2="481.9" y2="1484.4"/>
									<line class="st55" x1="483.9" y1="1484.4" x2="484.4" y2="1484.4"/>
								</g>
							</g>
							
								<linearGradient id="SVGID_00000019650963080145217020000013924362568174617756_" gradientUnits="userSpaceOnUse" x1="163.1729" y1="584.0236" x2="89.2027" y2="621.0087" gradientTransform="matrix(1 0 0 1 0 726)">
								<stop  offset="0" style="stop-color:#F9A19D"/>
								<stop  offset="1" style="stop-color:#D87873"/>
							</linearGradient>
							<path style="fill:url(#SVGID_00000019650963080145217020000013924362568174617756_);" d="M114,1384.7c14,10.6,36,12.8,48,0
								c8-8.5,9.7-21,10.9-32.7c1.8-16.7,3.6-33.6,0.3-50.1c-3.3-16.4-12.4-32.6-27.4-40.1c-19.7-9.9-45.8-1.5-58.4,16.7
								C65.4,1310.2,85.4,1363.1,114,1384.7z"/>
							
								<linearGradient id="SVGID_00000083774855097521913680000008075757232438584706_" gradientUnits="userSpaceOnUse" x1="130.8381" y1="543.4604" x2="20.9868" y2="715.2378" gradientTransform="matrix(1 0 0 1 0 726)">
								<stop  offset="0" style="stop-color:#E5B313"/>
								<stop  offset="1" style="stop-color:#AF8612"/>
							</linearGradient>
							<path style="fill:url(#SVGID_00000083774855097521913680000008075757232438584706_);" d="M84.6,1333.1
								c0.4-0.7,2.2-3.8,5.5-4.4c3.8-0.7,8.2,2.1,11.3,7.3c0.7-9,4.5-17.6,10.2-24.6c5.2-6.4,11.2-6.8,22.1-14.8
								c6.7-4.9,11.5-9.6,14.5-12.7c7.7,3.4,15.4,6.8,23.1,10.2c0.4-4.4,1.4-21-9.8-32.2c-7.1-7.1-15.5-8.5-31-11
								c-15.6-2.5-25.9-2.8-39.4,0.4c-12.9,3.1-25.2,11.4-29.5,23.9c-5.3,15.5,2.4,34.7-7.2,48c-6.4,8.9-18.2,11.6-28.5,15.1
								c-10.4,3.6-21.6,10.5-22.3,21.5c-0.8,13.5,15.3,23.7,14.4,37.3c-0.8,11.6-13,18.2-20.6,27c-9.3,10.8-11.6,27.1-5.7,40
								c6.2,13.6,21.8,20.7,33.9,22c32.8,3.5,68-31.9,75.2-67.3c1.8-8.6,5.9-32.1-5.2-54.1C90.2,1354.2,80,1341.4,84.6,1333.1z"/>
							<path class="st31" d="M178.2,1591.2c-37.9,4.7-74.8,9.4-79.7,10.3c-5.5,1-29-34-49.4-72.7l0,0c-2.3-4.4-4.6-8.8-6.8-13.2
								c6.3,6,12.5,15.4,14.9,19.1c8.5,12.9,15.9,27.2,28.6,36c20.9,14.5,48.9,9.5,74.1,13.3C166.3,1585,173.2,1587.4,178.2,1591.2z
								"/>
							<g>
								
									<linearGradient id="SVGID_00000109710966116529487760000005909161136005150598_" gradientUnits="userSpaceOnUse" x1="750.4537" y1="964.2535" x2="750.4537" y2="983.6992" gradientTransform="matrix(1 0 0 1 0 726)">
									<stop  offset="0" style="stop-color:#1A5284"/>
									<stop  offset="1" style="stop-color:#1C74B5"/>
								</linearGradient>
								<path style="fill:url(#SVGID_00000109710966116529487760000005909161136005150598_);" d="M767.8,1717.8
									c-4.3,0.7-10.6,1.4-18.1,0.3c-7.1-1-12.8-3.2-16.7-5c1.8-10.5,12-17.1,21.4-14.9C762.7,1700.1,768.8,1708.5,767.8,1717.8z"
									/>
								
									<linearGradient id="SVGID_00000164511070490071192670000000356499938523415949_" gradientUnits="userSpaceOnUse" x1="708.0975" y1="964.2535" x2="708.0975" y2="983.6992" gradientTransform="matrix(1 0 0 1 0 726)">
									<stop  offset="0" style="stop-color:#1A5284"/>
									<stop  offset="1" style="stop-color:#1C74B5"/>
								</linearGradient>
								<path style="fill:url(#SVGID_00000164511070490071192670000000356499938523415949_);" d="M724.2,1707.4
									c-4,0.7-9.9,1.3-16.8,0.3c-6.6-0.9-11.9-2.9-15.5-4.6c1.7-9.7,11.1-15.8,19.8-13.8C719.5,1691,725.1,1698.8,724.2,1707.4z"
									/>
								
									<linearGradient id="SVGID_00000147898325671554161820000015583401927737844921_" gradientUnits="userSpaceOnUse" x1="547.2537" y1="964.2535" x2="547.2537" y2="983.6992" gradientTransform="matrix(1 0 0 1 0 726)">
									<stop  offset="0" style="stop-color:#1A5284"/>
									<stop  offset="1" style="stop-color:#1C74B5"/>
								</linearGradient>
								<path style="fill:url(#SVGID_00000147898325671554161820000015583401927737844921_);" d="M564.6,1708.1
									c-4.3,0.7-10.6,1.4-18.1,0.3c-7.1-1-12.8-3.2-16.7-5c1.8-10.5,12-17.1,21.4-14.9C559.5,1690.4,565.6,1698.8,564.6,1708.1z"
									/>
								
									<linearGradient id="SVGID_00000157991888798750536810000003808074633410692248_" gradientUnits="userSpaceOnUse" x1="520.2468" y1="964.2535" x2="520.2468" y2="983.6992" gradientTransform="matrix(1 0 0 1 0 726)">
									<stop  offset="0" style="stop-color:#1A5284"/>
									<stop  offset="1" style="stop-color:#1C74B5"/>
								</linearGradient>
								<path style="fill:url(#SVGID_00000157991888798750536810000003808074633410692248_);" d="M536.5,1697.7
									c-4,0.7-10,1.3-17,0.3c-6.7-0.9-12-3-15.6-4.7c1.7-9.8,11.2-16,20-14C531.7,1681.1,537.4,1689,536.5,1697.7z"/>
								
									<linearGradient id="SVGID_00000104686934955873894610000016946843720520178088_" gradientUnits="userSpaceOnUse" x1="705.7847" y1="900.3086" x2="685.7498" y2="855.5245" gradientTransform="matrix(1 0 0 1 0 726)">
									<stop  offset="0" style="stop-color:#1C74B5"/>
									<stop  offset="1" style="stop-color:#1A5284"/>
								</linearGradient>
								<path style="fill:url(#SVGID_00000104686934955873894610000016946843720520178088_);" d="M662.4,1566.2
									c0,7.6,14,32.2,25.7,39.3c9.3,11.3,10.7,15.7,11.2,38.3l17.5-4.3c0,0-4.7-5.7-6.1-13.9c-1.4-8.3-0.2-18,0.6-24.5
									c0.8-6.4-19.2-35.6-19.2-35.6l-29.5-6.8v7.5H662.4z"/>
								
									<linearGradient id="SVGID_00000070113450342408061600000011512098550163172263_" gradientUnits="userSpaceOnUse" x1="551.8066" y1="859.323" x2="549.4496" y2="897.6251" gradientTransform="matrix(1 0 0 1 0 726)">
									<stop  offset="0" style="stop-color:#1A5284"/>
									<stop  offset="1" style="stop-color:#1C74B5"/>
								</linearGradient>
								<path style="fill:url(#SVGID_00000070113450342408061600000011512098550163172263_);" d="M566.3,1577.3
									c-1,0.2-5.4,1.1-9.8-1.6c-3.5-2.1-4.9-5.2-5.4-6.3c-0.2,0.5-1.4,4.7-5.7,6.3c-3.3,1.3-6.3,0.3-7,0
									c2.5,7.5,4.8,16.3,6.3,26.3c2.7,17.4,2.3,32.6,1,44.4c5.1-0.2,10.1-0.4,15.2-0.6c-1.6-8.2-3-19.3-2.2-32.3
									C559.6,1598.2,563.1,1585.9,566.3,1577.3z"/>
								
									<linearGradient id="SVGID_00000042002528218214996210000012669036767682053027_" gradientUnits="userSpaceOnUse" x1="530.3701" y1="858.0039" x2="528.0131" y2="896.306" gradientTransform="matrix(1 0 0 1 0 726)">
									<stop  offset="0" style="stop-color:#1A5284"/>
									<stop  offset="1" style="stop-color:#1C74B5"/>
								</linearGradient>
								<path style="fill:url(#SVGID_00000042002528218214996210000012669036767682053027_);" d="M543.5,1581.1
									c-0.9,0.1-5.2,0.3-8.9-2.7c-3-2.4-3.9-5.4-4.2-6.5c-0.2,0.5-1.9,4.1-6.1,5.2c-3.2,0.8-5.8-0.5-6.4-0.9
									c1.4,7.3,2.4,15.7,2.7,25.1c0.4,16.4-1.9,30.5-4.5,41.2c4.7,0.4,9.4,0.8,14.1,1.3c-0.5-7.8-0.4-18.2,1.9-30.2
									C534.8,1599.7,539.5,1588.7,543.5,1581.1z"/>
								
									<linearGradient id="SVGID_00000151525175432502320540000012268440264496483771_" gradientUnits="userSpaceOnUse" x1="429.3243" y1="712.4513" x2="532.0311" y2="712.4513" gradientTransform="matrix(1 0 0 1 0 726)">
									<stop  offset="0" style="stop-color:#1C74B5"/>
									<stop  offset="1" style="stop-color:#1A5284"/>
								</linearGradient>
								<path style="fill:url(#SVGID_00000151525175432502320540000012268440264496483771_);" d="M529.1,1445.9
									c0,0-15.4,22.2-37,20.3c-21.6-1.8-40.7-16-53-17.3c-4.4-0.4-8-2.6-10.2-5.1c-3.9-4.5-3.6-10.3,3.4-10.3c1.8,0,3.6,0,5.3-0.1
									c48.9-1,48.3-16.6,48.3-16.6l27.1-6.2L529.1,1445.9z"/>
								
									<linearGradient id="SVGID_00000060712684756322239040000017694566009907155361_" gradientUnits="userSpaceOnUse" x1="720.8102" y1="944.2412" x2="780.6721" y2="944.2412" gradientTransform="matrix(1 0 0 1 0 726)">
									<stop  offset="0" style="stop-color:#B0D4EA"/>
									<stop  offset="1" style="stop-color:#70B5E8"/>
								</linearGradient>
								<path style="fill:url(#SVGID_00000060712684756322239040000017694566009907155361_);" d="M758.7,1705.9
									c6.3,1.4,15.7-0.8,19.9-8.5c3.9-7.2,2-16.9-5-22.7c0.1-4.5-0.3-13.6-5.7-22.7c-2.9-5-10.4-17.8-23.4-17.8
									c-10.6,0-21.5,8.6-23.4,20.6c-1.5,9.5,2.9,19.3,11.4,24.9c2.5,3.6,6.3,8.6,11.4,14.2C750.6,1701.2,754,1704.9,758.7,1705.9z
									"/>
								
									<linearGradient id="SVGID_00000173136625788622023930000009112185114416661919_" gradientUnits="userSpaceOnUse" x1="529.7972" y1="938.818" x2="577.0784" y2="938.818" gradientTransform="matrix(1 0 0 1 0 726)">
									<stop  offset="0" style="stop-color:#B0D4EA"/>
									<stop  offset="1" style="stop-color:#70B5E8"/>
								</linearGradient>
								<path style="fill:url(#SVGID_00000173136625788622023930000009112185114416661919_);" d="M554.8,1631.3
									c-0.7-0.8-6.4-6.9-12.1-5.7c-6.3,1.3-11.9,11.5-8.5,24.2c-1,1.6-7.3,12.9-2.8,26.3c4.1,12.4,14.4,17.6,16.3,18.5
									c7.3,8.3,17.1,11.5,22.7,8.5c6.9-3.7,10.2-18.5,0.7-32c7.2-9.7,7.6-22.2,1.4-30.6C566.5,1632.4,556.5,1631.5,554.8,1631.3z"
									/>
								
									<linearGradient id="SVGID_00000107546462110096626370000008499210840805846709_" gradientUnits="userSpaceOnUse" x1="501.7061" y1="937.1628" x2="552.9982" y2="937.1628" gradientTransform="matrix(1 0 0 1 0 726)">
									<stop  offset="0" style="stop-color:#B0D4EA"/>
									<stop  offset="1" style="stop-color:#70B5E8"/>
								</linearGradient>
								<path style="fill:url(#SVGID_00000107546462110096626370000008499210840805846709_);" d="M548.4,1666.9
									c6.2-11.3,4.8-24.5-2.8-32.7c-7.4-7.9-17.9-7.9-19.9-7.8c-6.8-6-10.8-5.3-12.1-5c-7.1,2-11.3,16.3-8.5,36.2
									c-1,1.9-5.6,11.1-2.1,21.3c3.6,10.6,14.4,18.1,27,18.5c3,2.6,12.1,9.9,17.8,7.1C554,1701.5,555.2,1686.4,548.4,1666.9z"/>
								
									<linearGradient id="SVGID_00000133530401139780532250000006631303192105063064_" gradientUnits="userSpaceOnUse" x1="688.085" y1="938.6183" x2="741" y2="938.6183" gradientTransform="matrix(1 0 0 1 0 726)">
									<stop  offset="0" style="stop-color:#B0D4EA"/>
									<stop  offset="1" style="stop-color:#70B5E8"/>
								</linearGradient>
								<path style="fill:url(#SVGID_00000133530401139780532250000006631303192105063064_);" d="M722.5,1637
									c-5.8-7.8-9.6-10.7-14.2-11.4c-6.8-1-16.1,2.8-19.2,11.4c-2.5,7-0.3,15,5.7,19.9c-0.6,0.6-8.3,9-5.7,19.9
									c2.1,8.7,9.8,15.3,19.2,16.3c0.9,1.6,6.1,10.4,13.5,10.7c8.6,0.3,19.1-11.2,19.2-29.1C735.6,1656.7,728,1644.4,722.5,1637z"
									/>
								
									<linearGradient id="SVGID_00000031182732929801075010000007309027749876502684_" gradientUnits="userSpaceOnUse" x1="688.3684" y1="798.286" x2="736.0987" y2="917.9062" gradientTransform="matrix(1 0 0 1 0 726)">
									<stop  offset="0" style="stop-color:#1C74B5"/>
									<stop  offset="1" style="stop-color:#1A5284"/>
								</linearGradient>
								<path style="fill:url(#SVGID_00000031182732929801075010000007309027749876502684_);" d="M751,1516.8l8.6-20.3l-15.1,1.9
									l-3.6,6.8c0,0-0.7,11.2-22.9,17.8c0,0-6.1-9.9-26.2-6.1c-20.1,3.8-59.3,5.7-65.4,4c-6.1-1.7,0,54.4,0,54.4
									s35.4-15.5,51.5-5.8c5.7,5.8,29.9,34.2,42.8,36.1c7.7,9.9,16.8,24.8,17.1,43c0.3,18.1,17,11.3,17,11.3l-4.5-24.6
									c0,0-5.1-37.3-9.5-40.1c-4.4-2.8-10.6-4.4-10.1-16.4s0.1-43.1-6.5-45.9C724.3,1532.8,744.3,1516.8,751,1516.8z"/>
								
									<linearGradient id="SVGID_00000141443267813360937890000015597305405882181538_" gradientUnits="userSpaceOnUse" x1="576.7982" y1="730.8423" x2="495.3988" y2="789.3481" gradientTransform="matrix(1 0 0 1 0 726)">
									<stop  offset="0" style="stop-color:#B0D4EA"/>
									<stop  offset="1" style="stop-color:#70B5E8"/>
								</linearGradient>
								<path style="fill:url(#SVGID_00000141443267813360937890000015597305405882181538_);" d="M632.7,1573.5
									c0.8-0.4,11.4-5.2,10.5-11.7c-0.5-3.9-4.9-6.2-6.2-6.8c5.1-2.8,8.1-8.2,7.4-13.6c-0.8-6.3-6.1-9.5-6.8-9.9
									c4.9-7.5,3.6-16.6-1.8-21c-5.5-4.4-12.9-2.1-13.6-1.8c0-1.4-0.7-16-12.9-24c-8.4-5.5-17.2-4.7-19.7-4.3
									c4.2-8.6,3.1-18.2-2.5-24c-4.4-4.6-10.3-5.4-12.3-5.5c-0.1-1.1-0.7-9.8-8-14.8c-4.2-2.9-8.6-3.1-10.5-3.1
									c1.6-9.1-1.2-17.8-7.4-22.2c-3-2.1-6.2-2.9-8.6-3.1c5.4-6.5,6.4-15.4,2.5-22.2c-4.7-8.2-15.7-11.7-25.3-7.4
									c-0.6-2.3-3.3-11.1-11.1-14.8c-10-4.8-24.9,0.3-33.3,14.2c-3.9,1.9-11.4,6.2-12.9,13.6c-1.7,8,5.8,15.3,19.1,28.4
									c9.3,9.1,17.7,15.7,23.8,20.2c-3.2,4.8-6.4,9.5-9.7,14.3c0.1,5.7-0.2,14.9-1.8,25.9c-3.1,19.9-8,26.5-7.4,38.2
									c0.4,7.9,3.3,19.4,16,33.3c-0.9,14.3,6.6,27.9,19.1,34.5c11.6,6.2,25.8,5.4,37-1.8c1.5,1.8,9.4,10.8,21.6,11.1
									c13,0.4,25.7-9.3,30.2-24C610.5,1572.4,621.9,1578.3,632.7,1573.5z"/>
								
									<linearGradient id="SVGID_00000124874639694636455780000011287218295870652592_" gradientUnits="userSpaceOnUse" x1="499.1124" y1="773.4362" x2="557.6182" y2="733.5845" gradientTransform="matrix(1 0 0 1 0 726)">
									<stop  offset="0" style="stop-color:#B0D4EA"/>
									<stop  offset="1" style="stop-color:#C5DFEF"/>
								</linearGradient>
								<path style="fill:url(#SVGID_00000124874639694636455780000011287218295870652592_);" d="M549.6,1441.3
									c2.7-4,2.9-9.1,0.4-12.9c-3-4.6-9.4-6.5-14.9-3.9c-0.1-0.4-1.9-7.5-8.8-9.7c-5.1-1.6-10.9,0.2-14.4,4.5
									c-5.4-1.5-11.2,0-14.9,3.9c-4.4,4.6-5.3,11.9-1.9,17.8c-2.2,7.2-4.2,15.8-5.3,25.5c-2.5,22.1,0.9,40.7,4.4,53.2
									c-4.3,9-1.6,19.7,6,25.2c6.6,4.8,15.9,4.9,23,0.1c3,4.2,7.8,6.6,12.5,6c6.5-0.8,12.1-7.3,11.9-15.4c6.1-3,9.9-9.2,9.6-15.6
									c-0.4-7.5-6.1-11.8-6.9-12.3c3.1-5.4,10.1-19.5,8.5-38.1C557.6,1456.4,552.7,1446.6,549.6,1441.3z"/>
								
									<linearGradient id="SVGID_00000099662392863111157860000012581390813269957551_" gradientUnits="userSpaceOnUse" x1="777.0835" y1="722.4223" x2="775.3877" y2="793.6467" gradientTransform="matrix(1 0 0 1 0 726)">
									<stop  offset="0" style="stop-color:#B0D4EA"/>
									<stop  offset="1" style="stop-color:#70B5E8"/>
								</linearGradient>
								<path style="fill:url(#SVGID_00000099662392863111157860000012581390813269957551_);" d="M751,1516.8
									c6.6,4.6,15,5.1,21.6,1.2c7.7-4.6,9.1-13,9.2-14.2c10.9,2.1,20.5-3.4,22.8-11.1c2-6.8-2.4-13.2-3.1-14.2
									c1.3-0.4,6.2-2.2,9.2-7.4c3.8-6.5,1.6-13.2,1.2-14.2c0.4-0.7,6.4-12.3,1.8-18.5c-4.5-6-19.1-6.6-32.7,4.3
									c-7.9-1.1-15.7,1.9-20.3,8c-5.4,7.1-4,15.3-3.7,16.6c-1.6,0.5-13.6,4.7-17.9,16.6C735.3,1495.4,740,1508.9,751,1516.8z"/>
								
									<linearGradient id="SVGID_00000054977342558316621810000005771820270905703563_" gradientUnits="userSpaceOnUse" x1="426.3779" y1="712.6434" x2="437.6847" y2="712.6434" gradientTransform="matrix(1 0 0 1 0 726)">
									<stop  offset="0" style="stop-color:#052A4C"/>
									<stop  offset="1" style="stop-color:#061C2D"/>
								</linearGradient>
								<path style="fill:url(#SVGID_00000054977342558316621810000005771820270905703563_);" d="M437.7,1433.5
									c-0.8,2.4-2.4,4.8-4.3,6.6c-1.4,1.4-2.9,2.6-4.5,3.7c-3.9-4.5-3.6-10.3,3.4-10.3C434.2,1433.5,436,1433.5,437.7,1433.5z"/>
							</g>
						</g>
					</g>
				</g>
			</g>
		</g>
	</g>
</g>
</svg>
