<?xml version="1.0" encoding="utf-8"?>
<!-- Generator: Adobe Illustrator 25.4.1, SVG Export Plug-In . SVG Version: 6.00 Build 0)  -->
<svg version="1.1" id="Layer_1" xmlns="http://www.w3.org/2000/svg" xmlns:xlink="http://www.w3.org/1999/xlink" x="0px" y="0px"
	 viewBox="0 0 1440 900" style="enable-background:new 0 0 1440 900;" xml:space="preserve">
<style type="text/css">
	.st0{fill:url(#SVGID_1_);}
	.st1{fill:url(#SVGID_00000132810173043186572920000013706276981308035200_);}
</style>
<g>
	<linearGradient id="SVGID_1_" gradientUnits="userSpaceOnUse" x1="45.8146" y1="132.3211" x2="1778.5205" y2="894.0578">
		<stop  offset="0" style="stop-color:#3478C5"/>
		<stop  offset="1" style="stop-color:#032F61"/>
	</linearGradient>
	<path class="st0" d="M1404.1,143.2c131.8,67.6,118.8,261.4,120.5,399.1c0.8,138.5-0.9,252.2-133.6,307.3
		c-131.8,54.2-568.6,13.8-658.6-2.9s-294.6,45.9-414.7-8.3C198.3,783.3,109,633.9,92.3,467C74.7,300.1,130.7,116.5,250,48.9
		c120.2-67.6,303.8-19.2,464,4.2C874.2,76.5,1271.4,75.6,1404.1,143.2z"/>
</g>
<linearGradient id="SVGID_00000024700492750952546100000003495547100643563662_" gradientUnits="userSpaceOnUse" x1="-1702.9301" y1="786.0092" x2="-153.4348" y2="1706.1371">
	<stop  offset="0" style="stop-color:#3478C5"/>
	<stop  offset="1" style="stop-color:#032F61"/>
</linearGradient>
<path style="fill:url(#SVGID_00000024700492750952546100000003495547100643563662_);" d="M-641.9,524.1
	c118.5,49.3,206.2,167,288,298c83.5,131.1,162,274.7,186.2,466.7c24.2,190.3-6.7,426.6-141.9,490.1
	c-134.4,62.6-371.5-46.8-619.5-52.6c-246.3-5-503.4,95.2-654.5,25c-152.8-69.3-198.7-307.2-197.1-529.3
	c0-222.9,50.1-428.3,178.7-543.5c126.9-115.2,333.9-139.4,513.4-161.1C-909.1,495.7-760.5,475.6-641.9,524.1z"/>
</svg>
