<?xml version="1.0" encoding="utf-8"?>
<!-- Generator: Adobe Illustrator 26.0.1, SVG Export Plug-In . SVG Version: 6.00 Build 0)  -->
<svg version="1.1" id="Layer_1" xmlns="http://www.w3.org/2000/svg" xmlns:xlink="http://www.w3.org/1999/xlink" x="0px" y="0px"
	 viewBox="0 0 828.2 1625" style="enable-background:new 0 0 828.2 1625;" xml:space="preserve">
<style type="text/css">
	.st0{fill:#3478C5;}
	.st1{fill:#032F61;}
	.st2{fill:url(#SVGID_1_);}
</style>
<rect x="-1290.3" y="396.7" class="st0" width="368.3" height="272.4"/>
<rect x="-1290.3" y="863.1" class="st1" width="368.3" height="272.4"/>
<g>
</g>
<g>
	<linearGradient id="SVGID_1_" gradientUnits="userSpaceOnUse" x1="1232.9102" y1="1325.9944" x2="-131.4595" y2="127.267">
		<stop  offset="5.029310e-03" style="stop-color:#032F61"/>
		<stop  offset="1" style="stop-color:#3478C5"/>
	</linearGradient>
	<path class="st2" d="M263.7,81.1c179.8-26.2,341.5-55,527.5-31.9c186.7,24,397.7,98.3,476.2,234.8
		c76.6,136.1,20.8,334.5-26.2,538.7c-48.6,202.5-87.6,409.5-221.2,498.5s-362.4,61.8-581.8,36.4s-429.1-46.2-578.8-150.2
		c-149.8-103.3-236.7-291.7-256.1-479.7c-18.4-188.6,32-378.9,156-486C-115.6,134.1,83.8,108.9,263.7,81.1z"/>
</g>
</svg>
