<?xml version="1.0" encoding="utf-8"?>
<!-- Generator: Adobe Illustrator 26.0.1, SVG Export Plug-In . SVG Version: 6.00 Build 0)  -->
<svg version="1.1" id="Layer_1" xmlns="http://www.w3.org/2000/svg" xmlns:xlink="http://www.w3.org/1999/xlink" x="0px" y="0px"
	 viewBox="0 0 828.2 1625" style="enable-background:new 0 0 828.2 1625;" xml:space="preserve">
<style type="text/css">
	.st0{fill:#3478C5;}
	.st1{fill:#032F61;}
	.st2{fill:url(#SVGID_1_);}
	.st3{fill:url(#SVGID_00000083799304024595738370000001426407013086340763_);}
</style>
<rect x="-1290.3" y="396.7" class="st0" width="368.3" height="272.4"/>
<rect x="-1290.3" y="863.1" class="st1" width="368.3" height="272.4"/>
<g>
</g>
<g>
	<linearGradient id="SVGID_1_" gradientUnits="userSpaceOnUse" x1="-628.3864" y1="340.239" x2="-1992.7561" y2="-858.4883">
		<stop  offset="5.029310e-03" style="stop-color:#032F61"/>
		<stop  offset="1" style="stop-color:#3478C5"/>
	</linearGradient>
	<path class="st2" d="M-1597.6-904.6c179.8-26.2,341.5-55,527.5-31.9c186.7,24,397.7,98.3,476.2,234.8
		c76.6,136.1,20.8,334.5-26.2,538.7c-48.6,202.5-87.6,409.5-221.2,498.5s-362.4,61.8-581.8,36.4s-429.1-46.2-578.8-150.2
		C-2151.7,118.4-2238.6-70-2258-258c-18.4-188.6,32-378.9,156-486C-1976.9-851.6-1777.5-876.9-1597.6-904.6z"/>
</g>
<linearGradient id="SVGID_00000167368013535255606350000004786916125747955646_" gradientUnits="userSpaceOnUse" x1="14.86" y1="-8.7781" x2="2394.8787" y2="3260.4783">
	<stop  offset="0" style="stop-color:#4484CE"/>
	<stop  offset="0.857" style="stop-color:#3C4AA8"/>
	<stop  offset="0.9775" style="stop-color:#33067C"/>
</linearGradient>
<path style="fill:url(#SVGID_00000167368013535255606350000004786916125747955646_);" d="M1281.9,374.9
	C1386,493,1409.1,680.8,1367,858c-43,176.5-150.4,344.5-306.5,423.3c-156.1,79.5-358.5,71.9-570.8,67.5
	c-212.3-4.4-433.6-8.4-549.3-110.6c-115.6-102.2-125.6-304.5-145.5-503.6c-18.1-200.6-45.4-396.8,45.4-516.4
	C-67,98.4,143.6,55.2,324.5,56.7c180.1,2.4,330.4,50.8,498.2,99.3C990.2,205.9,1176.9,256,1281.9,374.9z"/>
</svg>
