<?xml version="1.0" encoding="utf-8"?>
<!-- Generator: Adobe Illustrator 26.0.1, SVG Export Plug-In . SVG Version: 6.00 Build 0)  -->
<svg version="1.1" id="Layer_1" xmlns="http://www.w3.org/2000/svg" xmlns:xlink="http://www.w3.org/1999/xlink" x="0px" y="0px"
	 viewBox="0 0 828.2 1625" style="enable-background:new 0 0 828.2 1625;" xml:space="preserve">
<style type="text/css">
	.st0{clip-path:url(#SVGID_00000013185937129457039600000001383542183925941181_);}
	.st1{clip-path:url(#SVGID_00000083074366646220246500000001757717518615159433_);}
	.st2{fill:url(#SVGID_00000177459435329352893470000015466390321393699731_);}
	.st3{fill:url(#SVGID_00000179631461666740429690000001816705084828059789_);}
	.st4{fill:url(#SVGID_00000135659570044966497620000002226256351671287203_);}
	.st5{fill:url(#SVGID_00000034071008936734726010000000536982637842352531_);}
	.st6{fill:url(#SVGID_00000143582927863437821170000016939516572397182099_);}
	.st7{fill:url(#SVGID_00000173134281922028470300000012789585266586537384_);}
	.st8{opacity:0.43;fill:url(#SVGID_00000092456517251932002070000018215662226083367101_);enable-background:new    ;}
	.st9{fill:url(#SVGID_00000069379117804129069390000004644060327957450389_);}
	.st10{fill:url(#SVGID_00000158717943081053720040000010571994872274828672_);}
	.st11{fill:url(#SVGID_00000075153546947210734460000001915789977680847271_);}
	
		.st12{opacity:0.56;fill:none;stroke:#7F1712;stroke-width:4;stroke-linecap:round;stroke-miterlimit:10;enable-background:new    ;}
	.st13{fill:none;stroke:#7F1712;stroke-width:4;stroke-linecap:round;stroke-miterlimit:10;}
	.st14{opacity:0.2;enable-background:new    ;}
	.st15{opacity:0.47;fill:url(#SVGID_00000029016607556558715290000014805008043904640938_);enable-background:new    ;}
	.st16{fill:url(#SVGID_00000008832576703905300420000005015059264834832297_);}
	.st17{opacity:0.71;fill:url(#SVGID_00000111171316663925257530000017363412176176997265_);enable-background:new    ;}
	.st18{opacity:0.71;fill:url(#SVGID_00000086671423661419469500000014401504711208761772_);enable-background:new    ;}
	.st19{fill:none;stroke:#000000;stroke-width:4;stroke-miterlimit:10;}
	.st20{fill:url(#SVGID_00000176749604480352385630000002617814363485255056_);}
	.st21{fill:url(#SVGID_00000137835999292046886200000000217071173552123315_);}
	.st22{fill:url(#SVGID_00000001623382298099114480000006669985290032102533_);}
	.st23{fill:url(#SVGID_00000115484372383745256310000018353386536462667139_);}
	.st24{fill:url(#SVGID_00000107554697800018100540000006364050680871638715_);}
	.st25{fill:url(#SVGID_00000029016452658968999250000008753627530870974353_);}
	.st26{fill:url(#SVGID_00000119823846667055030520000014208635381119262859_);}
	.st27{fill:url(#SVGID_00000066508766950506005830000010010516970346922120_);}
	.st28{fill:url(#SVGID_00000168832046301992446350000009753894278263432580_);}
	.st29{fill:url(#SVGID_00000127756629775727571650000008115673788677981072_);}
	.st30{fill:url(#SVGID_00000018234527428807102030000004538959909443228293_);}
	.st31{opacity:0.18;enable-background:new    ;}
	.st32{fill:url(#SVGID_00000173868982044936104810000002664842797080939407_);}
	.st33{fill:url(#SVGID_00000036934418335462605790000001970549569257506688_);}
	.st34{fill:#3478C5;}
	.st35{fill:#032F61;}
	.st36{fill:url(#SVGID_00000131354559736095244290000003699549498180698258_);}
	.st37{clip-path:url(#SVGID_00000045618743799929043120000006011681259422009244_);}
	.st38{clip-path:url(#SVGID_00000084521055957387330860000012698117018015677871_);}
	.st39{fill:url(#SVGID_00000061458201464163253250000015799307089489876641_);}
	.st40{fill:url(#SVGID_00000023271146835766678870000013717265411818451585_);}
	.st41{fill:none;stroke:#1A5284;stroke-width:2;stroke-miterlimit:10;}
	.st42{fill:url(#SVGID_00000093178707104317196570000008505280107703230872_);}
	.st43{fill:url(#SVGID_00000164488648870340069790000003165961727858001292_);}
	.st44{fill:url(#SVGID_00000013877508836259476200000012937057193977594010_);}
	.st45{fill:url(#SVGID_00000102513669264625923030000007069686895559822995_);}
	.st46{fill:url(#SVGID_00000128452859006932840710000010999969705259118001_);}
	.st47{fill:url(#SVGID_00000152247334284168693960000016152477909724024449_);}
	.st48{fill:url(#SVGID_00000058551415517835845530000007459746296213321636_);}
	.st49{fill:url(#SVGID_00000042710584826377663000000010252026005888548028_);}
	.st50{fill:url(#SVGID_00000174588798544010026620000014113433681862749095_);}
	.st51{fill:url(#SVGID_00000153701809449552910780000013729897369423507133_);}
	.st52{fill:url(#SVGID_00000084493580640927025010000001429918895496339130_);}
	.st53{fill:url(#SVGID_00000052799695649686618110000001008144194883649975_);}
	.st54{fill:url(#SVGID_00000138542871862512092740000004913387324072068780_);}
	.st55{fill:none;stroke:#49939B;stroke-width:1.5;stroke-linecap:round;stroke-linejoin:round;}
	.st56{fill:none;stroke:#49939B;stroke-width:1.5;stroke-linecap:round;stroke-linejoin:round;stroke-dasharray:1.0286,4.1145;}
	.st57{fill:none;stroke:#49939B;stroke-width:1.5;stroke-linecap:round;stroke-linejoin:round;stroke-dasharray:1.018,4.0718;}
	.st58{fill:none;stroke:#49939B;stroke-width:1.5;stroke-linecap:round;stroke-linejoin:round;stroke-dasharray:1.016,4.0641;}
	.st59{fill:url(#SVGID_00000097477262520603830080000013138774512036060044_);}
	.st60{fill:url(#SVGID_00000030453334571895280640000005296932732074646675_);}
	.st61{fill:url(#SVGID_00000183241640975514135370000012072685187662593725_);}
	.st62{fill:url(#SVGID_00000136410081394946184080000009651129411167288719_);}
	.st63{fill:url(#SVGID_00000160152371762231912490000007654573484349959101_);}
	.st64{fill:url(#SVGID_00000011006194630758084320000004494717873959311252_);}
	.st65{fill:url(#SVGID_00000000910059463617482480000000008411737425069477_);}
	.st66{fill:url(#SVGID_00000061452265171887950450000002221714573362392758_);}
	.st67{fill:url(#SVGID_00000026134948563940986860000015775429112195091875_);}
	.st68{fill:url(#SVGID_00000165926228561347205580000004819018252545078959_);}
	.st69{fill:url(#SVGID_00000031892290303421250420000002341966651594243976_);}
	.st70{fill:url(#SVGID_00000036951375927230089350000013298667855641190835_);}
	.st71{fill:url(#SVGID_00000029757505451243772420000005313198304649193401_);}
	.st72{fill:url(#SVGID_00000080909402263908833250000018176305291908489348_);}
	.st73{fill:url(#SVGID_00000124145917911989183630000013481494124059461504_);}
	.st74{fill:url(#SVGID_00000153697123417072924980000013220593423832493488_);}
	.st75{fill:url(#SVGID_00000070096218873040365950000013882549556964579986_);}
	.st76{fill:url(#SVGID_00000037650791603585430330000005560974158105286585_);}
	.st77{fill:url(#SVGID_00000136387727262591650280000010739647009622071451_);}
</style>
<g>
	<g>
		<defs>
			<path id="SVGID_1_" d="M875.2,220.9c111.5,39.9,216.3-54,293.3,51.9c78.6,106-76.2,704.6-53.4,859.9
				c22.8,153.9-6.3,345-133.5,396.3c-126.5,50.6-349.6-37.8-583-42.5c-231.8-4-473.7,77-615.9,20.2c-143.8-56-187-248.4-185.5-428.1
				c0-180.3-73.6-514.5,47.4-607.7c119.4-93.2,435-238,603.9-255.6C417.4,197.9,763.6,181.6,875.2,220.9z"/>
		</defs>
		<clipPath id="SVGID_00000158725239886760545520000005633013912106556862_">
			<use xlink:href="#SVGID_1_"  style="overflow:visible;"/>
		</clipPath>
		<g style="clip-path:url(#SVGID_00000158725239886760545520000005633013912106556862_);">
			<g>
				<g>
					<defs>
						<path id="SVGID_00000041280327931064586620000007455642380636798907_" d="M468,478.5C579.5,524.9,662,635.7,739,759
							c78.6,123.4,152.4,258.5,175.2,439.2c22.8,179.1-6.3,401.4-133.5,461.2c-126.5,58.9-349.6-44-583-49.5
							c-231.8-4.7-473.7,89.6-615.9,23.5c-143.8-65.2-187-289.1-185.5-498.1c0-209.8,47.1-403,168.2-511.5
							c119.4-108.4,314.2-131.2,483.1-151.6C216.5,451.8,356.4,432.9,468,478.5z"/>
					</defs>
					<clipPath id="SVGID_00000058565637291806800720000009680790542121283241_">
						<use xlink:href="#SVGID_00000041280327931064586620000007455642380636798907_"  style="overflow:visible;"/>
					</clipPath>
					<g style="clip-path:url(#SVGID_00000058565637291806800720000009680790542121283241_);">
						
							<linearGradient id="SVGID_00000011750053340898343930000018200296876545827496_" gradientUnits="userSpaceOnUse" x1="-840.3411" y1="224.3824" x2="-841.6183" y2="341.8827" gradientTransform="matrix(-1 0 0 1 -398.5881 1447.9929)">
							<stop  offset="0" style="stop-color:#1870B2;stop-opacity:0.3"/>
							<stop  offset="1" style="stop-color:#18689E"/>
						</linearGradient>
						
							<ellipse style="fill:url(#SVGID_00000011750053340898343930000018200296876545827496_);" cx="442.4" cy="1731.9" rx="425.3" ry="55"/>
						<g>
							
								<linearGradient id="SVGID_00000087391376879985427560000016634248190512503482_" gradientUnits="userSpaceOnUse" x1="-1032.2213" y1="45.038" x2="-1037.6206" y2="283.955" gradientTransform="matrix(-1 0 0 1 -398.5881 1447.9929)">
								<stop  offset="0" style="stop-color:#052A4C"/>
								<stop  offset="1" style="stop-color:#061C2D"/>
							</linearGradient>
							<polygon style="fill:url(#SVGID_00000087391376879985427560000016634248190512503482_);" points="626.2,1734.2 645.7,1734.2 
								645.7,1456.9 626.2,1456.9 							"/>
							
								<linearGradient id="SVGID_00000094588811040650956010000000705143996771580346_" gradientUnits="userSpaceOnUse" x1="-591.2965" y1="55.0025" x2="-596.6957" y2="293.9195" gradientTransform="matrix(-1 0 0 1 -398.5881 1447.9929)">
								<stop  offset="0" style="stop-color:#052A4C"/>
								<stop  offset="1" style="stop-color:#061C2D"/>
							</linearGradient>
							<polygon style="fill:url(#SVGID_00000094588811040650956010000000705143996771580346_);" points="185,1734.2 204.6,1734.2 
								204.6,1456.9 185,1456.9 							"/>
							
								<linearGradient id="SVGID_00000073000285288853752330000000246487747922664082_" gradientUnits="userSpaceOnUse" x1="-809.3375" y1="-84.0774" x2="-809.3375" y2="21.278" gradientTransform="matrix(-1 0 0 1 -398.5881 1447.9929)">
								<stop  offset="0" style="stop-color:#E5B313"/>
								<stop  offset="1" style="stop-color:#AF8612"/>
							</linearGradient>
							<path style="fill:url(#SVGID_00000073000285288853752330000000246487747922664082_);" d="M181.3,1467.7h458.9
								c6.9,0,12.5-5.6,12.5-12.5v-76.3c0-6.9-5.6-12.5-12.5-12.5H181.3c-6.9,0-12.5,5.6-12.5,12.5v76.3
								C168.7,1462.2,174.4,1467.7,181.3,1467.7z"/>
						</g>
						
							<linearGradient id="SVGID_00000084511707261335968130000004621079546406047120_" gradientUnits="userSpaceOnUse" x1="-802.7881" y1="-112.1784" x2="-802.7881" y2="-23.486" gradientTransform="matrix(-1 0 0 1 -398.5881 1447.9929)">
							<stop  offset="0" style="stop-color:#215E87"/>
							<stop  offset="1" style="stop-color:#0D4168"/>
						</linearGradient>
						<path style="fill:url(#SVGID_00000084511707261335968130000004621079546406047120_);" d="M202.3,1373.8
							c10.6,6.9,27.1,13.1,48,18.3c39.1,9.7,93.5,15.7,153.9,15.7s114.7-6,153.9-15.7c20.9-5.2,37.4-11.4,48-18.3
							c-10.6-6.9-27.1-13.1-48-18.3c-39.1-9.7-93.5-15.7-153.9-15.7s-114.7,6-153.9,15.7C229.4,1360.8,213,1367,202.3,1373.8z"/>
						
							<linearGradient id="SVGID_00000180368241339952512340000016219617774917431230_" gradientUnits="userSpaceOnUse" x1="-804.7082" y1="-141.5343" x2="-803.1098" y2="-98.3796" gradientTransform="matrix(-1 0 0 1 -398.5881 1447.9929)">
							<stop  offset="0" style="stop-color:#052A4C"/>
							<stop  offset="1" style="stop-color:#061C2D"/>
						</linearGradient>
						<path style="fill:url(#SVGID_00000180368241339952512340000016219617774917431230_);" d="M188.8,1355.6
							c0,6.4,4.8,12.6,13.6,18.3c10.6-6.9,27.1-13.1,48-18.3c39.1-9.7,93.5-15.7,153.9-15.7s114.7,6,153.9,15.7
							c20.9,5.2,37.4,11.4,48,18.3c8.8-5.7,13.6-11.9,13.6-18.3c0-28.9-96.5-52.2-215.4-52.2S188.8,1326.8,188.8,1355.6z"/>
						
							<linearGradient id="SVGID_00000176028555842059546630000002078868969137313431_" gradientUnits="userSpaceOnUse" x1="-509.3057" y1="193.9154" x2="-572.4077" y2="289.2695" gradientTransform="matrix(0.7429 -0.6694 -0.6694 -0.7429 843.7068 1194.1443)">
							<stop  offset="0" style="stop-color:#B0D4EA"/>
							<stop  offset="1" style="stop-color:#70B5E8"/>
						</linearGradient>
						
							<path style="opacity:0.43;fill:url(#SVGID_00000176028555842059546630000002078868969137313431_);enable-background:new    ;" d="
							M228.6,1370.4c-6.9,9.7-3.8,22.8,5,28c9.1,5.5,22.7,1.4,27.6-10c-5.1,12.5,1.9,25.3,11.4,27.7c7.2,1.8,15.8-2.3,20.5-10.4
							c-1.8,11.5,6.8,21.7,17.3,22.3c10,0.5,19.3-7.9,19.5-18.9c2.3,0.3,11.6,1.4,18.7-4.7c8.4-7.2,7.3-18.7,7-23.8
							c-1-12.8-9.1-32.3-26-34.8c-11.7-1.7-21.3,5.7-23.9,8c-1.9-7.2-7.8-12.6-15-13.6c-9.3-1.2-15.5,5.7-16,6.3
							c0.8-8.8-6.3-16.4-14.8-16.5c-8.6-0.1-15.7,7.4-15.1,16.3c-7.6-5.8-16.8-6.4-21.3-2.5C218.2,1348.5,218.1,1361.7,228.6,1370.4
							z"/>
						<g>
							
								<linearGradient id="SVGID_00000083799526314857776230000007905189897778023050_" gradientUnits="userSpaceOnUse" x1="-635.5679" y1="-326.7289" x2="-825.6398" y2="-75.4473" gradientTransform="matrix(-1 0 0 1 -398.5881 1447.9929)">
								<stop  offset="0" style="stop-color:#AD4D1E"/>
								<stop  offset="1" style="stop-color:#A03227"/>
							</linearGradient>
							<path style="fill:url(#SVGID_00000083799526314857776230000007905189897778023050_);" d="M205,1078.3
								c0.4,17.1,5.1,40.7,15.4,41.8c32.1,12.6,31.3,39.9,31.3,39.9c-1.5,6.8-2.4,13.3-2.7,19.6c-3.6,59.9,38.9,96.4,38.9,96.4
								c11.8,27.3,14.3,52.3,13.6,72c-1,25.3-7.7,41.5-7.7,41.5c-22.2-0.8-24.7,23.8,0,23.7c67.6,0.8,51.4-78,51-79.6l11.7,14.7
								c-8.8,22.1,17.4,41.2,17.4,41.2c-21.1-0.8-29.1,14.8-17.4,21.6c11.7,6.9,132.2-5.2,132.2-5.2c134,25,102-48.6,102-48.6
								c-24.7,36.2-84.7,23.9-84.7,23.9s17.3-89.7-62.5-153.4c-79.8-63.7-77.6-95.8-77.6-95.8l-26.6-58.9
								c-56.7-43.3-74.2-6.1-91.4-6.9c-6.4-0.3-13.6-2.4-20-4.2c-11-3-20.3-5.1-21.8,4.2C205.2,1069.3,204.9,1073.5,205,1078.3z"/>
							
								<linearGradient id="SVGID_00000160161277814956808890000006609404745803422884_" gradientUnits="userSpaceOnUse" x1="-711.2108" y1="-339.8269" x2="-747.3455" y2="-307.2175" gradientTransform="matrix(-1 0 0 1 -398.5881 1447.9929)">
								<stop  offset="0" style="stop-color:#7F1712"/>
								<stop  offset="1" style="stop-color:#5B0909"/>
							</linearGradient>
							<path style="fill:url(#SVGID_00000160161277814956808890000006609404745803422884_);" d="M369.9,1111.4c2,2.9,4,6.2,3.8,9.8
								c-0.3,4.6-4.3,8-8.1,10.8c-11.7,8.8-23.3,17.8-35,26.6c-3.4,2.5-6.9,5.3-11,6.5c-4,1.2-8.9,0.8-12-2.1
								c-4.8-4.5-3.4-12.2-1.7-18.6c3.5-12.7,6.9-25.3,10.4-38c2.4-8.9,3.6-26.3,11.1-32.6c8.8-7.2,15.3,2,20.7,8.5
								C352.5,1087.9,369.9,1104.2,369.9,1111.4z"/>
							
								<linearGradient id="SVGID_00000151527108330480405570000014265609488950854293_" gradientUnits="userSpaceOnUse" x1="-626.0881" y1="-378.9663" x2="-603.569" y2="-378.9663" gradientTransform="matrix(-1 0 0 1 -398.5881 1447.9929)">
								<stop  offset="0" style="stop-color:#7F1712"/>
								<stop  offset="1" style="stop-color:#5B0909"/>
							</linearGradient>
							<path style="fill:url(#SVGID_00000151527108330480405570000014265609488950854293_);" d="M205,1078.3l0.6,0.3
								c8.4-2.8,15.8-8.5,20.9-15.7l1-0.9c-11-3-20.3-5.1-21.8,4.2C205.2,1069.3,204.9,1073.5,205,1078.3z"/>
							<path class="st12" d="M361.5,1335.9c2.9-14.9,12.7-48.1,42-48.6"/>
							<path class="st13" d="M241.8,1105.4c0,0-15.8,1.3-30.8-4.3"/>
							<path class="st14" d="M287.9,1275.9c11.8,27.3,14.3,52.3,13.6,72c7.8-9.9,10.4-28.5,8.5-37.5c-3.2-14.3-11.6-26.7-18.9-39.3
								c-13.7-23.7-24.1-49.4-30.9-75.9c-1-4-2-8-4.4-11.2c-1.6-2.2-4.1-3.9-6.8-4.3C245.4,1239.5,287.9,1275.9,287.9,1275.9z"/>
						</g>
						
							<linearGradient id="SVGID_00000134931950868555105010000011102329839925241529_" gradientUnits="userSpaceOnUse" x1="-340.5752" y1="6.4494" x2="-402.4597" y2="99.9637" gradientTransform="matrix(0.5915 -0.8063 -0.8063 -0.5915 758.7094 1117.2933)">
							<stop  offset="0" style="stop-color:#B0D4EA"/>
							<stop  offset="1" style="stop-color:#70B5E8"/>
						</linearGradient>
						
							<path style="opacity:0.47;fill:url(#SVGID_00000134931950868555105010000011102329839925241529_);enable-background:new    ;" d="
							M452.1,1415c11.2,3.8,22.6-3.3,25.4-5.2c1.4,8.1,8.3,14.2,16.3,14.6c8.5,0.4,16.3-5.6,18-14.3c0.6,11.6,11.1,19.9,21.5,18.3
							c9.9-1.6,17.2-11.7,15.2-22.5c1.8-0.1,11.2-0.8,17.4-8.5c5-6.1,8.6-17.7,2-24.7c-4.7-5.1-13.3-6.3-21-2.8
							c0.8-7.8-2.9-15.2-9.4-18.7c-7.7-4.2-18-2.1-23.9,5.5c-3.3-6.7-10.3-10.8-17.4-10.3c-9.4,0.7-14,8.8-14.4,9.4
							c-1.1-8.8-9.5-14.8-17.9-13.1s-13.9,10.4-11.5,19c-8.3-0.3-12.3,2.4-14.2,4.1C427.1,1376.4,433.5,1408.7,452.1,1415z"/>
						
							<linearGradient id="SVGID_00000059292834330416809660000012469463800874505383_" gradientUnits="userSpaceOnUse" x1="-802.7881" y1="-43.3652" x2="-802.7881" y2="7.0977" gradientTransform="matrix(-1 0 0 1 -398.5881 1447.9929)">
							<stop  offset="0" style="stop-color:#052A4C"/>
							<stop  offset="1" style="stop-color:#061C2D"/>
						</linearGradient>
						<path style="fill:url(#SVGID_00000059292834330416809660000012469463800874505383_);" d="M188.8,1355.6v36.5
							c0,28.9,96.5,52.2,215.4,52.2s215.4-23.4,215.4-52.2v-36.5c0,6.4-4.8,12.6-13.6,18.3c-10.6,6.9-27.1,13.1-48,18.3
							c-39.1,9.7-93.5,15.7-153.9,15.7s-114.7-6-153.9-15.7c-20.9-5.2-37.4-11.4-48-18.3C193.6,1368.2,188.8,1362.1,188.8,1355.6z"
							/>
						
							<linearGradient id="SVGID_00000174566483506967149130000001486356390093125520_" gradientUnits="userSpaceOnUse" x1="-751.497" y1="-278.553" x2="-814.599" y2="-183.199" gradientTransform="matrix(-1 0 0 1 -398.5881 1447.9929)">
							<stop  offset="0" style="stop-color:#B0D4EA"/>
							<stop  offset="1" style="stop-color:#70B5E8"/>
						</linearGradient>
						
							<path style="opacity:0.71;fill:url(#SVGID_00000174566483506967149130000001486356390093125520_);enable-background:new    ;" d="
							M418.5,1256.4c11.6-2.6,18.1-14.4,15.1-24.1c-3.1-10.2-15.9-16.3-27.1-11.1c12.1-5.9,15.5-20,10.1-28.1
							c-4.1-6.1-13.3-8.8-22.1-6c9-7.2,9.5-20.7,2-28.1c-7.2-7.1-19.7-7-27.1,1c-1.4-1.7-7.7-8.8-17.1-9c-11-0.3-18.1,9-21.1,13.1
							c-7.7,10.2-14.9,30.1-4,43.2c7.5,9.1,19.7,10,23.1,10.1c-3.5,6.7-2.6,14.7,2,20.1c6.1,7.2,15.4,6.1,16.1,6
							c-6.4,6-6.3,16.4,0,22.1c6.3,5.8,16.7,5,22.1-2c1.7,9.5,8.3,16,14.1,16.1C411.5,1279.5,420.4,1269.8,418.5,1256.4z"/>
						
							<linearGradient id="SVGID_00000181780408570774584960000011000060507715282873_" gradientUnits="userSpaceOnUse" x1="-910.6105" y1="-164.0429" x2="-839.8168" y2="-164.0429" gradientTransform="matrix(-1 0 0 1 -398.5881 1447.9929)">
							<stop  offset="0" style="stop-color:#B0D4EA"/>
							<stop  offset="1" style="stop-color:#70B5E8"/>
						</linearGradient>
						
							<path style="opacity:0.71;fill:url(#SVGID_00000181780408570774584960000011000060507715282873_);enable-background:new    ;" d="
							M502.1,1309.9c7.2-1.6,11.3-9,9.5-15.2c-2-6.4-10-10.3-17-7c7.6-3.7,9.7-12.6,6.3-17.7c-2.5-3.9-8.3-5.6-13.8-3.8
							c5.6-4.6,5.9-13,1.2-17.7c-4.4-4.4-12.3-4.4-17,0.7c-0.9-1.1-4.8-5.6-10.7-5.6c-6.9-0.2-11.3,5.6-13.3,8.2
							c-4.9,6.4-9.3,18.9-2.5,27.1c4.7,5.7,12.3,6.2,14.5,6.3c-2.2,4.1-1.7,9.2,1.2,12.6c3.8,4.5,9.7,3.9,10.1,3.8
							c-4,3.8-4,10.3,0,13.8c4,3.7,10.4,3.1,13.8-1.2c1,5.9,5.2,10.1,8.8,10.1C497.8,1324.5,503.4,1318.4,502.1,1309.9z"/>
						<g>
							<path class="st19" d="M460,1277.2c1.9-0.1,2.8-0.2,2.1-0.2C461.6,1277,460.8,1277,460,1277.2z"/>
							
								<linearGradient id="SVGID_00000007400064102872318190000004684200642459994301_" gradientUnits="userSpaceOnUse" x1="-1012.5245" y1="-108.8973" x2="-1053.0902" y2="202.7215" gradientTransform="matrix(-1 0 0 1 -398.5881 1447.9929)">
								<stop  offset="0" style="stop-color:#052A4C"/>
								<stop  offset="1" style="stop-color:#061C2D"/>
							</linearGradient>
							<path style="fill:url(#SVGID_00000007400064102872318190000004684200642459994301_);" d="M541.1,1754.4
								c0,4.6,76.8,7.4,92.5,7.9s-5.6-35.7-5.6-41.2c0-1.2-0.7-10.6-1.6-24.7c-3.7-51.5-12.2-164.9-12.2-164.9l46.5-160.1
								c-0.7,14.8,21.4,170.4,21.4,170.4c-0.5,3,42.1,103.2,62.7,151.7c6.6,15.4,11,25.7,11,25.7s-42.4,23.8-50.7,28.4
								c-8.4,4.6-5.3,9-6.1,13.4c-0.8,4.3,92.4-2.9,94.6-10.8c2.2-7.9-8.7-29.5-10.1-31.7c-0.4-0.6-3.5-12.8-8-30.9
								c-13.4-53.9-38.9-159.5-38.9-159.5s-7.3-131.9-6.7-167.3c0.8-35.3-4-53.7-15.1-65.3c-7.5-7.9-110.9-8.2-110.9-8.2
								c-33.4,11.2-39.6,219.2-45.2,237.4c-4.4,14.5,24.8,128.9,37.2,176.1c3.3,12.4,5.4,20.2,5.4,20.2
								C554.9,1735.9,541.1,1749.8,541.1,1754.4z"/>
							<path class="st19" d="M462.1,1277c-0.5,0-1.1,0.1-2.1,0.2C462,1277.1,462.8,1277,462.1,1277z"/>
							
								<linearGradient id="SVGID_00000042017201529509680550000016971164919129512068_" gradientUnits="userSpaceOnUse" x1="-1115.8635" y1="279.9468" x2="-1182.1652" y2="313.4259" gradientTransform="matrix(-1 0 0 1 -398.5881 1447.9929)">
								<stop  offset="0" style="stop-color:#052A4C"/>
								<stop  offset="1" style="stop-color:#061C2D"/>
							</linearGradient>
							<path style="fill:url(#SVGID_00000042017201529509680550000016971164919129512068_);" d="M698.7,1761
								c-0.8,4.3,92.4-2.9,94.6-10.8c2.2-7.9-8.7-29.5-10.1-31.7c0,0-5.4,4.6-27.6,0.7c0,0-42.4,23.8-50.7,28.4
								C696.5,1752.2,699.6,1756.6,698.7,1761z"/>
							
								<linearGradient id="SVGID_00000183962429968848599510000010862730215979834785_" gradientUnits="userSpaceOnUse" x1="-1181.8223" y1="256.2135" x2="-1143.2222" y2="256.2135" gradientTransform="matrix(-1 0 0 1 -398.5881 1447.9929)">
								<stop  offset="0" style="stop-color:#F9988F"/>
								<stop  offset="1" style="stop-color:#D87873"/>
							</linearGradient>
							<path style="fill:url(#SVGID_00000183962429968848599510000010862730215979834785_);" d="M744.7,1693.5
								c6.6,15.4,11,25.7,11,25.7c22.2,4,27.6-0.7,27.6-0.7c-0.4-0.6-3.5-12.8-8-30.9L744.7,1693.5z"/>
							
								<linearGradient id="SVGID_00000142864603413314517090000003923480162807712929_" gradientUnits="userSpaceOnUse" x1="-977.2717" y1="284.1001" x2="-1014.033" y2="320.2049" gradientTransform="matrix(-1 0 0 1 -398.5881 1447.9929)">
								<stop  offset="0" style="stop-color:#052A4C"/>
								<stop  offset="1" style="stop-color:#061C2D"/>
							</linearGradient>
							<path style="fill:url(#SVGID_00000142864603413314517090000003923480162807712929_);" d="M541.1,1754.4
								c0,4.6,76.8,7.4,92.5,7.9s-5.6-35.7-5.6-41.2c0,0-4,5.2-26.8,0C554.9,1735.9,541.1,1749.8,541.1,1754.4z"/>
							
								<linearGradient id="SVGID_00000037663998723689113930000011950895886170563229_" gradientUnits="userSpaceOnUse" x1="-1026.6454" y1="261.8127" x2="-994.4454" y2="261.8127" gradientTransform="matrix(-1 0 0 1 -398.5881 1447.9929)">
								<stop  offset="0" style="stop-color:#F9988F"/>
								<stop  offset="1" style="stop-color:#D87873"/>
							</linearGradient>
							<path style="fill:url(#SVGID_00000037663998723689113930000011950895886170563229_);" d="M595.9,1700.8
								c3.3,12.4,5.4,20.2,5.4,20.2c22.9,5.2,26.8,0,26.8,0c0-1.2-0.7-10.6-1.6-24.7L595.9,1700.8z"/>
							
								<linearGradient id="SVGID_00000167362884711614031490000002595068822827582654_" gradientUnits="userSpaceOnUse" x1="-962.0135" y1="-291.9303" x2="-1014.2926" y2="-143.136" gradientTransform="matrix(-1 0 0 1 -398.5881 1447.9929)">
								<stop  offset="0" style="stop-color:#BF1A00"/>
								<stop  offset="1" style="stop-color:#99180B"/>
							</linearGradient>
							<path style="fill:url(#SVGID_00000167362884711614031490000002595068822827582654_);" d="M433.8,1276.2
								c0.2,1.2,8,1.4,15.3,1.3c0.5,0,0.9,0,1.3,0c1.1,0,2.2-0.1,3.2-0.1c0.4,0,0.8,0,1.1,0c0.2,0,0.5,0,0.7,0c0.5,0,0.8,0,1.2-0.1
								c0.4,0,0.8,0,1.2-0.1c0.4,0,0.8,0,1-0.1c0.3,0,0.6,0,0.8,0c-1.3,0.2-2.9,0.6-4.7,0.9c-0.2,0-0.3,0.1-0.4,0.1
								c-0.6,0.1-1.1,0.3-1.6,0.4c-0.4,0.1-0.8,0.2-1,0.3c-0.1,0-0.1,0-0.2,0c-0.4,0.1-0.8,0.2-1.2,0.4c-0.2,0-0.3,0.1-0.4,0.1
								c-0.3,0.1-0.6,0.2-0.8,0.3c-0.3,0.1-0.6,0.2-0.8,0.3c-0.2,0.1-0.4,0.1-0.6,0.2c-0.6,0.2-1,0.4-1.5,0.6
								c-0.2,0.1-0.5,0.2-0.7,0.3c-0.2,0.1-0.4,0.2-0.6,0.3c-0.6,0.3-1,0.5-1.4,0.8c-0.1,0.1-0.2,0.1-0.3,0.2
								c-0.2,0.2-0.4,0.3-0.5,0.4s-0.1,0.1-0.1,0.2c-0.1,0.1-0.1,0.2-0.1,0.2c0,0.1,0,0.1,0,0.2c0,0,0,0.1,0,0.2c0.8,2.2,9,0,12.3,0
								s51.8-14.6,51.8-14.6s0.2,0,0.5-0.1c0.1,0,0.2,0,0.4-0.1h0.1c0,0,0,0,0.1,0s0.1,0,0.2,0s0.2,0,0.3,0h0.1c0.1,0,0.1,0,0.2,0
								l0,0c0.1,0,0.1,0,0.2,0h0.1l0,0c0.1,0,0.2,0,0.3-0.1c0.1,0,0.3,0,0.4-0.1c0.1,0,0.2,0,0.3-0.1c0.1,0,0.3,0,0.4-0.1
								c0.1,0,0.2,0,0.3,0c0.1,0,0.2,0,0.3-0.1c0.5-0.1,0.9-0.2,1.5-0.3c0.4-0.1,0.8-0.2,1.3-0.2c0.2,0,0.4-0.1,0.5-0.1
								s0.3,0,0.4-0.1c0.7-0.1,1.3-0.2,2.1-0.4c0.1,0,0.2,0,0.3-0.1c0.2,0,0.5-0.1,0.7-0.1h0.2c1.1-0.2,2.3-0.4,3.5-0.6
								c0.1,0,0.2,0,0.4-0.1c0.8-0.2,1.6-0.3,2.4-0.4c0.3,0,0.6-0.1,0.8-0.1c0.5-0.1,0.9-0.2,1.4-0.3c0.1,0,0.1,0,0.2,0
								c0.3,0,0.6-0.1,0.8-0.2c0.1,0,0.2,0,0.3,0c0.4-0.1,0.8-0.1,1-0.2c0.7-0.1,1.3-0.2,2.1-0.4l0,0c0.3-0.1,0.6-0.1,0.8-0.2
								c0.6-0.1,1.2-0.2,1.8-0.3c0.3,0,0.6-0.1,0.8-0.2c0.2,0,0.5-0.1,0.7-0.1c0.6-0.1,1.1-0.2,1.7-0.3c0.4-0.1,0.8-0.2,1.2-0.2
								c0.4-0.1,0.7-0.1,1-0.2c0.1,0,0.3-0.1,0.4-0.1c1.1-0.2,2.4-0.4,3.6-0.6c0.4-0.1,0.8-0.2,1.2-0.2c0.2,0,0.4-0.1,0.6-0.1
								c0.5-0.1,0.9-0.2,1.4-0.3c0.7-0.1,1.3-0.2,2.1-0.4c0.4-0.1,0.8-0.1,1.1-0.2c0.8-0.2,1.7-0.3,2.5-0.5c0.5-0.1,0.9-0.2,1.4-0.3
								c1-0.2,2.2-0.4,3.3-0.6c0.7-0.1,1.4-0.3,2.1-0.4c1.3-0.2,2.6-0.5,4-0.7c1.5-0.3,3.1-0.6,4.6-0.8c0.3,0,0.6-0.1,0.8-0.2
								c0,0,0,0,0.1,0c0.2,0,0.4-0.1,0.6-0.1c0.2,0,0.4-0.1,0.7-0.1h0.1c0.5-0.1,0.9-0.2,1.5-0.3c0.9-0.2,1.8-0.3,2.7-0.5l2.3-0.4
								c0.8-0.1,1.4-0.3,2.2-0.4c0.2,0,0.3,0,0.5-0.1c0.2,0,0.4-0.1,0.6-0.1c0.5-0.1,0.8-0.2,1.3-0.3c0.5-0.1,1-0.2,1.5-0.3
								c2.6-0.5,5.2-0.9,7.7-1.3c0.3-0.1,0.6-0.1,0.9-0.2c0.1,0,0.3,0,0.4-0.1c0.3-0.1,0.7-0.1,0.9-0.2c1.1-0.2,2.2-0.4,3.2-0.6
								c0.3,0,0.6-0.1,0.8-0.2c0.2,0,0.5-0.1,0.7-0.1s0.4-0.1,0.6-0.1c1.2-0.2,2.4-0.5,3.6-0.7c0.2,0,0.5-0.1,0.7-0.1
								c0.3,0,0.5-0.1,0.8-0.1c0.7-0.1,1.3-0.3,2-0.4c0.4-0.1,0.8-0.2,1.1-0.2h0.2c0.1,0,0.1,0,0.2,0c0.4-0.1,0.8-0.2,1.2-0.2
								c0.2,0,0.3-0.1,0.5-0.1c0.9-0.2,1.8-0.3,2.6-0.5c0.2,0,0.4-0.1,0.6-0.1l-13.2,42.1c0,0,121.2,18.1,117.5,3
								c-0.3-1-0.5-2.4-0.6-4c-0.1-0.7-0.1-1.4-0.2-2.2c0-0.4,0-0.8-0.1-1.1c0-0.8-0.1-1.6-0.1-2.5c0-0.5,0-0.9,0-1.4
								c-0.2-8,0-19,0.4-30.9c0-0.1,0-0.2,0-0.2c0-1.2,0.1-2.4,0.1-3.7c0-0.1,0-0.2,0-0.3c0.2-5.3,0.4-10.7,0.7-16.1
								c0.3-6,0.6-12,0.8-17.6c0-0.2,0-0.3,0-0.5c0-0.1,0-0.2,0-0.3c0-0.4,0-0.8,0.1-1.1c0-0.5,0.1-0.9,0.1-1.3c0-0.5,0-0.9,0.1-1.4
								c0-0.1,0-0.3,0-0.4c0-0.8,0.1-1.5,0.1-2.3c0-0.1,0-0.3,0-0.4c0-0.5,0-0.9,0.1-1.4c0-0.2,0-0.4,0-0.5c0-0.4,0-0.8,0.1-1.1
								c0-0.2,0-0.3,0-0.4c0-0.4,0-0.8,0.1-1.2c0-0.6,0.1-1.1,0.1-1.7c0-0.4,0-0.8,0.1-1c0-0.8,0.1-1.4,0.1-2.1
								c0-0.6,0.1-1.1,0.1-1.7c0-0.8,0.1-1.4,0.1-2.2c0-0.7,0.1-1.2,0.1-1.8c0-0.3,0-0.6,0.1-0.8c0-0.4,0-0.8,0.1-1
								c0-0.5,0.1-0.9,0.1-1.4c0-0.3,0-0.6,0.1-0.9c0-0.5,0.1-0.9,0.1-1.4c0-0.3,0-0.6,0.1-0.8c0-0.6,0.1-1,0.1-1.5
								c0-0.1,0-0.2,0-0.3c0-0.2,0-0.4,0-0.5c0-0.2,0-0.4,0-0.6c0.1-1,0.1-1.9,0.2-2.4c0-0.1,0-0.3,0-0.4s0-0.3,0-0.3
								c0-0.1,0-0.2,0-0.2c0-0.1,0-0.2,0-0.2l0.1-0.1c0.1-0.1,0.3-0.2,0.4-0.3c0.7-0.6,1.3-1.1,1.9-1.6c0.1-0.1,0.1-0.1,0.2-0.2
								c0.4-0.4,0.8-0.7,1-0.9c0.1-0.1,0.2-0.2,0.2-0.2l0.1-0.1c0.2-0.2,0.3-0.3,0.5-0.5c0.1-0.1,0.2-0.2,0.3-0.3
								c0.1-0.1,0.2-0.2,0.3-0.3c2.4-1.9,4.1-5,5.3-8.7c0.2-0.7,0.4-1.4,0.6-2.2c0.1-0.3,0.1-0.5,0.2-0.8c0.1-0.5,0.2-1,0.3-1.5
								s0.2-1,0.2-1.6c0.5-3.7,0.5-7.7,0.2-11.7c0-0.1,0-0.2,0-0.3c-0.1-0.8-0.1-1.4-0.2-2.2c0-0.4-0.1-0.8-0.1-1
								c-0.1-0.9-0.3-1.9-0.4-2.8c0-0.1,0-0.2-0.1-0.4c-0.2-1-0.4-2.1-0.6-3c-0.1-0.3-0.2-0.7-0.2-0.9c-0.1-0.3-0.2-0.7-0.2-0.9
								c-0.1-0.3-0.2-0.7-0.2-0.9c-0.2-0.6-0.3-1.2-0.5-1.8c-0.1-0.3-0.2-0.6-0.3-0.9s-0.2-0.6-0.3-0.8c-0.2-0.6-0.4-1.1-0.6-1.6
								c-0.1-0.3-0.2-0.6-0.3-0.8c-0.2-0.6-0.5-1.1-0.8-1.7c-0.2-0.4-0.4-0.8-0.6-1.1c-0.5-0.8-0.9-1.6-1.4-2.3
								c-8.9-14.9-28-22-42.7-25.4c-10.8-2.5-19.3-3-19.3-3c-1.9-0.4-4-0.6-6.3-0.5h-0.3c-0.3,0-0.6,0-0.8,0s-0.4,0-0.6,0
								c-0.4,0-0.8,0-1.2,0.1c-1.9,0.1-3.9,0.4-5.9,0.8c-0.3,0-0.5,0.1-0.8,0.1c-1.4,0.3-3,0.6-4.5,0.8c-0.1,0-0.2,0-0.3,0.1
								c-0.3,0.1-0.7,0.2-0.9,0.2c-0.4,0.1-0.8,0.2-1.1,0.3c-0.3,0.1-0.6,0.2-0.8,0.2c-0.3,0.1-0.7,0.2-1,0.3
								c-0.4,0.1-0.8,0.2-1.1,0.3c-2.5,0.7-5.2,1.4-7.9,2.3c-0.6,0.2-1.1,0.4-1.6,0.5c-4.1,1.3-8.5,2.8-12.9,4.4
								c-0.5,0.2-0.9,0.4-1.4,0.6c-0.6,0.2-1.1,0.4-1.7,0.7c-0.8,0.4-1.8,0.7-2.6,1c-0.9,0.4-1.8,0.7-2.7,1
								c-1.2,0.5-2.5,0.9-3.8,1.5c-0.8,0.3-1.6,0.7-2.4,0.9c-1,0.4-2,0.8-3,1.2c-1,0.4-2,0.8-3,1.2l0,0c-0.9,0.4-2,0.8-2.9,1.2
								c-1,0.5-2.1,0.8-3.1,1.3c-0.9,0.4-1.9,0.8-2.8,1.2c-1,0.5-2,0.8-3,1.3c-0.5,0.2-1,0.5-1.5,0.7c-1,0.5-2,0.8-2.9,1.3
								c-2.4,1.1-4.9,2.2-7.3,3.3c-0.9,0.5-2,0.8-2.9,1.3c-0.2,0.1-0.4,0.2-0.6,0.3c-0.6,0.3-1.1,0.6-1.8,0.8
								c-1.3,0.6-2.5,1.2-3.8,1.8c-0.8,0.4-1.6,0.8-2.4,1.1c-1.4,0.7-2.7,1.3-4.1,2c-0.9,0.5-1.8,0.8-2.7,1.3
								c-0.2,0.1-0.4,0.2-0.6,0.3c0,0,4.3,31.2,2.8,44.6c0.6-0.2,1.2-0.5,1.8-0.7c0.9-0.4,1.8-0.7,2.7-1c14.7-5.5,27.2-10.4,36.3-14
								c0.4-0.2,0.8-0.3,1.1-0.5c2.4-0.9,4.2-1.7,5.5-2.2c0.2-0.1,0.4-0.2,0.6-0.2c0.5-0.2,0.8-0.3,0.9-0.4c0.1,0,0.1,0,0.2-0.1
								c0.2-0.1,0.2-0.1,0.3-0.1c0.2,0-3.3,3.3-0.1,14.9c6,21.9,4.5,40.3,4.5,40.3c-1.5,0.7-5.2,2-10.4,3.8c-0.5,0.2-1,0.4-1.6,0.6
								s-1.2,0.5-1.9,0.7c-0.5,0.2-1,0.4-1.6,0.6c-2.7,0.9-5.7,2-8.9,3.1c-1.5,0.6-3.1,1-4.7,1.6c-1.2,0.5-2.4,0.8-3.8,1.3
								c-1.5,0.5-3,1-4.6,1.6c-2.7,0.9-5.5,1.9-8.3,2.8c-0.8,0.3-1.6,0.6-2.4,0.8c-1.2,0.4-2.4,0.8-3.6,1.2
								c-3.2,1.1-6.5,2.2-9.7,3.3c-0.8,0.3-1.6,0.6-2.4,0.8c-0.6,0.2-1.1,0.4-1.7,0.6c-10,3.4-19.3,6.5-26.7,9
								c-0.4,0.1-0.8,0.3-1.1,0.4c-3.2,1-6,2-8.3,2.8c-0.6,0.2-1,0.4-1.5,0.6c-1.6,0.6-2.8,0.9-3.7,1.2c-0.1,0-0.2,0.1-0.3,0.1
								c-0.6,0.2-0.8,0.3-0.8,0.3s-13.7-3.6-26.1-6.9c-12.3-3.3-14.5,2.9-9.8,4.3s17,4,14.5,11.2s-20.2,3.3-24.6,1.4
								c-4.3-1.8-13.7-7.6-16.3-5.5s8,8.3,9,9c1.1,0.8-1.1,2.5,20.2,6.5C428.7,1267.2,433.5,1273.7,433.8,1276.2z M460,1277.2
								c0.3,0,0.6-0.1,0.8-0.1c0.1,0,0.3,0,0.4,0c0.4,0,0.7-0.1,0.8-0.1c0.4,0,0.4,0,0.1,0c-0.1,0-0.1,0-0.2,0c-0.2,0-0.4,0-0.6,0
								c-0.3,0-0.6,0-0.8,0.1C460.4,1277.1,460.2,1277.2,460,1277.2z"/>
							<path class="st19" d="M717.9,1180L717.9,1180"/>
							
								<linearGradient id="SVGID_00000023258006515630957810000015659673731836395164_" gradientUnits="userSpaceOnUse" x1="-833.5341" y1="-284.1053" x2="-836.9392" y2="-253.459" gradientTransform="matrix(-1 0 0 1 -398.5881 1447.9929)">
								<stop  offset="0" style="stop-color:#F9988F"/>
								<stop  offset="1" style="stop-color:#D87873"/>
							</linearGradient>
							<path style="fill:url(#SVGID_00000023258006515630957810000015659673731836395164_);" d="M320.6,1194.2
								c36.1-22,45.2-10.2,45.2-6.9c0,3.2-14.9,7.6-12.6,13c2.2,5.5,31.8-14.9,32.9-15.2c0.4-0.1,14.3,0.7,33,1.7
								c7,0.4,14.7,0.8,22.5,1.2c32.6,1.7,68.9,3.1,77.2,1.8c2.7-0.5,7.1-1.7,12.4-3.4c2.4-0.8,5-1.7,7.8-2.6
								c4.3-1.5,8.9-3.1,13.6-4.9c1.4-13.4-2.8-44.6-2.8-44.6c-22,10.4-39.1,19-42.5,19.3c-9,0.8-79.2,12.3-121.9,11.6
								C342.6,1164.5,315.5,1191.9,320.6,1194.2z"/>
							
								<linearGradient id="SVGID_00000055677312016204012270000003785756767373499317_" gradientUnits="userSpaceOnUse" x1="-953.7708" y1="-203.5571" x2="-965.1212" y2="-178.5863" gradientTransform="matrix(-1 0 0 1 -398.5881 1447.9929)">
								<stop  offset="0" style="stop-color:#F9988F"/>
								<stop  offset="1" style="stop-color:#D87873"/>
							</linearGradient>
							<path style="fill:url(#SVGID_00000055677312016204012270000003785756767373499317_);" d="M433.8,1276.2
								c0.3,2,19.2,1.3,26.1,0.9c-5.6,0.8-17.7,4-17,5.9c0.8,2.2,9,0,12.3,0s51.8-14.6,51.8-14.6s10.7-1.8,25.8-4.4
								c2.6-0.5,5.5-0.9,8.4-1.4c2.4-0.5,4.9-0.8,7.4-1.3c2.4-0.4,4.8-0.8,7.3-1.2c31.2-5.5,66.9-11.8,71.6-13.2
								c2.9-0.8,14.1-8.6,27.8-18.5c0.8-0.6,1.7-1.2,2.5-1.9c5-3.7,10.2-7.5,15.4-11.5c0,0-1.2-5.2-3.2-12.1
								c-3.8-13-10.4-32-16.9-33.5c-20.3,21.6-40.7,43.5-46.7,45.6c-5.4,2.2-37.5,13.2-65.3,22.6c-22.7,7.7-42.5,14.3-42.5,14.3
								s-13.7-3.6-26.1-6.9c-12.3-3.3-14.5,2.9-9.8,4.3s17,4,14.5,11.2s-20.2,3.3-24.6,1.4c-4.3-1.8-13.7-7.6-16.3-5.5s8,8.3,9,9
								c1.1,0.8-1.1,2.5,20.2,6.5C428.7,1267.2,433.5,1273.7,433.8,1276.2z M460,1277.2c0.8-0.1,1.6-0.2,2.1-0.2
								C462.8,1277,462,1277.1,460,1277.2z"/>
							
								<linearGradient id="SVGID_00000070109034552046171830000016857206390921403541_" gradientUnits="userSpaceOnUse" x1="-1128.3196" y1="-279.5287" x2="-1051.5881" y2="-279.5287" gradientTransform="matrix(-1 0 0 1 -398.5881 1447.9929)">
								<stop  offset="0" style="stop-color:#BF1A00"/>
								<stop  offset="1" style="stop-color:#99180B"/>
							</linearGradient>
							<path style="fill:url(#SVGID_00000070109034552046171830000016857206390921403541_);" d="M653,1169.4
								c6.6,1.5,13.2,20.5,16.9,33.5c2,6.9,3.2,12.1,3.2,12.1c5-3.8,10.1-7.6,15-11.4c16.6-12.8,31.1-24.4,34.8-28.1
								c8.6-6.7,8-27.4,4.1-40.7l0,0c-4.1-9.2-13.4-18.4-29.6-8.8C689.6,1130.6,671.3,1150,653,1169.4z"/>
							
								<linearGradient id="SVGID_00000047050157028939777030000008274538936988307083_" gradientUnits="userSpaceOnUse" x1="-1058.1727" y1="-372.9072" x2="-1064.983" y2="-313.8845" gradientTransform="matrix(-1 0 0 1 -398.5881 1447.9929)">
								<stop  offset="0" style="stop-color:#D87873"/>
								<stop  offset="1" style="stop-color:#F9988F"/>
							</linearGradient>
							<path style="fill:url(#SVGID_00000047050157028939777030000008274538936988307083_);" d="M640.6,1081.9v0.6
								c0,4.7,0.1,9.5,0.1,14.3c0,0.6,0,1.2,0,1.9c0,0.8,0,1.6,0,2.4c0.1,5.3,0.5,10.5,1.9,15.7c0.2,0.8,0.4,1.4,0.7,2.1
								c2,5.6,5.5,10.9,10.6,13.8c2.2,1.2,4.6,2,7.2,2.2c7.3,0.7,15.2-2.8,18.7-9.2c3-5.4,1.5-9.1,1.6-15.3c0-2.1-1.3-7.2-1.1-10.1
								c0.3-4.9,0.8-10.7,1-16.5c0.2-4.4,0.2-8.8,0-12.8c0-0.5-0.1-0.9-0.1-1.4s-0.1-0.9-0.1-1.4s-0.1-0.9-0.2-1.3
								c0-0.3-0.1-0.7-0.1-0.9c0-0.1,0-0.2,0-0.3l0,0c0-0.2,0-0.3-0.1-0.5c-0.4-2.1-0.8-4-1.4-5.6c-0.8-1.9-1.8-3.4-3.1-4.2
								c-3.9-2.4-8.8-2.3-13.4-1.6c-1.7,0.3-3.3,0.6-5,1.1c-6.4,2-12.1,5.9-15,11.9c-1.6,3.5-2.1,7.3-2.2,11.3
								C640.5,1079.3,640.5,1080.6,640.6,1081.9z"/>
							
								<linearGradient id="SVGID_00000077285364089050944820000000018374367172118423_" gradientUnits="userSpaceOnUse" x1="-1016.769" y1="-437.1691" x2="-1019.0949" y2="-348.7867" gradientTransform="matrix(-1 0 0 1 -398.5881 1447.9929)">
								<stop  offset="0" style="stop-color:#E5B313"/>
								<stop  offset="1" style="stop-color:#AF8612"/>
							</linearGradient>
							<path style="fill:url(#SVGID_00000077285364089050944820000000018374367172118423_);" d="M603.5,1045.4
								c4,21.4,4.2,43.4,0.8,64.8c0.9-0.4,1.9-0.8,2.7-1c0.8-0.4,1.8-0.7,2.6-1c0.6-0.2,1.1-0.5,1.7-0.7c0.5-0.2,0.9-0.4,1.4-0.6
								c4.4-1.6,8.8-3.1,12.9-4.4c0.6-0.2,1.1-0.4,1.6-0.5c2.7-0.8,5.4-1.6,7.9-2.3c0.4-0.1,0.8-0.2,1.1-0.3c0.4-0.1,0.7-0.2,1-0.3
								c0.3-0.1,0.6-0.2,0.8-0.2c0.4-0.1,0.8-0.2,1.1-0.3c0.3-0.1,0.7-0.2,0.9-0.2c0.1,0,0.2,0,0.3-0.1c0-0.6,0-1.2,0-1.9
								c0-4.8-0.1-9.5-0.1-14.3v-0.6c-1.8-0.5-3.5-1.2-5.2-2.2c-11.6-6.5-15.5-21-17.8-34.1c-2.8-16.3-4.5-33.5,1.3-48.9
								c1.1-3,2.6-6,4.5-8.8c-1-4-1.1-8.2-0.3-12.1l-0.1-0.1c-13.6,1.6-22.8,15.5-24.4,29.1C597.1,1018.5,601,1032,603.5,1045.4z"/>
							<path class="st31" d="M640.6,1075.7v0.6c0,4.7,0.1,9.5,0.1,14.3c0,0.6,0,1.2,0,1.9c0,0.8,0,1.6,0,2.4
								c13.8,1,27.8-5.4,38-14.9c0.8-0.8,1.7-1.6,2.5-2.4c0.2-4.4,0.2-8.8,0-12.8c0-0.5-0.1-0.9-0.1-1.4s-0.1-0.9-0.1-1.4
								s-0.1-0.9-0.2-1.3c0-0.3-0.1-0.7-0.1-0.9c0-0.1,0-0.2,0-0.3l0,0c0-0.2,0-0.3-0.1-0.5c-0.4-2.1-0.8-4-1.4-5.6
								c-5.6-0.4-11.8,2.5-16.3,5.3c-7.4,4.4-14.9,8.8-22.3,13.2C640.5,1073.1,640.5,1074.4,640.6,1075.7z"/>
							
								<linearGradient id="SVGID_00000074426318791141329440000015776625315238931584_" gradientUnits="userSpaceOnUse" x1="-1024.8387" y1="-445.9944" x2="-1080.3862" y2="-390.4469" gradientTransform="matrix(-1 0 0 1 -398.5881 1447.9929)">
								<stop  offset="0" style="stop-color:#F9988F"/>
								<stop  offset="1" style="stop-color:#D87873"/>
							</linearGradient>
							<path style="fill:url(#SVGID_00000074426318791141329440000015776625315238931584_);" d="M617.6,1045.8
								c2.3,13.1,6.2,27.6,17.8,34.1c1.7,0.9,3.4,1.6,5.2,2.2c4.9,1.4,10.1,1.2,15.2,0c4.3-1,8.6-2.9,12.2-5.4
								c4-2.6,8.7-6.4,12.7-10.7l0,0c4.1-4.5,7.6-9.6,8.8-14.5c2.5-11.2,1.7-26.8,0.2-38.2c-1.6-12.2-6.1-24.5-15.1-33
								c-4.9-4.7-11.2-8.3-18-9.2c-10-1.5-19.8,2.8-27.1,9.9c-2.3,2.2-4.3,4.7-6.1,7.3c-1.9,2.7-3.4,5.6-4.5,8.8
								C613.1,1012.3,614.8,1029.4,617.6,1045.8z"/>
							
								<linearGradient id="SVGID_00000068662898852065660380000017387711420658094760_" gradientUnits="userSpaceOnUse" x1="-1075.3707" y1="-469.4411" x2="-1175.3315" y2="-253.8629" gradientTransform="matrix(-1 0 0 1 -398.5881 1447.9929)">
								<stop  offset="0" style="stop-color:#E5B313"/>
								<stop  offset="1" style="stop-color:#AF8612"/>
							</linearGradient>
							<path style="fill:url(#SVGID_00000068662898852065660380000017387711420658094760_);" d="M623.4,988.1
								c1.7,6.6,6,12.3,12.4,14.7c8,3,17.1,0.5,25.5,2.2c11.6,2.4,20.6,13.6,20.6,25.4c0,0.4,0.6,0.6,0.8,0.1
								c0.7-1.9,2.9-3.2,5.1-4.1c0,0,0,0,0.1,0c1.7-0.7,3.4,0.8,2.9,2.5l-10,35.7c-0.1,0.3-0.1,0.6-0.1,0.8l0,0c0,0.1,0,0.2,0,0.3
								c0.1,0.3,0.1,0.7,0.1,0.9c0.1,0.5,0.1,0.8,0.2,1.3c0.1,0.5,0.1,0.9,0.1,1.4s0.1,0.9,0.1,1.4c0.6,9.3-0.4,20.7-0.9,29.3
								c14.7,3.4,33.8,10.6,42.7,25.4c0.5,0.7,0.9,1.4,1.4,2.3c0.2,0.4,0.4,0.8,0.6,1.1c0.3,0.6,0.5,1.1,0.8,1.7
								c0.1,0.3,0.2,0.5,0.3,0.8c0.2,0.6,0.4,1,0.6,1.6c0.1,0.3,0.2,0.6,0.3,0.8c0.1,0.3,0.2,0.6,0.3,0.9c0.2,0.6,0.3,1.2,0.5,1.8
								c0.1,0.3,0.2,0.7,0.2,0.9c0.1,0.3,0.2,0.7,0.2,0.9c0.1,0.3,0.2,0.7,0.2,0.9c0.2,1,0.4,2,0.6,3c0,0.1,0,0.2,0.1,0.4
								c0.2,0.9,0.3,1.9,0.4,2.8c0,0.4,0.1,0.8,0.1,1c0.1,0.8,0.2,1.4,0.2,2.2c0,0.1,0,0.2,0,0.3c0.3,4,0.3,8-0.2,11.7
								c-0.1,0.6-0.2,1-0.2,1.6c-0.1,0.6-0.2,1-0.3,1.5c0,0.3-0.1,0.5-0.2,0.8c-0.2,0.8-0.4,1.5-0.6,2.2c-1.1,3.8-2.8,6.8-5.3,8.7
								c-0.1,0.1-0.2,0.2-0.3,0.3c-0.1,0.1-0.2,0.2-0.3,0.3c-0.2,0.2-0.3,0.3-0.5,0.5l-0.1,0.1c-0.1,0.1-0.2,0.2-0.2,0.2
								c-0.3,0.3-0.7,0.6-1,0.9c-0.1,0.1-0.1,0.1-0.2,0.2c-0.6,0.5-1.2,1-1.9,1.6c-0.1,0.1-0.2,0.2-0.4,0.3l-0.1,0.1
								c0,0,0,0.1,0,0.2s0,0.1,0,0.2s0,0.2,0,0.3s0,0.2,0,0.4c0,0.6-0.1,1.4-0.2,2.4c0,0.2,0,0.4,0,0.6s0,0.4,0,0.5s0,0.2,0,0.3
								c0,0.5-0.1,0.9-0.1,1.5c0,0.3,0,0.6-0.1,0.8c0,0.5-0.1,0.9-0.1,1.4c0,0.3,0,0.6-0.1,0.9c0,0.5-0.1,0.9-0.1,1.4
								c0,0.4,0,0.7-0.1,1c0,0.3,0,0.6-0.1,0.8c0,0.6-0.1,1.2-0.1,1.8c0,0.7-0.1,1.4-0.1,2.2c0,0.6-0.1,1.1-0.1,1.7
								c0,0.7-0.1,1.3-0.1,2.1c0,0.4,0,0.8-0.1,1c0,0.6-0.1,1.1-0.1,1.7c0,0.4-0.1,0.8-0.1,1.2c0,0.1,0,0.3,0,0.4
								c0,0.4,0,0.8-0.1,1.1c0,0.2,0,0.3,0,0.5c0,0.5-0.1,0.9-0.1,1.4c0,0.1,0,0.3,0,0.4c0,0.8-0.1,1.5-0.1,2.3c0,0.1,0,0.3,0,0.4
								c0,0.5-0.1,0.9-0.1,1.4s-0.1,0.8-0.1,1.3c0,0.4,0,0.8-0.1,1.1c24.2,8.2,47.8-2.6,51.9-4.5c4.2-2,22-10.5,32.5-29.6
								c3.7-6.8,5.9-10.8,5.5-16.4c-1.5-16.8-22.2-21.8-29.3-35.9c-6-12-0.5-26.3,4.2-38.9s8.1-28.2-0.8-38.2
								c-10.4-11.6-30.6-8-42-18.4c-8.5-7.7-9.4-20.3-10.2-31.7c-0.7-11.4-2.4-24.2-11.4-31.1c-4-3.1-9-4.5-13.9-5.9
								c-7-2-13.9-4-21-6.1c-8-2.4-16.1-4.6-24.4-4.7c-12.8-0.2-26.2,5.9-31.9,17.4c-0.8,1.7-1.4,3.4-1.9,5.3
								C622.2,979.9,622.3,984.1,623.4,988.1z"/>
							<path class="st14" d="M548.5,1261.4c2.4-0.4,4.8-0.8,7.3-1.2c31.2-5.5,66.9-11.8,71.6-13.2c2.9-0.8,14.1-8.6,27.8-18.5
								c-1.1-1.4-2.4-2.5-4.1-3.2c-8.2-3.1-24.3,6.3-32.3,8.9c-12.3,4.2-24.7,8.5-37.1,12.7C570.4,1250.8,558.6,1255,548.5,1261.4z"
								/>
							<path class="st14" d="M419.1,1186.8c7,0.4,14.7,0.8,22.5,1.2c32.6,1.7,68.9,3.1,77.2,1.8c2.7-0.5,7.1-1.7,12.4-3.4
								c-0.9-1.1-2.8-1.9-5.9-1.9c-31.1-0.6-62.2-1.1-93.3-1.6c-3.7-0.1-7.5-0.1-10.6,1.8C420.6,1185.2,419.7,1186,419.1,1186.8z"/>
						</g>
					</g>
				</g>
			</g>
		</g>
	</g>
</g>
<rect x="-1290.3" y="396.7" class="st34" width="368.3" height="272.4"/>
<rect x="-1290.3" y="863.1" class="st35" width="368.3" height="272.4"/>
<g>
	<g>
		
			<linearGradient id="SVGID_00000036225421032591953550000005455199526862757525_" gradientUnits="userSpaceOnUse" x1="-2344.7144" y1="-551.6222" x2="928.0841" y2="887.174" gradientTransform="matrix(-1 0 0 -1 120.0615 961.6063)">
			<stop  offset="0" style="stop-color:#3478C5"/>
			<stop  offset="1" style="stop-color:#032F61"/>
		</linearGradient>
		<path style="fill:url(#SVGID_00000036225421032591953550000005455199526862757525_);" d="M82.9,1509.4
			c-224.8-109.3-202.6-259.9-205.5-482.5C-124,803.1-340,150.6-113.7,61.5C111.1-26.1,856,39.2,1009.5,66.2s629.5,42.9,834.3,130.5
			c203.6,89.1,447.8,682.2,476.3,951.9c30,269.7-65.5,404-269,513.2c-205,109.3-518.1,31-791.3-6.8S309.2,1618.7,82.9,1509.4z"/>
	</g>
</g>
<g>
	<g>
		<defs>
			<path id="SVGID_00000078025286171347966800000011326744039348641711_" d="M82.9,1509.4c-224.8-109.3-202.6-422.5-205.5-645
				c-1.4-223.8,1.5-407.6,227.9-496.7c224.8-87.6,969.7-22.3,1123.2,4.7s502.4-74.2,707.3,13.4c203.6,89.1,355.9,330.5,384.4,600.3
				c30,269.7-65.5,566.5-269,675.7c-205,109.3-518.1,31-791.3-6.8S309.2,1618.7,82.9,1509.4z"/>
		</defs>
		<clipPath id="SVGID_00000162328134512211116290000012562496747247898795_">
			<use xlink:href="#SVGID_00000078025286171347966800000011326744039348641711_"  style="overflow:visible;"/>
		</clipPath>
		<g style="clip-path:url(#SVGID_00000162328134512211116290000012562496747247898795_);">
			<g>
				<defs>
					<path id="SVGID_00000056407636663295076510000002847365868205704870_" d="M113.5,1755.8c-224.8-109.3-202.6-422.5-205.5-645
						c-1.4-223.8,1.5-407.6,227.9-496.7c224.8-87.6,969.7-22.3,1123.2,4.7s502.4-74.2,707.3,13.4
						c203.6,89.1,355.9,330.5,384.4,600.3c30,269.7-65.5,566.5-269,675.7c-205,109.3-518.1,31-791.3-6.8S339.8,1865.1,113.5,1755.8z
						"/>
				</defs>
				<clipPath id="SVGID_00000019648902845620550950000000224914834931353530_">
					<use xlink:href="#SVGID_00000056407636663295076510000002847365868205704870_"  style="overflow:visible;"/>
				</clipPath>
				<g style="clip-path:url(#SVGID_00000019648902845620550950000000224914834931353530_);">
					
						<linearGradient id="SVGID_00000159466912075131451450000001656210919435685506_" gradientUnits="userSpaceOnUse" x1="297.2264" y1="343.4906" x2="295.273" y2="332.0492" gradientTransform="matrix(1 0 0 -1 0 1626)">
						<stop  offset="0" style="stop-color:#D87873"/>
						<stop  offset="1" style="stop-color:#F9988F"/>
					</linearGradient>
					<polygon style="fill:url(#SVGID_00000159466912075131451450000001656210919435685506_);" points="286.5,1288 305.6,1278 
						305.6,1290.8 					"/>
					
						<linearGradient id="SVGID_00000116952962690785665930000015123887835244328631_" gradientUnits="userSpaceOnUse" x1="388.6248" y1="-220.4159" x2="387.1938" y2="-352.0643" gradientTransform="matrix(1 0 0 -1 0 1626)">
						<stop  offset="0" style="stop-color:#1870B2;stop-opacity:0.3"/>
						<stop  offset="1" style="stop-color:#18689E"/>
					</linearGradient>
					
						<ellipse style="fill:url(#SVGID_00000116952962690785665930000015123887835244328631_);" cx="387.9" cy="1913.1" rx="476.5" ry="61.5"/>
					<path class="st41" d="M297.7,1355.6c-14.9,25.4-32.4,63-39.7,111c-3.9,25.6-4.7,46-3.4,61.5c4.2,51.6,25.6,78.8,16.4,119.9
						c-23.5,104.7-313.7,132.4-327.6,244c-2.2,18,2,47.9,45.3,89.8"/>
					<g>
						
							<linearGradient id="SVGID_00000061455940451138037550000015846690485053592206_" gradientUnits="userSpaceOnUse" x1="310.2547" y1="89.1309" x2="301.624" y2="-292.7766" gradientTransform="matrix(1 0 0 -1 0 1626)">
							<stop  offset="0" style="stop-color:#052A4C"/>
							<stop  offset="1" style="stop-color:#061C2D"/>
						</linearGradient>
						
							<rect x="295.6" y="1479" style="fill:url(#SVGID_00000061455940451138037550000015846690485053592206_);" width="21.9" height="443.6"/>
						
							<linearGradient id="SVGID_00000072243724284645982390000005367422501877581740_" gradientUnits="userSpaceOnUse" x1="804.0947" y1="73.2047" x2="795.4641" y2="-308.7028" gradientTransform="matrix(1 0 0 -1 0 1626)">
							<stop  offset="0" style="stop-color:#052A4C"/>
							<stop  offset="1" style="stop-color:#061C2D"/>
						</linearGradient>
						
							<rect x="789.8" y="1479" style="fill:url(#SVGID_00000072243724284645982390000005367422501877581740_);" width="21.9" height="443.6"/>
						
							<linearGradient id="SVGID_00000002379554494873230350000009235000930071481242_" gradientUnits="userSpaceOnUse" x1="558.85" y1="189.9607" x2="558.85" y2="134.004" gradientTransform="matrix(1 0 0 -1 0 1626)">
							<stop  offset="0" style="stop-color:#E5B313"/>
							<stop  offset="1" style="stop-color:#AF8612"/>
						</linearGradient>
						<path style="fill:url(#SVGID_00000002379554494873230350000009235000930071481242_);" d="M820.8,1491.2H296.9
							c-5.1,0-9.2-4.1-9.2-9.2v-35.5c0-5.1,4.1-9.2,9.2-9.2h523.9c5.1,0,9.2,4.1,9.2,9.2v35.5C830,1487.1,825.9,1491.2,820.8,1491.2
							z"/>
					</g>
					
						<linearGradient id="SVGID_00000062175813920737614220000016286421821148804499_" gradientUnits="userSpaceOnUse" x1="260.4" y1="382.9976" x2="378.5" y2="382.9976" gradientTransform="matrix(1 0 0 -1 0 1626)">
						<stop  offset="0" style="stop-color:#052A4C"/>
						<stop  offset="1" style="stop-color:#061C2D"/>
					</linearGradient>
					<path style="fill:url(#SVGID_00000062175813920737614220000016286421821148804499_);" d="M378.5,1237.4v18.6
						c-21.4,0-44.1,8.6-71.9,8.6c-42.9,0.5-46.2-13.2-46.2-13.2v-14.1v11.4v-14.1c0,0,3.3-13.6,46.2-13.2c27.9,0,50.6,8.6,71.9,8.6
						v18.6"/>
					
						<linearGradient id="SVGID_00000108307501689176391710000014347009648584579222_" gradientUnits="userSpaceOnUse" x1="283.2" y1="316.6154" x2="318.0433" y2="316.6154" gradientTransform="matrix(1 0 0 -1 0 1626)">
						<stop  offset="0" style="stop-color:#052A4C"/>
						<stop  offset="1" style="stop-color:#061C2D"/>
					</linearGradient>
					<path style="fill:url(#SVGID_00000108307501689176391710000014347009648584579222_);" d="M310.5,1324.7
						c3.8-18.4,6.8-60.5,6.8-60.5c6.7-12-34.1-6.9-34.1-6.9v5.8c0,0,16.2,2.2,15.8,17.4l0.2,1.6c1.8,6.9-5.4,49.3-5.4,49.3
						s1.1,16.2-0.9,28.7c-0.4,2.2,2.5,3.4,3.8,1.5C303,1352.3,310.9,1337.9,310.5,1324.7z"/>
					
						<linearGradient id="SVGID_00000173861724907385097510000013330575294310812295_" gradientUnits="userSpaceOnUse" x1="175.0574" y1="546.8358" x2="134.6709" y2="430.5226" gradientTransform="matrix(1 0 0 -1 0 1626)">
						<stop  offset="0" style="stop-color:#E5B313"/>
						<stop  offset="1" style="stop-color:#AF8612"/>
					</linearGradient>
					<path style="fill:url(#SVGID_00000173861724907385097510000013330575294310812295_);" d="M195.9,1086.5
						c1.3,24.3-16.8,28.3-16.4,54.4c0.3,19.3,10.2,23.3,6.6,39.3c-2.4,10.9-10.9,25.6-26,29.5c-13.7,3.5-28.6-3.9-37-15.3
						s-11.3-26-11.7-40.1c-0.6-25.1,6.1-50.3,19.2-71.7c3.2-5.2,9.6-9.2,12.7-18.4c3.8-11.3,0.2-18.5,4.8-22.3
						c5.6-4.6,17.3,0.2,23.3,3.7C184.3,1053,195,1068.8,195.9,1086.5z"/>
					
						<linearGradient id="SVGID_00000022549321752227225130000005469531069859923134_" gradientUnits="userSpaceOnUse" x1="219.9757" y1="243.7702" x2="172.2383" y2="237.3192" gradientTransform="matrix(1 0 0 -1 0 1626)">
						<stop  offset="0" style="stop-color:#F9988F"/>
						<stop  offset="1" style="stop-color:#D87873"/>
					</linearGradient>
					<path style="fill:url(#SVGID_00000022549321752227225130000005469531069859923134_);" d="M210.7,1583.1
						c-2.1,5.3-6.7,1.8-9.9,1.4c-3.2-0.3-2.5-4.2,1.8-13.7c4.2-9.5,0.3-40.1-4.6-40.1c-4.9,0-4.2,26.7-11.2,20.7s7.5-46.4,7.5-46.4
						s-6.8-50.7-12.3-90.4c-3.4-24.4-6.3-44.7-6.8-46.5c-0.3-1.1-1.5-7.9-3.1-18.2c-1.5-9.1-3.4-20.9-5.5-33.8
						c-5.8-36.4-13.1-81.1-16.2-96.1c-5.5-26.3,35.3-35.2,35.3-35.2c14.2,6.2,20.2,6.3,23.8,19.4c6.4,23.6,4.8,105,4.8,110.8
						c0.1,3.8,0.2,14.7,0.2,29.5c0,53.6-0.9,157.9-0.9,157.9s3.9,39,4.2,52C218,1567.6,212.8,1577.8,210.7,1583.1z"/>
					
						<linearGradient id="SVGID_00000019678993077012712550000017376784627602493114_" gradientUnits="userSpaceOnUse" x1="23.8567" y1="-40.2268" x2="234.1908" y2="-40.2268" gradientTransform="matrix(1 0 0 -1 0 1626)">
						<stop  offset="0" style="stop-color:#052A4C"/>
						<stop  offset="1" style="stop-color:#061C2D"/>
					</linearGradient>
					<path style="fill:url(#SVGID_00000019678993077012712550000017376784627602493114_);" d="M219.5,1915.8
						c-18.9-5.1-55-25.5-55-25.5s65.4-206.9,64.2-218.3c-1.1-11.3-24.7-218.7-46.3-253.2c-14.7-23.5-140.8-22.8-140.8-22.8
						S22,1408.6,24,1449.5c2.1,40.9,9.6,212.5,9.6,219.3s1.9,215.2,0,222c0,0,1.8,7.1,27.3-1.9c0,0,37-206.5,38-219.1
						c1-12.7,10.7-141.2,10.7-141.2l55.5,146.1L136,1886c0,0-3.3,7.8-6.6,17c-1.8,4.9-3.5,10.2-4.8,14.9c0.2,0.1,0.4,0.1,0.6,0.2
						c7.8,1.9,7.8,14.6,7.8,15.6c0,0.1-0.5,0.2-1.5,0.2c4,0.4,9.3,0.8,15.3,1.1c31,1.6,82.6,2,84.9,0.6
						C234.8,1933.8,238.4,1920.9,219.5,1915.8z"/>
					
						<linearGradient id="SVGID_00000145035092330323095420000007127592526052697016_" gradientUnits="userSpaceOnUse" x1="108.4065" y1="-260.4424" x2="52.0629" y2="-318.6036" gradientTransform="matrix(1 0 0 -1 0 1626)">
						<stop  offset="0" style="stop-color:#7F1712"/>
						<stop  offset="1" style="stop-color:#5B0909"/>
					</linearGradient>
					<path style="fill:url(#SVGID_00000145035092330323095420000007127592526052697016_);" d="M133,1933.8c0,0.1-0.5,0.2-1.5,0.2
						c-6.2,0.6-30.1,1.4-54,1.6l0,0c-23.9,0.2-47.7-0.1-53.5-1.9c-12.7-3.9,7.8-36,9.7-42.9c0,0,1.8,7.1,27.3-1.9
						c0,0,26.8,13,46.1,21.6c8,3.6,14.7,6.5,17.6,7.4c0.2,0.1,0.4,0.1,0.6,0.2C133,1920.1,133,1932.8,133,1933.8z"/>
					
						<linearGradient id="SVGID_00000166649818957438384060000011620515152503783830_" gradientUnits="userSpaceOnUse" x1="202.4939" y1="-257.8407" x2="151.6029" y2="-332.3596" gradientTransform="matrix(1 0 0 -1 0 1626)">
						<stop  offset="0" style="stop-color:#7F1712"/>
						<stop  offset="1" style="stop-color:#5B0909"/>
					</linearGradient>
					<path style="fill:url(#SVGID_00000166649818957438384060000011620515152503783830_);" d="M231.7,1935.7
						c-2.3,1.4-53.8,1-84.9-0.6c-6.1-0.3-11.3-0.7-15.3-1.1c1-0.1,1.5-0.2,1.5-0.2c0-1,0-13.6-7.8-15.6c-0.2,0-0.4-0.1-0.6-0.2
						c1.3-4.7,3-10,4.8-14.9c3.3-9.2,6.6-17,6.6-17s5.6,10.7,28.6,4.2c0,0,36.1,20.4,55,25.5
						C238.4,1920.9,234.8,1933.8,231.7,1935.7z"/>
					
						<linearGradient id="SVGID_00000097493197276662583970000014454782653075204750_" gradientUnits="userSpaceOnUse" x1="178.4427" y1="417.3374" x2="64.4565" y2="276.4555" gradientTransform="matrix(1 0 0 -1 0 1626)">
						<stop  offset="0" style="stop-color:#26DBB8"/>
						<stop  offset="1" style="stop-color:#4FB2A1"/>
					</linearGradient>
					<path style="fill:url(#SVGID_00000097493197276662583970000014454782653075204750_);" d="M185.6,1184.8
						C185.6,1184.8,185.7,1178.5,185.6,1184.8c-0.1,5-12.8,21.3-12.2,41.1c0.7,26.4,11.4,30.8,11.2,38.7
						c-1,58.5-1.8,125.5-2.1,154.2c0,0-22.7,2.8-71.1,0S41.6,1396,41.6,1396c6.7-18.2-2.3-127.5-2.3-128.8
						c-13.6-39.4-25.5-55.9-21.8-71.7c1.9-7.9,8.7-13.9,18.1-18.6l0,0c29.6-14.6,84-15.1,84-15.1s0.8,0.2,2.1,0.6
						c0.2,0,0.4,0.1,0.6,0.2c0.5,0.1,1.1,0.3,1.7,0.5c0.2,0.1,0.4,0.1,0.6,0.2c0.3,0.1,0.5,0.1,0.8,0.2c0.2,0.1,0.5,0.1,0.8,0.2
						c0.4,0.1,0.9,0.3,1.4,0.4c0.2,0.1,0.4,0.1,0.6,0.2s0.4,0.1,0.6,0.2c0.4,0.1,0.9,0.3,1.4,0.4c0.1,0,0.2,0,0.3,0.1
						c1.3,0.4,2.6,0.8,4,1.2c0.4,0.1,0.7,0.2,1.1,0.3c0.7,0.2,1.5,0.5,2.2,0.7h0.1c1.7,0.5,3.5,1.1,5.3,1.6c0.3,0.1,0.6,0.2,0.9,0.3
						c0.9,0.3,1.9,0.6,2.8,0.9c0.9,0.3,1.9,0.6,2.9,0.9c0.3,0.1,0.7,0.2,1,0.3c1.3,0.4,2.6,0.9,4,1.4s2.7,0.9,4.1,1.4
						c1.4,0.5,2.7,1,4.1,1.5c5.5,2,11.1,4.2,16.4,6.5c0.6,0.3,1.1,0.5,1.7,0.8c0.4,0.2,0.7,0.3,1,0.5c0.3,0.1,0.6,0.3,0.9,0.4
						C184,1184.1,184.8,1184.5,185.6,1184.8z"/>
					
						<linearGradient id="SVGID_00000051384917912797707830000002544909348116108176_" gradientUnits="userSpaceOnUse" x1="118.4683" y1="490.433" x2="101.0267" y2="414.5107" gradientTransform="matrix(1 0 0 -1 0 1626)">
						<stop  offset="0" style="stop-color:#D87873"/>
						<stop  offset="1" style="stop-color:#F9988F"/>
					</linearGradient>
					<path style="fill:url(#SVGID_00000051384917912797707830000002544909348116108176_);" d="M140.9,1146
						c-0.4,4.2-1.1,8.4-1.7,12.6c-0.1,0.5-0.1,1-0.2,1.4c-1,6.6-2,13.1-3,19.7s-2.1,13.3-5.1,19.3c-3,5.9-8.5,11.1-15.1,12
						c-9.1,1.3-17.7-6-21.1-14.6c-3.4-8.6-2.9-18.1-2.3-27.3c0.4-6.4-0.2-16.5-0.1-27c0-7.9,0.4-16,1.8-22.9
						c1.2-5.8,3.2-10.7,6.3-13.8c16.9-17.1,38.2,6.9,40.5,23.5C141.7,1134.4,141.5,1140.2,140.9,1146z"/>
					
						<linearGradient id="SVGID_00000042707785314052635580000005103515139440865434_" gradientUnits="userSpaceOnUse" x1="150.3825" y1="326.4838" x2="128.6098" y2="272.6925" gradientTransform="matrix(1 0 0 -1 0 1626)">
						<stop  offset="0" style="stop-color:#F9988F"/>
						<stop  offset="1" style="stop-color:#D87873"/>
					</linearGradient>
					<path style="fill:url(#SVGID_00000042707785314052635580000005103515139440865434_);" d="M318.1,1309.8c0,3.5-2.8,7.2-11.6,7.8
						c1.8-0.1,10.1-0.5,10.2,2.6c0.1,2.8-1.3,3.1-3.7,3.6c-3.6,0.8-7.2,1.9-10.7,3.3c-10.8,4.4-36.1,11.1-36.1,11.1
						s-44.7,5.5-88,10.9c-37.9,4.7-74.8,9.4-79.7,10.3c-5.5,1-29-34-49.4-72.7l0,0c-2.3-4.4-4.6-8.8-6.8-13.2
						c-15.9-32.1-28.1-64-24.8-77.9c1.9-7.9,8.7-13.9,18.1-18.6l0,0c1.1-0.3,22.3-6.5,33.2,14.1c6.2,11.6,51,125.6,51,125.6
						s81.8-0.7,94.2-1.5l32.9-2.2l15.3-3.6c5.3-1.3,9.8-4.8,12.2-9.7v-0.1c2.9-5.9,8.1-10.4,14.3-12.3c8.5-2.7,19.6-2,22.7-1.5
						c5.1,0.7,7.2,2.5,6.5,5.4s-11,2.7-15.7,4.5c0,0,15.6-2.1,16.3,3.4c0.6,5-4.6,6.8-10.4,7.2c-0.9,0-1.4,0-1.4,0
						c0.5,0,0.9,0,1.4,0C311.8,1305.9,318.1,1308,318.1,1309.8z"/>
					<path class="st31" d="M140.9,1146c-0.4,4.2-1.1,8.4-1.7,12.6c-0.1,0.5-0.1,1-0.2,1.4c-1.9,0.1-3.8-0.3-5.7-0.6
						c-14.7-2.9-29.5-8.1-41.1-17.4c0-7.9,0.4-16,1.8-22.9c6.2,4.7,12.5,9.9,19.2,13.7c8.3,4.7,17.7,7.6,26.1,12.3
						C139.9,1145.3,140.4,1145.6,140.9,1146z"/>
					<g>
						<g>
							<line class="st55" x1="387.9" y1="1230.2" x2="388.4" y2="1230.2"/>
							<line class="st56" x1="392.5" y1="1229.9" x2="452" y2="1226.3"/>
							<line class="st55" x1="454.1" y1="1226.1" x2="454.6" y2="1226.1"/>
						</g>
					</g>
					<g>
						<g>
							<line class="st55" x1="387.9" y1="1254.2" x2="388.4" y2="1254.3"/>
							<line class="st57" x1="392.5" y1="1254.5" x2="481.9" y2="1260"/>
							<line class="st55" x1="483.9" y1="1260.1" x2="484.4" y2="1260.1"/>
						</g>
					</g>
					<g>
						<g>
							<line class="st55" x1="387.9" y1="1242.3" x2="388.4" y2="1242.3"/>
							<line class="st58" x1="392.5" y1="1242.3" x2="481.9" y2="1242.3"/>
							<line class="st55" x1="483.9" y1="1242.3" x2="484.4" y2="1242.3"/>
						</g>
					</g>
					
						<linearGradient id="SVGID_00000131329323925141555390000008178022513143304590_" gradientUnits="userSpaceOnUse" x1="163.1729" y1="558.0699" x2="89.2027" y2="521.0848" gradientTransform="matrix(1 0 0 -1 0 1626)">
						<stop  offset="0" style="stop-color:#F9A19D"/>
						<stop  offset="1" style="stop-color:#D87873"/>
					</linearGradient>
					<path style="fill:url(#SVGID_00000131329323925141555390000008178022513143304590_);" d="M114,1142.6c14,10.6,36,12.8,48,0
						c8-8.5,9.7-21,10.9-32.7c1.8-16.7,3.6-33.6,0.3-50.1c-3.3-16.4-12.4-32.6-27.4-40.1c-19.7-9.9-45.8-1.5-58.4,16.7
						C65.4,1068.1,85.4,1121,114,1142.6z"/>
					
						<linearGradient id="SVGID_00000054266635940319601480000005559641972956897202_" gradientUnits="userSpaceOnUse" x1="130.8381" y1="598.6331" x2="20.9868" y2="426.8557" gradientTransform="matrix(1 0 0 -1 0 1626)">
						<stop  offset="0" style="stop-color:#E5B313"/>
						<stop  offset="1" style="stop-color:#AF8612"/>
					</linearGradient>
					<path style="fill:url(#SVGID_00000054266635940319601480000005559641972956897202_);" d="M84.6,1091c0.4-0.7,2.2-3.8,5.5-4.4
						c3.8-0.7,8.2,2.1,11.3,7.3c0.7-9,4.5-17.6,10.2-24.6c5.2-6.4,11.2-6.8,22.1-14.8c6.7-4.9,11.5-9.6,14.5-12.7
						c7.7,3.4,15.4,6.8,23.1,10.2c0.4-4.4,1.4-21-9.8-32.2c-7.1-7.1-15.5-8.5-31-11c-15.6-2.5-25.9-2.8-39.4,0.4
						c-12.9,3.1-25.2,11.4-29.5,23.9c-5.3,15.5,2.4,34.7-7.2,48c-6.4,8.9-18.2,11.6-28.5,15.1c-10.4,3.6-21.6,10.5-22.3,21.5
						c-0.8,13.5,15.3,23.7,14.4,37.3c-0.8,11.6-13,18.2-20.6,27c-9.3,10.8-11.6,27.1-5.7,40c6.2,13.6,21.8,20.7,33.9,22
						c32.8,3.5,68-31.9,75.2-67.3c1.8-8.6,5.9-32.1-5.2-54.1C90.2,1112.1,80,1099.3,84.6,1091z"/>
					<path class="st31" d="M178.2,1349.1c-37.9,4.7-74.8,9.4-79.7,10.3c-5.5,1-29-34-49.4-72.7l0,0c-2.3-4.4-4.6-8.8-6.8-13.2
						c6.3,6,12.5,15.4,14.9,19.1c8.5,12.9,15.9,27.2,28.6,36c20.9,14.5,48.9,9.5,74.1,13.3C166.3,1342.9,173.2,1345.3,178.2,1349.1z
						"/>
					<g>
						
							<linearGradient id="SVGID_00000051360331789139830690000013684332848584801687_" gradientUnits="userSpaceOnUse" x1="750.4537" y1="177.84" x2="750.4537" y2="158.3943" gradientTransform="matrix(1 0 0 -1 0 1626)">
							<stop  offset="0" style="stop-color:#1A5284"/>
							<stop  offset="1" style="stop-color:#1C74B5"/>
						</linearGradient>
						<path style="fill:url(#SVGID_00000051360331789139830690000013684332848584801687_);" d="M767.8,1475.7
							c-4.3,0.7-10.6,1.4-18.1,0.3c-7.1-1-12.8-3.2-16.7-5c1.8-10.5,12-17.1,21.4-14.9C762.7,1458,768.8,1466.4,767.8,1475.7z"/>
						
							<linearGradient id="SVGID_00000029733241379102871350000004021105398986417333_" gradientUnits="userSpaceOnUse" x1="708.0975" y1="177.84" x2="708.0975" y2="158.3943" gradientTransform="matrix(1 0 0 -1 0 1626)">
							<stop  offset="0" style="stop-color:#1A5284"/>
							<stop  offset="1" style="stop-color:#1C74B5"/>
						</linearGradient>
						<path style="fill:url(#SVGID_00000029733241379102871350000004021105398986417333_);" d="M724.2,1465.3
							c-4,0.7-9.9,1.3-16.8,0.3c-6.6-0.9-11.9-2.9-15.5-4.6c1.7-9.7,11.1-15.8,19.8-13.8C719.5,1448.9,725.1,1456.7,724.2,1465.3z"
							/>
						
							<linearGradient id="SVGID_00000011748275546605748330000000419716414220812706_" gradientUnits="userSpaceOnUse" x1="547.2537" y1="177.84" x2="547.2537" y2="158.3943" gradientTransform="matrix(1 0 0 -1 0 1626)">
							<stop  offset="0" style="stop-color:#1A5284"/>
							<stop  offset="1" style="stop-color:#1C74B5"/>
						</linearGradient>
						<path style="fill:url(#SVGID_00000011748275546605748330000000419716414220812706_);" d="M564.6,1466
							c-4.3,0.7-10.6,1.4-18.1,0.3c-7.1-1-12.8-3.2-16.7-5c1.8-10.5,12-17.1,21.4-14.9C559.5,1448.3,565.6,1456.7,564.6,1466z"/>
						
							<linearGradient id="SVGID_00000106138775987510908530000007756578200196264104_" gradientUnits="userSpaceOnUse" x1="520.2468" y1="177.84" x2="520.2468" y2="158.3943" gradientTransform="matrix(1 0 0 -1 0 1626)">
							<stop  offset="0" style="stop-color:#1A5284"/>
							<stop  offset="1" style="stop-color:#1C74B5"/>
						</linearGradient>
						<path style="fill:url(#SVGID_00000106138775987510908530000007756578200196264104_);" d="M536.5,1455.6c-4,0.7-10,1.3-17,0.3
							c-6.7-0.9-12-3-15.6-4.7c1.7-9.8,11.2-16,20-14C531.7,1439,537.4,1446.9,536.5,1455.6z"/>
						
							<linearGradient id="SVGID_00000034049656158905504030000013189678354337493434_" gradientUnits="userSpaceOnUse" x1="705.7848" y1="241.7849" x2="685.7498" y2="286.569" gradientTransform="matrix(1 0 0 -1 0 1626)">
							<stop  offset="0" style="stop-color:#1C74B5"/>
							<stop  offset="1" style="stop-color:#1A5284"/>
						</linearGradient>
						<path style="fill:url(#SVGID_00000034049656158905504030000013189678354337493434_);" d="M662.4,1324.1
							c0,7.6,14,32.2,25.7,39.3c9.3,11.3,10.7,15.7,11.2,38.3l17.5-4.3c0,0-4.7-5.7-6.1-13.9c-1.4-8.3-0.2-18,0.6-24.5
							c0.8-6.4-19.2-35.6-19.2-35.6l-29.5-6.8v7.5H662.4z"/>
						
							<linearGradient id="SVGID_00000080175937568897729340000007289212552631838615_" gradientUnits="userSpaceOnUse" x1="551.8066" y1="282.7705" x2="549.4496" y2="244.4684" gradientTransform="matrix(1 0 0 -1 0 1626)">
							<stop  offset="0" style="stop-color:#1A5284"/>
							<stop  offset="1" style="stop-color:#1C74B5"/>
						</linearGradient>
						<path style="fill:url(#SVGID_00000080175937568897729340000007289212552631838615_);" d="M566.3,1335.2
							c-1,0.2-5.4,1.1-9.8-1.6c-3.5-2.1-4.9-5.2-5.4-6.3c-0.2,0.5-1.4,4.7-5.7,6.3c-3.3,1.3-6.3,0.3-7,0c2.5,7.5,4.8,16.3,6.3,26.3
							c2.7,17.4,2.3,32.6,1,44.4c5.1-0.2,10.1-0.4,15.2-0.6c-1.6-8.2-3-19.3-2.2-32.3C559.6,1356.1,563.1,1343.8,566.3,1335.2z"/>
						
							<linearGradient id="SVGID_00000037653929553384079650000011913103401653100178_" gradientUnits="userSpaceOnUse" x1="530.3701" y1="284.0896" x2="528.0131" y2="245.7875" gradientTransform="matrix(1 0 0 -1 0 1626)">
							<stop  offset="0" style="stop-color:#1A5284"/>
							<stop  offset="1" style="stop-color:#1C74B5"/>
						</linearGradient>
						<path style="fill:url(#SVGID_00000037653929553384079650000011913103401653100178_);" d="M543.5,1339
							c-0.9,0.1-5.2,0.3-8.9-2.7c-3-2.4-3.9-5.4-4.2-6.5c-0.2,0.5-1.9,4.1-6.1,5.2c-3.2,0.8-5.8-0.5-6.4-0.9
							c1.4,7.3,2.4,15.7,2.7,25.1c0.4,16.4-1.9,30.5-4.5,41.2c4.7,0.4,9.4,0.8,14.1,1.3c-0.5-7.8-0.4-18.2,1.9-30.2
							C534.8,1357.6,539.5,1346.6,543.5,1339z"/>
						
							<linearGradient id="SVGID_00000040553699766534775550000013330994676644558221_" gradientUnits="userSpaceOnUse" x1="429.3243" y1="429.6422" x2="532.0311" y2="429.6422" gradientTransform="matrix(1 0 0 -1 0 1626)">
							<stop  offset="0" style="stop-color:#1C74B5"/>
							<stop  offset="1" style="stop-color:#1A5284"/>
						</linearGradient>
						<path style="fill:url(#SVGID_00000040553699766534775550000013330994676644558221_);" d="M529.1,1203.8c0,0-15.4,22.2-37,20.3
							c-21.6-1.8-40.7-16-53-17.3c-4.4-0.4-8-2.6-10.2-5.1c-3.9-4.5-3.6-10.3,3.4-10.3c1.8,0,3.6,0,5.3-0.1
							c48.9-1,48.3-16.6,48.3-16.6l27.1-6.2L529.1,1203.8z"/>
						
							<linearGradient id="SVGID_00000100355485778870896930000012495350122518970803_" gradientUnits="userSpaceOnUse" x1="720.8102" y1="197.8522" x2="780.6721" y2="197.8522" gradientTransform="matrix(1 0 0 -1 0 1626)">
							<stop  offset="0" style="stop-color:#B0D4EA"/>
							<stop  offset="1" style="stop-color:#70B5E8"/>
						</linearGradient>
						<path style="fill:url(#SVGID_00000100355485778870896930000012495350122518970803_);" d="M758.7,1463.8
							c6.3,1.4,15.7-0.8,19.9-8.5c3.9-7.2,2-16.9-5-22.7c0.1-4.5-0.3-13.6-5.7-22.7c-2.9-5-10.4-17.8-23.4-17.8
							c-10.6,0-21.5,8.6-23.4,20.6c-1.5,9.5,2.9,19.3,11.4,24.9c2.5,3.6,6.3,8.6,11.4,14.2C750.6,1459.1,754,1462.8,758.7,1463.8z"
							/>
						
							<linearGradient id="SVGID_00000090255619120290697460000005219885671947368070_" gradientUnits="userSpaceOnUse" x1="529.7972" y1="203.2755" x2="577.0784" y2="203.2755" gradientTransform="matrix(1 0 0 -1 0 1626)">
							<stop  offset="0" style="stop-color:#B0D4EA"/>
							<stop  offset="1" style="stop-color:#70B5E8"/>
						</linearGradient>
						<path style="fill:url(#SVGID_00000090255619120290697460000005219885671947368070_);" d="M554.8,1389.2
							c-0.7-0.8-6.4-6.9-12.1-5.7c-6.3,1.3-11.9,11.5-8.5,24.2c-1,1.6-7.3,12.9-2.8,26.3c4.1,12.4,14.4,17.6,16.3,18.5
							c7.3,8.3,17.1,11.5,22.7,8.5c6.9-3.7,10.2-18.5,0.7-32c7.2-9.7,7.6-22.2,1.4-30.6C566.5,1390.3,556.5,1389.4,554.8,1389.2z"/>
						
							<linearGradient id="SVGID_00000120540160263097077130000016607387290863787960_" gradientUnits="userSpaceOnUse" x1="501.7061" y1="204.9307" x2="552.9982" y2="204.9307" gradientTransform="matrix(1 0 0 -1 0 1626)">
							<stop  offset="0" style="stop-color:#B0D4EA"/>
							<stop  offset="1" style="stop-color:#70B5E8"/>
						</linearGradient>
						<path style="fill:url(#SVGID_00000120540160263097077130000016607387290863787960_);" d="M548.4,1424.8
							c6.2-11.3,4.8-24.5-2.8-32.7c-7.4-7.9-17.9-7.9-19.9-7.8c-6.8-6-10.8-5.3-12.1-5c-7.1,2-11.3,16.3-8.5,36.2
							c-1,1.9-5.6,11.1-2.1,21.3c3.6,10.6,14.4,18.1,27,18.5c3,2.6,12.1,9.9,17.8,7.1C554,1459.4,555.2,1444.3,548.4,1424.8z"/>
						
							<linearGradient id="SVGID_00000147222510323663063890000017123596899645799351_" gradientUnits="userSpaceOnUse" x1="688.085" y1="203.4752" x2="741" y2="203.4752" gradientTransform="matrix(1 0 0 -1 0 1626)">
							<stop  offset="0" style="stop-color:#B0D4EA"/>
							<stop  offset="1" style="stop-color:#70B5E8"/>
						</linearGradient>
						<path style="fill:url(#SVGID_00000147222510323663063890000017123596899645799351_);" d="M722.5,1394.9
							c-5.8-7.8-9.6-10.7-14.2-11.4c-6.8-1-16.1,2.8-19.2,11.4c-2.5,7-0.3,15,5.7,19.9c-0.6,0.6-8.3,9-5.7,19.9
							c2.1,8.7,9.8,15.3,19.2,16.3c0.9,1.6,6.1,10.4,13.5,10.7c8.6,0.3,19.1-11.2,19.2-29.1C735.6,1414.6,728,1402.3,722.5,1394.9z"
							/>
						
							<linearGradient id="SVGID_00000062185970671597029680000013248297007266216100_" gradientUnits="userSpaceOnUse" x1="688.3684" y1="343.8075" x2="736.0987" y2="224.1873" gradientTransform="matrix(1 0 0 -1 0 1626)">
							<stop  offset="0" style="stop-color:#1C74B5"/>
							<stop  offset="1" style="stop-color:#1A5284"/>
						</linearGradient>
						<path style="fill:url(#SVGID_00000062185970671597029680000013248297007266216100_);" d="M751,1274.7l8.6-20.3l-15.1,1.9
							l-3.6,6.8c0,0-0.7,11.2-22.9,17.8c0,0-6.1-9.9-26.2-6.1c-20.1,3.8-59.3,5.7-65.4,4c-6.1-1.7,0,54.4,0,54.4s35.4-15.5,51.5-5.8
							c5.7,5.8,29.9,34.2,42.8,36.1c7.7,9.9,16.8,24.8,17.1,43c0.3,18.1,17,11.3,17,11.3l-4.5-24.6c0,0-5.1-37.3-9.5-40.1
							c-4.4-2.8-10.6-4.4-10.1-16.4s0.1-43.1-6.5-45.9C724.3,1290.7,744.3,1274.7,751,1274.7z"/>
						
							<linearGradient id="SVGID_00000145056896583749881200000015978543781305422267_" gradientUnits="userSpaceOnUse" x1="576.7982" y1="411.2511" x2="495.3988" y2="352.7453" gradientTransform="matrix(1 0 0 -1 0 1626)">
							<stop  offset="0" style="stop-color:#B0D4EA"/>
							<stop  offset="1" style="stop-color:#70B5E8"/>
						</linearGradient>
						<path style="fill:url(#SVGID_00000145056896583749881200000015978543781305422267_);" d="M632.7,1331.4
							c0.8-0.4,11.4-5.2,10.5-11.7c-0.5-3.9-4.9-6.2-6.2-6.8c5.1-2.8,8.1-8.2,7.4-13.6c-0.8-6.3-6.1-9.5-6.8-9.9
							c4.9-7.5,3.6-16.6-1.8-21c-5.5-4.4-12.9-2.1-13.6-1.8c0-1.4-0.7-16-12.9-24c-8.4-5.5-17.2-4.7-19.7-4.3
							c4.2-8.6,3.1-18.2-2.5-24c-4.4-4.6-10.3-5.4-12.3-5.5c-0.1-1.1-0.7-9.8-8-14.8c-4.2-2.9-8.6-3.1-10.5-3.1
							c1.6-9.1-1.2-17.8-7.4-22.2c-3-2.1-6.2-2.9-8.6-3.1c5.4-6.5,6.4-15.4,2.5-22.2c-4.7-8.2-15.7-11.7-25.3-7.4
							c-0.6-2.3-3.3-11.1-11.1-14.8c-10-4.8-24.9,0.3-33.3,14.2c-3.9,1.9-11.4,6.2-12.9,13.6c-1.7,8,5.8,15.3,19.1,28.4
							c9.3,9.1,17.7,15.7,23.8,20.2c-3.2,4.8-6.4,9.5-9.7,14.3c0.1,5.7-0.2,14.9-1.8,25.9c-3.1,19.9-8,26.5-7.4,38.2
							c0.4,7.9,3.3,19.4,16,33.3c-0.9,14.3,6.6,27.9,19.1,34.5c11.6,6.2,25.8,5.4,37-1.8c1.5,1.8,9.4,10.8,21.6,11.1
							c13,0.4,25.7-9.3,30.2-24C610.5,1330.3,621.9,1336.2,632.7,1331.4z"/>
						
							<linearGradient id="SVGID_00000114792727268110109000000004905709101277435290_" gradientUnits="userSpaceOnUse" x1="499.1124" y1="368.6573" x2="557.6182" y2="408.509" gradientTransform="matrix(1 0 0 -1 0 1626)">
							<stop  offset="0" style="stop-color:#B0D4EA"/>
							<stop  offset="1" style="stop-color:#C5DFEF"/>
						</linearGradient>
						<path style="fill:url(#SVGID_00000114792727268110109000000004905709101277435290_);" d="M549.6,1199.2
							c2.7-4,2.9-9.1,0.4-12.9c-3-4.6-9.4-6.5-14.9-3.9c-0.1-0.4-1.9-7.5-8.8-9.7c-5.1-1.6-10.9,0.2-14.4,4.5
							c-5.4-1.5-11.2,0-14.9,3.9c-4.4,4.6-5.3,11.9-1.9,17.8c-2.2,7.2-4.2,15.8-5.3,25.5c-2.5,22.1,0.9,40.7,4.4,53.2
							c-4.3,9-1.6,19.7,6,25.2c6.6,4.8,15.9,4.9,23,0.1c3,4.2,7.8,6.6,12.5,6c6.5-0.8,12.1-7.3,11.9-15.4c6.1-3,9.9-9.2,9.6-15.6
							c-0.4-7.5-6.1-11.8-6.9-12.3c3.1-5.4,10.1-19.5,8.5-38.1C557.6,1214.3,552.7,1204.5,549.6,1199.2z"/>
						
							<linearGradient id="SVGID_00000127020556611326426020000015704629742296255157_" gradientUnits="userSpaceOnUse" x1="777.0835" y1="419.6712" x2="775.3877" y2="348.4468" gradientTransform="matrix(1 0 0 -1 0 1626)">
							<stop  offset="0" style="stop-color:#B0D4EA"/>
							<stop  offset="1" style="stop-color:#70B5E8"/>
						</linearGradient>
						<path style="fill:url(#SVGID_00000127020556611326426020000015704629742296255157_);" d="M751,1274.7c6.6,4.6,15,5.1,21.6,1.2
							c7.7-4.6,9.1-13,9.2-14.2c10.9,2.1,20.5-3.4,22.8-11.1c2-6.8-2.4-13.2-3.1-14.2c1.3-0.4,6.2-2.2,9.2-7.4
							c3.8-6.5,1.6-13.2,1.2-14.2c0.4-0.7,6.4-12.3,1.8-18.5c-4.5-6-19.1-6.6-32.7,4.3c-7.9-1.1-15.7,1.9-20.3,8
							c-5.4,7.1-4,15.3-3.7,16.6c-1.6,0.5-13.6,4.7-17.9,16.6C735.3,1253.3,740,1266.8,751,1274.7z"/>
						
							<linearGradient id="SVGID_00000073680830402974088270000011315354830287230109_" gradientUnits="userSpaceOnUse" x1="426.3779" y1="429.4501" x2="437.6847" y2="429.4501" gradientTransform="matrix(1 0 0 -1 0 1626)">
							<stop  offset="0" style="stop-color:#052A4C"/>
							<stop  offset="1" style="stop-color:#061C2D"/>
						</linearGradient>
						<path style="fill:url(#SVGID_00000073680830402974088270000011315354830287230109_);" d="M437.7,1191.4
							c-0.8,2.4-2.4,4.8-4.3,6.6c-1.4,1.4-2.9,2.6-4.5,3.7c-3.9-4.5-3.6-10.3,3.4-10.3C434.2,1191.4,436,1191.4,437.7,1191.4z"/>
					</g>
				</g>
			</g>
		</g>
	</g>
</g>
</svg>
