<?xml version="1.0" encoding="utf-8"?>
<!-- Generator: Adobe Illustrator 26.0.1, SVG Export Plug-In . SVG Version: 6.00 Build 0)  -->
<svg version="1.1" id="Layer_1" xmlns="http://www.w3.org/2000/svg" xmlns:xlink="http://www.w3.org/1999/xlink" x="0px" y="0px"
	 viewBox="0 0 828.2 1511.7" style="enable-background:new 0 0 828.2 1511.7;" xml:space="preserve">
<style type="text/css">
	.st0{fill:#C1DDFE;}
	.st1{fill:url(#SVGID_1_);}
	.st2{clip-path:url(#SVGID_00000039111723698707448210000006666868338510905268_);}
	.st3{clip-path:url(#SVGID_00000183211583325403022510000015038499630550648456_);}
	.st4{fill:url(#SVGID_00000089557479080765946710000017034676831747802548_);}
	.st5{fill:url(#SVGID_00000010997144833923349620000004241494971481635247_);}
	.st6{fill:url(#SVGID_00000075145245637100758660000003238953578391525775_);}
	.st7{fill:url(#SVGID_00000122681577593220522080000016171033135317140361_);}
	.st8{fill:url(#SVGID_00000121981598476748094140000003522774068614557826_);}
	.st9{fill:url(#SVGID_00000174585300598415565970000006562749456951489692_);}
	.st10{opacity:0.43;fill:url(#SVGID_00000137817494845889931420000005859656929253821375_);enable-background:new    ;}
	.st11{fill:url(#SVGID_00000017511758879838354660000004104380711050243974_);}
	.st12{fill:url(#SVGID_00000078036625347105399320000004945416810563451560_);}
	.st13{fill:url(#SVGID_00000085942399485369111300000002017407971398149514_);}
	
		.st14{opacity:0.56;fill:none;stroke:#7F1712;stroke-width:4;stroke-linecap:round;stroke-miterlimit:10;enable-background:new    ;}
	.st15{fill:none;stroke:#7F1712;stroke-width:4;stroke-linecap:round;stroke-miterlimit:10;}
	.st16{opacity:0.2;enable-background:new    ;}
	.st17{opacity:0.47;fill:url(#SVGID_00000077283396200530722620000007118556987750796701_);enable-background:new    ;}
	.st18{fill:url(#SVGID_00000158008608085252969340000014245702328593074879_);}
	.st19{opacity:0.71;fill:url(#SVGID_00000072260412054232381080000010609055863893824674_);enable-background:new    ;}
	.st20{opacity:0.71;fill:url(#SVGID_00000109725237592353595840000002245087505144716961_);enable-background:new    ;}
	.st21{fill:none;stroke:#000000;stroke-width:4;stroke-miterlimit:10;}
	.st22{fill:url(#SVGID_00000067220451798055701530000010868427149434485893_);}
	.st23{fill:url(#SVGID_00000159442479364466748970000017991221282240715138_);}
	.st24{fill:url(#SVGID_00000151515287744391789170000004307720842927896201_);}
	.st25{fill:url(#SVGID_00000054243568189124629330000003086972482605175446_);}
	.st26{fill:url(#SVGID_00000150810222845036502150000000557465078611975313_);}
	.st27{fill:url(#SVGID_00000084509065986611795600000007816300596001232559_);}
	.st28{fill:url(#SVGID_00000077298903379285498850000017430446385231485872_);}
	.st29{fill:url(#SVGID_00000057867436883195787410000013865629660473749170_);}
	.st30{fill:url(#SVGID_00000021093967841205205840000016705730791822037379_);}
	.st31{fill:url(#SVGID_00000124840293673045243450000014459239172909375107_);}
	.st32{fill:url(#SVGID_00000137111323585492572900000004539266709949701567_);}
	.st33{opacity:0.18;enable-background:new    ;}
	.st34{fill:url(#SVGID_00000088842011511990251310000009720681219384598150_);}
	.st35{fill:url(#SVGID_00000042727931784381833310000011876739712985168307_);}
	.st36{fill:#3478C5;}
	.st37{fill:#032F61;}
</style>
<g>
	<path class="st0" d="M2558,1110.7c-99.6,128.5-329,142.9-560.4,136c-232.7-6-468.4-35-526.8-175.4
		c-57-141.3,62.1-394.6,120.9-573.2s54.7-282.1,82.4-416.7c26.6-134.8,84.5-299.7,191.2-348.4c106.7-48.7,262.4,18.8,384,102.8
		c121.3,85.1,207.6,185.5,260.3,300.3c54.1,113.9,73.6,240.8,97.5,424.5C2631,744.3,2658.5,983.5,2558,1110.7z"/>
</g>
<linearGradient id="SVGID_1_" gradientUnits="userSpaceOnUse" x1="-451.7764" y1="1457.6476" x2="1205.4829" y2="473.5267" gradientTransform="matrix(1 0 0 -1 0 1512)">
	<stop  offset="0" style="stop-color:#3478C5"/>
	<stop  offset="1" style="stop-color:#032F61"/>
</linearGradient>
<path class="st1" d="M838.9-136.7c118.5,42.4,229.9-57.4,311.7,55.2c83.5,112.7-80.9,748.8-56.7,913.8
	c24.2,163.5-6.7,366.6-141.9,421.2c-134.4,53.8-371.5-40.2-619.5-45.2c-246.3-4.3-503.4,81.8-654.5,21.5
	c-152.8-59.6-198.7-264-197.1-454.9c0-191.6-78.2-546.7,50.4-645.7C-341.9,30.1-6.5-123.9,173-142.5S720.3-178.4,838.9-136.7z"/>
<g>
	<g>
		<defs>
			<path id="SVGID_00000085973415219867077560000003888954243167136931_" d="M838.9-136.7c118.5,42.4,229.9-57.4,311.7,55.2
				c83.5,112.7-80.9,748.8-56.7,913.8c24.2,163.5-6.7,366.6-141.9,421.2c-134.4,53.8-371.5-40.2-619.5-45.2
				c-246.3-4.3-503.4,81.8-654.5,21.5c-152.8-59.6-198.7-264-197.1-454.9c0-191.6-78.2-546.7,50.4-645.7
				C-341.9,30.1-6.5-123.9,173-142.5S720.3-178.4,838.9-136.7z"/>
		</defs>
		<clipPath id="SVGID_00000013169733834195021140000012375654826863752351_">
			<use xlink:href="#SVGID_00000085973415219867077560000003888954243167136931_"  style="overflow:visible;"/>
		</clipPath>
		<g style="clip-path:url(#SVGID_00000013169733834195021140000012375654826863752351_);">
			<g>
				<g>
					<defs>
						<path id="SVGID_00000119104493788621518990000011618522861676065157_" d="M406.2,137.1c118.5,49.3,206.2,167,288,298
							c83.5,131.1,162,274.7,186.2,466.7c24.2,190.3-6.7,426.6-141.9,490.1c-134.4,62.6-371.5-46.8-619.5-52.6
							c-246.3-5-503.4,95.2-654.5,25C-688.3,1295-734.2,1057.1-732.6,835c0-222.9,50.1-428.3,178.7-543.5
							C-427,176.3-220,152.1-40.5,130.4S287.6,88.6,406.2,137.1z"/>
					</defs>
					<clipPath id="SVGID_00000115507340097308936450000005318762472599706042_">
						<use xlink:href="#SVGID_00000119104493788621518990000011618522861676065157_"  style="overflow:visible;"/>
					</clipPath>
					<g style="clip-path:url(#SVGID_00000115507340097308936450000005318762472599706042_);">
						
							<linearGradient id="SVGID_00000117645079270394792490000003433364509174174869_" gradientUnits="userSpaceOnUse" x1="-776.9004" y1="184.4028" x2="-778.2576" y2="309.2655" gradientTransform="matrix(-1 0 0 1 -398.5881 1221.3245)">
							<stop  offset="0" style="stop-color:#1870B2;stop-opacity:0.3"/>
							<stop  offset="1" style="stop-color:#18689E"/>
						</linearGradient>
						
							<ellipse style="fill:url(#SVGID_00000117645079270394792490000003433364509174174869_);" cx="379" cy="1469" rx="451.9" ry="58.4"/>
						<g>
							
								<linearGradient id="SVGID_00000035512790081352884650000015421780267220254639_" gradientUnits="userSpaceOnUse" x1="-980.8246" y1="-6.179" x2="-986.5624" y2="247.7084" gradientTransform="matrix(-1 0 0 1 -398.5881 1221.3245)">
								<stop  offset="0" style="stop-color:#052A4C"/>
								<stop  offset="1" style="stop-color:#061C2D"/>
							</linearGradient>
							<polygon style="fill:url(#SVGID_00000035512790081352884650000015421780267220254639_);" points="574.3,1471.5 595.1,1471.5 
								595.1,1176.8 574.3,1176.8 							"/>
							
								<linearGradient id="SVGID_00000003788421417128366040000005411619926542525111_" gradientUnits="userSpaceOnUse" x1="-512.264" y1="4.41" x2="-518.0016" y2="258.2974" gradientTransform="matrix(-1 0 0 1 -398.5881 1221.3245)">
								<stop  offset="0" style="stop-color:#052A4C"/>
								<stop  offset="1" style="stop-color:#061C2D"/>
							</linearGradient>
							<polygon style="fill:url(#SVGID_00000003788421417128366040000005411619926542525111_);" points="105.5,1471.5 126.3,1471.5 
								126.3,1176.8 105.5,1176.8 							"/>
							
								<linearGradient id="SVGID_00000013167415414233463860000008133892520999221896_" gradientUnits="userSpaceOnUse" x1="-743.9381" y1="-143.3856" x2="-743.9381" y2="-31.4287" gradientTransform="matrix(-1 0 0 1 -398.5881 1221.3245)">
								<stop  offset="0" style="stop-color:#E5B313"/>
								<stop  offset="1" style="stop-color:#AF8612"/>
							</linearGradient>
							<path style="fill:url(#SVGID_00000013167415414233463860000008133892520999221896_);" d="M101.5,1188.3h487.7
								c7.3,0,13.3-6,13.3-13.3v-81.1c0-7.3-6-13.3-13.3-13.3H101.5c-7.3,0-13.3,6-13.3,13.3v81.1
								C88.2,1182.4,94.2,1188.3,101.5,1188.3z"/>
						</g>
						
							<linearGradient id="SVGID_00000022545308379842863460000003118844164531488441_" gradientUnits="userSpaceOnUse" x1="-736.9881" y1="-173.2474" x2="-736.9881" y2="-78.9976" gradientTransform="matrix(-1 0 0 1 -398.5881 1221.3245)">
							<stop  offset="0" style="stop-color:#215E87"/>
							<stop  offset="1" style="stop-color:#0D4168"/>
						</linearGradient>
						<path style="fill:url(#SVGID_00000022545308379842863460000003118844164531488441_);" d="M123.9,1088.5
							c11.3,7.3,28.8,13.9,51,19.4c41.5,10.3,99.4,16.7,163.5,16.7s121.9-6.4,163.5-16.7c22.2-5.5,39.7-12.1,51-19.4
							c-11.3-7.3-28.8-13.9-51-19.4c-41.5-10.3-99.4-16.7-163.5-16.7s-121.9,6.4-163.5,16.7C152.7,1074.6,135.2,1081.2,123.9,1088.5
							z"/>
						
							<linearGradient id="SVGID_00000008118076477621306100000011597728592817552286_" gradientUnits="userSpaceOnUse" x1="-738.9224" y1="-204.449" x2="-737.2239" y2="-158.5904" gradientTransform="matrix(-1 0 0 1 -398.5881 1221.3245)">
							<stop  offset="0" style="stop-color:#052A4C"/>
							<stop  offset="1" style="stop-color:#061C2D"/>
						</linearGradient>
						<path style="fill:url(#SVGID_00000008118076477621306100000011597728592817552286_);" d="M109.5,1069.1
							c0,6.8,5.1,13.4,14.4,19.4c11.3-7.3,28.8-13.9,51-19.4c41.5-10.3,99.4-16.7,163.5-16.7s121.9,6.4,163.5,16.7
							c22.2,5.5,39.7,12.1,51,19.4c9.3-6.1,14.4-12.6,14.4-19.4c0-30.7-102.5-55.5-228.9-55.5S109.5,1038.5,109.5,1069.1z"/>
						
							<linearGradient id="SVGID_00000074428958768925670800000001668078492182063533_" gradientUnits="userSpaceOnUse" x1="-485.1992" y1="381.6923" x2="-552.2551" y2="483.0213" gradientTransform="matrix(0.7429 -0.6694 -0.6694 -0.7429 881.417 1065.6608)">
							<stop  offset="0" style="stop-color:#B0D4EA"/>
							<stop  offset="1" style="stop-color:#70B5E8"/>
						</linearGradient>
						
							<path style="opacity:0.43;fill:url(#SVGID_00000074428958768925670800000001668078492182063533_);enable-background:new    ;" d="
							M151.8,1084.9c-7.3,10.3-4,24.2,5.3,29.8c9.7,5.8,24.1,1.5,29.3-10.6c-5.4,13.3,2,26.9,12.1,29.4c7.6,1.9,16.8-2.4,21.8-11
							c-1.9,12.2,7.2,23.1,18.4,23.7c10.6,0.5,20.5-8.4,20.7-20.1c2.4,0.3,12.3,1.5,19.9-5c8.9-7.6,7.8-19.9,7.4-25.3
							c-1.1-13.6-9.7-34.3-27.6-37c-12.4-1.8-22.6,6.1-25.4,8.5c-2-7.7-8.3-13.4-15.9-14.4c-9.9-1.3-16.5,6.1-17,6.7
							c0.8-9.3-6.7-17.4-15.7-17.5c-9.1-0.1-16.7,7.9-16,17.3c-8.1-6.2-17.9-6.8-22.6-2.7C140.8,1061.6,140.7,1075.6,151.8,1084.9z"
							/>
						<g>
							
								<linearGradient id="SVGID_00000049215585965599069910000015626531625800463506_" gradientUnits="userSpaceOnUse" x1="-559.2989" y1="-401.1997" x2="-761.2808" y2="-134.1728" gradientTransform="matrix(-1 0 0 1 -398.5881 1221.3245)">
								<stop  offset="0" style="stop-color:#AD4D1E"/>
								<stop  offset="1" style="stop-color:#A03227"/>
							</linearGradient>
							<path style="fill:url(#SVGID_00000049215585965599069910000015626531625800463506_);" d="M126.7,774.4
								c0.4,18.2,5.4,43.2,16.4,44.4c34.1,13.4,33.3,42.4,33.3,42.4c-1.6,7.2-2.5,14.1-2.9,20.8c-3.8,63.7,41.3,102.4,41.3,102.4
								c12.5,29,15.2,55.6,14.4,76.5c-1.1,26.9-8.2,44.1-8.2,44.1c-23.6-0.9-26.2,25.3,0,25.2c71.8,0.8,54.6-82.9,54.2-84.6
								l12.4,15.6c-9.4,23.5,18.5,43.8,18.5,43.8c-22.4-0.9-30.9,15.7-18.5,23s140.5-5.5,140.5-5.5
								c142.4,26.6,108.4-51.6,108.4-51.6c-26.2,38.5-90,25.4-90,25.4s18.4-95.3-66.4-163s-82.5-101.8-82.5-101.8l-28.3-62.6
								c-60.2-46-78.8-6.5-97.1-7.3c-6.8-0.3-14.4-2.6-21.3-4.5c-11.7-3.2-21.6-5.4-23.2,4.5C126.9,764.9,126.6,769.4,126.7,774.4z"
								/>
							
								<linearGradient id="SVGID_00000034799893826382667100000003510282912522036912_" gradientUnits="userSpaceOnUse" x1="-639.6567" y1="-415.0714" x2="-678.0555" y2="-380.4186" gradientTransform="matrix(-1 0 0 1 -398.5881 1221.3245)">
								<stop  offset="0" style="stop-color:#7F1712"/>
								<stop  offset="1" style="stop-color:#5B0909"/>
							</linearGradient>
							<path style="fill:url(#SVGID_00000034799893826382667100000003510282912522036912_);" d="M302,809.6c2.1,3.1,4.3,6.6,4,10.4
								c-0.3,4.9-4.6,8.5-8.6,11.5c-12.4,9.4-24.8,18.9-37.2,28.3c-3.6,2.7-7.3,5.6-11.7,6.9c-4.3,1.3-9.5,0.9-12.8-2.2
								c-5.1-4.8-3.6-13-1.8-19.8c3.7-13.5,7.3-26.9,11-40.4c2.6-9.5,3.8-27.9,11.8-34.6c9.3-7.7,16.3,2.1,22,9
								C283.5,784.6,302,802,302,809.6z"/>
							
								<linearGradient id="SVGID_00000108287768710479747830000008678854796945878151_" gradientUnits="userSpaceOnUse" x1="-549.2815" y1="-456.8251" x2="-525.3376" y2="-456.8251" gradientTransform="matrix(-1 0 0 1 -398.5881 1221.3245)">
								<stop  offset="0" style="stop-color:#7F1712"/>
								<stop  offset="1" style="stop-color:#5B0909"/>
							</linearGradient>
							<path style="fill:url(#SVGID_00000108287768710479747830000008678854796945878151_);" d="M126.7,774.4l0.6,0.3
								c8.9-3,16.8-9,22.2-16.7l1.1-1c-11.7-3.2-21.6-5.4-23.2,4.5C126.9,764.9,126.6,769.4,126.7,774.4z"/>
							<path class="st14" d="M293,1048.2c3.1-15.8,13.5-51.1,44.6-51.6"/>
							<path class="st15" d="M165.8,803.2c0,0-16.8,1.4-32.7-4.6"/>
							<path class="st16" d="M214.8,984.4c12.5,29,15.2,55.6,14.4,76.5c8.3-10.5,11.1-30.3,9-39.8c-3.4-15.2-12.3-28.4-20.1-41.8
								c-14.6-25.2-25.6-52.5-32.8-80.7c-1.1-4.2-2.1-8.5-4.7-11.9c-1.7-2.3-4.4-4.1-7.2-4.6C169.7,945.7,214.8,984.4,214.8,984.4z"
								/>
						</g>
						
							<linearGradient id="SVGID_00000083063018734124327510000007910658165458304158_" gradientUnits="userSpaceOnUse" x1="-281.9046" y1="175.8576" x2="-347.6667" y2="275.2314" gradientTransform="matrix(0.5915 -0.8063 -0.8063 -0.5915 804.1317 980.2808)">
							<stop  offset="0" style="stop-color:#B0D4EA"/>
							<stop  offset="1" style="stop-color:#70B5E8"/>
						</linearGradient>
						
							<path style="opacity:0.47;fill:url(#SVGID_00000083063018734124327510000007910658165458304158_);enable-background:new    ;" d="
							M389.3,1132.2c11.9,4,24-3.5,27-5.5c1.5,8.6,8.8,15.1,17.3,15.5c9,0.4,17.3-6,19.1-15.2c0.6,12.3,11.8,21.2,22.9,19.4
							c10.5-1.7,18.3-12.4,16.2-23.9c1.9-0.1,11.9-0.8,18.5-9c5.3-6.5,9.1-18.8,2.1-26.3c-5-5.4-14.1-6.7-22.3-3
							c0.9-8.3-3.1-16.2-10-19.9c-8.2-4.5-19.1-2.2-25.4,5.8c-3.5-7.1-10.9-11.5-18.5-10.9c-10,0.7-14.9,9.4-15.3,10
							c-1.2-9.3-10.1-15.7-19-13.9c-8.9,1.8-14.8,11.1-12.2,20.2c-8.8-0.3-13.1,2.5-15.1,4.4
							C362.8,1091.2,369.5,1125.5,389.3,1132.2z"/>
						
							<linearGradient id="SVGID_00000103236871394078549670000004898589835762698634_" gradientUnits="userSpaceOnUse" x1="-736.9881" y1="-100.1225" x2="-736.9881" y2="-46.4976" gradientTransform="matrix(-1 0 0 1 -398.5881 1221.3245)">
							<stop  offset="0" style="stop-color:#052A4C"/>
							<stop  offset="1" style="stop-color:#061C2D"/>
						</linearGradient>
						<path style="fill:url(#SVGID_00000103236871394078549670000004898589835762698634_);" d="M109.5,1069.1v38.8
							c0,30.7,102.5,55.5,228.9,55.5s228.9-24.9,228.9-55.5v-38.8c0,6.8-5.1,13.4-14.4,19.4c-11.3,7.3-28.8,13.9-51,19.4
							c-41.5,10.3-99.4,16.7-163.5,16.7s-121.9-6.4-163.5-16.7c-22.2-5.5-39.7-12.1-51-19.4C114.6,1082.5,109.5,1076,109.5,1069.1z"
							/>
						
							<linearGradient id="SVGID_00000059282562867630761520000010595584515190147224_" gradientUnits="userSpaceOnUse" x1="-682.4503" y1="-349.9826" x2="-749.5063" y2="-248.6538" gradientTransform="matrix(-1 0 0 1 -398.5881 1221.3245)">
							<stop  offset="0" style="stop-color:#B0D4EA"/>
							<stop  offset="1" style="stop-color:#70B5E8"/>
						</linearGradient>
						
							<path style="opacity:0.71;fill:url(#SVGID_00000059282562867630761520000010595584515190147224_);enable-background:new    ;" d="
							M353.6,963.7c12.3-2.8,19.2-15.3,16-25.6c-3.3-10.8-16.9-17.3-28.8-11.8c12.9-6.3,16.5-21.3,10.7-29.9
							c-4.4-6.5-14.1-9.4-23.5-6.4c9.6-7.7,10.1-22,2.1-29.9c-7.6-7.5-20.9-7.4-28.8,1.1c-1.5-1.8-8.2-9.4-18.2-9.6
							c-11.7-0.3-19.2,9.6-22.4,13.9c-8.2,10.8-15.8,32-4.3,45.9c8,9.7,20.9,10.6,24.6,10.7c-3.7,7.1-2.8,15.6,2.1,21.4
							c6.5,7.6,16.4,6.5,17.1,6.4c-6.8,6.4-6.7,17.4,0,23.5c6.7,6.2,17.7,5.3,23.5-2.1c1.8,10.1,8.8,17,15,17.1
							C346.2,988.3,355.6,978,353.6,963.7z"/>
						
							<linearGradient id="SVGID_00000121268109154189148050000010999625962539728001_" gradientUnits="userSpaceOnUse" x1="-851.6354" y1="-228.2745" x2="-776.4058" y2="-228.2745" gradientTransform="matrix(-1 0 0 1 -398.5881 1221.3245)">
							<stop  offset="0" style="stop-color:#B0D4EA"/>
							<stop  offset="1" style="stop-color:#70B5E8"/>
						</linearGradient>
						
							<path style="opacity:0.71;fill:url(#SVGID_00000121268109154189148050000010999625962539728001_);enable-background:new    ;" d="
							M442.5,1020.6c7.7-1.7,12-9.6,10.1-16.1c-2.1-6.8-10.6-10.9-18.1-7.4c8.1-3.9,10.3-13.4,6.7-18.8c-2.7-4.1-8.8-5.9-14.7-4
							c6-4.9,6.3-13.8,1.3-18.8c-4.7-4.7-13.1-4.7-18.1,0.7c-1-1.2-5.1-5.9-11.4-6c-7.3-0.2-12,6-14.1,8.7
							c-5.2,6.8-9.9,20.1-2.7,28.8c5,6.1,13.1,6.6,15.4,6.7c-2.3,4.4-1.8,9.8,1.3,13.4c4,4.8,10.3,4.1,10.7,4
							c-4.3,4-4.2,10.9,0,14.7c4.2,3.9,11.1,3.3,14.7-1.3c1.1,6.3,5.5,10.7,9.4,10.7C437.9,1036.1,443.8,1029.6,442.5,1020.6z"/>
						<g>
							<path class="st21" d="M397.7,985.8c2-0.1,3-0.2,2.2-0.2C399.4,985.6,398.6,985.6,397.7,985.8z"/>
							
								<linearGradient id="SVGID_00000060013898245671525600000004193641569103714222_" gradientUnits="userSpaceOnUse" x1="-959.8259" y1="-169.7472" x2="-1002.9335" y2="161.3977" gradientTransform="matrix(-1 0 0 1 -398.5881 1221.3245)">
								<stop  offset="0" style="stop-color:#052A4C"/>
								<stop  offset="1" style="stop-color:#061C2D"/>
							</linearGradient>
							<path style="fill:url(#SVGID_00000060013898245671525600000004193641569103714222_);" d="M483.9,1492.9
								c0,4.9,81.6,7.9,98.3,8.4s-5.9-37.9-5.9-43.8c0-1.3-0.7-11.3-1.7-26.3c-3.9-54.7-13-175.2-13-175.2l49.4-170.1
								c-0.7,15.7,22.7,181.1,22.7,181.1c-0.5,3.2,44.7,109.7,66.6,161.2c7,16.4,11.7,27.3,11.7,27.3s-45.1,25.3-53.9,30.2
								c-8.9,4.9-5.6,9.6-6.5,14.2s98.2-3.1,100.5-11.5s-9.2-31.4-10.7-33.7c-0.4-0.6-3.7-13.6-8.5-32.8
								c-14.2-57.3-41.3-169.5-41.3-169.5s-7.8-140.2-7.1-177.8c0.8-37.5-4.2-57.1-16-69.4c-8-8.4-117.8-8.7-117.8-8.7
								c-35.5,11.9-42.1,232.9-48,252.3c-4.7,15.4,26.4,137,39.5,187.1c3.5,13.2,5.7,21.5,5.7,21.5
								C498.6,1473.3,483.9,1488,483.9,1492.9z"/>
							<path class="st21" d="M399.9,985.6c-0.5,0-1.2,0.1-2.2,0.2C399.8,985.7,400.7,985.6,399.9,985.6z"/>
							
								<linearGradient id="SVGID_00000028304405021668579910000009251884873202871456_" gradientUnits="userSpaceOnUse" x1="-1069.7501" y1="243.4386" x2="-1140.2062" y2="279.0153" gradientTransform="matrix(-1 0 0 1 -398.5881 1221.3245)">
								<stop  offset="0" style="stop-color:#052A4C"/>
								<stop  offset="1" style="stop-color:#061C2D"/>
							</linearGradient>
							<path style="fill:url(#SVGID_00000028304405021668579910000009251884873202871456_);" d="M651.4,1499.9
								c-0.9,4.6,98.2-3.1,100.5-11.5s-9.2-31.4-10.7-33.7c0,0-5.7,4.9-29.3,0.7c0,0-45.1,25.3-53.9,30.2
								C649,1490.6,652.3,1495.3,651.4,1499.9z"/>
							
								<linearGradient id="SVGID_00000178194400128628156080000007835460621009486263_" gradientUnits="userSpaceOnUse" x1="-1139.8368" y1="218.276" x2="-1098.8368" y2="218.276" gradientTransform="matrix(-1 0 0 1 -398.5881 1221.3245)">
								<stop  offset="0" style="stop-color:#F9988F"/>
								<stop  offset="1" style="stop-color:#D87873"/>
							</linearGradient>
							<path style="fill:url(#SVGID_00000178194400128628156080000007835460621009486263_);" d="M700.2,1428.2
								c7,16.4,11.7,27.3,11.7,27.3c23.6,4.2,29.3-0.7,29.3-0.7c-0.4-0.6-3.7-13.6-8.5-32.8L700.2,1428.2z"/>
							
								<linearGradient id="SVGID_00000084489992862154025210000013273306391072247986_" gradientUnits="userSpaceOnUse" x1="-922.4603" y1="247.8708" x2="-961.5253" y2="286.2378" gradientTransform="matrix(-1 0 0 1 -398.5881 1221.3245)">
								<stop  offset="0" style="stop-color:#052A4C"/>
								<stop  offset="1" style="stop-color:#061C2D"/>
							</linearGradient>
							<path style="fill:url(#SVGID_00000084489992862154025210000013273306391072247986_);" d="M483.9,1492.9
								c0,4.9,81.6,7.9,98.3,8.4s-5.9-37.9-5.9-43.8c0,0-4.2,5.5-28.5,0C498.6,1473.3,483.9,1488,483.9,1492.9z"/>
							
								<linearGradient id="SVGID_00000174573992284368933620000017707368062655134854_" gradientUnits="userSpaceOnUse" x1="-974.9366" y1="224.2477" x2="-940.7366" y2="224.2477" gradientTransform="matrix(-1 0 0 1 -398.5881 1221.3245)">
								<stop  offset="0" style="stop-color:#F9988F"/>
								<stop  offset="1" style="stop-color:#D87873"/>
							</linearGradient>
							<path style="fill:url(#SVGID_00000174573992284368933620000017707368062655134854_);" d="M542.1,1436
								c3.5,13.2,5.7,21.5,5.7,21.5c24.3,5.5,28.5,0,28.5,0c0-1.3-0.7-11.3-1.7-26.3L542.1,1436z"/>
							
								<linearGradient id="SVGID_00000069391083548162285870000015113343680980768156_" gradientUnits="userSpaceOnUse" x1="-905.8588" y1="-364.1233" x2="-961.4136" y2="-206.0056" gradientTransform="matrix(-1 0 0 1 -398.5881 1221.3245)">
								<stop  offset="0" style="stop-color:#BF1A00"/>
								<stop  offset="1" style="stop-color:#99180B"/>
							</linearGradient>
							<path style="fill:url(#SVGID_00000069391083548162285870000015113343680980768156_);" d="M369.9,984.8
								c0.2,1.3,8.5,1.5,16.3,1.4c0.5,0,1,0,1.4,0c1.2,0,2.3-0.1,3.4-0.1c0.4,0,0.8,0,1.2,0c0.2,0,0.5,0,0.7,0c0.5,0,0.9,0,1.3-0.1
								c0.4,0,0.9,0,1.3-0.1c0.4,0,0.8,0,1.1-0.1c0.3,0,0.6,0,0.9,0c-1.4,0.2-3.1,0.6-5,1c-0.2,0-0.3,0.1-0.4,0.1
								c-0.6,0.1-1.2,0.3-1.7,0.4c-0.4,0.1-0.8,0.2-1.1,0.3c-0.1,0-0.1,0-0.2,0c-0.4,0.1-0.9,0.2-1.3,0.4c-0.2,0-0.3,0.1-0.4,0.1
								c-0.3,0.1-0.6,0.2-0.8,0.3c-0.3,0.1-0.6,0.2-0.9,0.3c-0.2,0.1-0.4,0.1-0.6,0.2c-0.6,0.2-1.1,0.4-1.6,0.6
								c-0.2,0.1-0.5,0.2-0.7,0.3s-0.4,0.2-0.6,0.3c-0.6,0.3-1.1,0.5-1.5,0.8c-0.1,0.1-0.2,0.1-0.3,0.2c-0.2,0.2-0.4,0.3-0.5,0.4
								c-0.1,0.1-0.1,0.1-0.1,0.2c-0.1,0.1-0.1,0.2-0.1,0.2c0,0.1,0,0.1,0,0.2c0,0,0,0.1,0,0.2c0.8,2.3,9.6,0,13.1,0
								s55-15.5,55-15.5s0.2,0,0.5-0.1c0.1,0,0.2,0,0.4-0.1h0.1c0,0,0,0,0.1,0s0.1,0,0.2,0s0.2,0,0.3,0h0.1c0.1,0,0.1,0,0.2,0l0,0
								c0.1,0,0.1,0,0.2,0h0.1l0,0c0.1,0,0.2,0,0.3-0.1c0.1,0,0.3,0,0.4-0.1c0.1,0,0.2,0,0.3-0.1c0.1,0,0.3,0,0.4-0.1
								c0.1,0,0.2,0,0.3,0c0.1,0,0.2,0,0.3-0.1c0.5-0.1,1-0.2,1.6-0.3c0.4-0.1,0.9-0.2,1.4-0.2c0.2,0,0.4-0.1,0.5-0.1s0.3,0,0.4-0.1
								c0.7-0.1,1.4-0.2,2.2-0.4c0.1,0,0.2,0,0.3-0.1c0.2,0,0.5-0.1,0.7-0.1h0.2c1.2-0.2,2.4-0.4,3.7-0.6c0.1,0,0.2,0,0.4-0.1
								c0.8-0.2,1.7-0.3,2.5-0.4c0.3,0,0.6-0.1,0.8-0.1c0.5-0.1,1-0.2,1.5-0.3c0.1,0,0.1,0,0.2,0c0.3,0,0.6-0.1,0.9-0.2
								c0.1,0,0.2,0,0.3,0c0.4-0.1,0.8-0.1,1.1-0.2c0.7-0.1,1.4-0.2,2.2-0.4l0,0c0.3-0.1,0.6-0.1,0.9-0.2c0.6-0.1,1.3-0.2,1.9-0.3
								c0.3,0,0.6-0.1,0.9-0.2c0.2,0,0.5-0.1,0.7-0.1c0.6-0.1,1.2-0.2,1.8-0.3c0.4-0.1,0.9-0.2,1.3-0.2c0.4-0.1,0.7-0.1,1.1-0.2
								c0.1,0,0.3-0.1,0.4-0.1c1.2-0.2,2.5-0.4,3.8-0.6c0.4-0.1,0.9-0.2,1.3-0.2c0.2,0,0.4-0.1,0.6-0.1c0.5-0.1,1-0.2,1.5-0.3
								c0.7-0.1,1.4-0.2,2.2-0.4c0.4-0.1,0.8-0.1,1.2-0.2c0.9-0.2,1.8-0.3,2.7-0.5c0.5-0.1,1-0.2,1.5-0.3c1.1-0.2,2.3-0.4,3.5-0.6
								c0.7-0.1,1.5-0.3,2.2-0.4c1.4-0.2,2.8-0.5,4.2-0.7c1.6-0.3,3.3-0.6,4.9-0.9c0.3,0,0.6-0.1,0.9-0.2c0,0,0,0,0.1,0
								c0.2,0,0.4-0.1,0.6-0.1s0.4-0.1,0.7-0.1h0.1c0.5-0.1,1-0.2,1.6-0.3c1-0.2,1.9-0.3,2.9-0.5l2.4-0.4c0.8-0.1,1.5-0.3,2.3-0.4
								c0.2,0,0.3,0,0.5-0.1c0.2,0,0.4-0.1,0.6-0.1c0.5-0.1,0.9-0.2,1.4-0.3s1.1-0.2,1.6-0.3c2.8-0.5,5.5-1,8.2-1.4
								c0.3-0.1,0.6-0.1,1-0.2c0.1,0,0.3,0,0.4-0.1c0.3-0.1,0.7-0.1,1-0.2c1.2-0.2,2.3-0.4,3.4-0.6c0.3,0,0.6-0.1,0.9-0.2
								c0.2,0,0.5-0.1,0.7-0.1s0.4-0.1,0.6-0.1c1.3-0.2,2.5-0.5,3.8-0.7c0.2,0,0.5-0.1,0.7-0.1c0.3,0,0.5-0.1,0.8-0.1
								c0.7-0.1,1.4-0.3,2.1-0.4c0.4-0.1,0.8-0.2,1.2-0.2h0.2c0.1,0,0.1,0,0.2,0c0.4-0.1,0.9-0.2,1.3-0.2c0.2,0,0.3-0.1,0.5-0.1
								c1-0.2,1.9-0.3,2.8-0.5c0.2,0,0.4-0.1,0.6-0.1l-14,44.7c0,0,128.8,19.2,124.9,3.2c-0.3-1.1-0.5-2.5-0.6-4.2
								c-0.1-0.7-0.1-1.5-0.2-2.3c0-0.4,0-0.8-0.1-1.2c0-0.8-0.1-1.7-0.1-2.7c0-0.5,0-1,0-1.5c-0.2-8.5,0-20.2,0.4-32.8
								c0-0.1,0-0.2,0-0.2c0-1.3,0.1-2.6,0.1-3.9c0-0.1,0-0.2,0-0.3c0.2-5.6,0.4-11.4,0.7-17.1c0.3-6.4,0.6-12.7,0.9-18.7
								c0-0.2,0-0.3,0-0.5c0-0.1,0-0.2,0-0.3c0-0.4,0-0.8,0.1-1.2c0-0.5,0.1-1,0.1-1.4c0-0.5,0-1,0.1-1.5c0-0.1,0-0.3,0-0.4
								c0-0.8,0.1-1.6,0.1-2.4c0-0.1,0-0.3,0-0.4c0-0.5,0-1,0.1-1.5c0-0.2,0-0.4,0-0.5c0-0.4,0-0.8,0.1-1.2c0-0.2,0-0.3,0-0.4
								c0-0.4,0-0.9,0.1-1.3c0-0.6,0.1-1.2,0.1-1.8c0-0.4,0-0.8,0.1-1.1c0-0.8,0.1-1.5,0.1-2.2c0-0.6,0.1-1.2,0.1-1.8
								c0-0.8,0.1-1.5,0.1-2.3c0-0.7,0.1-1.3,0.1-1.9c0-0.3,0-0.6,0.1-0.9c0-0.4,0-0.8,0.1-1.1c0-0.5,0.1-1,0.1-1.5
								c0-0.3,0-0.6,0.1-1c0-0.5,0.1-1,0.1-1.5c0-0.3,0-0.6,0.1-0.9c0-0.6,0.1-1.1,0.1-1.6c0-0.1,0-0.2,0-0.3c0-0.2,0-0.4,0-0.5
								c0-0.2,0-0.4,0-0.6c0.1-1.1,0.1-2,0.2-2.6c0-0.1,0-0.3,0-0.4c0-0.1,0-0.3,0-0.3c0-0.1,0-0.2,0-0.2c0-0.1,0-0.2,0-0.2l0.1-0.1
								c0.1-0.1,0.3-0.2,0.4-0.3c0.7-0.6,1.4-1.2,2-1.7c0.1-0.1,0.1-0.1,0.2-0.2c0.4-0.4,0.8-0.7,1.1-1c0.1-0.1,0.2-0.2,0.2-0.2
								l0.1-0.1c0.2-0.2,0.3-0.3,0.5-0.5c0.1-0.1,0.2-0.2,0.3-0.3s0.2-0.2,0.3-0.3c2.6-2,4.4-5.3,5.6-9.2c0.2-0.7,0.4-1.5,0.6-2.3
								c0.1-0.3,0.1-0.5,0.2-0.8c0.1-0.5,0.2-1.1,0.3-1.6s0.2-1.1,0.2-1.7c0.5-3.9,0.5-8.2,0.2-12.4c0-0.1,0-0.2,0-0.3
								c-0.1-0.8-0.1-1.5-0.2-2.3c0-0.4-0.1-0.8-0.1-1.1c-0.1-1-0.3-2-0.4-3c0-0.1,0-0.2-0.1-0.4c-0.2-1.1-0.4-2.2-0.6-3.2
								c-0.1-0.3-0.2-0.7-0.2-1c-0.1-0.3-0.2-0.7-0.2-1c-0.1-0.3-0.2-0.7-0.2-1c-0.2-0.6-0.3-1.3-0.5-1.9c-0.1-0.3-0.2-0.6-0.3-1
								c-0.1-0.3-0.2-0.6-0.3-0.9c-0.2-0.6-0.4-1.2-0.6-1.7c-0.1-0.3-0.2-0.6-0.3-0.8c-0.2-0.6-0.5-1.2-0.8-1.8
								c-0.2-0.4-0.4-0.8-0.6-1.2c-0.5-0.9-1-1.7-1.5-2.4c-9.5-15.8-29.8-23.4-45.4-27c-11.5-2.7-20.5-3.2-20.5-3.2
								c-2-0.4-4.2-0.6-6.7-0.5h-0.3c-0.3,0-0.6,0-0.9,0c-0.2,0-0.4,0-0.6,0c-0.4,0-0.8,0-1.3,0.1c-2,0.1-4.1,0.4-6.3,0.8
								c-0.3,0-0.5,0.1-0.8,0.1c-1.5,0.3-3.2,0.6-4.8,0.9c-0.1,0-0.2,0-0.3,0.1c-0.3,0.1-0.7,0.2-1,0.2c-0.4,0.1-0.8,0.2-1.2,0.3
								c-0.3,0.1-0.6,0.2-0.9,0.2c-0.3,0.1-0.7,0.2-1.1,0.3s-0.8,0.2-1.2,0.3c-2.7,0.7-5.5,1.5-8.4,2.4c-0.6,0.2-1.2,0.4-1.7,0.5
								c-4.4,1.4-9,3-13.7,4.7c-0.5,0.2-1,0.4-1.5,0.6c-0.6,0.2-1.2,0.4-1.8,0.7c-0.9,0.4-1.9,0.7-2.8,1.1c-1,0.4-1.9,0.7-2.9,1.1
								c-1.3,0.5-2.7,1-4,1.6c-0.8,0.3-1.7,0.7-2.5,1c-1.1,0.4-2.1,0.9-3.2,1.3c-1.1,0.4-2.1,0.9-3.2,1.3l0,0
								c-1,0.4-2.1,0.9-3.1,1.3c-1.1,0.5-2.2,0.9-3.3,1.4c-1,0.4-2,0.9-3,1.3c-1.1,0.5-2.1,0.9-3.2,1.4c-0.5,0.2-1.1,0.5-1.6,0.7
								c-1.1,0.5-2.1,0.9-3.1,1.4c-2.6,1.2-5.2,2.3-7.8,3.5c-1,0.5-2.1,0.9-3.1,1.4c-0.2,0.1-0.4,0.2-0.6,0.3
								c-0.6,0.3-1.2,0.6-1.9,0.9c-1.4,0.6-2.7,1.3-4,1.9c-0.8,0.4-1.7,0.8-2.5,1.2c-1.5,0.7-2.9,1.4-4.4,2.1
								c-1,0.5-1.9,0.9-2.9,1.4c-0.2,0.1-0.4,0.2-0.6,0.3c0,0,4.6,33.2,3,47.4c0.6-0.2,1.3-0.5,1.9-0.7c1-0.4,1.9-0.7,2.9-1.1
								c15.6-5.8,28.9-11.1,38.6-14.9c0.4-0.2,0.8-0.3,1.2-0.5c2.5-1,4.5-1.8,5.8-2.3c0.2-0.1,0.4-0.2,0.6-0.2
								c0.5-0.2,0.8-0.3,1-0.4c0.1,0,0.1,0,0.2-0.1c0.2-0.1,0.2-0.1,0.3-0.1c0.2,0-3.5,3.5-0.1,15.8c6.4,23.3,4.8,42.8,4.8,42.8
								c-1.6,0.7-5.5,2.1-11,4c-0.5,0.2-1.1,0.4-1.7,0.6s-1.3,0.5-2,0.7c-0.5,0.2-1.1,0.4-1.7,0.6c-2.9,1-6.1,2.1-9.5,3.3
								c-1.6,0.6-3.3,1.1-5,1.7c-1.3,0.5-2.6,0.9-4,1.4c-1.6,0.5-3.2,1.1-4.9,1.7c-2.9,1-5.8,2-8.8,3c-0.9,0.3-1.7,0.6-2.6,0.9
								c-1.3,0.4-2.6,0.9-3.8,1.3c-3.4,1.2-6.9,2.3-10.3,3.5c-0.8,0.3-1.7,0.6-2.5,0.9c-0.6,0.2-1.2,0.4-1.8,0.6
								c-10.6,3.6-20.5,6.9-28.4,9.6c-0.4,0.1-0.8,0.3-1.2,0.4c-3.4,1.1-6.4,2.1-8.8,3c-0.6,0.2-1.1,0.4-1.6,0.6
								c-1.7,0.6-3,1-3.9,1.3c-0.1,0-0.2,0.1-0.3,0.1c-0.6,0.2-0.9,0.3-0.9,0.3s-14.6-3.8-27.7-7.3s-15.4,3.1-10.4,4.6
								s18.1,4.2,15.4,11.9s-21.5,3.5-26.1,1.5c-4.6-1.9-14.6-8.1-17.3-5.8c-2.7,2.3,8.5,8.8,9.6,9.6c1.2,0.8-1.2,2.7,21.5,6.9
								C364.5,975.2,369.5,982.1,369.9,984.8z M397.7,985.8c0.3,0,0.6-0.1,0.8-0.1c0.1,0,0.3,0,0.4,0c0.4,0,0.7-0.1,0.9-0.1
								c0.4,0,0.4,0,0.1,0c-0.1,0-0.1,0-0.2,0c-0.2,0-0.4,0-0.6,0c-0.3,0-0.6,0-0.9,0.1C398.1,985.7,397.9,985.8,397.7,985.8z"/>
							<path class="st21" d="M671.8,882.5L671.8,882.5"/>
							
								<linearGradient id="SVGID_00000118377322195664731520000008036017536493706663_" gradientUnits="userSpaceOnUse" x1="-769.7197" y1="-355.9467" x2="-773.3382" y2="-323.3801" gradientTransform="matrix(-1 0 0 1 -398.5881 1221.3245)">
								<stop  offset="0" style="stop-color:#F9988F"/>
								<stop  offset="1" style="stop-color:#D87873"/>
							</linearGradient>
							<path style="fill:url(#SVGID_00000118377322195664731520000008036017536493706663_);" d="M249.6,897.6
								c38.4-23.4,48-10.8,48-7.3c0,3.4-15.8,8.1-13.4,13.8c2.3,5.8,33.8-15.8,35-16.1c0.4-0.1,15.2,0.7,35.1,1.8
								c7.4,0.4,15.6,0.8,23.9,1.3c34.6,1.8,73.2,3.3,82,1.9c2.9-0.5,7.5-1.8,13.2-3.6c2.6-0.8,5.3-1.8,8.3-2.8
								c4.6-1.6,9.5-3.3,14.5-5.2c1.5-14.2-3-47.4-3-47.4c-23.4,11.1-41.6,20.2-45.2,20.5c-9.6,0.8-84.2,13.1-129.5,12.3
								C273,866,244.2,895.2,249.6,897.6z"/>
							
								<linearGradient id="SVGID_00000146479319761319582980000006826267582372949432_" gradientUnits="userSpaceOnUse" x1="-897.4639" y1="-270.3375" x2="-909.5256" y2="-243.8019" gradientTransform="matrix(-1 0 0 1 -398.5881 1221.3245)">
								<stop  offset="0" style="stop-color:#F9988F"/>
								<stop  offset="1" style="stop-color:#D87873"/>
							</linearGradient>
							<path style="fill:url(#SVGID_00000146479319761319582980000006826267582372949432_);" d="M369.9,984.8
								c0.3,2.1,20.4,1.4,27.7,1c-6,0.9-18.8,4.3-18.1,6.3c0.8,2.3,9.6,0,13.1,0s55-15.5,55-15.5s11.4-1.9,27.4-4.7
								c2.8-0.5,5.8-1,8.9-1.5c2.6-0.5,5.2-0.9,7.9-1.4c2.5-0.4,5.1-0.9,7.8-1.3c33.2-5.8,71.1-12.5,76.1-14
								c3.1-0.9,15-9.1,29.5-19.7c0.9-0.6,1.8-1.3,2.7-2c5.3-3.9,10.8-8,16.4-12.2c0,0-1.3-5.5-3.4-12.9c-4-13.8-11-34-18-35.6
								c-21.6,23-43.2,46.2-49.6,48.5c-5.7,2.3-39.8,14-69.4,24c-24.1,8.2-45.2,15.2-45.2,15.2s-14.6-3.8-27.7-7.3
								s-15.4,3.1-10.4,4.6s18.1,4.2,15.4,11.9s-21.5,3.5-26.1,1.5c-4.6-1.9-14.6-8.1-17.3-5.8c-2.7,2.3,8.5,8.8,9.6,9.6
								c1.2,0.8-1.2,2.7,21.5,6.9C364.5,975.2,369.5,982.1,369.9,984.8z M397.7,985.8c0.9-0.1,1.7-0.2,2.2-0.2
								C400.7,985.6,399.8,985.7,397.7,985.8z"/>
							
								<linearGradient id="SVGID_00000117660206943100687660000011169898335199098784_" gradientUnits="userSpaceOnUse" x1="-1082.9431" y1="-350.9624" x2="-1001.3881" y2="-350.9624" gradientTransform="matrix(-1 0 0 1 -398.5881 1221.3245)">
								<stop  offset="0" style="stop-color:#BF1A00"/>
								<stop  offset="1" style="stop-color:#99180B"/>
							</linearGradient>
							<path style="fill:url(#SVGID_00000117660206943100687660000011169898335199098784_);" d="M602.8,871.3c7,1.6,14,21.8,18,35.6
								c2.1,7.3,3.4,12.9,3.4,12.9c5.3-4,10.7-8.1,15.9-12.1c17.6-13.6,33-25.9,37-29.9c9.1-7.1,8.5-29.1,4.4-43.2l0,0
								c-4.4-9.8-14.2-19.5-31.5-9.4C641.7,830,622.3,850.6,602.8,871.3z"/>
							
								<linearGradient id="SVGID_00000093859146718862527100000007879688151617280447_" gradientUnits="userSpaceOnUse" x1="-1008.3309" y1="-450.3009" x2="-1015.568" y2="-387.5799" gradientTransform="matrix(-1 0 0 1 -398.5881 1221.3245)">
								<stop  offset="0" style="stop-color:#D87873"/>
								<stop  offset="1" style="stop-color:#F9988F"/>
							</linearGradient>
							<path style="fill:url(#SVGID_00000093859146718862527100000007879688151617280447_);" d="M589.6,778.3v0.6
								c0,5,0.1,10.1,0.1,15.2c0,0.6,0,1.3,0,2c0,0.9,0,1.7,0,2.6c0.1,5.6,0.5,11.2,2,16.7c0.2,0.8,0.4,1.5,0.7,2.2
								c2.1,6,5.8,11.6,11.3,14.7c2.3,1.3,4.9,2.1,7.6,2.3c7.8,0.7,16.1-3,19.9-9.8c3.2-5.7,1.6-9.7,1.7-16.3
								c0-2.2-1.4-7.6-1.2-10.7c0.3-5.2,0.8-11.4,1.1-17.5c0.2-4.7,0.2-9.3,0-13.6c0-0.5-0.1-1-0.1-1.5s-0.1-1-0.1-1.5
								s-0.1-1-0.2-1.4c0-0.3-0.1-0.7-0.1-1c0-0.1,0-0.2,0-0.3l0,0c0-0.2,0-0.3-0.1-0.5c-0.4-2.2-0.9-4.2-1.5-5.9
								c-0.8-2-1.9-3.6-3.3-4.5c-4.1-2.6-9.4-2.4-14.2-1.7c-1.8,0.3-3.5,0.6-5.3,1.2c-6.8,2.1-12.9,6.3-15.9,12.6
								c-1.7,3.7-2.2,7.8-2.3,12C589.5,775.5,589.5,776.9,589.6,778.3z"/>
							
								<linearGradient id="SVGID_00000049192528075890904930000001507050310931755418_" gradientUnits="userSpaceOnUse" x1="-964.5783" y1="-518.6055" x2="-967.0499" y2="-424.6851" gradientTransform="matrix(-1 0 0 1 -398.5881 1221.3245)">
								<stop  offset="0" style="stop-color:#E5B313"/>
								<stop  offset="1" style="stop-color:#AF8612"/>
							</linearGradient>
							<path style="fill:url(#SVGID_00000049192528075890904930000001507050310931755418_);" d="M550.2,739.5
								c4.2,22.7,4.5,46.1,0.8,68.9c1-0.4,2-0.8,2.9-1.1c0.9-0.4,1.9-0.7,2.8-1.1c0.6-0.2,1.2-0.5,1.8-0.7c0.5-0.2,1-0.4,1.5-0.6
								c4.7-1.7,9.3-3.3,13.7-4.7c0.6-0.2,1.2-0.4,1.7-0.5c2.9-0.9,5.7-1.7,8.4-2.4c0.4-0.1,0.8-0.2,1.2-0.3s0.7-0.2,1.1-0.3
								c0.3-0.1,0.6-0.2,0.9-0.2c0.4-0.1,0.8-0.2,1.2-0.3c0.3-0.1,0.7-0.2,1-0.2c0.1,0,0.2,0,0.3-0.1c0-0.6,0-1.3,0-2
								c0-5.1-0.1-10.1-0.1-15.2v-0.6c-1.9-0.5-3.7-1.3-5.5-2.3c-12.3-6.9-16.5-22.3-18.9-36.2c-3-17.3-4.8-35.6,1.4-52
								c1.2-3.2,2.8-6.4,4.8-9.3c-1.1-4.2-1.2-8.7-0.3-12.9l-0.1-0.1c-14.4,1.7-24.2,16.5-25.9,30.9
								C543.4,710.9,547.6,725.3,550.2,739.5z"/>
							<path class="st33" d="M589.6,771.7v0.6c0,5,0.1,10.1,0.1,15.2c0,0.6,0,1.3,0,2c0,0.9,0,1.7,0,2.6
								c14.7,1.1,29.5-5.7,40.4-15.8c0.8-0.8,1.8-1.7,2.7-2.6c0.2-4.7,0.2-9.3,0-13.6c0-0.5-0.1-1-0.1-1.5s-0.1-1-0.1-1.5
								s-0.1-1-0.2-1.4c0-0.3-0.1-0.7-0.1-1c0-0.1,0-0.2,0-0.3l0,0c0-0.2,0-0.3-0.1-0.5c-0.4-2.2-0.9-4.2-1.5-5.9
								c-5.9-0.4-12.5,2.7-17.3,5.6c-7.9,4.7-15.8,9.3-23.7,14C589.5,768.9,589.5,770.3,589.6,771.7z"/>
							
								<linearGradient id="SVGID_00000121997427544620232030000008769846933783242147_" gradientUnits="userSpaceOnUse" x1="-973.0037" y1="-527.9671" x2="-1032.0317" y2="-468.939" gradientTransform="matrix(-1 0 0 1 -398.5881 1221.3245)">
								<stop  offset="0" style="stop-color:#F9988F"/>
								<stop  offset="1" style="stop-color:#D87873"/>
							</linearGradient>
							<path style="fill:url(#SVGID_00000121997427544620232030000008769846933783242147_);" d="M565.2,739.9
								c2.4,13.9,6.6,29.3,18.9,36.2c1.8,1,3.6,1.7,5.5,2.3c5.2,1.5,10.7,1.3,16.1,0c4.6-1.1,9.1-3.1,13-5.7
								c4.2-2.8,9.2-6.8,13.5-11.4l0,0c4.4-4.8,8.1-10.2,9.3-15.4c2.7-11.9,1.8-28.5,0.2-40.6c-1.7-13-6.5-26-16-35.1
								c-5.2-5-11.9-8.8-19.1-9.8c-10.6-1.6-21,3-28.8,10.5c-2.4,2.3-4.6,5-6.5,7.8c-2,2.9-3.6,6-4.8,9.3
								C560.4,704.3,562.2,722.5,565.2,739.9z"/>
							
								<linearGradient id="SVGID_00000175288844774794689740000010192169478308565660_" gradientUnits="userSpaceOnUse" x1="-1026.6394" y1="-552.8609" x2="-1132.8636" y2="-323.7748" gradientTransform="matrix(-1 0 0 1 -398.5881 1221.3245)">
								<stop  offset="0" style="stop-color:#E5B313"/>
								<stop  offset="1" style="stop-color:#AF8612"/>
							</linearGradient>
							<path style="fill:url(#SVGID_00000175288844774794689740000010192169478308565660_);" d="M571.3,678.6
								c1.8,7,6.4,13.1,13.2,15.6c8.5,3.2,18.2,0.5,27.1,2.3c12.3,2.5,21.9,14.5,21.9,27c0,0.4,0.6,0.6,0.8,0.1
								c0.7-2,3.1-3.4,5.4-4.4c0,0,0,0,0.1,0c1.8-0.7,3.6,0.9,3.1,2.7l-10.6,37.9c-0.1,0.3-0.1,0.6-0.1,0.9l0,0c0,0.1,0,0.2,0,0.3
								c0.1,0.3,0.1,0.7,0.1,1c0.1,0.5,0.1,0.9,0.2,1.4s0.1,1,0.1,1.5s0.1,1,0.1,1.5c0.6,9.9-0.4,22-1,31.1
								c15.6,3.6,35.9,11.3,45.4,27c0.5,0.7,1,1.5,1.5,2.4c0.2,0.4,0.4,0.8,0.6,1.2c0.3,0.6,0.5,1.2,0.8,1.8
								c0.1,0.3,0.2,0.5,0.3,0.8c0.2,0.6,0.4,1.1,0.6,1.7c0.1,0.3,0.2,0.6,0.3,0.9c0.1,0.3,0.2,0.6,0.3,1c0.2,0.6,0.3,1.3,0.5,1.9
								c0.1,0.3,0.2,0.7,0.2,1c0.1,0.3,0.2,0.7,0.2,1c0.1,0.3,0.2,0.7,0.2,1c0.2,1.1,0.4,2.1,0.6,3.2c0,0.1,0,0.2,0.1,0.4
								c0.2,1,0.3,2,0.4,3c0,0.4,0.1,0.8,0.1,1.1c0.1,0.8,0.2,1.5,0.2,2.3c0,0.1,0,0.2,0,0.3c0.3,4.2,0.3,8.5-0.2,12.4
								c-0.1,0.6-0.2,1.1-0.2,1.7c-0.1,0.6-0.2,1.1-0.3,1.6c0,0.3-0.1,0.5-0.2,0.8c-0.2,0.8-0.4,1.6-0.6,2.3c-1.2,4-3,7.2-5.6,9.2
								c-0.1,0.1-0.2,0.2-0.3,0.3s-0.2,0.2-0.3,0.3c-0.2,0.2-0.3,0.3-0.5,0.5l-0.1,0.1c-0.1,0.1-0.2,0.2-0.2,0.2
								c-0.3,0.3-0.7,0.6-1.1,1c-0.1,0.1-0.1,0.1-0.2,0.2c-0.6,0.5-1.3,1.1-2,1.7c-0.1,0.1-0.2,0.2-0.4,0.3l-0.1,0.1
								c0,0,0,0.1,0,0.2c0,0.1,0,0.1,0,0.2c0,0.1,0,0.2,0,0.3s0,0.2,0,0.4c0,0.6-0.1,1.5-0.2,2.6c0,0.2,0,0.4,0,0.6s0,0.4,0,0.5
								s0,0.2,0,0.3c0,0.5-0.1,1-0.1,1.6c0,0.3,0,0.6-0.1,0.9c0,0.5-0.1,1-0.1,1.5c0,0.3,0,0.6-0.1,1c0,0.5-0.1,1-0.1,1.5
								c0,0.4,0,0.7-0.1,1.1c0,0.3,0,0.6-0.1,0.9c0,0.6-0.1,1.3-0.1,1.9c0,0.7-0.1,1.5-0.1,2.3c0,0.6-0.1,1.2-0.1,1.8
								c0,0.7-0.1,1.4-0.1,2.2c0,0.4,0,0.8-0.1,1.1c0,0.6-0.1,1.2-0.1,1.8c0,0.4-0.1,0.8-0.1,1.3c0,0.1,0,0.3,0,0.4
								c0,0.4,0,0.8-0.1,1.2c0,0.2,0,0.3,0,0.5c0,0.5-0.1,1-0.1,1.5c0,0.1,0,0.3,0,0.4c0,0.8-0.1,1.6-0.1,2.4c0,0.1,0,0.3,0,0.4
								c0,0.5-0.1,1-0.1,1.5s-0.1,0.9-0.1,1.4c0,0.4,0,0.8-0.1,1.2c25.7,8.7,50.8-2.8,55.1-4.8c4.5-2.1,23.4-11.2,34.5-31.5
								c3.9-7.2,6.3-11.5,5.8-17.4c-1.6-17.8-23.6-23.2-31.1-38.2c-6.4-12.8-0.5-27.9,4.5-41.3c5-13.4,8.6-30-0.9-40.6
								c-11-12.3-32.5-8.5-44.6-19.6c-9-8.2-10-21.6-10.8-33.7c-0.7-12.1-2.5-25.7-12.1-33.1c-4.3-3.3-9.6-4.8-14.8-6.3
								c-7.4-2.1-14.8-4.3-22.3-6.5c-8.5-2.5-17.1-4.9-25.9-5c-13.6-0.2-27.8,6.3-33.9,18.5c-0.9,1.8-1.5,3.6-2,5.6
								C570.1,669.9,570.2,674.4,571.3,678.6z"/>
							<path class="st16" d="M491.8,969c2.5-0.4,5.1-0.9,7.8-1.3c33.2-5.8,71.1-12.5,76.1-14c3.1-0.9,15-9.1,29.5-19.7
								c-1.2-1.5-2.6-2.7-4.4-3.4c-8.7-3.3-25.8,6.7-34.3,9.5c-13.1,4.5-26.3,9-39.4,13.5C515,957.8,502.5,962.2,491.8,969z"/>
							<path class="st16" d="M354.3,889.8c7.4,0.4,15.6,0.8,23.9,1.3c34.6,1.8,73.2,3.3,82,1.9c2.9-0.5,7.5-1.8,13.2-3.6
								c-1-1.2-3-2-6.3-2c-33-0.6-66.1-1.2-99.1-1.7c-3.9-0.1-8-0.1-11.3,1.9C355.8,888.1,354.9,888.9,354.3,889.8z"/>
						</g>
					</g>
				</g>
			</g>
		</g>
	</g>
</g>
<rect x="-1290.3" y="283.4" class="st36" width="368.3" height="272.4"/>
<rect x="-1290.3" y="749.8" class="st37" width="368.3" height="272.4"/>
</svg>
