<?xml version="1.0" encoding="utf-8"?>
<!-- Generator: Adobe Illustrator 26.0.1, SVG Export Plug-In . SVG Version: 6.00 Build 0)  -->
<svg version="1.1" id="Layer_1" xmlns="http://www.w3.org/2000/svg" xmlns:xlink="http://www.w3.org/1999/xlink" x="0px" y="0px"
	 viewBox="0 0 828.2 1625" style="enable-background:new 0 0 828.2 1625;" xml:space="preserve">
<style type="text/css">
	.st0{fill:#3478C5;}
	.st1{fill:#032F61;}
	.st2{fill:url(#SVGID_1_);}
	.st3{fill:url(#SVGID_00000050642761071041519360000002549892702737959841_);}
</style>
<rect x="-1290.3" y="396.7" class="st0" width="368.3" height="272.4"/>
<rect x="-1290.3" y="863.1" class="st1" width="368.3" height="272.4"/>
<g>
</g>
<g>
	<linearGradient id="SVGID_1_" gradientUnits="userSpaceOnUse" x1="-628.3864" y1="340.239" x2="-1992.7561" y2="-858.4883">
		<stop  offset="5.029310e-03" style="stop-color:#032F61"/>
		<stop  offset="1" style="stop-color:#3478C5"/>
	</linearGradient>
	<path class="st2" d="M-1597.6-904.6c179.8-26.2,341.5-55,527.5-31.9c186.7,24,397.7,98.3,476.2,234.8
		c76.6,136.1,20.8,334.5-26.2,538.7c-48.6,202.5-87.6,409.5-221.2,498.5s-362.4,61.8-581.8,36.4s-429.1-46.2-578.8-150.2
		C-2151.7,118.4-2238.6-70-2258-258c-18.4-188.6,32-378.9,156-486C-1976.9-851.6-1777.5-876.9-1597.6-904.6z"/>
</g>
<linearGradient id="SVGID_00000013910377513342420210000013800534461494097537_" gradientUnits="userSpaceOnUse" x1="1741.0273" y1="74.0431" x2="4121.0459" y2="3343.2993">
	<stop  offset="0" style="stop-color:#4484CE"/>
	<stop  offset="0.857" style="stop-color:#3C4AA8"/>
	<stop  offset="0.9775" style="stop-color:#33067C"/>
</linearGradient>
<path style="fill:url(#SVGID_00000013910377513342420210000013800534461494097537_);" d="M3008,457.7
	c104.1,118.1,127.3,305.9,85.1,483.1c-43,176.5-150.4,344.5-306.5,423.3c-156.1,79.5-358.5,71.9-570.8,67.5
	c-212.3-4.4-433.6-8.4-549.3-110.6c-115.6-102.2-125.6-304.5-145.5-503.6c-18.1-200.6-45.4-396.8,45.4-516.4
	c92.6-119.8,303.3-162.9,484.2-161.4c180.1,2.4,330.4,50.8,498.2,99.3C2716.4,288.7,2903,338.8,3008,457.7z"/>
<g>
	<path class="st0" d="M873.1,71.2c160.9,66.9,279.8,226.6,390.9,404.5c113.3,177.8,219.9,372.8,252.7,633.3
		c32.9,258.3-9.2,578.9-192.6,665.1c-182.4,85-504.2-63.5-840.8-71.3c-334.2-6.8-683.1,129.2-888.2,33.9
		c-207.5-94.2-269.6-417-267.6-718.5c0-302.5,67.9-581.3,242.6-737.6C-257.7,124.2,23.1,91.3,266.9,61.8
		C510.4,32.6,712.2,5.3,873.1,71.2z"/>
</g>
</svg>
