<svg width="171" height="52" viewBox="0 0 171 52" fill="none" xmlns="http://www.w3.org/2000/svg">
<path d="M2.51562 4.01172H8.73633C11.571 4.01172 13.6263 4.41732 14.9023 5.22852C16.1875 6.0306 16.8301 7.3112 16.8301 9.07031C16.8301 10.2643 16.5475 11.2441 15.9824 12.0098C15.4264 12.7754 14.6836 13.2357 13.7539 13.3906V13.5273C15.0208 13.8099 15.9323 14.3385 16.4883 15.1133C17.0534 15.888 17.3359 16.918 17.3359 18.2031C17.3359 20.026 16.6751 21.4479 15.3535 22.4688C14.041 23.4896 12.2546 24 9.99414 24H2.51562V4.01172ZM6.75391 11.9277H9.21484C10.3633 11.9277 11.1927 11.75 11.7031 11.3945C12.2227 11.0391 12.4824 10.4512 12.4824 9.63086C12.4824 8.86523 12.1999 8.31836 11.6348 7.99023C11.0788 7.65299 10.1947 7.48438 8.98242 7.48438H6.75391V11.9277ZM6.75391 15.291V20.5H9.51562C10.6823 20.5 11.5436 20.2767 12.0996 19.8301C12.6556 19.3835 12.9336 18.6999 12.9336 17.7793C12.9336 16.1204 11.7487 15.291 9.37891 15.291H6.75391ZM44.8984 12.8848H46.2656C47.6055 12.8848 48.5944 12.6615 49.2324 12.2148C49.8704 11.7682 50.1895 11.0664 50.1895 10.1094C50.1895 9.16146 49.8613 8.48698 49.2051 8.08594C48.5579 7.6849 47.5508 7.48438 46.1836 7.48438H44.8984V12.8848ZM44.8984 16.3301V24H40.6602V4.01172H46.4844C49.2005 4.01172 51.2103 4.50846 52.5137 5.50195C53.8171 6.48633 54.4688 7.98568 54.4688 10C54.4688 11.1758 54.1452 12.224 53.498 13.1445C52.8509 14.056 51.9349 14.7715 50.75 15.291L56.6289 24H51.9258L47.1543 16.3301H44.8984ZM76.877 24H71.4902L62.7949 8.87891H62.6719C62.8451 11.5495 62.9316 13.4544 62.9316 14.5938V24H59.1445V4.01172H64.4902L73.1719 18.9824H73.2676C73.1309 16.3848 73.0625 14.5482 73.0625 13.4727V4.01172H76.877V24ZM98.5059 13.8145C98.5059 17.1048 97.5671 19.625 95.6895 21.375C93.821 23.125 91.1185 24 87.582 24H81.9219V4.01172H88.1973C91.4603 4.01172 93.9941 4.87305 95.7988 6.5957C97.6035 8.31836 98.5059 10.7246 98.5059 13.8145ZM94.1035 13.9238C94.1035 9.63086 92.2077 7.48438 88.416 7.48438H86.1602V20.5H87.9785C92.0618 20.5 94.1035 18.3079 94.1035 13.9238ZM120.791 13.9785C120.791 17.2871 119.971 19.8301 118.33 21.6074C116.689 23.3848 114.338 24.2734 111.275 24.2734C108.213 24.2734 105.861 23.3848 104.221 21.6074C102.58 19.8301 101.76 17.278 101.76 13.9512C101.76 10.6243 102.58 8.08594 104.221 6.33594C105.87 4.57682 108.231 3.69727 111.303 3.69727C114.374 3.69727 116.721 4.58138 118.344 6.34961C119.975 8.11784 120.791 10.6608 120.791 13.9785ZM106.203 13.9785C106.203 16.2116 106.627 17.8932 107.475 19.0234C108.322 20.1536 109.589 20.7188 111.275 20.7188C114.657 20.7188 116.348 18.472 116.348 13.9785C116.348 9.47591 114.666 7.22461 111.303 7.22461C109.617 7.22461 108.345 7.79427 107.488 8.93359C106.632 10.0638 106.203 11.7454 106.203 13.9785ZM132.521 12.7754H140.451V23.1387C139.166 23.5579 137.954 23.8496 136.814 24.0137C135.684 24.1868 134.527 24.2734 133.342 24.2734C130.325 24.2734 128.019 23.3893 126.424 21.6211C124.838 19.8438 124.045 17.2962 124.045 13.9785C124.045 10.752 124.965 8.23633 126.807 6.43164C128.657 4.62695 131.218 3.72461 134.49 3.72461C136.541 3.72461 138.519 4.13477 140.424 4.95508L139.016 8.3457C137.557 7.61654 136.04 7.25195 134.463 7.25195C132.631 7.25195 131.163 7.86719 130.061 9.09766C128.958 10.3281 128.406 11.9824 128.406 14.0605C128.406 16.2298 128.848 17.8887 129.732 19.0371C130.626 20.1764 131.92 20.7461 133.615 20.7461C134.499 20.7461 135.397 20.6549 136.309 20.4727V16.3027H132.521V12.7754ZM10.1035 39.7754H18.0332V50.1387C16.748 50.5579 15.5358 50.8496 14.3965 51.0137C13.2663 51.1868 12.1087 51.2734 10.9238 51.2734C7.9069 51.2734 5.60091 50.3893 4.00586 48.6211C2.41992 46.8438 1.62695 44.2962 1.62695 40.9785C1.62695 37.752 2.54753 35.2363 4.38867 33.4316C6.23893 31.627 8.80013 30.7246 12.0723 30.7246C14.123 30.7246 16.1009 31.1348 18.0059 31.9551L16.5977 35.3457C15.1393 34.6165 13.6217 34.252 12.0449 34.252C10.2129 34.252 8.74544 34.8672 7.64258 36.0977C6.53971 37.3281 5.98828 38.9824 5.98828 41.0605C5.98828 43.2298 6.43034 44.8887 7.31445 46.0371C8.20768 47.1764 9.50195 47.7461 11.1973 47.7461C12.0814 47.7461 12.9792 47.6549 13.8906 47.4727V43.3027H10.1035V39.7754ZM27.043 39.8848H28.4102C29.75 39.8848 30.7389 39.6615 31.377 39.2148C32.015 38.7682 32.334 38.0664 32.334 37.1094C32.334 36.1615 32.0059 35.487 31.3496 35.0859C30.7025 34.6849 29.6953 34.4844 28.3281 34.4844H27.043V39.8848ZM27.043 43.3301V51H22.8047V31.0117H28.6289C31.3451 31.0117 33.3548 31.5085 34.6582 32.502C35.9616 33.4863 36.6133 34.9857 36.6133 37C36.6133 38.1758 36.2897 39.224 35.6426 40.1445C34.9954 41.056 34.0794 41.7715 32.8945 42.291L38.7734 51H34.0703L29.2988 43.3301H27.043ZM59.4316 40.9785C59.4316 44.2871 58.6113 46.8301 56.9707 48.6074C55.3301 50.3848 52.9785 51.2734 49.916 51.2734C46.8535 51.2734 44.502 50.3848 42.8613 48.6074C41.2207 46.8301 40.4004 44.278 40.4004 40.9512C40.4004 37.6243 41.2207 35.0859 42.8613 33.3359C44.5111 31.5768 46.8717 30.6973 49.9434 30.6973C53.015 30.6973 55.362 31.5814 56.9844 33.3496C58.6159 35.1178 59.4316 37.6608 59.4316 40.9785ZM44.8438 40.9785C44.8438 43.2116 45.2676 44.8932 46.1152 46.0234C46.9629 47.1536 48.2298 47.7188 49.916 47.7188C53.2975 47.7188 54.9883 45.472 54.9883 40.9785C54.9883 36.4759 53.3066 34.2246 49.9434 34.2246C48.2572 34.2246 46.9857 34.7943 46.1289 35.9336C45.2721 37.0638 44.8438 38.7454 44.8438 40.9785ZM81.7168 40.9785C81.7168 44.2871 80.8965 46.8301 79.2559 48.6074C77.6152 50.3848 75.2637 51.2734 72.2012 51.2734C69.1387 51.2734 66.7871 50.3848 65.1465 48.6074C63.5059 46.8301 62.6855 44.278 62.6855 40.9512C62.6855 37.6243 63.5059 35.0859 65.1465 33.3359C66.7962 31.5768 69.1569 30.6973 72.2285 30.6973C75.3001 30.6973 77.6471 31.5814 79.2695 33.3496C80.901 35.1178 81.7168 37.6608 81.7168 40.9785ZM67.1289 40.9785C67.1289 43.2116 67.5527 44.8932 68.4004 46.0234C69.248 47.1536 70.515 47.7188 72.2012 47.7188C75.5827 47.7188 77.2734 45.472 77.2734 40.9785C77.2734 36.4759 75.5918 34.2246 72.2285 34.2246C70.5423 34.2246 69.2708 34.7943 68.4141 35.9336C67.5573 37.0638 67.1289 38.7454 67.1289 40.9785ZM94.3223 51L89.5098 35.3184H89.3867C89.5599 38.5085 89.6465 40.6367 89.6465 41.7031V51H85.8594V31.0117H91.6289L96.3594 46.2969H96.4414L101.459 31.0117H107.229V51H103.277V41.5391C103.277 41.0924 103.282 40.5775 103.291 39.9941C103.309 39.4108 103.373 37.8613 103.482 35.3457H103.359L98.2051 51H94.3223ZM119.752 51H110.66V48.5938L113.094 47.4727V34.5391L110.66 33.418V31.0117H119.752V33.418L117.318 34.5391V47.4727L119.752 48.5938V51ZM140.916 51H135.529L126.834 35.8789H126.711C126.884 38.5495 126.971 40.4544 126.971 41.5938V51H123.184V31.0117H128.529L137.211 45.9824H137.307C137.17 43.3848 137.102 41.5482 137.102 40.4727V31.0117H140.916V51ZM153.549 39.7754H161.479V50.1387C160.193 50.5579 158.981 50.8496 157.842 51.0137C156.712 51.1868 155.554 51.2734 154.369 51.2734C151.352 51.2734 149.046 50.3893 147.451 48.6211C145.865 46.8438 145.072 44.2962 145.072 40.9785C145.072 37.752 145.993 35.2363 147.834 33.4316C149.684 31.627 152.245 30.7246 155.518 30.7246C157.568 30.7246 159.546 31.1348 161.451 31.9551L160.043 35.3457C158.585 34.6165 157.067 34.252 155.49 34.252C153.658 34.252 152.191 34.8672 151.088 36.0977C149.985 37.3281 149.434 38.9824 149.434 41.0605C149.434 43.2298 149.876 44.8887 150.76 46.0371C151.653 47.1764 152.947 47.7461 154.643 47.7461C155.527 47.7461 156.424 47.6549 157.336 47.4727V43.3027H153.549V39.7754Z" fill="#E6F2FF"/>
<path d="M35.1348 12.1136H36.9687L33.5403 3.89402L28.5111 0H28.4889L23.4597 3.89402L20.0313 12.1136H21.8652L19 24H25.3826L26.7529 16.1744H30.2471L31.6165 24H38L35.1348 12.1136ZM26.5037 11.6689L27.3829 7.10671H29.6225L30.5016 11.6716L26.5037 11.6689Z" fill="#E6F2FF"/>
</svg>
